<?xml version="1.0" encoding="UTF-8"?>
<svg xmlns="http://www.w3.org/2000/svg" xmlns:xlink="http://www.w3.org/1999/xlink" width="600pt" height="400pt" viewBox="0 0 600 400" version="1.1">
<g id="surface1">
<rect x="0" y="0" width="600" height="400" style="fill:rgb(100%,100%,100%);fill-opacity:1;stroke:none;"/>
<path style=" stroke:none;fill-rule:evenodd;fill:rgb(100%,100%,100%);fill-opacity:1;" d="M 68.589844 355.789062 L 588.191406 355.789062 L 588.191406 30.871094 L 68.589844 30.871094 "/>
<path style="fill:none;stroke-width:0.5;stroke-linecap:butt;stroke-linejoin:miter;stroke:rgb(0%,0%,0%);stroke-opacity:0.0980392;stroke-miterlimit:10;" d="M 83.289062 44.210938 L 83.289062 369.128906 " transform="matrix(1,0,0,-1,0,400)"/>
<path style="fill:none;stroke-width:0.5;stroke-linecap:butt;stroke-linejoin:miter;stroke:rgb(0%,0%,0%);stroke-opacity:0.0980392;stroke-miterlimit:10;" d="M 205.839844 44.210938 L 205.839844 369.128906 " transform="matrix(1,0,0,-1,0,400)"/>
<path style="fill:none;stroke-width:0.5;stroke-linecap:butt;stroke-linejoin:miter;stroke:rgb(0%,0%,0%);stroke-opacity:0.0980392;stroke-miterlimit:10;" d="M 328.390625 44.210938 L 328.390625 369.128906 " transform="matrix(1,0,0,-1,0,400)"/>
<path style="fill:none;stroke-width:0.5;stroke-linecap:butt;stroke-linejoin:miter;stroke:rgb(0%,0%,0%);stroke-opacity:0.0980392;stroke-miterlimit:10;" d="M 450.941406 44.210938 L 450.941406 369.128906 " transform="matrix(1,0,0,-1,0,400)"/>
<path style="fill:none;stroke-width:0.5;stroke-linecap:butt;stroke-linejoin:miter;stroke:rgb(0%,0%,0%);stroke-opacity:0.0980392;stroke-miterlimit:10;" d="M 573.480469 44.210938 L 573.480469 369.128906 " transform="matrix(1,0,0,-1,0,400)"/>
<path style="fill:none;stroke-width:1;stroke-linecap:butt;stroke-linejoin:miter;stroke:rgb(0%,0%,0%);stroke-opacity:1;stroke-miterlimit:10;" d="M 68.589844 44.210938 L 588.191406 44.210938 " transform="matrix(1,0,0,-1,0,400)"/>
<path style="fill:none;stroke-width:1;stroke-linecap:butt;stroke-linejoin:miter;stroke:rgb(0%,0%,0%);stroke-opacity:1;stroke-miterlimit:10;" d="M 83.289062 44.210938 L 83.289062 48.101562 " transform="matrix(1,0,0,-1,0,400)"/>
<path style="fill:none;stroke-width:1;stroke-linecap:butt;stroke-linejoin:miter;stroke:rgb(0%,0%,0%);stroke-opacity:1;stroke-miterlimit:10;" d="M 205.839844 44.210938 L 205.839844 48.101562 " transform="matrix(1,0,0,-1,0,400)"/>
<path style="fill:none;stroke-width:1;stroke-linecap:butt;stroke-linejoin:miter;stroke:rgb(0%,0%,0%);stroke-opacity:1;stroke-miterlimit:10;" d="M 328.390625 44.210938 L 328.390625 48.101562 " transform="matrix(1,0,0,-1,0,400)"/>
<path style="fill:none;stroke-width:1;stroke-linecap:butt;stroke-linejoin:miter;stroke:rgb(0%,0%,0%);stroke-opacity:1;stroke-miterlimit:10;" d="M 450.941406 44.210938 L 450.941406 48.101562 " transform="matrix(1,0,0,-1,0,400)"/>
<path style="fill:none;stroke-width:1;stroke-linecap:butt;stroke-linejoin:miter;stroke:rgb(0%,0%,0%);stroke-opacity:1;stroke-miterlimit:10;" d="M 573.480469 44.210938 L 573.480469 48.101562 " transform="matrix(1,0,0,-1,0,400)"/>
<path style=" stroke:none;fill-rule:evenodd;fill:rgb(0%,0%,0%);fill-opacity:1;" d="M 78.671875 363.089844 C 78.671875 363.089844 77.769531 363.089844 77.308594 363.980469 C 77.308594 363.980469 76.859375 364.871094 76.859375 366.648438 C 76.859375 366.648438 76.859375 368.429688 77.308594 369.320312 C 77.308594 369.320312 77.769531 370.199219 78.671875 370.199219 C 78.671875 370.199219 79.578125 370.199219 80.03125 369.320312 C 80.03125 369.320312 80.488281 368.429688 80.488281 366.648438 C 80.488281 366.648438 80.488281 364.871094 80.03125 363.980469 C 80.03125 363.980469 79.578125 363.089844 78.671875 363.089844 M 78.671875 362.171875 C 78.671875 362.171875 80.121094 362.171875 80.890625 363.320312 C 80.890625 363.320312 81.660156 364.460938 81.660156 366.648438 C 81.660156 366.648438 81.660156 368.828125 80.890625 369.980469 C 80.890625 369.980469 80.121094 371.128906 78.671875 371.128906 C 78.671875 371.128906 77.21875 371.128906 76.449219 369.980469 C 76.449219 369.980469 75.679688 368.828125 75.679688 366.648438 C 75.679688 366.648438 75.679688 364.460938 76.449219 363.320312 C 76.449219 363.320312 77.21875 362.171875 78.671875 362.171875 Z M 78.671875 362.171875 "/>
<path style=" stroke:none;fill-rule:evenodd;fill:rgb(0%,0%,0%);fill-opacity:1;" d="M 82.921875 369.488281 L 84.148438 369.488281 L 84.148438 370.960938 L 82.921875 370.960938 Z M 82.921875 369.488281 "/>
<path style=" stroke:none;fill-rule:evenodd;fill:rgb(0%,0%,0%);fill-opacity:1;" d="M 87.910156 363.089844 C 87.910156 363.089844 87.011719 363.089844 86.550781 363.980469 C 86.550781 363.980469 86.101562 364.871094 86.101562 366.648438 C 86.101562 366.648438 86.101562 368.429688 86.550781 369.320312 C 86.550781 369.320312 87.011719 370.199219 87.910156 370.199219 C 87.910156 370.199219 88.820312 370.199219 89.269531 369.320312 C 89.269531 369.320312 89.730469 368.429688 89.730469 366.648438 C 89.730469 366.648438 89.730469 364.871094 89.269531 363.980469 C 89.269531 363.980469 88.820312 363.089844 87.910156 363.089844 M 87.910156 362.171875 C 87.910156 362.171875 89.371094 362.171875 90.128906 363.320312 C 90.128906 363.320312 90.898438 364.460938 90.898438 366.648438 C 90.898438 366.648438 90.898438 368.828125 90.128906 369.980469 C 90.128906 369.980469 89.371094 371.128906 87.910156 371.128906 C 87.910156 371.128906 86.460938 371.128906 85.691406 369.980469 C 85.691406 369.980469 84.929688 368.828125 84.929688 366.648438 C 84.929688 366.648438 84.929688 364.460938 85.691406 363.320312 C 85.691406 363.320312 86.460938 362.171875 87.910156 362.171875 Z M 87.910156 362.171875 "/>
<path style=" stroke:none;fill-rule:evenodd;fill:rgb(0%,0%,0%);fill-opacity:1;" d="M 200.011719 369.980469 L 204.089844 369.980469 L 204.089844 370.960938 L 198.601562 370.960938 L 198.601562 369.980469 C 198.601562 369.980469 199.269531 369.289062 200.410156 368.128906 C 200.410156 368.128906 201.558594 366.96875 201.859375 366.628906 C 201.859375 366.628906 202.421875 366 202.640625 365.570312 C 202.640625 365.570312 202.871094 365.128906 202.871094 364.710938 C 202.871094 364.710938 202.871094 364.019531 202.378906 363.578125 C 202.378906 363.578125 201.898438 363.148438 201.121094 363.148438 C 201.121094 363.148438 200.570312 363.148438 199.960938 363.339844 C 199.960938 363.339844 199.351562 363.53125 198.660156 363.921875 L 198.660156 362.738281 C 198.660156 362.738281 199.359375 362.460938 199.980469 362.308594 C 199.980469 362.308594 200.589844 362.171875 201.101562 362.171875 C 201.101562 362.171875 202.441406 362.171875 203.238281 362.839844 C 203.238281 362.839844 204.039062 363.511719 204.039062 364.628906 C 204.039062 364.628906 204.039062 365.160156 203.839844 365.640625 C 203.839844 365.640625 203.640625 366.121094 203.109375 366.769531 C 203.109375 366.769531 202.96875 366.941406 202.191406 367.738281 C 202.191406 367.738281 201.421875 368.539062 200.011719 369.980469 Z M 200.011719 369.980469 "/>
<path style=" stroke:none;fill-rule:evenodd;fill:rgb(0%,0%,0%);fill-opacity:1;" d="M 205.351562 369.488281 L 206.570312 369.488281 L 206.570312 370.960938 L 205.351562 370.960938 Z M 205.351562 369.488281 "/>
<path style=" stroke:none;fill-rule:evenodd;fill:rgb(0%,0%,0%);fill-opacity:1;" d="M 207.851562 362.320312 L 212.441406 362.320312 L 212.441406 363.308594 L 208.921875 363.308594 L 208.921875 365.421875 C 208.921875 365.421875 209.179688 365.339844 209.429688 365.300781 C 209.429688 365.300781 209.691406 365.25 209.941406 365.25 C 209.941406 365.25 211.390625 365.25 212.230469 366.039062 C 212.230469 366.039062 213.078125 366.839844 213.078125 368.191406 C 213.078125 368.191406 213.078125 369.589844 212.210938 370.359375 C 212.210938 370.359375 211.339844 371.128906 209.761719 371.128906 C 209.761719 371.128906 209.21875 371.128906 208.648438 371.039062 C 208.648438 371.039062 208.089844 370.949219 207.488281 370.761719 L 207.488281 369.589844 C 207.488281 369.589844 208.011719 369.871094 208.570312 370.011719 C 208.570312 370.011719 209.121094 370.148438 209.738281 370.148438 C 209.738281 370.148438 210.738281 370.148438 211.328125 369.621094 C 211.328125 369.621094 211.910156 369.089844 211.910156 368.191406 C 211.910156 368.191406 211.910156 367.289062 211.328125 366.761719 C 211.328125 366.761719 210.738281 366.230469 209.738281 366.230469 C 209.738281 366.230469 209.269531 366.230469 208.800781 366.339844 C 208.800781 366.339844 208.339844 366.441406 207.851562 366.660156 Z M 207.851562 362.320312 "/>
<path style=" stroke:none;fill-rule:evenodd;fill:rgb(0%,0%,0%);fill-opacity:1;" d="M 321.339844 362.320312 L 325.929688 362.320312 L 325.929688 363.308594 L 322.410156 363.308594 L 322.410156 365.421875 C 322.410156 365.421875 322.660156 365.339844 322.921875 365.300781 C 322.921875 365.300781 323.171875 365.25 323.429688 365.25 C 323.429688 365.25 324.871094 365.25 325.71875 366.039062 C 325.71875 366.039062 326.558594 366.839844 326.558594 368.191406 C 326.558594 368.191406 326.558594 369.589844 325.691406 370.359375 C 325.691406 370.359375 324.828125 371.128906 323.25 371.128906 C 323.25 371.128906 322.699219 371.128906 322.128906 371.039062 C 322.128906 371.039062 321.570312 370.949219 320.96875 370.761719 L 320.96875 369.589844 C 320.96875 369.589844 321.488281 369.871094 322.050781 370.011719 C 322.050781 370.011719 322.601562 370.148438 323.21875 370.148438 C 323.21875 370.148438 324.21875 370.148438 324.808594 369.621094 C 324.808594 369.621094 325.390625 369.089844 325.390625 368.191406 C 325.390625 368.191406 325.390625 367.289062 324.808594 366.761719 C 324.808594 366.761719 324.21875 366.230469 323.21875 366.230469 C 323.21875 366.230469 322.75 366.230469 322.289062 366.339844 C 322.289062 366.339844 321.820312 366.441406 321.339844 366.660156 Z M 321.339844 362.320312 "/>
<path style=" stroke:none;fill-rule:evenodd;fill:rgb(0%,0%,0%);fill-opacity:1;" d="M 327.828125 369.488281 L 329.050781 369.488281 L 329.050781 370.960938 L 327.828125 370.960938 Z M 327.828125 369.488281 "/>
<path style=" stroke:none;fill-rule:evenodd;fill:rgb(0%,0%,0%);fill-opacity:1;" d="M 332.820312 363.089844 C 332.820312 363.089844 331.910156 363.089844 331.460938 363.980469 C 331.460938 363.980469 331.011719 364.871094 331.011719 366.648438 C 331.011719 366.648438 331.011719 368.429688 331.460938 369.320312 C 331.460938 369.320312 331.910156 370.199219 332.820312 370.199219 C 332.820312 370.199219 333.730469 370.199219 334.179688 369.320312 C 334.179688 369.320312 334.628906 368.429688 334.628906 366.648438 C 334.628906 366.648438 334.628906 364.871094 334.179688 363.980469 C 334.179688 363.980469 333.730469 363.089844 332.820312 363.089844 M 332.820312 362.171875 C 332.820312 362.171875 334.269531 362.171875 335.03125 363.320312 C 335.03125 363.320312 335.800781 364.460938 335.800781 366.648438 C 335.800781 366.648438 335.800781 368.828125 335.03125 369.980469 C 335.03125 369.980469 334.269531 371.128906 332.820312 371.128906 C 332.820312 371.128906 331.359375 371.128906 330.601562 369.980469 C 330.601562 369.980469 329.828125 368.828125 329.828125 366.648438 C 329.828125 366.648438 329.828125 364.460938 330.601562 363.320312 C 330.601562 363.320312 331.359375 362.171875 332.820312 362.171875 Z M 332.820312 362.171875 "/>
<path style=" stroke:none;fill-rule:evenodd;fill:rgb(0%,0%,0%);fill-opacity:1;" d="M 443.660156 362.320312 L 449.21875 362.320312 L 449.21875 362.820312 L 446.078125 370.960938 L 444.859375 370.960938 L 447.808594 363.308594 L 443.660156 363.308594 Z M 443.660156 362.320312 "/>
<path style=" stroke:none;fill-rule:evenodd;fill:rgb(0%,0%,0%);fill-opacity:1;" d="M 450.480469 369.488281 L 451.710938 369.488281 L 451.710938 370.960938 L 450.480469 370.960938 Z M 450.480469 369.488281 "/>
<path style=" stroke:none;fill-rule:evenodd;fill:rgb(0%,0%,0%);fill-opacity:1;" d="M 452.980469 362.320312 L 457.570312 362.320312 L 457.570312 363.308594 L 454.050781 363.308594 L 454.050781 365.421875 C 454.050781 365.421875 454.308594 365.339844 454.558594 365.300781 C 454.558594 365.300781 454.820312 365.25 455.070312 365.25 C 455.070312 365.25 456.519531 365.25 457.359375 366.039062 C 457.359375 366.039062 458.210938 366.839844 458.210938 368.191406 C 458.210938 368.191406 458.210938 369.589844 457.339844 370.359375 C 457.339844 370.359375 456.46875 371.128906 454.890625 371.128906 C 454.890625 371.128906 454.351562 371.128906 453.78125 371.039062 C 453.78125 371.039062 453.21875 370.949219 452.621094 370.761719 L 452.621094 369.589844 C 452.621094 369.589844 453.140625 369.871094 453.699219 370.011719 C 453.699219 370.011719 454.25 370.148438 454.871094 370.148438 C 454.871094 370.148438 455.871094 370.148438 456.460938 369.621094 C 456.460938 369.621094 457.039062 369.089844 457.039062 368.191406 C 457.039062 368.191406 457.039062 367.289062 456.460938 366.761719 C 456.460938 366.761719 455.871094 366.230469 454.871094 366.230469 C 454.871094 366.230469 454.398438 366.230469 453.929688 366.339844 C 453.929688 366.339844 453.46875 366.441406 452.980469 366.660156 Z M 452.980469 362.320312 "/>
<path style=" stroke:none;fill-rule:evenodd;fill:rgb(0%,0%,0%);fill-opacity:1;" d="M 563.078125 369.980469 L 564.988281 369.980469 L 564.988281 363.390625 L 562.910156 363.800781 L 562.910156 362.738281 L 564.980469 362.320312 L 566.148438 362.320312 L 566.148438 369.980469 L 568.058594 369.980469 L 568.058594 370.960938 L 563.078125 370.960938 Z M 563.078125 369.980469 "/>
<path style=" stroke:none;fill-rule:evenodd;fill:rgb(0%,0%,0%);fill-opacity:1;" d="M 571.828125 363.089844 C 571.828125 363.089844 570.921875 363.089844 570.46875 363.980469 C 570.46875 363.980469 570.011719 364.871094 570.011719 366.648438 C 570.011719 366.648438 570.011719 368.429688 570.46875 369.320312 C 570.46875 369.320312 570.921875 370.199219 571.828125 370.199219 C 571.828125 370.199219 572.730469 370.199219 573.191406 369.320312 C 573.191406 369.320312 573.640625 368.429688 573.640625 366.648438 C 573.640625 366.648438 573.640625 364.871094 573.191406 363.980469 C 573.191406 363.980469 572.730469 363.089844 571.828125 363.089844 M 571.828125 362.171875 C 571.828125 362.171875 573.28125 362.171875 574.039062 363.320312 C 574.039062 363.320312 574.808594 364.460938 574.808594 366.648438 C 574.808594 366.648438 574.808594 368.828125 574.039062 369.980469 C 574.039062 369.980469 573.28125 371.128906 571.828125 371.128906 C 571.828125 371.128906 570.371094 371.128906 569.601562 369.980469 C 569.601562 369.980469 568.839844 368.828125 568.839844 366.648438 C 568.839844 366.648438 568.839844 364.460938 569.601562 363.320312 C 569.601562 363.320312 570.371094 362.171875 571.828125 362.171875 Z M 571.828125 362.171875 "/>
<path style=" stroke:none;fill-rule:evenodd;fill:rgb(0%,0%,0%);fill-opacity:1;" d="M 576.078125 369.488281 L 577.300781 369.488281 L 577.300781 370.960938 L 576.078125 370.960938 Z M 576.078125 369.488281 "/>
<path style=" stroke:none;fill-rule:evenodd;fill:rgb(0%,0%,0%);fill-opacity:1;" d="M 581.070312 363.089844 C 581.070312 363.089844 580.160156 363.089844 579.710938 363.980469 C 579.710938 363.980469 579.261719 364.871094 579.261719 366.648438 C 579.261719 366.648438 579.261719 368.429688 579.710938 369.320312 C 579.710938 369.320312 580.160156 370.199219 581.070312 370.199219 C 581.070312 370.199219 581.980469 370.199219 582.429688 369.320312 C 582.429688 369.320312 582.878906 368.429688 582.878906 366.648438 C 582.878906 366.648438 582.878906 364.871094 582.429688 363.980469 C 582.429688 363.980469 581.980469 363.089844 581.070312 363.089844 M 581.070312 362.171875 C 581.070312 362.171875 582.519531 362.171875 583.28125 363.320312 C 583.28125 363.320312 584.050781 364.460938 584.050781 366.648438 C 584.050781 366.648438 584.050781 368.828125 583.28125 369.980469 C 583.28125 369.980469 582.519531 371.128906 581.070312 371.128906 C 581.070312 371.128906 579.609375 371.128906 578.839844 369.980469 C 578.839844 369.980469 578.078125 368.828125 578.078125 366.648438 C 578.078125 366.648438 578.078125 364.460938 578.839844 363.320312 C 578.839844 363.320312 579.609375 362.171875 581.070312 362.171875 Z M 581.070312 362.171875 "/>
<path style=" stroke:none;fill-rule:evenodd;fill:rgb(0%,0%,0%);fill-opacity:1;" d="M 304.929688 381.5 L 306.878906 387.011719 L 309.660156 380.101562 L 311.210938 380.101562 L 307.609375 389.011719 L 307.609375 392.398438 L 306.140625 392.398438 L 306.140625 389.011719 L 303.800781 382.359375 C 303.800781 382.359375 303.449219 381.359375 302.699219 381.359375 L 302.308594 381.359375 L 302.308594 380.101562 L 302.859375 380.101562 C 302.859375 380.101562 304.429688 380.101562 304.929688 381.5 Z M 304.929688 381.5 "/>
<path style=" stroke:none;fill-rule:evenodd;fill:rgb(0%,0%,0%);fill-opacity:1;" d="M 319.148438 384.558594 C 319.148438 384.558594 319.148438 382.949219 318.480469 382.03125 C 318.480469 382.03125 317.820312 381.109375 316.648438 381.109375 C 316.648438 381.109375 315.488281 381.109375 314.820312 382.03125 C 314.820312 382.03125 314.160156 382.949219 314.160156 384.558594 C 314.160156 384.558594 314.160156 386.179688 314.820312 387.101562 C 314.820312 387.101562 315.488281 388.019531 316.648438 388.019531 C 316.648438 388.019531 317.820312 388.019531 318.480469 387.101562 C 318.480469 387.101562 319.148438 386.179688 319.148438 384.558594 M 314.160156 381.449219 C 314.160156 381.449219 314.628906 380.660156 315.328125 380.269531 C 315.328125 380.269531 316.03125 379.878906 317.011719 379.878906 C 317.011719 379.878906 318.640625 379.878906 319.648438 381.171875 C 319.648438 381.171875 320.671875 382.460938 320.671875 384.558594 C 320.671875 384.558594 320.671875 386.660156 319.648438 387.949219 C 319.648438 387.949219 318.640625 389.238281 317.011719 389.238281 C 317.011719 389.238281 316.03125 389.238281 315.328125 388.859375 C 315.328125 388.859375 314.628906 388.46875 314.160156 387.671875 L 314.160156 389.011719 L 312.691406 389.011719 L 312.691406 376.628906 L 314.160156 376.628906 Z M 314.160156 381.449219 "/>
<path style=" stroke:none;fill-rule:evenodd;fill:rgb(0%,0%,0%);fill-opacity:1;" d="M 327.25 376.628906 L 330.621094 376.628906 L 330.621094 377.769531 L 328.710938 377.769531 L 328.710938 390.019531 L 330.621094 390.019531 L 330.621094 391.160156 L 327.25 391.160156 Z M 327.25 376.628906 "/>
<path style=" stroke:none;fill-rule:evenodd;fill:rgb(0%,0%,0%);fill-opacity:1;" d="M 338.019531 381.449219 L 338.019531 376.628906 L 339.480469 376.628906 L 339.480469 389.011719 L 338.019531 389.011719 L 338.019531 387.671875 C 338.019531 387.671875 337.558594 388.46875 336.851562 388.859375 C 336.851562 388.859375 336.148438 389.238281 335.160156 389.238281 C 335.160156 389.238281 333.550781 389.238281 332.53125 387.949219 C 332.53125 387.949219 331.519531 386.660156 331.519531 384.558594 C 331.519531 384.558594 331.519531 382.460938 332.53125 381.171875 C 332.53125 381.171875 333.550781 379.878906 335.160156 379.878906 C 335.160156 379.878906 336.148438 379.878906 336.851562 380.269531 C 336.851562 380.269531 337.558594 380.660156 338.019531 381.449219 M 333.03125 384.558594 C 333.03125 384.558594 333.03125 386.179688 333.691406 387.101562 C 333.691406 387.101562 334.359375 388.019531 335.519531 388.019531 C 335.519531 388.019531 336.679688 388.019531 337.351562 387.101562 C 337.351562 387.101562 338.019531 386.179688 338.019531 384.558594 C 338.019531 384.558594 338.019531 382.949219 337.351562 382.03125 C 337.351562 382.03125 336.679688 381.109375 335.519531 381.109375 C 335.519531 381.109375 334.359375 381.109375 333.691406 382.03125 C 333.691406 382.03125 333.03125 382.949219 333.03125 384.558594 Z M 333.03125 384.558594 "/>
<path style=" stroke:none;fill-rule:evenodd;fill:rgb(0%,0%,0%);fill-opacity:1;" d="M 342.691406 383.339844 L 342.691406 387.691406 L 345.269531 387.691406 C 345.269531 387.691406 346.570312 387.691406 347.191406 387.160156 C 347.191406 387.160156 347.808594 386.621094 347.808594 385.511719 C 347.808594 385.511719 347.808594 384.398438 347.191406 383.871094 C 347.191406 383.871094 346.570312 383.339844 345.269531 383.339844 L 342.691406 383.339844 M 342.691406 378.449219 L 342.691406 382.03125 L 345.070312 382.03125 C 345.070312 382.03125 346.25 382.03125 346.820312 381.589844 C 346.820312 381.589844 347.398438 381.148438 347.398438 380.238281 C 347.398438 380.238281 347.398438 379.339844 346.820312 378.898438 C 346.820312 378.898438 346.25 378.449219 345.070312 378.449219 L 342.691406 378.449219 M 341.078125 377.128906 L 345.191406 377.128906 C 345.191406 377.128906 347.03125 377.128906 348.019531 377.890625 C 348.019531 377.890625 349.019531 378.660156 349.019531 380.070312 C 349.019531 380.070312 349.019531 381.160156 348.511719 381.800781 C 348.511719 381.800781 348 382.449219 347.011719 382.609375 C 347.011719 382.609375 348.199219 382.859375 348.851562 383.671875 C 348.851562 383.671875 349.511719 384.480469 349.511719 385.679688 C 349.511719 385.679688 349.511719 387.28125 348.429688 388.140625 C 348.429688 388.140625 347.351562 389.011719 345.351562 389.011719 L 341.078125 389.011719 Z M 341.078125 377.128906 "/>
<path style=" stroke:none;fill-rule:evenodd;fill:rgb(0%,0%,0%);fill-opacity:1;" d="M 354.46875 376.628906 L 354.46875 391.160156 L 351.089844 391.160156 L 351.089844 390.019531 L 352.988281 390.019531 L 352.988281 377.769531 L 351.089844 377.769531 L 351.089844 376.628906 Z M 354.46875 376.628906 "/>
<path style="fill:none;stroke-width:0.5;stroke-linecap:butt;stroke-linejoin:miter;stroke:rgb(0%,0%,0%);stroke-opacity:0.0980392;stroke-miterlimit:10;" d="M 68.589844 90.691406 L 588.191406 90.691406 " transform="matrix(1,0,0,-1,0,400)"/>
<path style="fill:none;stroke-width:0.5;stroke-linecap:butt;stroke-linejoin:miter;stroke:rgb(0%,0%,0%);stroke-opacity:0.0980392;stroke-miterlimit:10;" d="M 68.589844 165.960938 L 588.191406 165.960938 " transform="matrix(1,0,0,-1,0,400)"/>
<path style="fill:none;stroke-width:0.5;stroke-linecap:butt;stroke-linejoin:miter;stroke:rgb(0%,0%,0%);stroke-opacity:0.0980392;stroke-miterlimit:10;" d="M 68.589844 241.21875 L 588.191406 241.21875 " transform="matrix(1,0,0,-1,0,400)"/>
<path style="fill:none;stroke-width:0.5;stroke-linecap:butt;stroke-linejoin:miter;stroke:rgb(0%,0%,0%);stroke-opacity:0.0980392;stroke-miterlimit:10;" d="M 68.589844 316.488281 L 588.191406 316.488281 " transform="matrix(1,0,0,-1,0,400)"/>
<path style="fill:none;stroke-width:1;stroke-linecap:butt;stroke-linejoin:miter;stroke:rgb(0%,0%,0%);stroke-opacity:1;stroke-miterlimit:10;" d="M 68.589844 44.210938 L 68.589844 369.128906 " transform="matrix(1,0,0,-1,0,400)"/>
<path style="fill:none;stroke-width:1;stroke-linecap:butt;stroke-linejoin:miter;stroke:rgb(0%,0%,0%);stroke-opacity:1;stroke-miterlimit:10;" d="M 68.589844 90.691406 L 74.820312 90.691406 " transform="matrix(1,0,0,-1,0,400)"/>
<path style="fill:none;stroke-width:1;stroke-linecap:butt;stroke-linejoin:miter;stroke:rgb(0%,0%,0%);stroke-opacity:1;stroke-miterlimit:10;" d="M 68.589844 165.960938 L 74.820312 165.960938 " transform="matrix(1,0,0,-1,0,400)"/>
<path style="fill:none;stroke-width:1;stroke-linecap:butt;stroke-linejoin:miter;stroke:rgb(0%,0%,0%);stroke-opacity:1;stroke-miterlimit:10;" d="M 68.589844 241.21875 L 74.820312 241.21875 " transform="matrix(1,0,0,-1,0,400)"/>
<path style="fill:none;stroke-width:1;stroke-linecap:butt;stroke-linejoin:miter;stroke:rgb(0%,0%,0%);stroke-opacity:1;stroke-miterlimit:10;" d="M 68.589844 316.488281 L 74.820312 316.488281 " transform="matrix(1,0,0,-1,0,400)"/>
<path style=" stroke:none;fill-rule:evenodd;fill:rgb(0%,0%,0%);fill-opacity:1;" d="M 29.078125 314.25 L 30.988281 314.25 L 30.988281 307.660156 L 28.910156 308.078125 L 28.910156 307.011719 L 30.980469 306.601562 L 32.148438 306.601562 L 32.148438 314.25 L 34.058594 314.25 L 34.058594 315.238281 L 29.078125 315.238281 Z M 29.078125 314.25 "/>
<path style=" stroke:none;fill-rule:evenodd;fill:rgb(0%,0%,0%);fill-opacity:1;" d="M 37.820312 307.371094 C 37.820312 307.371094 36.921875 307.371094 36.46875 308.261719 C 36.46875 308.261719 36.011719 309.140625 36.011719 310.929688 C 36.011719 310.929688 36.011719 312.699219 36.46875 313.589844 C 36.46875 313.589844 36.921875 314.480469 37.820312 314.480469 C 37.820312 314.480469 38.730469 314.480469 39.179688 313.589844 C 39.179688 313.589844 39.640625 312.699219 39.640625 310.929688 C 39.640625 310.929688 39.640625 309.140625 39.179688 308.261719 C 39.179688 308.261719 38.730469 307.371094 37.820312 307.371094 M 37.820312 306.441406 C 37.820312 306.441406 39.28125 306.441406 40.039062 307.589844 C 40.039062 307.589844 40.808594 308.738281 40.808594 310.929688 C 40.808594 310.929688 40.808594 313.109375 40.039062 314.261719 C 40.039062 314.261719 39.28125 315.410156 37.820312 315.410156 C 37.820312 315.410156 36.371094 315.410156 35.601562 314.261719 C 35.601562 314.261719 34.839844 313.109375 34.839844 310.929688 C 34.839844 310.929688 34.839844 308.738281 35.601562 307.589844 C 35.601562 307.589844 36.371094 306.441406 37.820312 306.441406 Z M 37.820312 306.441406 "/>
<path style=" stroke:none;fill-rule:evenodd;fill:rgb(0%,0%,0%);fill-opacity:1;" d="M 40.808594 304.96875 L 46.839844 304.96875 L 46.839844 305.769531 L 40.808594 305.769531 Z M 40.808594 304.96875 "/>
<path style=" stroke:none;fill-rule:evenodd;fill:rgb(0%,0%,0%);fill-opacity:1;" d="M 48.03125 307.589844 L 49.578125 307.589844 L 49.578125 302.230469 L 47.898438 302.570312 L 47.898438 301.699219 L 49.578125 301.359375 L 50.53125 301.359375 L 50.53125 307.589844 L 52.078125 307.589844 L 52.078125 308.378906 L 48.03125 308.378906 Z M 48.03125 307.589844 "/>
<path style=" stroke:none;fill-rule:evenodd;fill:rgb(0%,0%,0%);fill-opacity:1;" d="M 53.109375 307.191406 L 54.101562 307.191406 L 54.101562 308.378906 L 53.109375 308.378906 Z M 53.109375 307.191406 "/>
<path style=" stroke:none;fill-rule:evenodd;fill:rgb(0%,0%,0%);fill-opacity:1;" d="M 57.160156 301.988281 C 57.160156 301.988281 56.429688 301.988281 56.050781 302.710938 C 56.050781 302.710938 55.691406 303.429688 55.691406 304.878906 C 55.691406 304.878906 55.691406 306.328125 56.050781 307.050781 C 56.050781 307.050781 56.429688 307.769531 57.160156 307.769531 C 57.160156 307.769531 57.898438 307.769531 58.261719 307.050781 C 58.261719 307.050781 58.640625 306.328125 58.640625 304.878906 C 58.640625 304.878906 58.640625 303.429688 58.261719 302.710938 C 58.261719 302.710938 57.898438 301.988281 57.160156 301.988281 M 57.160156 301.238281 C 57.160156 301.238281 58.339844 301.238281 58.960938 302.171875 C 58.960938 302.171875 59.589844 303.101562 59.589844 304.878906 C 59.589844 304.878906 59.589844 306.648438 58.960938 307.589844 C 58.960938 307.589844 58.339844 308.519531 57.160156 308.519531 C 57.160156 308.519531 55.980469 308.519531 55.351562 307.589844 C 55.351562 307.589844 54.730469 306.648438 54.730469 304.878906 C 54.730469 304.878906 54.730469 303.101562 55.351562 302.171875 C 55.351562 302.171875 55.980469 301.238281 57.160156 301.238281 Z M 57.160156 301.238281 "/>
<path style=" stroke:none;fill-rule:evenodd;fill:rgb(0%,0%,0%);fill-opacity:1;" d="M 28.851562 238.988281 L 30.761719 238.988281 L 30.761719 232.398438 L 28.679688 232.808594 L 28.679688 231.75 L 30.75 231.328125 L 31.921875 231.328125 L 31.921875 238.988281 L 33.828125 238.988281 L 33.828125 239.96875 L 28.851562 239.96875 Z M 28.851562 238.988281 "/>
<path style=" stroke:none;fill-rule:evenodd;fill:rgb(0%,0%,0%);fill-opacity:1;" d="M 37.589844 232.101562 C 37.589844 232.101562 36.691406 232.101562 36.230469 232.988281 C 36.230469 232.988281 35.78125 233.878906 35.78125 235.660156 C 35.78125 235.660156 35.78125 237.441406 36.230469 238.328125 C 36.230469 238.328125 36.691406 239.210938 37.589844 239.210938 C 37.589844 239.210938 38.5 239.210938 38.949219 238.328125 C 38.949219 238.328125 39.410156 237.441406 39.410156 235.660156 C 39.410156 235.660156 39.410156 233.878906 38.949219 232.988281 C 38.949219 232.988281 38.5 232.101562 37.589844 232.101562 M 37.589844 231.179688 C 37.589844 231.179688 39.050781 231.179688 39.808594 232.328125 C 39.808594 232.328125 40.578125 233.46875 40.578125 235.660156 C 40.578125 235.660156 40.578125 237.839844 39.808594 238.988281 C 39.808594 238.988281 39.050781 240.140625 37.589844 240.140625 C 37.589844 240.140625 36.140625 240.140625 35.371094 238.988281 C 35.371094 238.988281 34.609375 237.839844 34.609375 235.660156 C 34.609375 235.660156 34.609375 233.46875 35.371094 232.328125 C 35.371094 232.328125 36.140625 231.179688 37.589844 231.179688 Z M 37.589844 231.179688 "/>
<path style=" stroke:none;fill-rule:evenodd;fill:rgb(0%,0%,0%);fill-opacity:1;" d="M 40.578125 229.699219 L 46.609375 229.699219 L 46.609375 230.5 L 40.578125 230.5 Z M 40.578125 229.699219 "/>
<path style=" stroke:none;fill-rule:evenodd;fill:rgb(0%,0%,0%);fill-opacity:1;" d="M 49.671875 226.71875 C 49.671875 226.71875 48.941406 226.71875 48.558594 227.449219 C 48.558594 227.449219 48.199219 228.171875 48.199219 229.621094 C 48.199219 229.621094 48.199219 231.058594 48.558594 231.78125 C 48.558594 231.78125 48.941406 232.5 49.671875 232.5 C 49.671875 232.5 50.410156 232.5 50.769531 231.78125 C 50.769531 231.78125 51.148438 231.058594 51.148438 229.621094 C 51.148438 229.621094 51.148438 228.171875 50.769531 227.449219 C 50.769531 227.449219 50.410156 226.71875 49.671875 226.71875 M 49.671875 225.96875 C 49.671875 225.96875 50.851562 225.96875 51.46875 226.910156 C 51.46875 226.910156 52.101562 227.839844 52.101562 229.621094 C 52.101562 229.621094 52.101562 231.390625 51.46875 232.320312 C 51.46875 232.320312 50.851562 233.261719 49.671875 233.261719 C 49.671875 233.261719 48.488281 233.261719 47.859375 232.320312 C 47.859375 232.320312 47.238281 231.390625 47.238281 229.621094 C 47.238281 229.621094 47.238281 227.839844 47.859375 226.910156 C 47.859375 226.910156 48.488281 225.96875 49.671875 225.96875 Z M 49.671875 225.96875 "/>
<path style=" stroke:none;fill-rule:evenodd;fill:rgb(0%,0%,0%);fill-opacity:1;" d="M 53.128906 231.929688 L 54.121094 231.929688 L 54.121094 233.121094 L 53.128906 233.121094 Z M 53.128906 231.929688 "/>
<path style=" stroke:none;fill-rule:evenodd;fill:rgb(0%,0%,0%);fill-opacity:1;" d="M 57.179688 229.789062 C 57.179688 229.789062 56.5 229.789062 56.109375 230.148438 C 56.109375 230.148438 55.730469 230.511719 55.730469 231.140625 C 55.730469 231.140625 55.730469 231.78125 56.109375 232.140625 C 56.109375 232.140625 56.5 232.5 57.179688 232.5 C 57.179688 232.5 57.859375 232.5 58.25 232.140625 C 58.25 232.140625 58.640625 231.769531 58.640625 231.140625 C 58.640625 231.140625 58.640625 230.511719 58.25 230.148438 C 58.25 230.148438 57.859375 229.789062 57.179688 229.789062 M 56.230469 229.378906 C 56.230469 229.378906 55.621094 229.230469 55.269531 228.808594 C 55.269531 228.808594 54.941406 228.390625 54.941406 227.789062 C 54.941406 227.789062 54.941406 226.949219 55.53125 226.460938 C 55.53125 226.460938 56.128906 225.96875 57.179688 225.96875 C 57.179688 225.96875 58.230469 225.96875 58.820312 226.460938 C 58.820312 226.460938 59.421875 226.949219 59.421875 227.789062 C 59.421875 227.789062 59.421875 228.390625 59.078125 228.808594 C 59.078125 228.808594 58.738281 229.230469 58.128906 229.378906 C 58.128906 229.378906 58.820312 229.539062 59.199219 230.011719 C 59.199219 230.011719 59.589844 230.46875 59.589844 231.140625 C 59.589844 231.140625 59.589844 232.171875 58.960938 232.710938 C 58.960938 232.710938 58.339844 233.261719 57.179688 233.261719 C 57.179688 233.261719 56.019531 233.261719 55.390625 232.710938 C 55.390625 232.710938 54.769531 232.171875 54.769531 231.140625 C 54.769531 231.140625 54.769531 230.46875 55.160156 230.011719 C 55.160156 230.011719 55.539062 229.539062 56.230469 229.378906 M 55.878906 227.878906 C 55.878906 227.878906 55.878906 228.429688 56.21875 228.730469 C 56.21875 228.730469 56.558594 229.039062 57.179688 229.039062 C 57.179688 229.039062 57.789062 229.039062 58.128906 228.730469 C 58.128906 228.730469 58.480469 228.429688 58.480469 227.878906 C 58.480469 227.878906 58.480469 227.339844 58.128906 227.03125 C 58.128906 227.03125 57.789062 226.71875 57.179688 226.71875 C 57.179688 226.71875 56.558594 226.71875 56.21875 227.03125 C 56.21875 227.03125 55.878906 227.339844 55.878906 227.878906 Z M 55.878906 227.878906 "/>
<path style=" stroke:none;fill-rule:evenodd;fill:rgb(0%,0%,0%);fill-opacity:1;" d="M 28.800781 163.71875 L 30.710938 163.71875 L 30.710938 157.128906 L 28.628906 157.550781 L 28.628906 156.480469 L 30.699219 156.070312 L 31.871094 156.070312 L 31.871094 163.71875 L 33.78125 163.71875 L 33.78125 164.710938 L 28.800781 164.710938 Z M 28.800781 163.71875 "/>
<path style=" stroke:none;fill-rule:evenodd;fill:rgb(0%,0%,0%);fill-opacity:1;" d="M 37.539062 156.839844 C 37.539062 156.839844 36.640625 156.839844 36.179688 157.730469 C 36.179688 157.730469 35.730469 158.609375 35.730469 160.398438 C 35.730469 160.398438 35.730469 162.171875 36.179688 163.058594 C 36.179688 163.058594 36.640625 163.949219 37.539062 163.949219 C 37.539062 163.949219 38.449219 163.949219 38.898438 163.058594 C 38.898438 163.058594 39.359375 162.171875 39.359375 160.398438 C 39.359375 160.398438 39.359375 158.609375 38.898438 157.730469 C 38.898438 157.730469 38.449219 156.839844 37.539062 156.839844 M 37.539062 155.910156 C 37.539062 155.910156 39 155.910156 39.761719 157.058594 C 39.761719 157.058594 40.53125 158.210938 40.53125 160.398438 C 40.53125 160.398438 40.53125 162.578125 39.761719 163.730469 C 39.761719 163.730469 39 164.871094 37.539062 164.871094 C 37.539062 164.871094 36.089844 164.871094 35.320312 163.730469 C 35.320312 163.730469 34.558594 162.578125 34.558594 160.398438 C 34.558594 160.398438 34.558594 158.210938 35.320312 157.058594 C 35.320312 157.058594 36.089844 155.910156 37.539062 155.910156 Z M 37.539062 155.910156 "/>
<path style=" stroke:none;fill-rule:evenodd;fill:rgb(0%,0%,0%);fill-opacity:1;" d="M 40.53125 154.441406 L 46.558594 154.441406 L 46.558594 155.238281 L 40.53125 155.238281 Z M 40.53125 154.441406 "/>
<path style=" stroke:none;fill-rule:evenodd;fill:rgb(0%,0%,0%);fill-opacity:1;" d="M 49.621094 151.460938 C 49.621094 151.460938 48.878906 151.460938 48.511719 152.179688 C 48.511719 152.179688 48.148438 152.898438 48.148438 154.351562 C 48.148438 154.351562 48.148438 155.800781 48.511719 156.519531 C 48.511719 156.519531 48.878906 157.238281 49.621094 157.238281 C 49.621094 157.238281 50.359375 157.238281 50.71875 156.519531 C 50.71875 156.519531 51.089844 155.800781 51.089844 154.351562 C 51.089844 154.351562 51.089844 152.898438 50.71875 152.179688 C 50.71875 152.179688 50.359375 151.460938 49.621094 151.460938 M 49.621094 150.710938 C 49.621094 150.710938 50.800781 150.710938 51.421875 151.640625 C 51.421875 151.640625 52.039062 152.570312 52.039062 154.351562 C 52.039062 154.351562 52.039062 156.121094 51.421875 157.058594 C 51.421875 157.058594 50.800781 157.988281 49.621094 157.988281 C 49.621094 157.988281 48.441406 157.988281 47.808594 157.058594 C 47.808594 157.058594 47.191406 156.121094 47.191406 154.351562 C 47.191406 154.351562 47.191406 152.570312 47.808594 151.640625 C 47.808594 151.640625 48.441406 150.710938 49.621094 150.710938 Z M 49.621094 150.710938 "/>
<path style=" stroke:none;fill-rule:evenodd;fill:rgb(0%,0%,0%);fill-opacity:1;" d="M 53.070312 156.660156 L 54.070312 156.660156 L 54.070312 157.851562 L 53.070312 157.851562 Z M 53.070312 156.660156 "/>
<path style=" stroke:none;fill-rule:evenodd;fill:rgb(0%,0%,0%);fill-opacity:1;" d="M 57.238281 153.96875 C 57.238281 153.96875 56.601562 153.96875 56.230469 154.398438 C 56.230469 154.398438 55.859375 154.839844 55.859375 155.601562 C 55.859375 155.601562 55.859375 156.359375 56.230469 156.800781 C 56.230469 156.800781 56.601562 157.238281 57.238281 157.238281 C 57.238281 157.238281 57.878906 157.238281 58.261719 156.800781 C 58.261719 156.800781 58.628906 156.359375 58.628906 155.601562 C 58.628906 155.601562 58.628906 154.839844 58.261719 154.398438 C 58.261719 154.398438 57.878906 153.96875 57.238281 153.96875 M 59.128906 150.988281 L 59.128906 151.851562 C 59.128906 151.851562 58.769531 151.691406 58.410156 151.601562 C 58.410156 151.601562 58.039062 151.511719 57.691406 151.511719 C 57.691406 151.511719 56.75 151.511719 56.25 152.140625 C 56.25 152.140625 55.75 152.78125 55.679688 154.058594 C 55.679688 154.058594 55.960938 153.648438 56.378906 153.429688 C 56.378906 153.429688 56.800781 153.210938 57.300781 153.210938 C 57.300781 153.210938 58.359375 153.210938 58.96875 153.859375 C 58.96875 153.859375 59.589844 154.5 59.589844 155.601562 C 59.589844 155.601562 59.589844 156.679688 58.949219 157.339844 C 58.949219 157.339844 58.308594 157.988281 57.238281 157.988281 C 57.238281 157.988281 56.03125 157.988281 55.378906 157.058594 C 55.378906 157.058594 54.738281 156.121094 54.738281 154.351562 C 54.738281 154.351562 54.738281 152.691406 55.53125 151.699219 C 55.53125 151.699219 56.320312 150.710938 57.648438 150.710938 C 57.648438 150.710938 58.011719 150.710938 58.371094 150.78125 C 58.371094 150.78125 58.730469 150.851562 59.128906 150.988281 Z M 59.128906 150.988281 "/>
<path style=" stroke:none;fill-rule:evenodd;fill:rgb(0%,0%,0%);fill-opacity:1;" d="M 28.730469 88.460938 L 30.640625 88.460938 L 30.640625 81.871094 L 28.570312 82.28125 L 28.570312 81.21875 L 30.628906 80.800781 L 31.800781 80.800781 L 31.800781 88.460938 L 33.710938 88.460938 L 33.710938 89.441406 L 28.730469 89.441406 Z M 28.730469 88.460938 "/>
<path style=" stroke:none;fill-rule:evenodd;fill:rgb(0%,0%,0%);fill-opacity:1;" d="M 37.480469 81.570312 C 37.480469 81.570312 36.570312 81.570312 36.121094 82.460938 C 36.121094 82.460938 35.671875 83.351562 35.671875 85.128906 C 35.671875 85.128906 35.671875 86.910156 36.121094 87.800781 C 36.121094 87.800781 36.570312 88.679688 37.480469 88.679688 C 37.480469 88.679688 38.390625 88.679688 38.839844 87.800781 C 38.839844 87.800781 39.289062 86.910156 39.289062 85.128906 C 39.289062 85.128906 39.289062 83.351562 38.839844 82.460938 C 38.839844 82.460938 38.390625 81.570312 37.480469 81.570312 M 37.480469 80.648438 C 37.480469 80.648438 38.929688 80.648438 39.691406 81.800781 C 39.691406 81.800781 40.460938 82.941406 40.460938 85.128906 C 40.460938 85.128906 40.460938 87.308594 39.691406 88.460938 C 39.691406 88.460938 38.929688 89.609375 37.480469 89.609375 C 37.480469 89.609375 36.019531 89.609375 35.25 88.460938 C 35.25 88.460938 34.488281 87.308594 34.488281 85.128906 C 34.488281 85.128906 34.488281 82.941406 35.25 81.800781 C 35.25 81.800781 36.019531 80.648438 37.480469 80.648438 Z M 37.480469 80.648438 "/>
<path style=" stroke:none;fill-rule:evenodd;fill:rgb(0%,0%,0%);fill-opacity:1;" d="M 40.460938 79.171875 L 46.488281 79.171875 L 46.488281 79.96875 L 40.460938 79.96875 Z M 40.460938 79.171875 "/>
<path style=" stroke:none;fill-rule:evenodd;fill:rgb(0%,0%,0%);fill-opacity:1;" d="M 49.550781 76.191406 C 49.550781 76.191406 48.820312 76.191406 48.449219 76.921875 C 48.449219 76.921875 48.078125 77.640625 48.078125 79.089844 C 48.078125 79.089844 48.078125 80.53125 48.449219 81.25 C 48.449219 81.25 48.820312 81.96875 49.550781 81.96875 C 49.550781 81.96875 50.289062 81.96875 50.660156 81.25 C 50.660156 81.25 51.03125 80.53125 51.03125 79.089844 C 51.03125 79.089844 51.03125 77.640625 50.660156 76.921875 C 50.660156 76.921875 50.289062 76.191406 49.550781 76.191406 M 49.550781 75.441406 C 49.550781 75.441406 50.730469 75.441406 51.351562 76.378906 C 51.351562 76.378906 51.980469 77.308594 51.980469 79.089844 C 51.980469 79.089844 51.980469 80.859375 51.351562 81.789062 C 51.351562 81.789062 50.730469 82.730469 49.550781 82.730469 C 49.550781 82.730469 48.371094 82.730469 47.75 81.789062 C 47.75 81.789062 47.128906 80.859375 47.128906 79.089844 C 47.128906 79.089844 47.128906 77.308594 47.75 76.378906 C 47.75 76.378906 48.371094 75.441406 49.550781 75.441406 Z M 49.550781 75.441406 "/>
<path style=" stroke:none;fill-rule:evenodd;fill:rgb(0%,0%,0%);fill-opacity:1;" d="M 53.011719 81.390625 L 54 81.390625 L 54 82.589844 L 53.011719 82.589844 Z M 53.011719 81.390625 "/>
<path style=" stroke:none;fill-rule:evenodd;fill:rgb(0%,0%,0%);fill-opacity:1;" d="M 57.640625 76.398438 L 55.238281 80.140625 L 57.640625 80.140625 L 57.640625 76.398438 M 57.390625 75.570312 L 58.578125 75.570312 L 58.578125 80.140625 L 59.589844 80.140625 L 59.589844 80.929688 L 58.578125 80.929688 L 58.578125 82.589844 L 57.640625 82.589844 L 57.640625 80.929688 L 54.46875 80.929688 L 54.46875 80.019531 Z M 57.390625 75.570312 "/>
<path style=" stroke:none;fill-rule:evenodd;fill:rgb(0%,0%,0%);fill-opacity:1;" d="M 11.441406 199.851562 L 15.910156 199.851562 L 15.910156 197.828125 C 15.910156 197.828125 15.910156 196.710938 15.328125 196.089844 C 15.328125 196.089844 14.738281 195.480469 13.671875 195.480469 C 13.671875 195.480469 12.601562 195.480469 12.019531 196.089844 C 12.019531 196.089844 11.441406 196.710938 11.441406 197.828125 L 11.441406 199.851562 M 10.121094 201.460938 L 10.121094 197.828125 C 10.121094 197.828125 10.121094 195.828125 11.03125 194.808594 C 11.03125 194.808594 11.929688 193.789062 13.671875 193.789062 C 13.671875 193.789062 15.429688 193.789062 16.328125 194.808594 C 16.328125 194.808594 17.230469 195.828125 17.230469 197.828125 L 17.230469 199.851562 L 22 199.851562 L 22 201.460938 Z M 10.121094 201.460938 "/>
<path style=" stroke:none;fill-rule:evenodd;fill:rgb(0%,0%,0%);fill-opacity:1;" d="M 17.179688 185.210938 L 17.898438 185.210938 L 17.898438 191.941406 C 17.898438 191.941406 19.410156 191.839844 20.199219 191.03125 C 20.199219 191.03125 20.988281 190.210938 20.988281 188.761719 C 20.988281 188.761719 20.988281 187.910156 20.78125 187.121094 C 20.78125 187.121094 20.578125 186.328125 20.160156 185.550781 L 21.550781 185.550781 C 21.550781 185.550781 21.878906 186.339844 22.058594 187.160156 C 22.058594 187.160156 22.230469 187.988281 22.230469 188.839844 C 22.230469 188.839844 22.230469 190.980469 20.988281 192.230469 C 20.988281 192.230469 19.75 193.46875 17.628906 193.46875 C 17.628906 193.46875 15.441406 193.46875 14.160156 192.289062 C 14.160156 192.289062 12.871094 191.101562 12.871094 189.101562 C 12.871094 189.101562 12.871094 187.300781 14.039062 186.261719 C 14.039062 186.261719 15.191406 185.210938 17.179688 185.210938 M 16.75 186.671875 C 16.75 186.671875 15.550781 186.691406 14.828125 187.351562 C 14.828125 187.351562 14.121094 188 14.121094 189.078125 C 14.121094 189.078125 14.121094 190.308594 14.808594 191.050781 C 14.808594 191.050781 15.5 191.78125 16.761719 191.890625 Z M 16.75 186.671875 "/>
<path style=" stroke:none;fill-rule:evenodd;fill:rgb(0%,0%,0%);fill-opacity:1;" d="M 305.351562 10.960938 C 305.351562 10.960938 303.890625 10.960938 303.050781 11.738281 C 303.050781 11.738281 302.21875 12.519531 302.21875 13.890625 C 302.21875 13.890625 302.21875 15.261719 303.050781 16.039062 C 303.050781 16.039062 303.890625 16.820312 305.351562 16.820312 C 305.351562 16.820312 306.808594 16.820312 307.648438 16.039062 C 307.648438 16.039062 308.488281 15.25 308.488281 13.890625 C 308.488281 13.890625 308.488281 12.519531 307.648438 11.738281 C 307.648438 11.738281 306.820312 10.960938 305.351562 10.960938 M 303.300781 10.089844 C 303.300781 10.089844 301.988281 9.769531 301.25 8.871094 C 301.25 8.871094 300.519531 7.96875 300.519531 6.671875 C 300.519531 6.671875 300.519531 4.859375 301.800781 3.800781 C 301.800781 3.800781 303.101562 2.75 305.351562 2.75 C 305.351562 2.75 307.609375 2.75 308.890625 3.800781 C 308.890625 3.800781 310.179688 4.859375 310.179688 6.671875 C 310.179688 6.671875 310.179688 7.96875 309.441406 8.871094 C 309.441406 8.871094 308.710938 9.769531 307.398438 10.089844 C 307.398438 10.089844 308.878906 10.441406 309.699219 11.441406 C 309.699219 11.441406 310.53125 12.441406 310.53125 13.890625 C 310.53125 13.890625 310.53125 16.089844 309.191406 17.261719 C 309.191406 17.261719 307.851562 18.441406 305.351562 18.441406 C 305.351562 18.441406 302.851562 18.441406 301.5 17.261719 C 301.5 17.261719 300.160156 16.089844 300.160156 13.890625 C 300.160156 13.890625 300.160156 12.441406 300.988281 11.441406 C 300.988281 11.441406 301.820312 10.441406 303.300781 10.089844 M 302.550781 6.859375 C 302.550781 6.859375 302.550781 8.039062 303.28125 8.699219 C 303.28125 8.699219 304.019531 9.351562 305.351562 9.351562 C 305.351562 9.351562 306.660156 9.351562 307.398438 8.699219 C 307.398438 8.699219 308.148438 8.039062 308.148438 6.859375 C 308.148438 6.859375 308.148438 5.691406 307.398438 5.03125 C 307.398438 5.03125 306.660156 4.371094 305.351562 4.371094 C 305.351562 4.371094 304.019531 4.371094 303.28125 5.03125 C 303.28125 5.03125 302.550781 5.691406 302.550781 6.859375 Z M 302.550781 6.859375 "/>
<path style=" stroke:none;fill-rule:evenodd;fill:rgb(0%,0%,0%);fill-opacity:1;" d="M 311.550781 11.628906 L 317 11.628906 L 317 13.289062 L 311.550781 13.289062 Z M 311.550781 11.628906 "/>
<path style=" stroke:none;fill-rule:evenodd;fill:rgb(0%,0%,0%);fill-opacity:1;" d="M 323.640625 5.039062 L 320.859375 12.558594 L 326.421875 12.558594 L 323.640625 5.039062 M 322.480469 3.019531 L 324.800781 3.019531 L 330.558594 18.140625 L 328.441406 18.140625 L 327.058594 14.269531 L 320.25 14.269531 L 318.871094 18.140625 L 316.710938 18.140625 Z M 322.480469 3.019531 "/>
<path style=" stroke:none;fill-rule:evenodd;fill:rgb(0%,0%,0%);fill-opacity:1;" d="M 341.660156 3.519531 L 341.660156 5.519531 C 341.660156 5.519531 340.5 4.960938 339.46875 4.679688 C 339.46875 4.679688 338.429688 4.410156 337.46875 4.410156 C 337.46875 4.410156 335.800781 4.410156 334.890625 5.058594 C 334.890625 5.058594 333.988281 5.710938 333.988281 6.898438 C 333.988281 6.898438 333.988281 7.910156 334.589844 8.421875 C 334.589844 8.421875 335.191406 8.929688 336.871094 9.238281 L 338.109375 9.5 C 338.109375 9.5 340.398438 9.929688 341.480469 11.03125 C 341.480469 11.03125 342.578125 12.128906 342.578125 13.96875 C 342.578125 13.96875 342.578125 16.171875 341.101562 17.300781 C 341.101562 17.300781 339.628906 18.441406 336.78125 18.441406 C 336.78125 18.441406 335.710938 18.441406 334.488281 18.191406 C 334.488281 18.191406 333.289062 17.949219 331.988281 17.480469 L 331.988281 15.371094 C 331.988281 15.371094 333.238281 16.070312 334.429688 16.421875 C 334.429688 16.421875 335.628906 16.78125 336.78125 16.78125 C 336.78125 16.78125 338.53125 16.78125 339.488281 16.089844 C 339.488281 16.089844 340.441406 15.398438 340.441406 14.121094 C 340.441406 14.121094 340.441406 13.011719 339.75 12.378906 C 339.75 12.378906 339.070312 11.75 337.511719 11.441406 L 336.269531 11.199219 C 336.269531 11.199219 333.980469 10.738281 332.949219 9.769531 C 332.949219 9.769531 331.929688 8.800781 331.929688 7.058594 C 331.929688 7.058594 331.929688 5.058594 333.339844 3.910156 C 333.339844 3.910156 334.761719 2.75 337.238281 2.75 C 337.238281 2.75 338.300781 2.75 339.410156 2.941406 C 339.410156 2.941406 340.511719 3.140625 341.660156 3.519531 Z M 341.660156 3.519531 "/>
<path style=" stroke:none;fill-rule:evenodd;fill:rgb(0%,0%,0%);fill-opacity:1;" d="M 344.609375 3.019531 L 346.660156 3.019531 L 346.660156 9.410156 L 353.441406 3.019531 L 356.078125 3.019531 L 348.570312 10.070312 L 356.609375 18.140625 L 353.921875 18.140625 L 346.660156 10.859375 L 346.660156 18.140625 L 344.609375 18.140625 Z M 344.609375 3.019531 "/>
<path style="fill:none;stroke-width:1;stroke-linecap:butt;stroke-linejoin:miter;stroke:rgb(0%,60.559082%,97.869873%);stroke-opacity:1;stroke-miterlimit:10;" d="M 83.289062 359.789062 L 132.308594 347.089844 L 181.328125 332.238281 L 230.351562 314.769531 L 279.371094 294.171875 L 328.390625 269.761719 L 377.410156 240.71875 L 426.429688 206.019531 L 475.441406 164.371094 L 524.460938 114.171875 L 573.480469 53.398438 " transform="matrix(1,0,0,-1,0,400)"/>
<path style="fill-rule:evenodd;fill:rgb(0%,60.559082%,97.869873%);fill-opacity:1;stroke-width:0.8;stroke-linecap:butt;stroke-linejoin:miter;stroke:rgb(0%,0%,0%);stroke-opacity:1;stroke-miterlimit:10;" d="M 83.289062 362.789062 C 81.628906 362.789062 80.289062 361.441406 80.289062 359.789062 C 80.289062 358.128906 81.628906 356.789062 83.289062 356.789062 C 84.949219 356.789062 86.289062 358.128906 86.289062 359.789062 C 86.289062 361.441406 84.949219 362.789062 83.289062 362.789062 Z M 83.289062 362.789062 " transform="matrix(1,0,0,-1,0,400)"/>
<path style="fill-rule:evenodd;fill:rgb(0%,60.559082%,97.869873%);fill-opacity:1;stroke-width:0.8;stroke-linecap:butt;stroke-linejoin:miter;stroke:rgb(0%,0%,0%);stroke-opacity:1;stroke-miterlimit:10;" d="M 132.308594 350.089844 C 130.648438 350.089844 129.308594 348.75 129.308594 347.089844 C 129.308594 345.441406 130.648438 344.089844 132.308594 344.089844 C 133.96875 344.089844 135.308594 345.441406 135.308594 347.089844 C 135.308594 348.75 133.96875 350.089844 132.308594 350.089844 Z M 132.308594 350.089844 " transform="matrix(1,0,0,-1,0,400)"/>
<path style="fill-rule:evenodd;fill:rgb(0%,60.559082%,97.869873%);fill-opacity:1;stroke-width:0.8;stroke-linecap:butt;stroke-linejoin:miter;stroke:rgb(0%,0%,0%);stroke-opacity:1;stroke-miterlimit:10;" d="M 181.328125 335.238281 C 179.671875 335.238281 178.328125 333.890625 178.328125 332.238281 C 178.328125 330.578125 179.671875 329.238281 181.328125 329.238281 C 182.988281 329.238281 184.328125 330.578125 184.328125 332.238281 C 184.328125 333.890625 182.988281 335.238281 181.328125 335.238281 Z M 181.328125 335.238281 " transform="matrix(1,0,0,-1,0,400)"/>
<path style="fill-rule:evenodd;fill:rgb(0%,60.559082%,97.869873%);fill-opacity:1;stroke-width:0.8;stroke-linecap:butt;stroke-linejoin:miter;stroke:rgb(0%,0%,0%);stroke-opacity:1;stroke-miterlimit:10;" d="M 230.351562 317.769531 C 228.691406 317.769531 227.351562 316.429688 227.351562 314.769531 C 227.351562 313.121094 228.691406 311.769531 230.351562 311.769531 C 232.011719 311.769531 233.351562 313.121094 233.351562 314.769531 C 233.351562 316.429688 232.011719 317.769531 230.351562 317.769531 Z M 230.351562 317.769531 " transform="matrix(1,0,0,-1,0,400)"/>
<path style="fill-rule:evenodd;fill:rgb(0%,60.559082%,97.869873%);fill-opacity:1;stroke-width:0.8;stroke-linecap:butt;stroke-linejoin:miter;stroke:rgb(0%,0%,0%);stroke-opacity:1;stroke-miterlimit:10;" d="M 279.371094 297.171875 C 277.710938 297.171875 276.371094 295.828125 276.371094 294.171875 C 276.371094 292.519531 277.710938 291.171875 279.371094 291.171875 C 281.03125 291.171875 282.371094 292.519531 282.371094 294.171875 C 282.371094 295.828125 281.03125 297.171875 279.371094 297.171875 Z M 279.371094 297.171875 " transform="matrix(1,0,0,-1,0,400)"/>
<path style="fill-rule:evenodd;fill:rgb(0%,60.559082%,97.869873%);fill-opacity:1;stroke-width:0.8;stroke-linecap:butt;stroke-linejoin:miter;stroke:rgb(0%,0%,0%);stroke-opacity:1;stroke-miterlimit:10;" d="M 328.390625 272.761719 C 326.730469 272.761719 325.390625 271.421875 325.390625 269.761719 C 325.390625 268.109375 326.730469 266.761719 328.390625 266.761719 C 330.039062 266.761719 331.390625 268.109375 331.390625 269.761719 C 331.390625 271.421875 330.039062 272.761719 328.390625 272.761719 Z M 328.390625 272.761719 " transform="matrix(1,0,0,-1,0,400)"/>
<path style="fill-rule:evenodd;fill:rgb(0%,60.559082%,97.869873%);fill-opacity:1;stroke-width:0.8;stroke-linecap:butt;stroke-linejoin:miter;stroke:rgb(0%,0%,0%);stroke-opacity:1;stroke-miterlimit:10;" d="M 377.410156 243.71875 C 375.75 243.71875 374.410156 242.378906 374.410156 240.71875 C 374.410156 239.070312 375.75 237.71875 377.410156 237.71875 C 379.058594 237.71875 380.410156 239.070312 380.410156 240.71875 C 380.410156 242.378906 379.058594 243.71875 377.410156 243.71875 Z M 377.410156 243.71875 " transform="matrix(1,0,0,-1,0,400)"/>
<path style="fill-rule:evenodd;fill:rgb(0%,60.559082%,97.869873%);fill-opacity:1;stroke-width:0.8;stroke-linecap:butt;stroke-linejoin:miter;stroke:rgb(0%,0%,0%);stroke-opacity:1;stroke-miterlimit:10;" d="M 426.429688 209.019531 C 424.769531 209.019531 423.429688 207.679688 423.429688 206.019531 C 423.429688 204.359375 424.769531 203.019531 426.429688 203.019531 C 428.078125 203.019531 429.429688 204.359375 429.429688 206.019531 C 429.429688 207.679688 428.078125 209.019531 426.429688 209.019531 Z M 426.429688 209.019531 " transform="matrix(1,0,0,-1,0,400)"/>
<path style="fill-rule:evenodd;fill:rgb(0%,60.559082%,97.869873%);fill-opacity:1;stroke-width:0.8;stroke-linecap:butt;stroke-linejoin:miter;stroke:rgb(0%,0%,0%);stroke-opacity:1;stroke-miterlimit:10;" d="M 475.441406 167.371094 C 473.789062 167.371094 472.441406 166.03125 472.441406 164.371094 C 472.441406 162.71875 473.789062 161.371094 475.441406 161.371094 C 477.101562 161.371094 478.441406 162.71875 478.441406 164.371094 C 478.441406 166.03125 477.101562 167.371094 475.441406 167.371094 Z M 475.441406 167.371094 " transform="matrix(1,0,0,-1,0,400)"/>
<path style="fill-rule:evenodd;fill:rgb(0%,60.559082%,97.869873%);fill-opacity:1;stroke-width:0.8;stroke-linecap:butt;stroke-linejoin:miter;stroke:rgb(0%,0%,0%);stroke-opacity:1;stroke-miterlimit:10;" d="M 524.460938 117.171875 C 522.808594 117.171875 521.460938 115.828125 521.460938 114.171875 C 521.460938 112.519531 522.808594 111.171875 524.460938 111.171875 C 526.121094 111.171875 527.460938 112.519531 527.460938 114.171875 C 527.460938 115.828125 526.121094 117.171875 524.460938 117.171875 Z M 524.460938 117.171875 " transform="matrix(1,0,0,-1,0,400)"/>
<path style="fill-rule:evenodd;fill:rgb(0%,60.559082%,97.869873%);fill-opacity:1;stroke-width:0.8;stroke-linecap:butt;stroke-linejoin:miter;stroke:rgb(0%,0%,0%);stroke-opacity:1;stroke-miterlimit:10;" d="M 573.480469 56.398438 C 571.828125 56.398438 570.480469 55.058594 570.480469 53.398438 C 570.480469 51.738281 571.828125 50.398438 573.480469 50.398438 C 575.140625 50.398438 576.480469 51.738281 576.480469 53.398438 C 576.480469 55.058594 575.140625 56.398438 573.480469 56.398438 Z M 573.480469 56.398438 " transform="matrix(1,0,0,-1,0,400)"/>
<path style="fill:none;stroke-width:1;stroke-linecap:butt;stroke-linejoin:miter;stroke:rgb(88.88855%,43.559265%,27.809143%);stroke-opacity:1;stroke-miterlimit:10;" d="M 83.289062 359.941406 L 132.308594 346.71875 L 181.328125 332.179688 L 230.351562 314.601562 L 279.371094 293.671875 L 328.390625 269.058594 L 377.410156 240.738281 L 426.429688 206.109375 L 475.441406 164.261719 L 524.460938 113.160156 L 573.480469 53.628906 " transform="matrix(1,0,0,-1,0,400)"/>
<path style="fill-rule:evenodd;fill:rgb(88.88855%,43.559265%,27.809143%);fill-opacity:1;stroke-width:0.8;stroke-linecap:butt;stroke-linejoin:miter;stroke:rgb(0%,0%,0%);stroke-opacity:1;stroke-miterlimit:10;" d="M 83.289062 362.941406 C 81.628906 362.941406 80.289062 361.589844 80.289062 359.941406 C 80.289062 358.28125 81.628906 356.941406 83.289062 356.941406 C 84.949219 356.941406 86.289062 358.28125 86.289062 359.941406 C 86.289062 361.589844 84.949219 362.941406 83.289062 362.941406 Z M 83.289062 362.941406 " transform="matrix(1,0,0,-1,0,400)"/>
<path style="fill-rule:evenodd;fill:rgb(88.88855%,43.559265%,27.809143%);fill-opacity:1;stroke-width:0.8;stroke-linecap:butt;stroke-linejoin:miter;stroke:rgb(0%,0%,0%);stroke-opacity:1;stroke-miterlimit:10;" d="M 132.308594 349.71875 C 130.648438 349.71875 129.308594 348.378906 129.308594 346.71875 C 129.308594 345.070312 130.648438 343.71875 132.308594 343.71875 C 133.96875 343.71875 135.308594 345.070312 135.308594 346.71875 C 135.308594 348.378906 133.96875 349.71875 132.308594 349.71875 Z M 132.308594 349.71875 " transform="matrix(1,0,0,-1,0,400)"/>
<path style="fill-rule:evenodd;fill:rgb(88.88855%,43.559265%,27.809143%);fill-opacity:1;stroke-width:0.8;stroke-linecap:butt;stroke-linejoin:miter;stroke:rgb(0%,0%,0%);stroke-opacity:1;stroke-miterlimit:10;" d="M 181.328125 335.179688 C 179.671875 335.179688 178.328125 333.828125 178.328125 332.179688 C 178.328125 330.519531 179.671875 329.179688 181.328125 329.179688 C 182.988281 329.179688 184.328125 330.519531 184.328125 332.179688 C 184.328125 333.828125 182.988281 335.179688 181.328125 335.179688 Z M 181.328125 335.179688 " transform="matrix(1,0,0,-1,0,400)"/>
<path style="fill-rule:evenodd;fill:rgb(88.88855%,43.559265%,27.809143%);fill-opacity:1;stroke-width:0.8;stroke-linecap:butt;stroke-linejoin:miter;stroke:rgb(0%,0%,0%);stroke-opacity:1;stroke-miterlimit:10;" d="M 230.351562 317.601562 C 228.691406 317.601562 227.351562 316.261719 227.351562 314.601562 C 227.351562 312.941406 228.691406 311.601562 230.351562 311.601562 C 232.011719 311.601562 233.351562 312.941406 233.351562 314.601562 C 233.351562 316.261719 232.011719 317.601562 230.351562 317.601562 Z M 230.351562 317.601562 " transform="matrix(1,0,0,-1,0,400)"/>
<path style="fill-rule:evenodd;fill:rgb(88.88855%,43.559265%,27.809143%);fill-opacity:1;stroke-width:0.8;stroke-linecap:butt;stroke-linejoin:miter;stroke:rgb(0%,0%,0%);stroke-opacity:1;stroke-miterlimit:10;" d="M 279.371094 296.671875 C 277.710938 296.671875 276.371094 295.328125 276.371094 293.671875 C 276.371094 292.011719 277.710938 290.671875 279.371094 290.671875 C 281.03125 290.671875 282.371094 292.011719 282.371094 293.671875 C 282.371094 295.328125 281.03125 296.671875 279.371094 296.671875 Z M 279.371094 296.671875 " transform="matrix(1,0,0,-1,0,400)"/>
<path style="fill-rule:evenodd;fill:rgb(88.88855%,43.559265%,27.809143%);fill-opacity:1;stroke-width:0.8;stroke-linecap:butt;stroke-linejoin:miter;stroke:rgb(0%,0%,0%);stroke-opacity:1;stroke-miterlimit:10;" d="M 328.390625 272.058594 C 326.730469 272.058594 325.390625 270.710938 325.390625 269.058594 C 325.390625 267.398438 326.730469 266.058594 328.390625 266.058594 C 330.039062 266.058594 331.390625 267.398438 331.390625 269.058594 C 331.390625 270.710938 330.039062 272.058594 328.390625 272.058594 Z M 328.390625 272.058594 " transform="matrix(1,0,0,-1,0,400)"/>
<path style="fill-rule:evenodd;fill:rgb(88.88855%,43.559265%,27.809143%);fill-opacity:1;stroke-width:0.8;stroke-linecap:butt;stroke-linejoin:miter;stroke:rgb(0%,0%,0%);stroke-opacity:1;stroke-miterlimit:10;" d="M 377.410156 243.738281 C 375.75 243.738281 374.410156 242.398438 374.410156 240.738281 C 374.410156 239.078125 375.75 237.738281 377.410156 237.738281 C 379.058594 237.738281 380.410156 239.078125 380.410156 240.738281 C 380.410156 242.398438 379.058594 243.738281 377.410156 243.738281 Z M 377.410156 243.738281 " transform="matrix(1,0,0,-1,0,400)"/>
<path style="fill-rule:evenodd;fill:rgb(88.88855%,43.559265%,27.809143%);fill-opacity:1;stroke-width:0.8;stroke-linecap:butt;stroke-linejoin:miter;stroke:rgb(0%,0%,0%);stroke-opacity:1;stroke-miterlimit:10;" d="M 426.429688 209.109375 C 424.769531 209.109375 423.429688 207.769531 423.429688 206.109375 C 423.429688 204.449219 424.769531 203.109375 426.429688 203.109375 C 428.078125 203.109375 429.429688 204.449219 429.429688 206.109375 C 429.429688 207.769531 428.078125 209.109375 426.429688 209.109375 Z M 426.429688 209.109375 " transform="matrix(1,0,0,-1,0,400)"/>
<path style="fill-rule:evenodd;fill:rgb(88.88855%,43.559265%,27.809143%);fill-opacity:1;stroke-width:0.8;stroke-linecap:butt;stroke-linejoin:miter;stroke:rgb(0%,0%,0%);stroke-opacity:1;stroke-miterlimit:10;" d="M 475.441406 167.261719 C 473.789062 167.261719 472.441406 165.921875 472.441406 164.261719 C 472.441406 162.601562 473.789062 161.261719 475.441406 161.261719 C 477.101562 161.261719 478.441406 162.601562 478.441406 164.261719 C 478.441406 165.921875 477.101562 167.261719 475.441406 167.261719 Z M 475.441406 167.261719 " transform="matrix(1,0,0,-1,0,400)"/>
<path style="fill-rule:evenodd;fill:rgb(88.88855%,43.559265%,27.809143%);fill-opacity:1;stroke-width:0.8;stroke-linecap:butt;stroke-linejoin:miter;stroke:rgb(0%,0%,0%);stroke-opacity:1;stroke-miterlimit:10;" d="M 524.460938 116.160156 C 522.808594 116.160156 521.460938 114.808594 521.460938 113.160156 C 521.460938 111.5 522.808594 110.160156 524.460938 110.160156 C 526.121094 110.160156 527.460938 111.5 527.460938 113.160156 C 527.460938 114.808594 526.121094 116.160156 524.460938 116.160156 Z M 524.460938 116.160156 " transform="matrix(1,0,0,-1,0,400)"/>
<path style="fill-rule:evenodd;fill:rgb(88.88855%,43.559265%,27.809143%);fill-opacity:1;stroke-width:0.8;stroke-linecap:butt;stroke-linejoin:miter;stroke:rgb(0%,0%,0%);stroke-opacity:1;stroke-miterlimit:10;" d="M 573.480469 56.628906 C 571.828125 56.628906 570.480469 55.289062 570.480469 53.628906 C 570.480469 51.96875 571.828125 50.628906 573.480469 50.628906 C 575.140625 50.628906 576.480469 51.96875 576.480469 53.628906 C 576.480469 55.289062 575.140625 56.628906 573.480469 56.628906 Z M 573.480469 56.628906 " transform="matrix(1,0,0,-1,0,400)"/>
<path style=" stroke:none;fill-rule:evenodd;fill:rgb(100%,100%,100%);fill-opacity:1;" d="M 453.921875 87.058594 L 570.871094 87.058594 L 570.871094 41.699219 L 453.921875 41.699219 "/>
<path style="fill:none;stroke-width:1;stroke-linecap:butt;stroke-linejoin:miter;stroke:rgb(0%,0%,0%);stroke-opacity:1;stroke-miterlimit:10;" d="M 453.921875 312.941406 L 570.871094 312.941406 L 570.871094 358.300781 L 453.921875 358.300781 L 453.921875 312.941406 " transform="matrix(1,0,0,-1,0,400)"/>
<path style="fill:none;stroke-width:1;stroke-linecap:butt;stroke-linejoin:miter;stroke:rgb(0%,60.559082%,97.869873%);stroke-opacity:1;stroke-miterlimit:10;" d="M 459.691406 343.179688 L 494.328125 343.179688 " transform="matrix(1,0,0,-1,0,400)"/>
<path style="fill-rule:evenodd;fill:rgb(0%,60.559082%,97.869873%);fill-opacity:1;stroke-width:1.28;stroke-linecap:butt;stroke-linejoin:miter;stroke:rgb(0%,0%,0%);stroke-opacity:1;stroke-miterlimit:10;" d="M 477.011719 348.179688 C 474.25 348.179688 472.011719 345.941406 472.011719 343.179688 C 472.011719 340.421875 474.25 338.179688 477.011719 338.179688 C 479.769531 338.179688 482.011719 340.421875 482.011719 343.179688 C 482.011719 345.941406 479.769531 348.179688 477.011719 348.179688 Z M 477.011719 348.179688 " transform="matrix(1,0,0,-1,0,400)"/>
<path style=" stroke:none;fill-rule:evenodd;fill:rgb(0%,0%,0%);fill-opacity:1;" d="M 501.960938 52.820312 L 501.960938 54.660156 L 504.148438 54.660156 L 504.148438 55.488281 L 501.960938 55.488281 L 501.960938 59 C 501.960938 59 501.960938 59.800781 502.171875 60.019531 C 502.171875 60.019531 502.390625 60.25 503.058594 60.25 L 504.148438 60.25 L 504.148438 61.140625 L 503.058594 61.140625 C 503.058594 61.140625 501.820312 61.140625 501.351562 60.679688 C 501.351562 60.679688 500.878906 60.21875 500.878906 59 L 500.878906 55.488281 L 500.101562 55.488281 L 500.101562 54.660156 L 500.878906 54.660156 L 500.878906 52.820312 Z M 501.960938 52.820312 "/>
<path style=" stroke:none;fill-rule:evenodd;fill:rgb(0%,0%,0%);fill-opacity:1;" d="M 510.648438 57.230469 L 510.648438 61.140625 L 509.589844 61.140625 L 509.589844 57.261719 C 509.589844 57.261719 509.589844 56.339844 509.230469 55.878906 C 509.230469 55.878906 508.871094 55.429688 508.148438 55.429688 C 508.148438 55.429688 507.289062 55.429688 506.789062 55.980469 C 506.789062 55.980469 506.300781 56.53125 506.300781 57.480469 L 506.300781 61.140625 L 505.230469 61.140625 L 505.230469 52.128906 L 506.300781 52.128906 L 506.300781 55.660156 C 506.300781 55.660156 506.679688 55.078125 507.191406 54.789062 C 507.191406 54.789062 507.710938 54.5 508.390625 54.5 C 508.390625 54.5 509.511719 54.5 510.078125 55.199219 C 510.078125 55.199219 510.648438 55.878906 510.648438 57.230469 Z M 510.648438 57.230469 "/>
<path style=" stroke:none;fill-rule:evenodd;fill:rgb(0%,0%,0%);fill-opacity:1;" d="M 517.308594 57.628906 L 517.308594 58.148438 L 512.421875 58.148438 C 512.421875 58.148438 512.488281 59.25 513.078125 59.828125 C 513.078125 59.828125 513.671875 60.398438 514.730469 60.398438 C 514.730469 60.398438 515.351562 60.398438 515.921875 60.25 C 515.921875 60.25 516.5 60.101562 517.070312 59.800781 L 517.070312 60.808594 C 517.070312 60.808594 516.488281 61.050781 515.890625 61.179688 C 515.890625 61.179688 515.289062 61.308594 514.671875 61.308594 C 514.671875 61.308594 513.121094 61.308594 512.210938 60.398438 C 512.210938 60.398438 511.308594 59.5 511.308594 57.960938 C 511.308594 57.960938 511.308594 56.371094 512.160156 55.441406 C 512.160156 55.441406 513.03125 54.5 514.480469 54.5 C 514.480469 54.5 515.789062 54.5 516.550781 55.351562 C 516.550781 55.351562 517.308594 56.191406 517.308594 57.628906 M 516.25 57.320312 C 516.25 57.320312 516.238281 56.449219 515.761719 55.921875 C 515.761719 55.921875 515.28125 55.398438 514.5 55.398438 C 514.5 55.398438 513.601562 55.398438 513.070312 55.910156 C 513.070312 55.910156 512.53125 56.410156 512.449219 57.328125 Z M 516.25 57.320312 "/>
<path style=" stroke:none;fill-rule:evenodd;fill:rgb(0%,0%,0%);fill-opacity:1;" d="M 520.941406 55.398438 C 520.941406 55.398438 520.089844 55.398438 519.589844 56.078125 C 519.589844 56.078125 519.089844 56.738281 519.089844 57.898438 C 519.089844 57.898438 519.089844 59.070312 519.578125 59.738281 C 519.578125 59.738281 520.078125 60.398438 520.941406 60.398438 C 520.941406 60.398438 521.789062 60.398438 522.289062 59.730469 C 522.289062 59.730469 522.789062 59.058594 522.789062 57.898438 C 522.789062 57.898438 522.789062 56.75 522.289062 56.078125 C 522.289062 56.078125 521.789062 55.398438 520.941406 55.398438 M 520.941406 54.5 C 520.941406 54.5 522.328125 54.5 523.121094 55.398438 C 523.121094 55.398438 523.921875 56.308594 523.921875 57.898438 C 523.921875 57.898438 523.921875 59.5 523.121094 60.398438 C 523.121094 60.398438 522.328125 61.308594 520.941406 61.308594 C 520.941406 61.308594 519.550781 61.308594 518.761719 60.398438 C 518.761719 60.398438 517.96875 59.5 517.96875 57.898438 C 517.96875 57.898438 517.96875 56.308594 518.761719 55.398438 C 518.761719 55.398438 519.550781 54.5 520.941406 54.5 Z M 520.941406 54.5 "/>
<path style=" stroke:none;fill-rule:evenodd;fill:rgb(0%,0%,0%);fill-opacity:1;" d="M 528.789062 55.648438 C 528.789062 55.648438 528.609375 55.550781 528.398438 55.5 C 528.398438 55.5 528.191406 55.449219 527.929688 55.449219 C 527.929688 55.449219 527.03125 55.449219 526.539062 56.039062 C 526.539062 56.039062 526.058594 56.628906 526.058594 57.71875 L 526.058594 61.140625 L 524.988281 61.140625 L 524.988281 54.660156 L 526.058594 54.660156 L 526.058594 55.660156 C 526.058594 55.660156 526.398438 55.070312 526.941406 54.789062 C 526.941406 54.789062 527.480469 54.5 528.25 54.5 C 528.25 54.5 528.359375 54.5 528.488281 54.519531 C 528.488281 54.519531 528.621094 54.53125 528.78125 54.558594 Z M 528.789062 55.648438 "/>
<path style=" stroke:none;fill-rule:evenodd;fill:rgb(0%,0%,0%);fill-opacity:1;" d="M 535.191406 57.628906 L 535.191406 58.148438 L 530.289062 58.148438 C 530.289062 58.148438 530.359375 59.25 530.949219 59.828125 C 530.949219 59.828125 531.550781 60.398438 532.609375 60.398438 C 532.609375 60.398438 533.21875 60.398438 533.800781 60.25 C 533.800781 60.25 534.371094 60.101562 534.941406 59.800781 L 534.941406 60.808594 C 534.941406 60.808594 534.371094 61.050781 533.769531 61.179688 C 533.769531 61.179688 533.160156 61.308594 532.550781 61.308594 C 532.550781 61.308594 530.988281 61.308594 530.089844 60.398438 C 530.089844 60.398438 529.179688 59.5 529.179688 57.960938 C 529.179688 57.960938 529.179688 56.371094 530.039062 55.441406 C 530.039062 55.441406 530.898438 54.5 532.359375 54.5 C 532.359375 54.5 533.671875 54.5 534.429688 55.351562 C 534.429688 55.351562 535.191406 56.191406 535.191406 57.628906 M 534.128906 57.320312 C 534.128906 57.320312 534.109375 56.449219 533.628906 55.921875 C 533.628906 55.921875 533.160156 55.398438 532.371094 55.398438 C 532.371094 55.398438 531.480469 55.398438 530.941406 55.910156 C 530.941406 55.910156 530.410156 56.410156 530.328125 57.328125 Z M 534.128906 57.320312 "/>
<path style=" stroke:none;fill-rule:evenodd;fill:rgb(0%,0%,0%);fill-opacity:1;" d="M 537.359375 52.820312 L 537.359375 54.660156 L 539.550781 54.660156 L 539.550781 55.488281 L 537.359375 55.488281 L 537.359375 59 C 537.359375 59 537.359375 59.800781 537.570312 60.019531 C 537.570312 60.019531 537.789062 60.25 538.460938 60.25 L 539.550781 60.25 L 539.550781 61.140625 L 538.460938 61.140625 C 538.460938 61.140625 537.230469 61.140625 536.761719 60.679688 C 536.761719 60.679688 536.289062 60.21875 536.289062 59 L 536.289062 55.488281 L 535.511719 55.488281 L 535.511719 54.660156 L 536.289062 54.660156 L 536.289062 52.820312 Z M 537.359375 52.820312 "/>
<path style=" stroke:none;fill-rule:evenodd;fill:rgb(0%,0%,0%);fill-opacity:1;" d="M 540.671875 54.660156 L 541.738281 54.660156 L 541.738281 61.140625 L 540.671875 61.140625 L 540.671875 54.660156 M 540.671875 52.128906 L 541.738281 52.128906 L 541.738281 53.480469 L 540.671875 53.480469 Z M 540.671875 52.128906 "/>
<path style=" stroke:none;fill-rule:evenodd;fill:rgb(0%,0%,0%);fill-opacity:1;" d="M 547.519531 54.910156 L 547.519531 55.898438 C 547.519531 55.898438 547.070312 55.648438 546.609375 55.53125 C 546.609375 55.53125 546.160156 55.398438 545.691406 55.398438 C 545.691406 55.398438 544.660156 55.398438 544.078125 56.058594 C 544.078125 56.058594 543.511719 56.71875 543.511719 57.898438 C 543.511719 57.898438 543.511719 59.089844 544.078125 59.75 C 544.078125 59.75 544.660156 60.398438 545.691406 60.398438 C 545.691406 60.398438 546.160156 60.398438 546.609375 60.28125 C 546.609375 60.28125 547.070312 60.160156 547.519531 59.910156 L 547.519531 60.890625 C 547.519531 60.890625 547.070312 61.101562 546.589844 61.199219 C 546.589844 61.199219 546.121094 61.308594 545.578125 61.308594 C 545.578125 61.308594 544.109375 61.308594 543.25 60.390625 C 543.25 60.390625 542.390625 59.46875 542.390625 57.898438 C 542.390625 57.898438 542.390625 56.320312 543.261719 55.410156 C 543.261719 55.410156 544.128906 54.5 545.648438 54.5 C 545.648438 54.5 546.140625 54.5 546.609375 54.609375 C 546.609375 54.609375 547.078125 54.699219 547.519531 54.910156 Z M 547.519531 54.910156 "/>
<path style=" stroke:none;fill-rule:evenodd;fill:rgb(0%,0%,0%);fill-opacity:1;" d="M 551.578125 57.878906 C 551.578125 57.878906 550.289062 57.878906 549.789062 58.179688 C 549.789062 58.179688 549.289062 58.46875 549.289062 59.179688 C 549.289062 59.179688 549.289062 59.75 549.660156 60.089844 C 549.660156 60.089844 550.039062 60.421875 550.679688 60.421875 C 550.679688 60.421875 551.570312 60.421875 552.101562 59.789062 C 552.101562 59.789062 552.640625 59.160156 552.640625 58.121094 L 552.640625 57.878906 L 551.578125 57.878906 M 553.699219 57.441406 L 553.699219 61.140625 L 552.640625 61.140625 L 552.640625 60.160156 C 552.640625 60.160156 552.269531 60.75 551.730469 61.03125 C 551.730469 61.03125 551.191406 61.308594 550.398438 61.308594 C 550.398438 61.308594 549.398438 61.308594 548.808594 60.75 C 548.808594 60.75 548.230469 60.191406 548.230469 59.25 C 548.230469 59.25 548.230469 58.160156 548.960938 57.601562 C 548.960938 57.601562 549.691406 57.050781 551.148438 57.050781 L 552.640625 57.050781 L 552.640625 56.941406 C 552.640625 56.941406 552.640625 56.210938 552.148438 55.808594 C 552.148438 55.808594 551.671875 55.398438 550.800781 55.398438 C 550.800781 55.398438 550.238281 55.398438 549.71875 55.539062 C 549.71875 55.539062 549.191406 55.671875 548.699219 55.941406 L 548.699219 54.949219 C 548.699219 54.949219 549.289062 54.730469 549.839844 54.621094 C 549.839844 54.621094 550.390625 54.5 550.910156 54.5 C 550.910156 54.5 552.308594 54.5 553.011719 55.230469 C 553.011719 55.230469 553.699219 55.960938 553.699219 57.441406 Z M 553.699219 57.441406 "/>
<path style=" stroke:none;fill-rule:evenodd;fill:rgb(0%,0%,0%);fill-opacity:1;" d="M 554.820312 52.128906 L 555.878906 52.128906 L 555.878906 61.140625 L 554.820312 61.140625 Z M 554.820312 52.128906 "/>
<path style="fill:none;stroke-width:1;stroke-linecap:butt;stroke-linejoin:miter;stroke:rgb(88.88855%,43.559265%,27.809143%);stroke-opacity:1;stroke-miterlimit:10;" d="M 459.691406 328.058594 L 494.328125 328.058594 " transform="matrix(1,0,0,-1,0,400)"/>
<path style="fill-rule:evenodd;fill:rgb(88.88855%,43.559265%,27.809143%);fill-opacity:1;stroke-width:1.28;stroke-linecap:butt;stroke-linejoin:miter;stroke:rgb(0%,0%,0%);stroke-opacity:1;stroke-miterlimit:10;" d="M 477.011719 333.058594 C 474.25 333.058594 472.011719 330.820312 472.011719 328.058594 C 472.011719 325.300781 474.25 323.058594 477.011719 323.058594 C 479.769531 323.058594 482.011719 325.300781 482.011719 328.058594 C 482.011719 330.820312 479.769531 333.058594 477.011719 333.058594 Z M 477.011719 333.058594 " transform="matrix(1,0,0,-1,0,400)"/>
<path style=" stroke:none;fill-rule:evenodd;fill:rgb(0%,0%,0%);fill-opacity:1;" d="M 505.191406 71.019531 C 505.191406 71.019531 505.589844 70.300781 506.148438 69.960938 C 506.148438 69.960938 506.699219 69.621094 507.449219 69.621094 C 507.449219 69.621094 508.46875 69.621094 509.019531 70.328125 C 509.019531 70.328125 509.570312 71.039062 509.570312 72.351562 L 509.570312 76.261719 L 508.488281 76.261719 L 508.488281 72.378906 C 508.488281 72.378906 508.488281 71.449219 508.171875 71 C 508.171875 71 507.839844 70.550781 507.160156 70.550781 C 507.160156 70.550781 506.328125 70.550781 505.851562 71.101562 C 505.851562 71.101562 505.371094 71.648438 505.371094 72.601562 L 505.371094 76.261719 L 504.300781 76.261719 L 504.300781 72.378906 C 504.300781 72.378906 504.300781 71.441406 503.96875 71 C 503.96875 71 503.640625 70.550781 502.949219 70.550781 C 502.949219 70.550781 502.128906 70.550781 501.648438 71.101562 C 501.648438 71.101562 501.171875 71.648438 501.171875 72.601562 L 501.171875 76.261719 L 500.101562 76.261719 L 500.101562 69.78125 L 501.171875 69.78125 L 501.171875 70.78125 C 501.171875 70.78125 501.539062 70.191406 502.050781 69.898438 C 502.050781 69.898438 502.558594 69.621094 503.261719 69.621094 C 503.261719 69.621094 503.960938 69.621094 504.460938 69.980469 C 504.460938 69.980469 504.949219 70.339844 505.191406 71.019531 Z M 505.191406 71.019531 "/>
<path style=" stroke:none;fill-rule:evenodd;fill:rgb(0%,0%,0%);fill-opacity:1;" d="M 513.191406 70.519531 C 513.191406 70.519531 512.339844 70.519531 511.839844 71.199219 C 511.839844 71.199219 511.339844 71.859375 511.339844 73.019531 C 511.339844 73.019531 511.339844 74.191406 511.828125 74.859375 C 511.828125 74.859375 512.328125 75.519531 513.191406 75.519531 C 513.191406 75.519531 514.039062 75.519531 514.539062 74.851562 C 514.539062 74.851562 515.039062 74.179688 515.039062 73.019531 C 515.039062 73.019531 515.039062 71.871094 514.539062 71.199219 C 514.539062 71.199219 514.039062 70.519531 513.191406 70.519531 M 513.191406 69.621094 C 513.191406 69.621094 514.578125 69.621094 515.378906 70.519531 C 515.378906 70.519531 516.171875 71.429688 516.171875 73.019531 C 516.171875 73.019531 516.171875 74.621094 515.378906 75.519531 C 515.378906 75.519531 514.578125 76.429688 513.191406 76.429688 C 513.191406 76.429688 511.800781 76.429688 511.011719 75.519531 C 511.011719 75.519531 510.21875 74.621094 510.21875 73.019531 C 510.21875 73.019531 510.21875 71.429688 511.011719 70.519531 C 511.011719 70.519531 511.800781 69.621094 513.191406 69.621094 Z M 513.191406 69.621094 "/>
<path style=" stroke:none;fill-rule:evenodd;fill:rgb(0%,0%,0%);fill-opacity:1;" d="M 522.671875 72.351562 L 522.671875 76.261719 L 521.609375 76.261719 L 521.609375 72.378906 C 521.609375 72.378906 521.609375 71.460938 521.25 71 C 521.25 71 520.890625 70.550781 520.171875 70.550781 C 520.171875 70.550781 519.308594 70.550781 518.808594 71.101562 C 518.808594 71.101562 518.320312 71.648438 518.320312 72.601562 L 518.320312 76.261719 L 517.238281 76.261719 L 517.238281 69.78125 L 518.320312 69.78125 L 518.320312 70.78125 C 518.320312 70.78125 518.699219 70.199219 519.210938 69.910156 C 519.210938 69.910156 519.730469 69.621094 520.410156 69.621094 C 520.410156 69.621094 521.53125 69.621094 522.101562 70.320312 C 522.101562 70.320312 522.671875 71 522.671875 72.351562 Z M 522.671875 72.351562 "/>
<path style=" stroke:none;fill-rule:evenodd;fill:rgb(0%,0%,0%);fill-opacity:1;" d="M 524.839844 67.941406 L 524.839844 69.78125 L 527.039062 69.78125 L 527.039062 70.609375 L 524.839844 70.609375 L 524.839844 74.121094 C 524.839844 74.121094 524.839844 74.921875 525.058594 75.140625 C 525.058594 75.140625 525.28125 75.371094 525.941406 75.371094 L 527.039062 75.371094 L 527.039062 76.261719 L 525.941406 76.261719 C 525.941406 76.261719 524.710938 76.261719 524.238281 75.800781 C 524.238281 75.800781 523.769531 75.339844 523.769531 74.121094 L 523.769531 70.609375 L 522.988281 70.609375 L 522.988281 69.78125 L 523.769531 69.78125 L 523.769531 67.941406 Z M 524.839844 67.941406 "/>
<path style=" stroke:none;fill-rule:evenodd;fill:rgb(0%,0%,0%);fill-opacity:1;" d="M 533.699219 72.75 L 533.699219 73.269531 L 528.800781 73.269531 C 528.800781 73.269531 528.871094 74.371094 529.460938 74.949219 C 529.460938 74.949219 530.058594 75.519531 531.121094 75.519531 C 531.121094 75.519531 531.730469 75.519531 532.300781 75.371094 C 532.300781 75.371094 532.878906 75.21875 533.449219 74.921875 L 533.449219 75.929688 C 533.449219 75.929688 532.878906 76.171875 532.269531 76.300781 C 532.269531 76.300781 531.671875 76.429688 531.050781 76.429688 C 531.050781 76.429688 529.5 76.429688 528.589844 75.519531 C 528.589844 75.519531 527.691406 74.621094 527.691406 73.078125 C 527.691406 73.078125 527.691406 71.488281 528.550781 70.558594 C 528.550781 70.558594 529.410156 69.621094 530.871094 69.621094 C 530.871094 69.621094 532.179688 69.621094 532.929688 70.46875 C 532.929688 70.46875 533.699219 71.308594 533.699219 72.75 M 532.628906 72.441406 C 532.628906 72.441406 532.621094 71.570312 532.140625 71.039062 C 532.140625 71.039062 531.671875 70.519531 530.878906 70.519531 C 530.878906 70.519531 529.988281 70.519531 529.449219 71.03125 C 529.449219 71.03125 528.921875 71.53125 528.839844 72.449219 Z M 532.628906 72.441406 "/>
<path style=" stroke:none;fill-rule:evenodd;fill:rgb(0%,0%,0%);fill-opacity:1;" d="M 539.480469 70.03125 L 539.480469 71.019531 C 539.480469 71.019531 539.03125 70.769531 538.570312 70.648438 C 538.570312 70.648438 538.121094 70.519531 537.660156 70.519531 C 537.660156 70.519531 536.621094 70.519531 536.050781 71.179688 C 536.050781 71.179688 535.46875 71.839844 535.46875 73.019531 C 535.46875 73.019531 535.46875 74.210938 536.050781 74.871094 C 536.050781 74.871094 536.621094 75.519531 537.660156 75.519531 C 537.660156 75.519531 538.121094 75.519531 538.570312 75.398438 C 538.570312 75.398438 539.03125 75.28125 539.480469 75.03125 L 539.480469 76.011719 C 539.480469 76.011719 539.03125 76.21875 538.550781 76.320312 C 538.550781 76.320312 538.078125 76.429688 537.539062 76.429688 C 537.539062 76.429688 536.078125 76.429688 535.210938 75.511719 C 535.210938 75.511719 534.351562 74.589844 534.351562 73.019531 C 534.351562 73.019531 534.351562 71.441406 535.21875 70.53125 C 535.21875 70.53125 536.089844 69.621094 537.609375 69.621094 C 537.609375 69.621094 538.101562 69.621094 538.570312 69.730469 C 538.570312 69.730469 539.039062 69.820312 539.480469 70.03125 Z M 539.480469 70.03125 "/>
<path style=" stroke:none;fill-rule:evenodd;fill:rgb(0%,0%,0%);fill-opacity:1;" d="M 543.539062 73 C 543.539062 73 542.25 73 541.75 73.300781 C 541.75 73.300781 541.261719 73.589844 541.261719 74.300781 C 541.261719 74.300781 541.261719 74.871094 541.628906 75.210938 C 541.628906 75.210938 542 75.539062 542.640625 75.539062 C 542.640625 75.539062 543.53125 75.539062 544.058594 74.910156 C 544.058594 74.910156 544.601562 74.28125 544.601562 73.238281 L 544.601562 73 L 543.539062 73 M 545.660156 72.558594 L 545.660156 76.261719 L 544.601562 76.261719 L 544.601562 75.28125 C 544.601562 75.28125 544.238281 75.871094 543.691406 76.148438 C 543.691406 76.148438 543.148438 76.429688 542.359375 76.429688 C 542.359375 76.429688 541.371094 76.429688 540.769531 75.871094 C 540.769531 75.871094 540.191406 75.308594 540.191406 74.371094 C 540.191406 74.371094 540.191406 73.28125 540.921875 72.71875 C 540.921875 72.71875 541.648438 72.171875 543.109375 72.171875 L 544.601562 72.171875 L 544.601562 72.058594 C 544.601562 72.058594 544.601562 71.328125 544.109375 70.929688 C 544.109375 70.929688 543.628906 70.519531 542.761719 70.519531 C 542.761719 70.519531 542.199219 70.519531 541.679688 70.660156 C 541.679688 70.660156 541.148438 70.789062 540.660156 71.058594 L 540.660156 70.070312 C 540.660156 70.070312 541.25 69.851562 541.800781 69.738281 C 541.800781 69.738281 542.351562 69.621094 542.871094 69.621094 C 542.871094 69.621094 544.28125 69.621094 544.96875 70.351562 C 544.96875 70.351562 545.660156 71.078125 545.660156 72.558594 Z M 545.660156 72.558594 "/>
<path style=" stroke:none;fill-rule:evenodd;fill:rgb(0%,0%,0%);fill-opacity:1;" d="M 550.539062 70.769531 C 550.539062 70.769531 550.359375 70.671875 550.140625 70.621094 C 550.140625 70.621094 549.941406 70.570312 549.679688 70.570312 C 549.679688 70.570312 548.78125 70.570312 548.289062 71.160156 C 548.289062 71.160156 547.808594 71.75 547.808594 72.839844 L 547.808594 76.261719 L 546.738281 76.261719 L 546.738281 69.78125 L 547.808594 69.78125 L 547.808594 70.78125 C 547.808594 70.78125 548.148438 70.191406 548.691406 69.910156 C 548.691406 69.910156 549.21875 69.621094 549.988281 69.621094 C 549.988281 69.621094 550.101562 69.621094 550.238281 69.640625 C 550.238281 69.640625 550.371094 69.648438 550.53125 69.679688 Z M 550.539062 70.769531 "/>
<path style=" stroke:none;fill-rule:evenodd;fill:rgb(0%,0%,0%);fill-opacity:1;" d="M 551.648438 67.25 L 552.71875 67.25 L 552.71875 76.261719 L 551.648438 76.261719 Z M 551.648438 67.25 "/>
<path style=" stroke:none;fill-rule:evenodd;fill:rgb(0%,0%,0%);fill-opacity:1;" d="M 556.351562 70.519531 C 556.351562 70.519531 555.488281 70.519531 554.988281 71.199219 C 554.988281 71.199219 554.5 71.859375 554.5 73.019531 C 554.5 73.019531 554.5 74.191406 554.988281 74.859375 C 554.988281 74.859375 555.488281 75.519531 556.351562 75.519531 C 556.351562 75.519531 557.199219 75.519531 557.699219 74.851562 C 557.699219 74.851562 558.191406 74.179688 558.191406 73.019531 C 558.191406 73.019531 558.191406 71.871094 557.699219 71.199219 C 557.699219 71.199219 557.199219 70.519531 556.351562 70.519531 M 556.351562 69.621094 C 556.351562 69.621094 557.738281 69.621094 558.53125 70.519531 C 558.53125 70.519531 559.320312 71.429688 559.320312 73.019531 C 559.320312 73.019531 559.320312 74.621094 558.53125 75.519531 C 558.53125 75.519531 557.738281 76.429688 556.351562 76.429688 C 556.351562 76.429688 554.949219 76.429688 554.160156 75.519531 C 554.160156 75.519531 553.371094 74.621094 553.371094 73.019531 C 553.371094 73.019531 553.371094 71.429688 554.160156 70.519531 C 554.160156 70.519531 554.949219 69.621094 556.351562 69.621094 Z M 556.351562 69.621094 "/>
</g>
</svg>
