<?xml version="1.0" encoding="UTF-8"?>
<svg xmlns="http://www.w3.org/2000/svg" xmlns:xlink="http://www.w3.org/1999/xlink" width="600pt" height="400pt" viewBox="0 0 600 400" version="1.1">
<g id="surface1">
<rect x="0" y="0" width="600" height="400" style="fill:rgb(100%,100%,100%);fill-opacity:1;stroke:none;"/>
<path style=" stroke:none;fill-rule:evenodd;fill:rgb(100%,100%,100%);fill-opacity:1;" d="M 61.078125 355.789062 L 588.191406 355.789062 L 588.191406 30.871094 L 61.078125 30.871094 "/>
<path style="fill:none;stroke-width:0.5;stroke-linecap:butt;stroke-linejoin:miter;stroke:rgb(0%,0%,0%);stroke-opacity:0.0980392;stroke-miterlimit:10;" d="M 125.210938 44.210938 L 125.210938 369.128906 " transform="matrix(1,0,0,-1,0,400)"/>
<path style="fill:none;stroke-width:0.5;stroke-linecap:butt;stroke-linejoin:miter;stroke:rgb(0%,0%,0%);stroke-opacity:0.0980392;stroke-miterlimit:10;" d="M 224.671875 44.210938 L 224.671875 369.128906 " transform="matrix(1,0,0,-1,0,400)"/>
<path style="fill:none;stroke-width:0.5;stroke-linecap:butt;stroke-linejoin:miter;stroke:rgb(0%,0%,0%);stroke-opacity:0.0980392;stroke-miterlimit:10;" d="M 324.121094 44.210938 L 324.121094 369.128906 " transform="matrix(1,0,0,-1,0,400)"/>
<path style="fill:none;stroke-width:0.5;stroke-linecap:butt;stroke-linejoin:miter;stroke:rgb(0%,0%,0%);stroke-opacity:0.0980392;stroke-miterlimit:10;" d="M 423.578125 44.210938 L 423.578125 369.128906 " transform="matrix(1,0,0,-1,0,400)"/>
<path style="fill:none;stroke-width:0.5;stroke-linecap:butt;stroke-linejoin:miter;stroke:rgb(0%,0%,0%);stroke-opacity:0.0980392;stroke-miterlimit:10;" d="M 523.03125 44.210938 L 523.03125 369.128906 " transform="matrix(1,0,0,-1,0,400)"/>
<path style="fill:none;stroke-width:1;stroke-linecap:butt;stroke-linejoin:miter;stroke:rgb(0%,0%,0%);stroke-opacity:1;stroke-miterlimit:10;" d="M 61.078125 44.210938 L 588.191406 44.210938 " transform="matrix(1,0,0,-1,0,400)"/>
<path style="fill:none;stroke-width:1;stroke-linecap:butt;stroke-linejoin:miter;stroke:rgb(0%,0%,0%);stroke-opacity:1;stroke-miterlimit:10;" d="M 125.210938 44.210938 L 125.210938 48.101562 " transform="matrix(1,0,0,-1,0,400)"/>
<path style="fill:none;stroke-width:1;stroke-linecap:butt;stroke-linejoin:miter;stroke:rgb(0%,0%,0%);stroke-opacity:1;stroke-miterlimit:10;" d="M 224.671875 44.210938 L 224.671875 48.101562 " transform="matrix(1,0,0,-1,0,400)"/>
<path style="fill:none;stroke-width:1;stroke-linecap:butt;stroke-linejoin:miter;stroke:rgb(0%,0%,0%);stroke-opacity:1;stroke-miterlimit:10;" d="M 324.121094 44.210938 L 324.121094 48.101562 " transform="matrix(1,0,0,-1,0,400)"/>
<path style="fill:none;stroke-width:1;stroke-linecap:butt;stroke-linejoin:miter;stroke:rgb(0%,0%,0%);stroke-opacity:1;stroke-miterlimit:10;" d="M 423.578125 44.210938 L 423.578125 48.101562 " transform="matrix(1,0,0,-1,0,400)"/>
<path style="fill:none;stroke-width:1;stroke-linecap:butt;stroke-linejoin:miter;stroke:rgb(0%,0%,0%);stroke-opacity:1;stroke-miterlimit:10;" d="M 523.03125 44.210938 L 523.03125 48.101562 " transform="matrix(1,0,0,-1,0,400)"/>
<path style=" stroke:none;fill-rule:evenodd;fill:rgb(0%,0%,0%);fill-opacity:1;" d="M 125.960938 363.339844 L 123.011719 367.949219 L 125.960938 367.949219 L 125.960938 363.339844 M 125.660156 362.320312 L 127.128906 362.320312 L 127.128906 367.949219 L 128.359375 367.949219 L 128.359375 368.929688 L 127.128906 368.929688 L 127.128906 370.960938 L 125.960938 370.960938 L 125.960938 368.929688 L 122.058594 368.929688 L 122.058594 367.800781 Z M 125.660156 362.320312 "/>
<path style=" stroke:none;fill-rule:evenodd;fill:rgb(0%,0%,0%);fill-opacity:1;" d="M 224.769531 366.179688 C 224.769531 366.179688 223.980469 366.179688 223.519531 366.71875 C 223.519531 366.71875 223.058594 367.25 223.058594 368.191406 C 223.058594 368.191406 223.058594 369.121094 223.519531 369.671875 C 223.519531 369.671875 223.980469 370.199219 224.769531 370.199219 C 224.769531 370.199219 225.550781 370.199219 226.011719 369.671875 C 226.011719 369.671875 226.46875 369.121094 226.46875 368.191406 C 226.46875 368.191406 226.46875 367.25 226.011719 366.71875 C 226.011719 366.71875 225.550781 366.179688 224.769531 366.179688 M 227.089844 362.511719 L 227.089844 363.578125 C 227.089844 363.578125 226.648438 363.371094 226.199219 363.261719 C 226.199219 363.261719 225.75 363.148438 225.308594 363.148438 C 225.308594 363.148438 224.148438 363.148438 223.539062 363.929688 C 223.539062 363.929688 222.929688 364.710938 222.851562 366.289062 C 222.851562 366.289062 223.191406 365.789062 223.699219 365.519531 C 223.699219 365.519531 224.21875 365.25 224.839844 365.25 C 224.839844 365.25 226.140625 365.25 226.890625 366.039062 C 226.890625 366.039062 227.648438 366.828125 227.648438 368.191406 C 227.648438 368.191406 227.648438 369.519531 226.859375 370.328125 C 226.859375 370.328125 226.070312 371.128906 224.769531 371.128906 C 224.769531 371.128906 223.269531 371.128906 222.480469 369.980469 C 222.480469 369.980469 221.679688 368.828125 221.679688 366.648438 C 221.679688 366.648438 221.679688 364.601562 222.648438 363.390625 C 222.648438 363.390625 223.628906 362.171875 225.261719 362.171875 C 225.261719 362.171875 225.699219 362.171875 226.148438 362.25 C 226.148438 362.25 226.601562 362.339844 227.089844 362.511719 Z M 227.089844 362.511719 "/>
<path style=" stroke:none;fill-rule:evenodd;fill:rgb(0%,0%,0%);fill-opacity:1;" d="M 324.121094 366.859375 C 324.121094 366.859375 323.289062 366.859375 322.808594 367.308594 C 322.808594 367.308594 322.328125 367.75 322.328125 368.53125 C 322.328125 368.53125 322.328125 369.308594 322.808594 369.761719 C 322.808594 369.761719 323.289062 370.199219 324.121094 370.199219 C 324.121094 370.199219 324.949219 370.199219 325.429688 369.761719 C 325.429688 369.761719 325.910156 369.308594 325.910156 368.53125 C 325.910156 368.53125 325.910156 367.75 325.429688 367.308594 C 325.429688 367.308594 324.960938 366.859375 324.121094 366.859375 M 322.949219 366.359375 C 322.949219 366.359375 322.199219 366.179688 321.78125 365.660156 C 321.78125 365.660156 321.359375 365.148438 321.359375 364.410156 C 321.359375 364.410156 321.359375 363.371094 322.101562 362.769531 C 322.101562 362.769531 322.839844 362.171875 324.121094 362.171875 C 324.121094 362.171875 325.410156 362.171875 326.148438 362.769531 C 326.148438 362.769531 326.878906 363.371094 326.878906 364.410156 C 326.878906 364.410156 326.878906 365.148438 326.460938 365.660156 C 326.460938 365.660156 326.039062 366.179688 325.300781 366.359375 C 325.300781 366.359375 326.140625 366.558594 326.609375 367.128906 C 326.609375 367.128906 327.078125 367.699219 327.078125 368.53125 C 327.078125 368.53125 327.078125 369.789062 326.308594 370.460938 C 326.308594 370.460938 325.550781 371.128906 324.121094 371.128906 C 324.121094 371.128906 322.691406 371.128906 321.921875 370.460938 C 321.921875 370.460938 321.160156 369.789062 321.160156 368.53125 C 321.160156 368.53125 321.160156 367.699219 321.628906 367.128906 C 321.628906 367.128906 322.109375 366.558594 322.949219 366.359375 M 322.519531 364.519531 C 322.519531 364.519531 322.519531 365.191406 322.941406 365.558594 C 322.941406 365.558594 323.359375 365.941406 324.121094 365.941406 C 324.121094 365.941406 324.871094 365.941406 325.300781 365.558594 C 325.300781 365.558594 325.71875 365.191406 325.71875 364.519531 C 325.71875 364.519531 325.71875 363.839844 325.300781 363.46875 C 325.300781 363.46875 324.871094 363.089844 324.121094 363.089844 C 324.121094 363.089844 323.359375 363.089844 322.941406 363.46875 C 322.941406 363.46875 322.519531 363.839844 322.519531 364.519531 Z M 322.519531 364.519531 "/>
<path style=" stroke:none;fill-rule:evenodd;fill:rgb(0%,0%,0%);fill-opacity:1;" d="M 417.789062 369.980469 L 419.699219 369.980469 L 419.699219 363.390625 L 417.628906 363.800781 L 417.628906 362.738281 L 419.691406 362.320312 L 420.859375 362.320312 L 420.859375 369.980469 L 422.769531 369.980469 L 422.769531 370.960938 L 417.789062 370.960938 Z M 417.789062 369.980469 "/>
<path style=" stroke:none;fill-rule:evenodd;fill:rgb(0%,0%,0%);fill-opacity:1;" d="M 426.539062 363.089844 C 426.539062 363.089844 425.640625 363.089844 425.179688 363.980469 C 425.179688 363.980469 424.730469 364.871094 424.730469 366.648438 C 424.730469 366.648438 424.730469 368.429688 425.179688 369.320312 C 425.179688 369.320312 425.640625 370.199219 426.539062 370.199219 C 426.539062 370.199219 427.449219 370.199219 427.898438 369.320312 C 427.898438 369.320312 428.359375 368.429688 428.359375 366.648438 C 428.359375 366.648438 428.359375 364.871094 427.898438 363.980469 C 427.898438 363.980469 427.449219 363.089844 426.539062 363.089844 M 426.539062 362.171875 C 426.539062 362.171875 427.988281 362.171875 428.761719 363.320312 C 428.761719 363.320312 429.519531 364.460938 429.519531 366.648438 C 429.519531 366.648438 429.519531 368.828125 428.761719 369.980469 C 428.761719 369.980469 427.988281 371.128906 426.539062 371.128906 C 426.539062 371.128906 425.089844 371.128906 424.320312 369.980469 C 424.320312 369.980469 423.550781 368.828125 423.550781 366.648438 C 423.550781 366.648438 423.550781 364.460938 424.320312 363.320312 C 424.320312 363.320312 425.089844 362.171875 426.539062 362.171875 Z M 426.539062 362.171875 "/>
<path style=" stroke:none;fill-rule:evenodd;fill:rgb(0%,0%,0%);fill-opacity:1;" d="M 517.449219 369.980469 L 519.359375 369.980469 L 519.359375 363.390625 L 517.28125 363.800781 L 517.28125 362.738281 L 519.351562 362.320312 L 520.519531 362.320312 L 520.519531 369.980469 L 522.429688 369.980469 L 522.429688 370.960938 L 517.449219 370.960938 Z M 517.449219 369.980469 "/>
<path style=" stroke:none;fill-rule:evenodd;fill:rgb(0%,0%,0%);fill-opacity:1;" d="M 524.699219 369.980469 L 528.78125 369.980469 L 528.78125 370.960938 L 523.289062 370.960938 L 523.289062 369.980469 C 523.289062 369.980469 523.960938 369.289062 525.109375 368.128906 C 525.109375 368.128906 526.261719 366.96875 526.550781 366.628906 C 526.550781 366.628906 527.109375 366 527.328125 365.570312 C 527.328125 365.570312 527.558594 365.128906 527.558594 364.710938 C 527.558594 364.710938 527.558594 364.019531 527.070312 363.578125 C 527.070312 363.578125 526.589844 363.148438 525.820312 363.148438 C 525.820312 363.148438 525.269531 363.148438 524.648438 363.339844 C 524.648438 363.339844 524.050781 363.53125 523.351562 363.921875 L 523.351562 362.738281 C 523.351562 362.738281 524.058594 362.460938 524.671875 362.308594 C 524.671875 362.308594 525.289062 362.171875 525.789062 362.171875 C 525.789062 362.171875 527.140625 362.171875 527.941406 362.839844 C 527.941406 362.839844 528.730469 363.511719 528.730469 364.628906 C 528.730469 364.628906 528.730469 365.160156 528.53125 365.640625 C 528.53125 365.640625 528.328125 366.121094 527.808594 366.769531 C 527.808594 366.769531 527.660156 366.941406 526.890625 367.738281 C 526.890625 367.738281 526.109375 368.539062 524.699219 369.980469 Z M 524.699219 369.980469 "/>
<path style=" stroke:none;fill-rule:evenodd;fill:rgb(0%,0%,0%);fill-opacity:1;" d="M 298.121094 384.191406 L 298.121094 384.910156 L 291.390625 384.910156 C 291.390625 384.910156 291.488281 386.421875 292.300781 387.210938 C 292.300781 387.210938 293.121094 388 294.570312 388 C 294.570312 388 295.421875 388 296.210938 387.789062 C 296.210938 387.789062 297 387.589844 297.78125 387.171875 L 297.78125 388.558594 C 297.78125 388.558594 296.988281 388.890625 296.171875 389.070312 C 296.171875 389.070312 295.339844 389.238281 294.488281 389.238281 C 294.488281 389.238281 292.351562 389.238281 291.109375 388 C 291.109375 388 289.859375 386.761719 289.859375 384.640625 C 289.859375 384.640625 289.859375 382.449219 291.039062 381.171875 C 291.039062 381.171875 292.230469 379.878906 294.230469 379.878906 C 294.230469 379.878906 296.03125 379.878906 297.070312 381.050781 C 297.070312 381.050781 298.121094 382.199219 298.121094 384.191406 M 296.660156 383.761719 C 296.660156 383.761719 296.640625 382.558594 295.980469 381.839844 C 295.980469 381.839844 295.328125 381.128906 294.25 381.128906 C 294.25 381.128906 293.019531 381.128906 292.28125 381.820312 C 292.28125 381.820312 291.550781 382.511719 291.441406 383.769531 Z M 296.660156 383.761719 "/>
<path style=" stroke:none;fill-rule:evenodd;fill:rgb(0%,0%,0%);fill-opacity:1;" d="M 306.058594 384.558594 C 306.058594 384.558594 306.058594 382.949219 305.390625 382.03125 C 305.390625 382.03125 304.730469 381.109375 303.570312 381.109375 C 303.570312 381.109375 302.398438 381.109375 301.738281 382.03125 C 301.738281 382.03125 301.078125 382.949219 301.078125 384.558594 C 301.078125 384.558594 301.078125 386.179688 301.738281 387.101562 C 301.738281 387.101562 302.398438 388.019531 303.570312 388.019531 C 303.570312 388.019531 304.730469 388.019531 305.390625 387.101562 C 305.390625 387.101562 306.058594 386.179688 306.058594 384.558594 M 301.078125 381.449219 C 301.078125 381.449219 301.539062 380.660156 302.238281 380.269531 C 302.238281 380.269531 302.949219 379.878906 303.921875 379.878906 C 303.921875 379.878906 305.550781 379.878906 306.558594 381.171875 C 306.558594 381.171875 307.578125 382.460938 307.578125 384.558594 C 307.578125 384.558594 307.578125 386.660156 306.558594 387.949219 C 306.558594 387.949219 305.550781 389.238281 303.921875 389.238281 C 303.921875 389.238281 302.949219 389.238281 302.238281 388.859375 C 302.238281 388.859375 301.539062 388.46875 301.078125 387.671875 L 301.078125 389.011719 L 299.601562 389.011719 L 299.601562 376.628906 L 301.078125 376.628906 Z M 301.078125 381.449219 "/>
<path style=" stroke:none;fill-rule:evenodd;fill:rgb(0%,0%,0%);fill-opacity:1;" d="M 316.519531 383.628906 L 316.519531 389.011719 L 315.058594 389.011719 L 315.058594 383.679688 C 315.058594 383.679688 315.058594 382.410156 314.558594 381.789062 C 314.558594 381.789062 314.070312 381.160156 313.078125 381.160156 C 313.078125 381.160156 311.898438 381.160156 311.210938 381.910156 C 311.210938 381.910156 310.53125 382.671875 310.53125 383.96875 L 310.53125 389.011719 L 309.058594 389.011719 L 309.058594 380.101562 L 310.53125 380.101562 L 310.53125 381.480469 C 310.53125 381.480469 311.050781 380.679688 311.761719 380.28125 C 311.761719 380.28125 312.480469 379.878906 313.410156 379.878906 C 313.410156 379.878906 314.949219 379.878906 315.730469 380.839844 C 315.730469 380.839844 316.519531 381.789062 316.519531 383.628906 Z M 316.519531 383.628906 "/>
<path style=" stroke:none;fill-rule:evenodd;fill:rgb(0%,0%,0%);fill-opacity:1;" d="M 321.511719 381.128906 C 321.511719 381.128906 320.328125 381.128906 319.648438 382.050781 C 319.648438 382.050781 318.960938 382.960938 318.960938 384.558594 C 318.960938 384.558594 318.960938 386.160156 319.640625 387.089844 C 319.640625 387.089844 320.320312 388 321.511719 388 C 321.511719 388 322.679688 388 323.359375 387.078125 C 323.359375 387.078125 324.050781 386.148438 324.050781 384.558594 C 324.050781 384.558594 324.050781 382.980469 323.359375 382.058594 C 323.359375 382.058594 322.679688 381.128906 321.511719 381.128906 M 321.511719 379.878906 C 321.511719 379.878906 323.421875 379.878906 324.511719 381.128906 C 324.511719 381.128906 325.601562 382.371094 325.601562 384.558594 C 325.601562 384.558594 325.601562 386.75 324.511719 388 C 324.511719 388 323.421875 389.238281 321.511719 389.238281 C 321.511719 389.238281 319.589844 389.238281 318.5 388 C 318.5 388 317.421875 386.75 317.421875 384.558594 C 317.421875 384.558594 317.421875 382.371094 318.5 381.128906 C 318.5 381.128906 319.589844 379.878906 321.511719 379.878906 Z M 321.511719 379.878906 "/>
<path style=" stroke:none;fill-rule:evenodd;fill:rgb(0%,0%,0%);fill-opacity:1;" d="M 332.179688 376.628906 L 335.550781 376.628906 L 335.550781 377.769531 L 333.640625 377.769531 L 333.640625 390.019531 L 335.550781 390.019531 L 335.550781 391.160156 L 332.179688 391.160156 Z M 332.179688 376.628906 "/>
<path style=" stroke:none;fill-rule:evenodd;fill:rgb(0%,0%,0%);fill-opacity:1;" d="M 342.949219 381.449219 L 342.949219 376.628906 L 344.421875 376.628906 L 344.421875 389.011719 L 342.949219 389.011719 L 342.949219 387.671875 C 342.949219 387.671875 342.488281 388.46875 341.78125 388.859375 C 341.78125 388.859375 341.078125 389.238281 340.101562 389.238281 C 340.101562 389.238281 338.480469 389.238281 337.460938 387.949219 C 337.460938 387.949219 336.449219 386.660156 336.449219 384.558594 C 336.449219 384.558594 336.449219 382.460938 337.460938 381.171875 C 337.460938 381.171875 338.480469 379.878906 340.101562 379.878906 C 340.101562 379.878906 341.078125 379.878906 341.78125 380.269531 C 341.78125 380.269531 342.488281 380.660156 342.949219 381.449219 M 337.96875 384.558594 C 337.96875 384.558594 337.96875 386.179688 338.628906 387.101562 C 338.628906 387.101562 339.289062 388.019531 340.460938 388.019531 C 340.460938 388.019531 341.621094 388.019531 342.289062 387.101562 C 342.289062 387.101562 342.949219 386.179688 342.949219 384.558594 C 342.949219 384.558594 342.949219 382.949219 342.289062 382.03125 C 342.289062 382.03125 341.621094 381.109375 340.460938 381.109375 C 340.460938 381.109375 339.289062 381.109375 338.628906 382.03125 C 338.628906 382.03125 337.96875 382.949219 337.96875 384.558594 Z M 337.96875 384.558594 "/>
<path style=" stroke:none;fill-rule:evenodd;fill:rgb(0%,0%,0%);fill-opacity:1;" d="M 347.628906 383.339844 L 347.628906 387.691406 L 350.199219 387.691406 C 350.199219 387.691406 351.5 387.691406 352.121094 387.160156 C 352.121094 387.160156 352.75 386.621094 352.75 385.511719 C 352.75 385.511719 352.75 384.398438 352.121094 383.871094 C 352.121094 383.871094 351.5 383.339844 350.199219 383.339844 L 347.628906 383.339844 M 347.628906 378.449219 L 347.628906 382.03125 L 350 382.03125 C 350 382.03125 351.179688 382.03125 351.75 381.589844 C 351.75 381.589844 352.339844 381.148438 352.339844 380.238281 C 352.339844 380.238281 352.339844 379.339844 351.75 378.898438 C 351.75 378.898438 351.179688 378.449219 350 378.449219 L 347.628906 378.449219 M 346.019531 377.128906 L 350.121094 377.128906 C 350.121094 377.128906 351.960938 377.128906 352.960938 377.890625 C 352.960938 377.890625 353.949219 378.660156 353.949219 380.070312 C 353.949219 380.070312 353.949219 381.160156 353.441406 381.800781 C 353.441406 381.800781 352.929688 382.449219 351.949219 382.609375 C 351.949219 382.609375 353.128906 382.859375 353.78125 383.671875 C 353.78125 383.671875 354.441406 384.480469 354.441406 385.679688 C 354.441406 385.679688 354.441406 387.28125 353.359375 388.140625 C 353.359375 388.140625 352.28125 389.011719 350.28125 389.011719 L 346.019531 389.011719 Z M 346.019531 377.128906 "/>
<path style=" stroke:none;fill-rule:evenodd;fill:rgb(0%,0%,0%);fill-opacity:1;" d="M 359.398438 376.628906 L 359.398438 391.160156 L 356.03125 391.160156 L 356.03125 390.019531 L 357.929688 390.019531 L 357.929688 377.769531 L 356.03125 377.769531 L 356.03125 376.628906 Z M 359.398438 376.628906 "/>
<path style="fill:none;stroke-width:0.5;stroke-linecap:butt;stroke-linejoin:miter;stroke:rgb(0%,0%,0%);stroke-opacity:0.0980392;stroke-miterlimit:10;" d="M 61.078125 48.859375 L 588.191406 48.859375 " transform="matrix(1,0,0,-1,0,400)"/>
<path style="fill:none;stroke-width:0.5;stroke-linecap:butt;stroke-linejoin:miter;stroke:rgb(0%,0%,0%);stroke-opacity:0.0980392;stroke-miterlimit:10;" d="M 61.078125 122.078125 L 588.191406 122.078125 " transform="matrix(1,0,0,-1,0,400)"/>
<path style="fill:none;stroke-width:0.5;stroke-linecap:butt;stroke-linejoin:miter;stroke:rgb(0%,0%,0%);stroke-opacity:0.0980392;stroke-miterlimit:10;" d="M 61.078125 195.289062 L 588.191406 195.289062 " transform="matrix(1,0,0,-1,0,400)"/>
<path style="fill:none;stroke-width:0.5;stroke-linecap:butt;stroke-linejoin:miter;stroke:rgb(0%,0%,0%);stroke-opacity:0.0980392;stroke-miterlimit:10;" d="M 61.078125 268.511719 L 588.191406 268.511719 " transform="matrix(1,0,0,-1,0,400)"/>
<path style="fill:none;stroke-width:0.5;stroke-linecap:butt;stroke-linejoin:miter;stroke:rgb(0%,0%,0%);stroke-opacity:0.0980392;stroke-miterlimit:10;" d="M 61.078125 341.730469 L 588.191406 341.730469 " transform="matrix(1,0,0,-1,0,400)"/>
<path style="fill:none;stroke-width:1;stroke-linecap:butt;stroke-linejoin:miter;stroke:rgb(0%,0%,0%);stroke-opacity:1;stroke-miterlimit:10;" d="M 61.078125 44.210938 L 61.078125 369.128906 " transform="matrix(1,0,0,-1,0,400)"/>
<path style="fill:none;stroke-width:1;stroke-linecap:butt;stroke-linejoin:miter;stroke:rgb(0%,0%,0%);stroke-opacity:1;stroke-miterlimit:10;" d="M 61.078125 48.859375 L 67.398438 48.859375 " transform="matrix(1,0,0,-1,0,400)"/>
<path style="fill:none;stroke-width:1;stroke-linecap:butt;stroke-linejoin:miter;stroke:rgb(0%,0%,0%);stroke-opacity:1;stroke-miterlimit:10;" d="M 61.078125 122.078125 L 67.398438 122.078125 " transform="matrix(1,0,0,-1,0,400)"/>
<path style="fill:none;stroke-width:1;stroke-linecap:butt;stroke-linejoin:miter;stroke:rgb(0%,0%,0%);stroke-opacity:1;stroke-miterlimit:10;" d="M 61.078125 195.289062 L 67.398438 195.289062 " transform="matrix(1,0,0,-1,0,400)"/>
<path style="fill:none;stroke-width:1;stroke-linecap:butt;stroke-linejoin:miter;stroke:rgb(0%,0%,0%);stroke-opacity:1;stroke-miterlimit:10;" d="M 61.078125 268.511719 L 67.398438 268.511719 " transform="matrix(1,0,0,-1,0,400)"/>
<path style="fill:none;stroke-width:1;stroke-linecap:butt;stroke-linejoin:miter;stroke:rgb(0%,0%,0%);stroke-opacity:1;stroke-miterlimit:10;" d="M 61.078125 341.730469 L 67.398438 341.730469 " transform="matrix(1,0,0,-1,0,400)"/>
<path style=" stroke:none;fill-rule:evenodd;fill:rgb(0%,0%,0%);fill-opacity:1;" d="M 29.03125 356.078125 L 30.941406 356.078125 L 30.941406 349.488281 L 28.871094 349.910156 L 28.871094 348.839844 L 30.929688 348.429688 L 32.101562 348.429688 L 32.101562 356.078125 L 34.011719 356.078125 L 34.011719 357.070312 L 29.03125 357.070312 Z M 29.03125 356.078125 "/>
<path style=" stroke:none;fill-rule:evenodd;fill:rgb(0%,0%,0%);fill-opacity:1;" d="M 37.78125 349.199219 C 37.78125 349.199219 36.878906 349.199219 36.421875 350.089844 C 36.421875 350.089844 35.96875 350.96875 35.96875 352.761719 C 35.96875 352.761719 35.96875 354.53125 36.421875 355.421875 C 36.421875 355.421875 36.878906 356.308594 37.78125 356.308594 C 37.78125 356.308594 38.691406 356.308594 39.140625 355.421875 C 39.140625 355.421875 39.601562 354.53125 39.601562 352.761719 C 39.601562 352.761719 39.601562 350.96875 39.140625 350.089844 C 39.140625 350.089844 38.691406 349.199219 37.78125 349.199219 M 37.78125 348.269531 C 37.78125 348.269531 39.230469 348.269531 39.988281 349.421875 C 39.988281 349.421875 40.761719 350.570312 40.761719 352.761719 C 40.761719 352.761719 40.761719 354.941406 39.988281 356.089844 C 39.988281 356.089844 39.230469 357.238281 37.78125 357.238281 C 37.78125 357.238281 36.328125 357.238281 35.558594 356.089844 C 35.558594 356.089844 34.789062 354.941406 34.789062 352.761719 C 34.789062 352.761719 34.789062 350.570312 35.558594 349.421875 C 35.558594 349.421875 36.328125 348.269531 37.78125 348.269531 Z M 37.78125 348.269531 "/>
<path style=" stroke:none;fill-rule:evenodd;fill:rgb(0%,0%,0%);fill-opacity:1;" d="M 40.761719 346.800781 L 46.789062 346.800781 L 46.789062 347.601562 L 40.761719 347.601562 Z M 40.761719 346.800781 "/>
<path style=" stroke:none;fill-rule:evenodd;fill:rgb(0%,0%,0%);fill-opacity:1;" d="M 47.828125 343.199219 L 51.558594 343.199219 L 51.558594 343.988281 L 48.699219 343.988281 L 48.699219 345.71875 C 48.699219 345.71875 48.910156 345.648438 49.109375 345.609375 C 49.109375 345.609375 49.320312 345.570312 49.53125 345.570312 C 49.53125 345.570312 50.699219 345.570312 51.390625 346.21875 C 51.390625 346.21875 52.078125 346.859375 52.078125 347.960938 C 52.078125 347.960938 52.078125 349.101562 51.371094 349.730469 C 51.371094 349.730469 50.671875 350.351562 49.378906 350.351562 C 49.378906 350.351562 48.941406 350.351562 48.480469 350.28125 C 48.480469 350.28125 48.019531 350.199219 47.53125 350.050781 L 47.53125 349.101562 C 47.53125 349.101562 47.960938 349.328125 48.410156 349.441406 C 48.410156 349.441406 48.859375 349.550781 49.359375 349.550781 C 49.359375 349.550781 50.179688 349.550781 50.648438 349.121094 C 50.648438 349.121094 51.128906 348.699219 51.128906 347.960938 C 51.128906 347.960938 51.128906 347.230469 50.648438 346.800781 C 50.648438 346.800781 50.179688 346.371094 49.359375 346.371094 C 49.359375 346.371094 48.980469 346.371094 48.601562 346.460938 C 48.601562 346.460938 48.230469 346.539062 47.828125 346.71875 Z M 47.828125 343.199219 "/>
<path style=" stroke:none;fill-rule:evenodd;fill:rgb(0%,0%,0%);fill-opacity:1;" d="M 28.730469 282.871094 L 30.640625 282.871094 L 30.640625 276.28125 L 28.570312 276.691406 L 28.570312 275.628906 L 30.628906 275.210938 L 31.800781 275.210938 L 31.800781 282.871094 L 33.710938 282.871094 L 33.710938 283.851562 L 28.730469 283.851562 Z M 28.730469 282.871094 "/>
<path style=" stroke:none;fill-rule:evenodd;fill:rgb(0%,0%,0%);fill-opacity:1;" d="M 37.480469 275.980469 C 37.480469 275.980469 36.570312 275.980469 36.121094 276.871094 C 36.121094 276.871094 35.671875 277.761719 35.671875 279.539062 C 35.671875 279.539062 35.671875 281.320312 36.121094 282.210938 C 36.121094 282.210938 36.570312 283.089844 37.480469 283.089844 C 37.480469 283.089844 38.390625 283.089844 38.839844 282.210938 C 38.839844 282.210938 39.289062 281.320312 39.289062 279.539062 C 39.289062 279.539062 39.289062 277.761719 38.839844 276.871094 C 38.839844 276.871094 38.390625 275.980469 37.480469 275.980469 M 37.480469 275.058594 C 37.480469 275.058594 38.929688 275.058594 39.691406 276.210938 C 39.691406 276.210938 40.460938 277.351562 40.460938 279.539062 C 40.460938 279.539062 40.460938 281.71875 39.691406 282.871094 C 39.691406 282.871094 38.929688 284.019531 37.480469 284.019531 C 37.480469 284.019531 36.019531 284.019531 35.25 282.871094 C 35.25 282.871094 34.488281 281.71875 34.488281 279.539062 C 34.488281 279.539062 34.488281 277.351562 35.25 276.210938 C 35.25 276.210938 36.019531 275.058594 37.480469 275.058594 Z M 37.480469 275.058594 "/>
<path style=" stroke:none;fill-rule:evenodd;fill:rgb(0%,0%,0%);fill-opacity:1;" d="M 40.460938 273.578125 L 46.488281 273.578125 L 46.488281 274.378906 L 40.460938 274.378906 Z M 40.460938 273.578125 "/>
<path style=" stroke:none;fill-rule:evenodd;fill:rgb(0%,0%,0%);fill-opacity:1;" d="M 50.128906 270.808594 L 47.730469 274.558594 L 50.128906 274.558594 L 50.128906 270.808594 M 49.878906 269.980469 L 51.078125 269.980469 L 51.078125 274.558594 L 52.078125 274.558594 L 52.078125 275.351562 L 51.078125 275.351562 L 51.078125 277 L 50.128906 277 L 50.128906 275.351562 L 46.960938 275.351562 L 46.960938 274.429688 Z M 49.878906 269.980469 "/>
<path style=" stroke:none;fill-rule:evenodd;fill:rgb(0%,0%,0%);fill-opacity:1;" d="M 28.960938 209.648438 L 30.871094 209.648438 L 30.871094 203.058594 L 28.800781 203.480469 L 28.800781 202.410156 L 30.859375 202 L 32.03125 202 L 32.03125 209.648438 L 33.941406 209.648438 L 33.941406 210.640625 L 28.960938 210.640625 Z M 28.960938 209.648438 "/>
<path style=" stroke:none;fill-rule:evenodd;fill:rgb(0%,0%,0%);fill-opacity:1;" d="M 37.710938 202.769531 C 37.710938 202.769531 36.800781 202.769531 36.351562 203.660156 C 36.351562 203.660156 35.898438 204.539062 35.898438 206.328125 C 35.898438 206.328125 35.898438 208.101562 36.351562 208.988281 C 36.351562 208.988281 36.800781 209.878906 37.710938 209.878906 C 37.710938 209.878906 38.621094 209.878906 39.070312 208.988281 C 39.070312 208.988281 39.519531 208.101562 39.519531 206.328125 C 39.519531 206.328125 39.519531 204.539062 39.070312 203.660156 C 39.070312 203.660156 38.621094 202.769531 37.710938 202.769531 M 37.710938 201.839844 C 37.710938 201.839844 39.160156 201.839844 39.921875 202.988281 C 39.921875 202.988281 40.691406 204.140625 40.691406 206.328125 C 40.691406 206.328125 40.691406 208.511719 39.921875 209.660156 C 39.921875 209.660156 39.160156 210.800781 37.710938 210.800781 C 37.710938 210.800781 36.25 210.800781 35.488281 209.660156 C 35.488281 209.660156 34.71875 208.511719 34.71875 206.328125 C 34.71875 206.328125 34.71875 204.140625 35.488281 202.988281 C 35.488281 202.988281 36.25 201.839844 37.710938 201.839844 Z M 37.710938 201.839844 "/>
<path style=" stroke:none;fill-rule:evenodd;fill:rgb(0%,0%,0%);fill-opacity:1;" d="M 40.691406 200.371094 L 46.71875 200.371094 L 46.71875 201.171875 L 40.691406 201.171875 Z M 40.691406 200.371094 "/>
<path style=" stroke:none;fill-rule:evenodd;fill:rgb(0%,0%,0%);fill-opacity:1;" d="M 50.628906 200 C 50.628906 200 51.308594 200.148438 51.691406 200.609375 C 51.691406 200.609375 52.078125 201.070312 52.078125 201.738281 C 52.078125 201.738281 52.078125 202.78125 51.359375 203.351562 C 51.359375 203.351562 50.648438 203.921875 49.328125 203.921875 C 49.328125 203.921875 48.890625 203.921875 48.421875 203.828125 C 48.421875 203.828125 47.949219 203.75 47.449219 203.570312 L 47.449219 202.660156 C 47.449219 202.660156 47.851562 202.890625 48.320312 203 C 48.320312 203 48.789062 203.121094 49.300781 203.121094 C 49.300781 203.121094 50.199219 203.121094 50.660156 202.769531 C 50.660156 202.769531 51.128906 202.421875 51.128906 201.738281 C 51.128906 201.738281 51.128906 201.121094 50.691406 200.78125 C 50.691406 200.78125 50.261719 200.421875 49.488281 200.421875 L 48.671875 200.421875 L 48.671875 199.640625 L 49.519531 199.640625 C 49.519531 199.640625 50.21875 199.640625 50.601562 199.359375 C 50.601562 199.359375 50.96875 199.078125 50.96875 198.558594 C 50.96875 198.558594 50.96875 198.019531 50.578125 197.730469 C 50.578125 197.730469 50.199219 197.441406 49.488281 197.441406 C 49.488281 197.441406 49.101562 197.441406 48.648438 197.519531 C 48.648438 197.519531 48.199219 197.609375 47.671875 197.78125 L 47.671875 196.941406 C 47.671875 196.941406 48.210938 196.789062 48.679688 196.710938 C 48.679688 196.710938 49.148438 196.640625 49.570312 196.640625 C 49.570312 196.640625 50.648438 196.640625 51.28125 197.128906 C 51.28125 197.128906 51.910156 197.621094 51.910156 198.460938 C 51.910156 198.460938 51.910156 199.039062 51.578125 199.441406 C 51.578125 199.441406 51.238281 199.839844 50.628906 200 Z M 50.628906 200 "/>
<path style=" stroke:none;fill-rule:evenodd;fill:rgb(0%,0%,0%);fill-opacity:1;" d="M 29.160156 136.441406 L 31.070312 136.441406 L 31.070312 129.851562 L 28.988281 130.261719 L 28.988281 129.199219 L 31.050781 128.78125 L 32.21875 128.78125 L 32.21875 136.441406 L 34.128906 136.441406 L 34.128906 137.421875 L 29.160156 137.421875 Z M 29.160156 136.441406 "/>
<path style=" stroke:none;fill-rule:evenodd;fill:rgb(0%,0%,0%);fill-opacity:1;" d="M 37.898438 129.550781 C 37.898438 129.550781 37 129.550781 36.539062 130.441406 C 36.539062 130.441406 36.089844 131.328125 36.089844 133.109375 C 36.089844 133.109375 36.089844 134.890625 36.539062 135.78125 C 36.539062 135.78125 37 136.660156 37.898438 136.660156 C 37.898438 136.660156 38.808594 136.660156 39.261719 135.78125 C 39.261719 135.78125 39.71875 134.890625 39.71875 133.109375 C 39.71875 133.109375 39.71875 131.328125 39.261719 130.441406 C 39.261719 130.441406 38.808594 129.550781 37.898438 129.550781 M 37.898438 128.628906 C 37.898438 128.628906 39.351562 128.628906 40.121094 129.78125 C 40.121094 129.78125 40.890625 130.921875 40.890625 133.109375 C 40.890625 133.109375 40.890625 135.289062 40.121094 136.441406 C 40.121094 136.441406 39.351562 137.589844 37.898438 137.589844 C 37.898438 137.589844 36.449219 137.589844 35.679688 136.441406 C 35.679688 136.441406 34.910156 135.289062 34.910156 133.109375 C 34.910156 133.109375 34.910156 130.921875 35.679688 129.78125 C 35.679688 129.78125 36.449219 128.628906 37.898438 128.628906 Z M 37.898438 128.628906 "/>
<path style=" stroke:none;fill-rule:evenodd;fill:rgb(0%,0%,0%);fill-opacity:1;" d="M 40.890625 127.148438 L 46.910156 127.148438 L 46.910156 127.949219 L 40.890625 127.949219 Z M 40.890625 127.148438 "/>
<path style=" stroke:none;fill-rule:evenodd;fill:rgb(0%,0%,0%);fill-opacity:1;" d="M 48.761719 129.769531 L 52.078125 129.769531 L 52.078125 130.570312 L 47.621094 130.570312 L 47.621094 129.769531 C 47.621094 129.769531 48.160156 129.210938 49.089844 128.269531 C 49.089844 128.269531 50.03125 127.320312 50.269531 127.050781 C 50.269531 127.050781 50.71875 126.539062 50.898438 126.191406 C 50.898438 126.191406 51.078125 125.828125 51.078125 125.488281 C 51.078125 125.488281 51.078125 124.929688 50.691406 124.570312 C 50.691406 124.570312 50.300781 124.21875 49.671875 124.21875 C 49.671875 124.21875 49.21875 124.21875 48.71875 124.378906 C 48.71875 124.378906 48.230469 124.53125 47.671875 124.851562 L 47.671875 123.890625 C 47.671875 123.890625 48.238281 123.660156 48.738281 123.539062 C 48.738281 123.539062 49.238281 123.421875 49.648438 123.421875 C 49.648438 123.421875 50.738281 123.421875 51.390625 123.96875 C 51.390625 123.96875 52.039062 124.511719 52.039062 125.429688 C 52.039062 125.429688 52.039062 125.859375 51.871094 126.25 C 51.871094 126.25 51.710938 126.628906 51.289062 127.160156 C 51.289062 127.160156 51.171875 127.300781 50.539062 127.949219 C 50.539062 127.949219 49.910156 128.601562 48.761719 129.769531 Z M 48.761719 129.769531 "/>
<path style=" stroke:none;fill-rule:evenodd;fill:rgb(0%,0%,0%);fill-opacity:1;" d="M 29.078125 63.21875 L 30.988281 63.21875 L 30.988281 56.628906 L 28.910156 57.050781 L 28.910156 55.980469 L 30.980469 55.570312 L 32.148438 55.570312 L 32.148438 63.21875 L 34.058594 63.21875 L 34.058594 64.210938 L 29.078125 64.210938 Z M 29.078125 63.21875 "/>
<path style=" stroke:none;fill-rule:evenodd;fill:rgb(0%,0%,0%);fill-opacity:1;" d="M 37.820312 56.339844 C 37.820312 56.339844 36.921875 56.339844 36.46875 57.230469 C 36.46875 57.230469 36.011719 58.109375 36.011719 59.890625 C 36.011719 59.890625 36.011719 61.671875 36.46875 62.558594 C 36.46875 62.558594 36.921875 63.449219 37.820312 63.449219 C 37.820312 63.449219 38.730469 63.449219 39.179688 62.558594 C 39.179688 62.558594 39.640625 61.671875 39.640625 59.890625 C 39.640625 59.890625 39.640625 58.109375 39.179688 57.230469 C 39.179688 57.230469 38.730469 56.339844 37.820312 56.339844 M 37.820312 55.410156 C 37.820312 55.410156 39.28125 55.410156 40.039062 56.558594 C 40.039062 56.558594 40.808594 57.710938 40.808594 59.890625 C 40.808594 59.890625 40.808594 62.078125 40.039062 63.230469 C 40.039062 63.230469 39.28125 64.371094 37.820312 64.371094 C 37.820312 64.371094 36.371094 64.371094 35.601562 63.230469 C 35.601562 63.230469 34.839844 62.078125 34.839844 59.890625 C 34.839844 59.890625 34.839844 57.710938 35.601562 56.558594 C 35.601562 56.558594 36.371094 55.410156 37.820312 55.410156 Z M 37.820312 55.410156 "/>
<path style=" stroke:none;fill-rule:evenodd;fill:rgb(0%,0%,0%);fill-opacity:1;" d="M 40.808594 53.941406 L 46.839844 53.941406 L 46.839844 54.730469 L 40.808594 54.730469 Z M 40.808594 53.941406 "/>
<path style=" stroke:none;fill-rule:evenodd;fill:rgb(0%,0%,0%);fill-opacity:1;" d="M 48.03125 56.550781 L 49.578125 56.550781 L 49.578125 51.199219 L 47.898438 51.539062 L 47.898438 50.671875 L 49.578125 50.328125 L 50.53125 50.328125 L 50.53125 56.550781 L 52.078125 56.550781 L 52.078125 57.351562 L 48.03125 57.351562 Z M 48.03125 56.550781 "/>
<path style=" stroke:none;fill-rule:evenodd;fill:rgb(0%,0%,0%);fill-opacity:1;" d="M 11.441406 199.851562 L 15.910156 199.851562 L 15.910156 197.828125 C 15.910156 197.828125 15.910156 196.710938 15.328125 196.089844 C 15.328125 196.089844 14.738281 195.480469 13.671875 195.480469 C 13.671875 195.480469 12.601562 195.480469 12.019531 196.089844 C 12.019531 196.089844 11.441406 196.710938 11.441406 197.828125 L 11.441406 199.851562 M 10.121094 201.460938 L 10.121094 197.828125 C 10.121094 197.828125 10.121094 195.828125 11.03125 194.808594 C 11.03125 194.808594 11.929688 193.789062 13.671875 193.789062 C 13.671875 193.789062 15.429688 193.789062 16.328125 194.808594 C 16.328125 194.808594 17.230469 195.828125 17.230469 197.828125 L 17.230469 199.851562 L 22 199.851562 L 22 201.460938 Z M 10.121094 201.460938 "/>
<path style=" stroke:none;fill-rule:evenodd;fill:rgb(0%,0%,0%);fill-opacity:1;" d="M 17.179688 185.210938 L 17.898438 185.210938 L 17.898438 191.941406 C 17.898438 191.941406 19.410156 191.839844 20.199219 191.03125 C 20.199219 191.03125 20.988281 190.210938 20.988281 188.761719 C 20.988281 188.761719 20.988281 187.910156 20.78125 187.121094 C 20.78125 187.121094 20.578125 186.328125 20.160156 185.550781 L 21.550781 185.550781 C 21.550781 185.550781 21.878906 186.339844 22.058594 187.160156 C 22.058594 187.160156 22.230469 187.988281 22.230469 188.839844 C 22.230469 188.839844 22.230469 190.980469 20.988281 192.230469 C 20.988281 192.230469 19.75 193.46875 17.628906 193.46875 C 17.628906 193.46875 15.441406 193.46875 14.160156 192.289062 C 14.160156 192.289062 12.871094 191.101562 12.871094 189.101562 C 12.871094 189.101562 12.871094 187.300781 14.039062 186.261719 C 14.039062 186.261719 15.191406 185.210938 17.179688 185.210938 M 16.75 186.671875 C 16.75 186.671875 15.550781 186.691406 14.828125 187.351562 C 14.828125 187.351562 14.121094 188 14.121094 189.078125 C 14.121094 189.078125 14.121094 190.308594 14.808594 191.050781 C 14.808594 191.050781 15.5 191.78125 16.761719 191.890625 Z M 16.75 186.671875 "/>
<path style=" stroke:none;fill-rule:evenodd;fill:rgb(0%,0%,0%);fill-opacity:1;" d="M 304.511719 4.808594 L 299.351562 12.878906 L 304.511719 12.878906 L 304.511719 4.808594 M 303.96875 3.019531 L 306.550781 3.019531 L 306.550781 12.878906 L 308.699219 12.878906 L 308.699219 14.578125 L 306.550781 14.578125 L 306.550781 18.140625 L 304.511719 18.140625 L 304.511719 14.578125 L 297.679688 14.578125 L 297.679688 12.601562 Z M 303.96875 3.019531 "/>
<path style=" stroke:none;fill-rule:evenodd;fill:rgb(0%,0%,0%);fill-opacity:1;" d="M 309.71875 11.628906 L 315.171875 11.628906 L 315.171875 13.289062 L 309.71875 13.289062 Z M 309.71875 11.628906 "/>
<path style=" stroke:none;fill-rule:evenodd;fill:rgb(0%,0%,0%);fill-opacity:1;" d="M 317.210938 3.019531 L 325.898438 3.019531 L 325.898438 4.75 L 319.261719 4.75 L 319.261719 9.199219 L 325.25 9.199219 L 325.25 10.921875 L 319.261719 10.921875 L 319.261719 18.140625 L 317.210938 18.140625 Z M 317.210938 3.019531 "/>
<path style=" stroke:none;fill-rule:evenodd;fill:rgb(0%,0%,0%);fill-opacity:1;" d="M 336.628906 3.519531 L 336.628906 5.519531 C 336.628906 5.519531 335.46875 4.960938 334.441406 4.679688 C 334.441406 4.679688 333.398438 4.410156 332.441406 4.410156 C 332.441406 4.410156 330.769531 4.410156 329.859375 5.058594 C 329.859375 5.058594 328.960938 5.710938 328.960938 6.898438 C 328.960938 6.898438 328.960938 7.910156 329.550781 8.421875 C 329.550781 8.421875 330.160156 8.929688 331.839844 9.238281 L 333.078125 9.5 C 333.078125 9.5 335.371094 9.929688 336.449219 11.03125 C 336.449219 11.03125 337.550781 12.128906 337.550781 13.96875 C 337.550781 13.96875 337.550781 16.171875 336.070312 17.300781 C 336.070312 17.300781 334.601562 18.441406 331.75 18.441406 C 331.75 18.441406 330.679688 18.441406 329.460938 18.191406 C 329.460938 18.191406 328.261719 17.949219 326.960938 17.480469 L 326.960938 15.371094 C 326.960938 15.371094 328.210938 16.070312 329.398438 16.421875 C 329.398438 16.421875 330.601562 16.78125 331.75 16.78125 C 331.75 16.78125 333.5 16.78125 334.460938 16.089844 C 334.460938 16.089844 335.410156 15.398438 335.410156 14.121094 C 335.410156 14.121094 335.410156 13.011719 334.71875 12.378906 C 334.71875 12.378906 334.039062 11.75 332.480469 11.441406 L 331.238281 11.199219 C 331.238281 11.199219 328.949219 10.738281 327.921875 9.769531 C 327.921875 9.769531 326.898438 8.800781 326.898438 7.058594 C 326.898438 7.058594 326.898438 5.058594 328.308594 3.910156 C 328.308594 3.910156 329.730469 2.75 332.210938 2.75 C 332.210938 2.75 333.269531 2.75 334.378906 2.941406 C 334.378906 2.941406 335.480469 3.140625 336.628906 3.519531 Z M 336.628906 3.519531 "/>
<path style=" stroke:none;fill-rule:evenodd;fill:rgb(0%,0%,0%);fill-opacity:1;" d="M 339.578125 3.019531 L 341.628906 3.019531 L 341.628906 9.410156 L 348.410156 3.019531 L 351.039062 3.019531 L 343.539062 10.070312 L 351.578125 18.140625 L 348.890625 18.140625 L 341.628906 10.859375 L 341.628906 18.140625 L 339.578125 18.140625 Z M 339.578125 3.019531 "/>
<path style="fill:none;stroke-width:1;stroke-linecap:butt;stroke-linejoin:miter;stroke:rgb(0%,60.559082%,97.869873%);stroke-opacity:1;stroke-miterlimit:10;" d="M 76 359.921875 L 125.71875 350.480469 L 175.449219 338.789062 L 225.179688 324.28125 L 274.910156 306.21875 L 324.628906 283.710938 L 374.359375 255.609375 L 424.089844 220.511719 L 473.820312 176.660156 L 523.539062 121.871094 L 573.269531 53.398438 " transform="matrix(1,0,0,-1,0,400)"/>
<path style="fill-rule:evenodd;fill:rgb(0%,60.559082%,97.869873%);fill-opacity:1;stroke-width:0.8;stroke-linecap:butt;stroke-linejoin:miter;stroke:rgb(0%,0%,0%);stroke-opacity:1;stroke-miterlimit:10;" d="M 76 362.921875 C 74.339844 362.921875 73 361.578125 73 359.921875 C 73 358.261719 74.339844 356.921875 76 356.921875 C 77.648438 356.921875 79 358.261719 79 359.921875 C 79 361.578125 77.648438 362.921875 76 362.921875 Z M 76 362.921875 " transform="matrix(1,0,0,-1,0,400)"/>
<path style="fill-rule:evenodd;fill:rgb(0%,60.559082%,97.869873%);fill-opacity:1;stroke-width:0.8;stroke-linecap:butt;stroke-linejoin:miter;stroke:rgb(0%,0%,0%);stroke-opacity:1;stroke-miterlimit:10;" d="M 125.71875 353.480469 C 124.070312 353.480469 122.71875 352.128906 122.71875 350.480469 C 122.71875 348.820312 124.070312 347.480469 125.71875 347.480469 C 127.378906 347.480469 128.71875 348.820312 128.71875 350.480469 C 128.71875 352.128906 127.378906 353.480469 125.71875 353.480469 Z M 125.71875 353.480469 " transform="matrix(1,0,0,-1,0,400)"/>
<path style="fill-rule:evenodd;fill:rgb(0%,60.559082%,97.869873%);fill-opacity:1;stroke-width:0.8;stroke-linecap:butt;stroke-linejoin:miter;stroke:rgb(0%,0%,0%);stroke-opacity:1;stroke-miterlimit:10;" d="M 175.449219 341.789062 C 173.789062 341.789062 172.449219 340.449219 172.449219 338.789062 C 172.449219 337.128906 173.789062 335.789062 175.449219 335.789062 C 177.109375 335.789062 178.449219 337.128906 178.449219 338.789062 C 178.449219 340.449219 177.109375 341.789062 175.449219 341.789062 Z M 175.449219 341.789062 " transform="matrix(1,0,0,-1,0,400)"/>
<path style="fill-rule:evenodd;fill:rgb(0%,60.559082%,97.869873%);fill-opacity:1;stroke-width:0.8;stroke-linecap:butt;stroke-linejoin:miter;stroke:rgb(0%,0%,0%);stroke-opacity:1;stroke-miterlimit:10;" d="M 225.179688 327.28125 C 223.519531 327.28125 222.179688 325.929688 222.179688 324.28125 C 222.179688 322.621094 223.519531 321.28125 225.179688 321.28125 C 226.828125 321.28125 228.179688 322.621094 228.179688 324.28125 C 228.179688 325.929688 226.828125 327.28125 225.179688 327.28125 Z M 225.179688 327.28125 " transform="matrix(1,0,0,-1,0,400)"/>
<path style="fill-rule:evenodd;fill:rgb(0%,60.559082%,97.869873%);fill-opacity:1;stroke-width:0.8;stroke-linecap:butt;stroke-linejoin:miter;stroke:rgb(0%,0%,0%);stroke-opacity:1;stroke-miterlimit:10;" d="M 274.910156 309.21875 C 273.25 309.21875 271.910156 307.878906 271.910156 306.21875 C 271.910156 304.558594 273.25 303.21875 274.910156 303.21875 C 276.558594 303.21875 277.910156 304.558594 277.910156 306.21875 C 277.910156 307.878906 276.558594 309.21875 274.910156 309.21875 Z M 274.910156 309.21875 " transform="matrix(1,0,0,-1,0,400)"/>
<path style="fill-rule:evenodd;fill:rgb(0%,60.559082%,97.869873%);fill-opacity:1;stroke-width:0.8;stroke-linecap:butt;stroke-linejoin:miter;stroke:rgb(0%,0%,0%);stroke-opacity:1;stroke-miterlimit:10;" d="M 324.628906 286.710938 C 322.980469 286.710938 321.628906 285.359375 321.628906 283.710938 C 321.628906 282.050781 322.980469 280.710938 324.628906 280.710938 C 326.289062 280.710938 327.628906 282.050781 327.628906 283.710938 C 327.628906 285.359375 326.289062 286.710938 324.628906 286.710938 Z M 324.628906 286.710938 " transform="matrix(1,0,0,-1,0,400)"/>
<path style="fill-rule:evenodd;fill:rgb(0%,60.559082%,97.869873%);fill-opacity:1;stroke-width:0.8;stroke-linecap:butt;stroke-linejoin:miter;stroke:rgb(0%,0%,0%);stroke-opacity:1;stroke-miterlimit:10;" d="M 374.359375 258.609375 C 372.699219 258.609375 371.359375 257.261719 371.359375 255.609375 C 371.359375 253.949219 372.699219 252.609375 374.359375 252.609375 C 376.019531 252.609375 377.359375 253.949219 377.359375 255.609375 C 377.359375 257.261719 376.019531 258.609375 374.359375 258.609375 Z M 374.359375 258.609375 " transform="matrix(1,0,0,-1,0,400)"/>
<path style="fill-rule:evenodd;fill:rgb(0%,60.559082%,97.869873%);fill-opacity:1;stroke-width:0.8;stroke-linecap:butt;stroke-linejoin:miter;stroke:rgb(0%,0%,0%);stroke-opacity:1;stroke-miterlimit:10;" d="M 424.089844 223.511719 C 422.429688 223.511719 421.089844 222.171875 421.089844 220.511719 C 421.089844 218.851562 422.429688 217.511719 424.089844 217.511719 C 425.738281 217.511719 427.089844 218.851562 427.089844 220.511719 C 427.089844 222.171875 425.738281 223.511719 424.089844 223.511719 Z M 424.089844 223.511719 " transform="matrix(1,0,0,-1,0,400)"/>
<path style="fill-rule:evenodd;fill:rgb(0%,60.559082%,97.869873%);fill-opacity:1;stroke-width:0.8;stroke-linecap:butt;stroke-linejoin:miter;stroke:rgb(0%,0%,0%);stroke-opacity:1;stroke-miterlimit:10;" d="M 473.820312 179.660156 C 472.160156 179.660156 470.820312 178.320312 470.820312 176.660156 C 470.820312 175 472.160156 173.660156 473.820312 173.660156 C 475.46875 173.660156 476.820312 175 476.820312 176.660156 C 476.820312 178.320312 475.46875 179.660156 473.820312 179.660156 Z M 473.820312 179.660156 " transform="matrix(1,0,0,-1,0,400)"/>
<path style="fill-rule:evenodd;fill:rgb(0%,60.559082%,97.869873%);fill-opacity:1;stroke-width:0.8;stroke-linecap:butt;stroke-linejoin:miter;stroke:rgb(0%,0%,0%);stroke-opacity:1;stroke-miterlimit:10;" d="M 523.539062 124.871094 C 521.890625 124.871094 520.539062 123.53125 520.539062 121.871094 C 520.539062 120.210938 521.890625 118.871094 523.539062 118.871094 C 525.199219 118.871094 526.539062 120.210938 526.539062 121.871094 C 526.539062 123.53125 525.199219 124.871094 523.539062 124.871094 Z M 523.539062 124.871094 " transform="matrix(1,0,0,-1,0,400)"/>
<path style="fill-rule:evenodd;fill:rgb(0%,60.559082%,97.869873%);fill-opacity:1;stroke-width:0.8;stroke-linecap:butt;stroke-linejoin:miter;stroke:rgb(0%,0%,0%);stroke-opacity:1;stroke-miterlimit:10;" d="M 573.269531 56.398438 C 571.609375 56.398438 570.269531 55.058594 570.269531 53.398438 C 570.269531 51.738281 571.609375 50.398438 573.269531 50.398438 C 574.929688 50.398438 576.269531 51.738281 576.269531 53.398438 C 576.269531 55.058594 574.929688 56.398438 573.269531 56.398438 Z M 573.269531 56.398438 " transform="matrix(1,0,0,-1,0,400)"/>
<path style="fill:none;stroke-width:1;stroke-linecap:butt;stroke-linejoin:miter;stroke:rgb(88.88855%,43.559265%,27.809143%);stroke-opacity:1;stroke-miterlimit:10;" d="M 76 359.941406 L 125.71875 350.398438 L 175.449219 338.75 L 225.179688 324.28125 L 274.910156 306.160156 L 324.628906 283.71875 L 374.359375 255.058594 L 424.089844 221.109375 L 473.820312 176.570312 L 523.539062 125.398438 L 573.269531 61.761719 " transform="matrix(1,0,0,-1,0,400)"/>
<path style="fill-rule:evenodd;fill:rgb(88.88855%,43.559265%,27.809143%);fill-opacity:1;stroke-width:0.8;stroke-linecap:butt;stroke-linejoin:miter;stroke:rgb(0%,0%,0%);stroke-opacity:1;stroke-miterlimit:10;" d="M 76 362.941406 C 74.339844 362.941406 73 361.589844 73 359.941406 C 73 358.28125 74.339844 356.941406 76 356.941406 C 77.648438 356.941406 79 358.28125 79 359.941406 C 79 361.589844 77.648438 362.941406 76 362.941406 Z M 76 362.941406 " transform="matrix(1,0,0,-1,0,400)"/>
<path style="fill-rule:evenodd;fill:rgb(88.88855%,43.559265%,27.809143%);fill-opacity:1;stroke-width:0.8;stroke-linecap:butt;stroke-linejoin:miter;stroke:rgb(0%,0%,0%);stroke-opacity:1;stroke-miterlimit:10;" d="M 125.71875 353.398438 C 124.070312 353.398438 122.71875 352.050781 122.71875 350.398438 C 122.71875 348.738281 124.070312 347.398438 125.71875 347.398438 C 127.378906 347.398438 128.71875 348.738281 128.71875 350.398438 C 128.71875 352.050781 127.378906 353.398438 125.71875 353.398438 Z M 125.71875 353.398438 " transform="matrix(1,0,0,-1,0,400)"/>
<path style="fill-rule:evenodd;fill:rgb(88.88855%,43.559265%,27.809143%);fill-opacity:1;stroke-width:0.8;stroke-linecap:butt;stroke-linejoin:miter;stroke:rgb(0%,0%,0%);stroke-opacity:1;stroke-miterlimit:10;" d="M 175.449219 341.75 C 173.789062 341.75 172.449219 340.410156 172.449219 338.75 C 172.449219 337.089844 173.789062 335.75 175.449219 335.75 C 177.109375 335.75 178.449219 337.089844 178.449219 338.75 C 178.449219 340.410156 177.109375 341.75 175.449219 341.75 Z M 175.449219 341.75 " transform="matrix(1,0,0,-1,0,400)"/>
<path style="fill-rule:evenodd;fill:rgb(88.88855%,43.559265%,27.809143%);fill-opacity:1;stroke-width:0.8;stroke-linecap:butt;stroke-linejoin:miter;stroke:rgb(0%,0%,0%);stroke-opacity:1;stroke-miterlimit:10;" d="M 225.179688 327.28125 C 223.519531 327.28125 222.179688 325.929688 222.179688 324.28125 C 222.179688 322.621094 223.519531 321.28125 225.179688 321.28125 C 226.828125 321.28125 228.179688 322.621094 228.179688 324.28125 C 228.179688 325.929688 226.828125 327.28125 225.179688 327.28125 Z M 225.179688 327.28125 " transform="matrix(1,0,0,-1,0,400)"/>
<path style="fill-rule:evenodd;fill:rgb(88.88855%,43.559265%,27.809143%);fill-opacity:1;stroke-width:0.8;stroke-linecap:butt;stroke-linejoin:miter;stroke:rgb(0%,0%,0%);stroke-opacity:1;stroke-miterlimit:10;" d="M 274.910156 309.160156 C 273.25 309.160156 271.910156 307.808594 271.910156 306.160156 C 271.910156 304.5 273.25 303.160156 274.910156 303.160156 C 276.558594 303.160156 277.910156 304.5 277.910156 306.160156 C 277.910156 307.808594 276.558594 309.160156 274.910156 309.160156 Z M 274.910156 309.160156 " transform="matrix(1,0,0,-1,0,400)"/>
<path style="fill-rule:evenodd;fill:rgb(88.88855%,43.559265%,27.809143%);fill-opacity:1;stroke-width:0.8;stroke-linecap:butt;stroke-linejoin:miter;stroke:rgb(0%,0%,0%);stroke-opacity:1;stroke-miterlimit:10;" d="M 324.628906 286.71875 C 322.980469 286.71875 321.628906 285.378906 321.628906 283.71875 C 321.628906 282.058594 322.980469 280.71875 324.628906 280.71875 C 326.289062 280.71875 327.628906 282.058594 327.628906 283.71875 C 327.628906 285.378906 326.289062 286.71875 324.628906 286.71875 Z M 324.628906 286.71875 " transform="matrix(1,0,0,-1,0,400)"/>
<path style="fill-rule:evenodd;fill:rgb(88.88855%,43.559265%,27.809143%);fill-opacity:1;stroke-width:0.8;stroke-linecap:butt;stroke-linejoin:miter;stroke:rgb(0%,0%,0%);stroke-opacity:1;stroke-miterlimit:10;" d="M 374.359375 258.058594 C 372.699219 258.058594 371.359375 256.71875 371.359375 255.058594 C 371.359375 253.398438 372.699219 252.058594 374.359375 252.058594 C 376.019531 252.058594 377.359375 253.398438 377.359375 255.058594 C 377.359375 256.71875 376.019531 258.058594 374.359375 258.058594 Z M 374.359375 258.058594 " transform="matrix(1,0,0,-1,0,400)"/>
<path style="fill-rule:evenodd;fill:rgb(88.88855%,43.559265%,27.809143%);fill-opacity:1;stroke-width:0.8;stroke-linecap:butt;stroke-linejoin:miter;stroke:rgb(0%,0%,0%);stroke-opacity:1;stroke-miterlimit:10;" d="M 424.089844 224.109375 C 422.429688 224.109375 421.089844 222.769531 421.089844 221.109375 C 421.089844 219.449219 422.429688 218.109375 424.089844 218.109375 C 425.738281 218.109375 427.089844 219.449219 427.089844 221.109375 C 427.089844 222.769531 425.738281 224.109375 424.089844 224.109375 Z M 424.089844 224.109375 " transform="matrix(1,0,0,-1,0,400)"/>
<path style="fill-rule:evenodd;fill:rgb(88.88855%,43.559265%,27.809143%);fill-opacity:1;stroke-width:0.8;stroke-linecap:butt;stroke-linejoin:miter;stroke:rgb(0%,0%,0%);stroke-opacity:1;stroke-miterlimit:10;" d="M 473.820312 179.570312 C 472.160156 179.570312 470.820312 178.230469 470.820312 176.570312 C 470.820312 174.921875 472.160156 173.570312 473.820312 173.570312 C 475.46875 173.570312 476.820312 174.921875 476.820312 176.570312 C 476.820312 178.230469 475.46875 179.570312 473.820312 179.570312 Z M 473.820312 179.570312 " transform="matrix(1,0,0,-1,0,400)"/>
<path style="fill-rule:evenodd;fill:rgb(88.88855%,43.559265%,27.809143%);fill-opacity:1;stroke-width:0.8;stroke-linecap:butt;stroke-linejoin:miter;stroke:rgb(0%,0%,0%);stroke-opacity:1;stroke-miterlimit:10;" d="M 523.539062 128.398438 C 521.890625 128.398438 520.539062 127.050781 520.539062 125.398438 C 520.539062 123.738281 521.890625 122.398438 523.539062 122.398438 C 525.199219 122.398438 526.539062 123.738281 526.539062 125.398438 C 526.539062 127.050781 525.199219 128.398438 523.539062 128.398438 Z M 523.539062 128.398438 " transform="matrix(1,0,0,-1,0,400)"/>
<path style="fill-rule:evenodd;fill:rgb(88.88855%,43.559265%,27.809143%);fill-opacity:1;stroke-width:0.8;stroke-linecap:butt;stroke-linejoin:miter;stroke:rgb(0%,0%,0%);stroke-opacity:1;stroke-miterlimit:10;" d="M 573.269531 64.761719 C 571.609375 64.761719 570.269531 63.410156 570.269531 61.761719 C 570.269531 60.101562 571.609375 58.761719 573.269531 58.761719 C 574.929688 58.761719 576.269531 60.101562 576.269531 61.761719 C 576.269531 63.410156 574.929688 64.761719 573.269531 64.761719 Z M 573.269531 64.761719 " transform="matrix(1,0,0,-1,0,400)"/>
<path style=" stroke:none;fill-rule:evenodd;fill:rgb(100%,100%,100%);fill-opacity:1;" d="M 452.828125 87.058594 L 570.621094 87.058594 L 570.621094 41.699219 L 452.828125 41.699219 "/>
<path style="fill:none;stroke-width:1;stroke-linecap:butt;stroke-linejoin:miter;stroke:rgb(0%,0%,0%);stroke-opacity:1;stroke-miterlimit:10;" d="M 452.828125 312.941406 L 570.621094 312.941406 L 570.621094 358.300781 L 452.828125 358.300781 L 452.828125 312.941406 " transform="matrix(1,0,0,-1,0,400)"/>
<path style="fill:none;stroke-width:1;stroke-linecap:butt;stroke-linejoin:miter;stroke:rgb(0%,60.559082%,97.869873%);stroke-opacity:1;stroke-miterlimit:10;" d="M 458.691406 343.179688 L 493.828125 343.179688 " transform="matrix(1,0,0,-1,0,400)"/>
<path style="fill-rule:evenodd;fill:rgb(0%,60.559082%,97.869873%);fill-opacity:1;stroke-width:1.28;stroke-linecap:butt;stroke-linejoin:miter;stroke:rgb(0%,0%,0%);stroke-opacity:1;stroke-miterlimit:10;" d="M 476.261719 348.179688 C 473.5 348.179688 471.261719 345.941406 471.261719 343.179688 C 471.261719 340.421875 473.5 338.179688 476.261719 338.179688 C 479.019531 338.179688 481.261719 340.421875 481.261719 343.179688 C 481.261719 345.941406 479.019531 348.179688 476.261719 348.179688 Z M 476.261719 348.179688 " transform="matrix(1,0,0,-1,0,400)"/>
<path style=" stroke:none;fill-rule:evenodd;fill:rgb(0%,0%,0%);fill-opacity:1;" d="M 501.539062 52.820312 L 501.539062 54.660156 L 503.730469 54.660156 L 503.730469 55.488281 L 501.539062 55.488281 L 501.539062 59 C 501.539062 59 501.539062 59.800781 501.75 60.019531 C 501.75 60.019531 501.96875 60.25 502.640625 60.25 L 503.730469 60.25 L 503.730469 61.140625 L 502.640625 61.140625 C 502.640625 61.140625 501.410156 61.140625 500.941406 60.679688 C 500.941406 60.679688 500.46875 60.21875 500.46875 59 L 500.46875 55.488281 L 499.691406 55.488281 L 499.691406 54.660156 L 500.46875 54.660156 L 500.46875 52.820312 Z M 501.539062 52.820312 "/>
<path style=" stroke:none;fill-rule:evenodd;fill:rgb(0%,0%,0%);fill-opacity:1;" d="M 510.238281 57.230469 L 510.238281 61.140625 L 509.171875 61.140625 L 509.171875 57.261719 C 509.171875 57.261719 509.171875 56.339844 508.808594 55.878906 C 508.808594 55.878906 508.449219 55.429688 507.738281 55.429688 C 507.738281 55.429688 506.871094 55.429688 506.378906 55.980469 C 506.378906 55.980469 505.878906 56.53125 505.878906 57.480469 L 505.878906 61.140625 L 504.808594 61.140625 L 504.808594 52.128906 L 505.878906 52.128906 L 505.878906 55.660156 C 505.878906 55.660156 506.261719 55.078125 506.78125 54.789062 C 506.78125 54.789062 507.300781 54.5 507.96875 54.5 C 507.96875 54.5 509.089844 54.5 509.660156 55.199219 C 509.660156 55.199219 510.238281 55.878906 510.238281 57.230469 Z M 510.238281 57.230469 "/>
<path style=" stroke:none;fill-rule:evenodd;fill:rgb(0%,0%,0%);fill-opacity:1;" d="M 516.898438 57.628906 L 516.898438 58.148438 L 512 58.148438 C 512 58.148438 512.070312 59.25 512.660156 59.828125 C 512.660156 59.828125 513.261719 60.398438 514.320312 60.398438 C 514.320312 60.398438 514.929688 60.398438 515.5 60.25 C 515.5 60.25 516.078125 60.101562 516.648438 59.800781 L 516.648438 60.808594 C 516.648438 60.808594 516.078125 61.050781 515.46875 61.179688 C 515.46875 61.179688 514.871094 61.308594 514.25 61.308594 C 514.25 61.308594 512.699219 61.308594 511.789062 60.398438 C 511.789062 60.398438 510.890625 59.5 510.890625 57.960938 C 510.890625 57.960938 510.890625 56.371094 511.75 55.441406 C 511.75 55.441406 512.609375 54.5 514.070312 54.5 C 514.070312 54.5 515.378906 54.5 516.128906 55.351562 C 516.128906 55.351562 516.898438 56.191406 516.898438 57.628906 M 515.828125 57.320312 C 515.828125 57.320312 515.820312 56.449219 515.339844 55.921875 C 515.339844 55.921875 514.871094 55.398438 514.078125 55.398438 C 514.078125 55.398438 513.191406 55.398438 512.648438 55.910156 C 512.648438 55.910156 512.121094 56.410156 512.039062 57.328125 Z M 515.828125 57.320312 "/>
<path style=" stroke:none;fill-rule:evenodd;fill:rgb(0%,0%,0%);fill-opacity:1;" d="M 520.53125 55.398438 C 520.53125 55.398438 519.671875 55.398438 519.171875 56.078125 C 519.171875 56.078125 518.671875 56.738281 518.671875 57.898438 C 518.671875 57.898438 518.671875 59.070312 519.171875 59.738281 C 519.171875 59.738281 519.660156 60.398438 520.53125 60.398438 C 520.53125 60.398438 521.378906 60.398438 521.871094 59.730469 C 521.871094 59.730469 522.371094 59.058594 522.371094 57.898438 C 522.371094 57.898438 522.371094 56.75 521.871094 56.078125 C 521.871094 56.078125 521.378906 55.398438 520.53125 55.398438 M 520.53125 54.5 C 520.53125 54.5 521.910156 54.5 522.710938 55.398438 C 522.710938 55.398438 523.5 56.308594 523.5 57.898438 C 523.5 57.898438 523.5 59.5 522.710938 60.398438 C 522.710938 60.398438 521.910156 61.308594 520.53125 61.308594 C 520.53125 61.308594 519.128906 61.308594 518.339844 60.398438 C 518.339844 60.398438 517.550781 59.5 517.550781 57.898438 C 517.550781 57.898438 517.550781 56.308594 518.339844 55.398438 C 518.339844 55.398438 519.128906 54.5 520.53125 54.5 Z M 520.53125 54.5 "/>
<path style=" stroke:none;fill-rule:evenodd;fill:rgb(0%,0%,0%);fill-opacity:1;" d="M 528.371094 55.648438 C 528.371094 55.648438 528.191406 55.550781 527.980469 55.5 C 527.980469 55.5 527.769531 55.449219 527.519531 55.449219 C 527.519531 55.449219 526.609375 55.449219 526.128906 56.039062 C 526.128906 56.039062 525.648438 56.628906 525.648438 57.71875 L 525.648438 61.140625 L 524.578125 61.140625 L 524.578125 54.660156 L 525.648438 54.660156 L 525.648438 55.660156 C 525.648438 55.660156 525.980469 55.070312 526.519531 54.789062 C 526.519531 54.789062 527.058594 54.5 527.828125 54.5 C 527.828125 54.5 527.941406 54.5 528.070312 54.519531 C 528.070312 54.519531 528.199219 54.53125 528.371094 54.558594 Z M 528.371094 55.648438 "/>
<path style=" stroke:none;fill-rule:evenodd;fill:rgb(0%,0%,0%);fill-opacity:1;" d="M 534.769531 57.628906 L 534.769531 58.148438 L 529.878906 58.148438 C 529.878906 58.148438 529.949219 59.25 530.539062 59.828125 C 530.539062 59.828125 531.128906 60.398438 532.191406 60.398438 C 532.191406 60.398438 532.808594 60.398438 533.378906 60.25 C 533.378906 60.25 533.960938 60.101562 534.519531 59.800781 L 534.519531 60.808594 C 534.519531 60.808594 533.949219 61.050781 533.351562 61.179688 C 533.351562 61.179688 532.75 61.308594 532.128906 61.308594 C 532.128906 61.308594 530.578125 61.308594 529.671875 60.398438 C 529.671875 60.398438 528.769531 59.5 528.769531 57.960938 C 528.769531 57.960938 528.769531 56.371094 529.621094 55.441406 C 529.621094 55.441406 530.480469 54.5 531.941406 54.5 C 531.941406 54.5 533.25 54.5 534.011719 55.351562 C 534.011719 55.351562 534.769531 56.191406 534.769531 57.628906 M 533.710938 57.320312 C 533.710938 57.320312 533.699219 56.449219 533.21875 55.921875 C 533.21875 55.921875 532.738281 55.398438 531.949219 55.398438 C 531.949219 55.398438 531.058594 55.398438 530.53125 55.910156 C 530.53125 55.910156 529.988281 56.410156 529.910156 57.328125 Z M 533.710938 57.320312 "/>
<path style=" stroke:none;fill-rule:evenodd;fill:rgb(0%,0%,0%);fill-opacity:1;" d="M 536.941406 52.820312 L 536.941406 54.660156 L 539.140625 54.660156 L 539.140625 55.488281 L 536.941406 55.488281 L 536.941406 59 C 536.941406 59 536.941406 59.800781 537.160156 60.019531 C 537.160156 60.019531 537.378906 60.25 538.039062 60.25 L 539.140625 60.25 L 539.140625 61.140625 L 538.039062 61.140625 C 538.039062 61.140625 536.808594 61.140625 536.339844 60.679688 C 536.339844 60.679688 535.871094 60.21875 535.871094 59 L 535.871094 55.488281 L 535.089844 55.488281 L 535.089844 54.660156 L 535.871094 54.660156 L 535.871094 52.820312 Z M 536.941406 52.820312 "/>
<path style=" stroke:none;fill-rule:evenodd;fill:rgb(0%,0%,0%);fill-opacity:1;" d="M 540.25 54.660156 L 541.320312 54.660156 L 541.320312 61.140625 L 540.25 61.140625 L 540.25 54.660156 M 540.25 52.128906 L 541.320312 52.128906 L 541.320312 53.480469 L 540.25 53.480469 Z M 540.25 52.128906 "/>
<path style=" stroke:none;fill-rule:evenodd;fill:rgb(0%,0%,0%);fill-opacity:1;" d="M 547.101562 54.910156 L 547.101562 55.898438 C 547.101562 55.898438 546.648438 55.648438 546.191406 55.53125 C 546.191406 55.53125 545.738281 55.398438 545.28125 55.398438 C 545.28125 55.398438 544.238281 55.398438 543.671875 56.058594 C 543.671875 56.058594 543.089844 56.71875 543.089844 57.898438 C 543.089844 57.898438 543.089844 59.089844 543.671875 59.75 C 543.671875 59.75 544.238281 60.398438 545.28125 60.398438 C 545.28125 60.398438 545.738281 60.398438 546.191406 60.28125 C 546.191406 60.28125 546.648438 60.160156 547.101562 59.910156 L 547.101562 60.890625 C 547.101562 60.890625 546.648438 61.101562 546.171875 61.199219 C 546.171875 61.199219 545.699219 61.308594 545.160156 61.308594 C 545.160156 61.308594 543.699219 61.308594 542.828125 60.390625 C 542.828125 60.390625 541.96875 59.46875 541.96875 57.898438 C 541.96875 57.898438 541.96875 56.320312 542.839844 55.410156 C 542.839844 55.410156 543.710938 54.5 545.230469 54.5 C 545.230469 54.5 545.71875 54.5 546.191406 54.609375 C 546.191406 54.609375 546.660156 54.699219 547.101562 54.910156 Z M 547.101562 54.910156 "/>
<path style=" stroke:none;fill-rule:evenodd;fill:rgb(0%,0%,0%);fill-opacity:1;" d="M 551.160156 57.878906 C 551.160156 57.878906 549.871094 57.878906 549.371094 58.179688 C 549.371094 58.179688 548.878906 58.46875 548.878906 59.179688 C 548.878906 59.179688 548.878906 59.75 549.25 60.089844 C 549.25 60.089844 549.621094 60.421875 550.261719 60.421875 C 550.261719 60.421875 551.148438 60.421875 551.679688 59.789062 C 551.679688 59.789062 552.21875 59.160156 552.21875 58.121094 L 552.21875 57.878906 L 551.160156 57.878906 M 553.289062 57.441406 L 553.289062 61.140625 L 552.21875 61.140625 L 552.21875 60.160156 C 552.21875 60.160156 551.859375 60.75 551.308594 61.03125 C 551.308594 61.03125 550.769531 61.308594 549.980469 61.308594 C 549.980469 61.308594 548.988281 61.308594 548.398438 60.75 C 548.398438 60.75 547.808594 60.191406 547.808594 59.25 C 547.808594 59.25 547.808594 58.160156 548.539062 57.601562 C 548.539062 57.601562 549.28125 57.050781 550.730469 57.050781 L 552.21875 57.050781 L 552.21875 56.941406 C 552.21875 56.941406 552.21875 56.210938 551.730469 55.808594 C 551.730469 55.808594 551.25 55.398438 550.378906 55.398438 C 550.378906 55.398438 549.828125 55.398438 549.300781 55.539062 C 549.300781 55.539062 548.769531 55.671875 548.289062 55.941406 L 548.289062 54.949219 C 548.289062 54.949219 548.871094 54.730469 549.421875 54.621094 C 549.421875 54.621094 549.96875 54.5 550.488281 54.5 C 550.488281 54.5 551.898438 54.5 552.589844 55.230469 C 552.589844 55.230469 553.289062 55.960938 553.289062 57.441406 Z M 553.289062 57.441406 "/>
<path style=" stroke:none;fill-rule:evenodd;fill:rgb(0%,0%,0%);fill-opacity:1;" d="M 554.398438 52.128906 L 555.46875 52.128906 L 555.46875 61.140625 L 554.398438 61.140625 Z M 554.398438 52.128906 "/>
<path style="fill:none;stroke-width:1;stroke-linecap:butt;stroke-linejoin:miter;stroke:rgb(88.88855%,43.559265%,27.809143%);stroke-opacity:1;stroke-miterlimit:10;" d="M 458.691406 328.058594 L 493.828125 328.058594 " transform="matrix(1,0,0,-1,0,400)"/>
<path style="fill-rule:evenodd;fill:rgb(88.88855%,43.559265%,27.809143%);fill-opacity:1;stroke-width:1.28;stroke-linecap:butt;stroke-linejoin:miter;stroke:rgb(0%,0%,0%);stroke-opacity:1;stroke-miterlimit:10;" d="M 476.261719 333.058594 C 473.5 333.058594 471.261719 330.820312 471.261719 328.058594 C 471.261719 325.300781 473.5 323.058594 476.261719 323.058594 C 479.019531 323.058594 481.261719 325.300781 481.261719 328.058594 C 481.261719 330.820312 479.019531 333.058594 476.261719 333.058594 Z M 476.261719 333.058594 " transform="matrix(1,0,0,-1,0,400)"/>
<path style=" stroke:none;fill-rule:evenodd;fill:rgb(0%,0%,0%);fill-opacity:1;" d="M 504.769531 71.019531 C 504.769531 71.019531 505.171875 70.300781 505.730469 69.960938 C 505.730469 69.960938 506.28125 69.621094 507.039062 69.621094 C 507.039062 69.621094 508.050781 69.621094 508.601562 70.328125 C 508.601562 70.328125 509.148438 71.039062 509.148438 72.351562 L 509.148438 76.261719 L 508.078125 76.261719 L 508.078125 72.378906 C 508.078125 72.378906 508.078125 71.449219 507.75 71 C 507.75 71 507.421875 70.550781 506.738281 70.550781 C 506.738281 70.550781 505.910156 70.550781 505.429688 71.101562 C 505.429688 71.101562 504.949219 71.648438 504.949219 72.601562 L 504.949219 76.261719 L 503.878906 76.261719 L 503.878906 72.378906 C 503.878906 72.378906 503.878906 71.441406 503.550781 71 C 503.550781 71 503.21875 70.550781 502.53125 70.550781 C 502.53125 70.550781 501.71875 70.550781 501.238281 71.101562 C 501.238281 71.101562 500.761719 71.648438 500.761719 72.601562 L 500.761719 76.261719 L 499.691406 76.261719 L 499.691406 69.78125 L 500.761719 69.78125 L 500.761719 70.78125 C 500.761719 70.78125 501.121094 70.191406 501.628906 69.898438 C 501.628906 69.898438 502.140625 69.621094 502.839844 69.621094 C 502.839844 69.621094 503.550781 69.621094 504.039062 69.980469 C 504.039062 69.980469 504.539062 70.339844 504.769531 71.019531 Z M 504.769531 71.019531 "/>
<path style=" stroke:none;fill-rule:evenodd;fill:rgb(0%,0%,0%);fill-opacity:1;" d="M 512.78125 70.519531 C 512.78125 70.519531 511.921875 70.519531 511.421875 71.199219 C 511.421875 71.199219 510.921875 71.859375 510.921875 73.019531 C 510.921875 73.019531 510.921875 74.191406 511.421875 74.859375 C 511.421875 74.859375 511.910156 75.519531 512.78125 75.519531 C 512.78125 75.519531 513.628906 75.519531 514.128906 74.851562 C 514.128906 74.851562 514.621094 74.179688 514.621094 73.019531 C 514.621094 73.019531 514.621094 71.871094 514.128906 71.199219 C 514.128906 71.199219 513.628906 70.519531 512.78125 70.519531 M 512.78125 69.621094 C 512.78125 69.621094 514.171875 69.621094 514.960938 70.519531 C 514.960938 70.519531 515.75 71.429688 515.75 73.019531 C 515.75 73.019531 515.75 74.621094 514.960938 75.519531 C 514.960938 75.519531 514.171875 76.429688 512.78125 76.429688 C 512.78125 76.429688 511.378906 76.429688 510.589844 75.519531 C 510.589844 75.519531 509.800781 74.621094 509.800781 73.019531 C 509.800781 73.019531 509.800781 71.429688 510.589844 70.519531 C 510.589844 70.519531 511.378906 69.621094 512.78125 69.621094 Z M 512.78125 69.621094 "/>
<path style=" stroke:none;fill-rule:evenodd;fill:rgb(0%,0%,0%);fill-opacity:1;" d="M 522.261719 72.351562 L 522.261719 76.261719 L 521.191406 76.261719 L 521.191406 72.378906 C 521.191406 72.378906 521.191406 71.460938 520.828125 71 C 520.828125 71 520.46875 70.550781 519.761719 70.550781 C 519.761719 70.550781 518.890625 70.550781 518.398438 71.101562 C 518.398438 71.101562 517.898438 71.648438 517.898438 72.601562 L 517.898438 76.261719 L 516.828125 76.261719 L 516.828125 69.78125 L 517.898438 69.78125 L 517.898438 70.78125 C 517.898438 70.78125 518.28125 70.199219 518.800781 69.910156 C 518.800781 69.910156 519.320312 69.621094 519.988281 69.621094 C 519.988281 69.621094 521.109375 69.621094 521.679688 70.320312 C 521.679688 70.320312 522.261719 71 522.261719 72.351562 Z M 522.261719 72.351562 "/>
<path style=" stroke:none;fill-rule:evenodd;fill:rgb(0%,0%,0%);fill-opacity:1;" d="M 524.429688 67.941406 L 524.429688 69.78125 L 526.621094 69.78125 L 526.621094 70.609375 L 524.429688 70.609375 L 524.429688 74.121094 C 524.429688 74.121094 524.429688 74.921875 524.640625 75.140625 C 524.640625 75.140625 524.859375 75.371094 525.53125 75.371094 L 526.621094 75.371094 L 526.621094 76.261719 L 525.53125 76.261719 C 525.53125 76.261719 524.289062 76.261719 523.820312 75.800781 C 523.820312 75.800781 523.359375 75.339844 523.359375 74.121094 L 523.359375 70.609375 L 522.570312 70.609375 L 522.570312 69.78125 L 523.359375 69.78125 L 523.359375 67.941406 Z M 524.429688 67.941406 "/>
<path style=" stroke:none;fill-rule:evenodd;fill:rgb(0%,0%,0%);fill-opacity:1;" d="M 533.28125 72.75 L 533.28125 73.269531 L 528.378906 73.269531 C 528.378906 73.269531 528.449219 74.371094 529.039062 74.949219 C 529.039062 74.949219 529.640625 75.519531 530.699219 75.519531 C 530.699219 75.519531 531.308594 75.519531 531.890625 75.371094 C 531.890625 75.371094 532.460938 75.21875 533.03125 74.921875 L 533.03125 75.929688 C 533.03125 75.929688 532.460938 76.171875 531.859375 76.300781 C 531.859375 76.300781 531.25 76.429688 530.640625 76.429688 C 530.640625 76.429688 529.078125 76.429688 528.179688 75.519531 C 528.179688 75.519531 527.269531 74.621094 527.269531 73.078125 C 527.269531 73.078125 527.269531 71.488281 528.128906 70.558594 C 528.128906 70.558594 528.988281 69.621094 530.449219 69.621094 C 530.449219 69.621094 531.761719 69.621094 532.519531 70.46875 C 532.519531 70.46875 533.28125 71.308594 533.28125 72.75 M 532.21875 72.441406 C 532.21875 72.441406 532.199219 71.570312 531.71875 71.039062 C 531.71875 71.039062 531.25 70.519531 530.460938 70.519531 C 530.460938 70.519531 529.570312 70.519531 529.03125 71.03125 C 529.03125 71.03125 528.5 71.53125 528.421875 72.449219 Z M 532.21875 72.441406 "/>
<path style=" stroke:none;fill-rule:evenodd;fill:rgb(0%,0%,0%);fill-opacity:1;" d="M 539.058594 70.03125 L 539.058594 71.019531 C 539.058594 71.019531 538.609375 70.769531 538.148438 70.648438 C 538.148438 70.648438 537.699219 70.519531 537.238281 70.519531 C 537.238281 70.519531 536.199219 70.519531 535.628906 71.179688 C 535.628906 71.179688 535.058594 71.839844 535.058594 73.019531 C 535.058594 73.019531 535.058594 74.210938 535.628906 74.871094 C 535.628906 74.871094 536.199219 75.519531 537.238281 75.519531 C 537.238281 75.519531 537.699219 75.519531 538.148438 75.398438 C 538.148438 75.398438 538.609375 75.28125 539.058594 75.03125 L 539.058594 76.011719 C 539.058594 76.011719 538.621094 76.21875 538.140625 76.320312 C 538.140625 76.320312 537.660156 76.429688 537.121094 76.429688 C 537.121094 76.429688 535.660156 76.429688 534.800781 75.511719 C 534.800781 75.511719 533.929688 74.589844 533.929688 73.019531 C 533.929688 73.019531 533.929688 71.441406 534.800781 70.53125 C 534.800781 70.53125 535.679688 69.621094 537.191406 69.621094 C 537.191406 69.621094 537.679688 69.621094 538.148438 69.730469 C 538.148438 69.730469 538.621094 69.820312 539.058594 70.03125 Z M 539.058594 70.03125 "/>
<path style=" stroke:none;fill-rule:evenodd;fill:rgb(0%,0%,0%);fill-opacity:1;" d="M 543.121094 73 C 543.121094 73 541.828125 73 541.339844 73.300781 C 541.339844 73.300781 540.839844 73.589844 540.839844 74.300781 C 540.839844 74.300781 540.839844 74.871094 541.210938 75.210938 C 541.210938 75.210938 541.578125 75.539062 542.230469 75.539062 C 542.230469 75.539062 543.109375 75.539062 543.640625 74.910156 C 543.640625 74.910156 544.179688 74.28125 544.179688 73.238281 L 544.179688 73 L 543.121094 73 M 545.25 72.558594 L 545.25 76.261719 L 544.179688 76.261719 L 544.179688 75.28125 C 544.179688 75.28125 543.820312 75.871094 543.269531 76.148438 C 543.269531 76.148438 542.730469 76.429688 541.941406 76.429688 C 541.941406 76.429688 540.949219 76.429688 540.359375 75.871094 C 540.359375 75.871094 539.769531 75.308594 539.769531 74.371094 C 539.769531 74.371094 539.769531 73.28125 540.5 72.71875 C 540.5 72.71875 541.238281 72.171875 542.691406 72.171875 L 544.179688 72.171875 L 544.179688 72.058594 C 544.179688 72.058594 544.179688 71.328125 543.699219 70.929688 C 543.699219 70.929688 543.21875 70.519531 542.339844 70.519531 C 542.339844 70.519531 541.789062 70.519531 541.261719 70.660156 C 541.261719 70.660156 540.730469 70.789062 540.25 71.058594 L 540.25 70.070312 C 540.25 70.070312 540.828125 69.851562 541.378906 69.738281 C 541.378906 69.738281 541.929688 69.621094 542.449219 69.621094 C 542.449219 69.621094 543.859375 69.621094 544.550781 70.351562 C 544.550781 70.351562 545.25 71.078125 545.25 72.558594 Z M 545.25 72.558594 "/>
<path style=" stroke:none;fill-rule:evenodd;fill:rgb(0%,0%,0%);fill-opacity:1;" d="M 550.121094 70.769531 C 550.121094 70.769531 549.941406 70.671875 549.730469 70.621094 C 549.730469 70.621094 549.519531 70.570312 549.261719 70.570312 C 549.261719 70.570312 548.359375 70.570312 547.871094 71.160156 C 547.871094 71.160156 547.390625 71.75 547.390625 72.839844 L 547.390625 76.261719 L 546.320312 76.261719 L 546.320312 69.78125 L 547.390625 69.78125 L 547.390625 70.78125 C 547.390625 70.78125 547.730469 70.191406 548.269531 69.910156 C 548.269531 69.910156 548.808594 69.621094 549.578125 69.621094 C 549.578125 69.621094 549.691406 69.621094 549.820312 69.640625 C 549.820312 69.640625 549.949219 69.648438 550.109375 69.679688 Z M 550.121094 70.769531 "/>
<path style=" stroke:none;fill-rule:evenodd;fill:rgb(0%,0%,0%);fill-opacity:1;" d="M 551.238281 67.25 L 552.300781 67.25 L 552.300781 76.261719 L 551.238281 76.261719 Z M 551.238281 67.25 "/>
<path style=" stroke:none;fill-rule:evenodd;fill:rgb(0%,0%,0%);fill-opacity:1;" d="M 555.929688 70.519531 C 555.929688 70.519531 555.070312 70.519531 554.578125 71.199219 C 554.578125 71.199219 554.078125 71.859375 554.078125 73.019531 C 554.078125 73.019531 554.078125 74.191406 554.570312 74.859375 C 554.570312 74.859375 555.070312 75.519531 555.929688 75.519531 C 555.929688 75.519531 556.78125 75.519531 557.28125 74.851562 C 557.28125 74.851562 557.78125 74.179688 557.78125 73.019531 C 557.78125 73.019531 557.78125 71.871094 557.28125 71.199219 C 557.28125 71.199219 556.78125 70.519531 555.929688 70.519531 M 555.929688 69.621094 C 555.929688 69.621094 557.320312 69.621094 558.109375 70.519531 C 558.109375 70.519531 558.898438 71.429688 558.898438 73.019531 C 558.898438 73.019531 558.898438 74.621094 558.109375 75.519531 C 558.109375 75.519531 557.320312 76.429688 555.929688 76.429688 C 555.929688 76.429688 554.539062 76.429688 553.738281 75.519531 C 553.738281 75.519531 552.960938 74.621094 552.960938 73.019531 C 552.960938 73.019531 552.960938 71.429688 553.738281 70.519531 C 553.738281 70.519531 554.539062 69.621094 555.929688 69.621094 Z M 555.929688 69.621094 "/>
</g>
</svg>
