<?xml version="1.0" encoding="UTF-8"?>
<svg xmlns="http://www.w3.org/2000/svg" xmlns:xlink="http://www.w3.org/1999/xlink" width="600pt" height="400pt" viewBox="0 0 600 400" version="1.1">
<g id="surface1">
<rect x="0" y="0" width="600" height="400" style="fill:rgb(100%,100%,100%);fill-opacity:1;stroke:none;"/>
<path style=" stroke:none;fill-rule:evenodd;fill:rgb(100%,100%,100%);fill-opacity:1;" d="M 68.28125 355.789062 L 588.191406 355.789062 L 588.191406 30.871094 L 68.28125 30.871094 "/>
<path style="fill:none;stroke-width:0.5;stroke-linecap:butt;stroke-linejoin:miter;stroke:rgb(0%,0%,0%);stroke-opacity:0.0980392;stroke-miterlimit:10;" d="M 83 44.210938 L 83 369.128906 " transform="matrix(1,0,0,-1,0,400)"/>
<path style="fill:none;stroke-width:0.5;stroke-linecap:butt;stroke-linejoin:miter;stroke:rgb(0%,0%,0%);stroke-opacity:0.0980392;stroke-miterlimit:10;" d="M 205.621094 44.210938 L 205.621094 369.128906 " transform="matrix(1,0,0,-1,0,400)"/>
<path style="fill:none;stroke-width:0.5;stroke-linecap:butt;stroke-linejoin:miter;stroke:rgb(0%,0%,0%);stroke-opacity:0.0980392;stroke-miterlimit:10;" d="M 328.238281 44.210938 L 328.238281 369.128906 " transform="matrix(1,0,0,-1,0,400)"/>
<path style="fill:none;stroke-width:0.5;stroke-linecap:butt;stroke-linejoin:miter;stroke:rgb(0%,0%,0%);stroke-opacity:0.0980392;stroke-miterlimit:10;" d="M 450.859375 44.210938 L 450.859375 369.128906 " transform="matrix(1,0,0,-1,0,400)"/>
<path style="fill:none;stroke-width:0.5;stroke-linecap:butt;stroke-linejoin:miter;stroke:rgb(0%,0%,0%);stroke-opacity:0.0980392;stroke-miterlimit:10;" d="M 573.46875 44.210938 L 573.46875 369.128906 " transform="matrix(1,0,0,-1,0,400)"/>
<path style="fill:none;stroke-width:1;stroke-linecap:butt;stroke-linejoin:miter;stroke:rgb(0%,0%,0%);stroke-opacity:1;stroke-miterlimit:10;" d="M 68.28125 44.210938 L 588.191406 44.210938 " transform="matrix(1,0,0,-1,0,400)"/>
<path style="fill:none;stroke-width:1;stroke-linecap:butt;stroke-linejoin:miter;stroke:rgb(0%,0%,0%);stroke-opacity:1;stroke-miterlimit:10;" d="M 83 44.210938 L 83 48.101562 " transform="matrix(1,0,0,-1,0,400)"/>
<path style="fill:none;stroke-width:1;stroke-linecap:butt;stroke-linejoin:miter;stroke:rgb(0%,0%,0%);stroke-opacity:1;stroke-miterlimit:10;" d="M 205.621094 44.210938 L 205.621094 48.101562 " transform="matrix(1,0,0,-1,0,400)"/>
<path style="fill:none;stroke-width:1;stroke-linecap:butt;stroke-linejoin:miter;stroke:rgb(0%,0%,0%);stroke-opacity:1;stroke-miterlimit:10;" d="M 328.238281 44.210938 L 328.238281 48.101562 " transform="matrix(1,0,0,-1,0,400)"/>
<path style="fill:none;stroke-width:1;stroke-linecap:butt;stroke-linejoin:miter;stroke:rgb(0%,0%,0%);stroke-opacity:1;stroke-miterlimit:10;" d="M 450.859375 44.210938 L 450.859375 48.101562 " transform="matrix(1,0,0,-1,0,400)"/>
<path style="fill:none;stroke-width:1;stroke-linecap:butt;stroke-linejoin:miter;stroke:rgb(0%,0%,0%);stroke-opacity:1;stroke-miterlimit:10;" d="M 573.46875 44.210938 L 573.46875 48.101562 " transform="matrix(1,0,0,-1,0,400)"/>
<path style=" stroke:none;fill-rule:evenodd;fill:rgb(0%,0%,0%);fill-opacity:1;" d="M 78.378906 363.089844 C 78.378906 363.089844 77.480469 363.089844 77.019531 363.980469 C 77.019531 363.980469 76.570312 364.871094 76.570312 366.648438 C 76.570312 366.648438 76.570312 368.429688 77.019531 369.320312 C 77.019531 369.320312 77.480469 370.199219 78.378906 370.199219 C 78.378906 370.199219 79.289062 370.199219 79.738281 369.320312 C 79.738281 369.320312 80.199219 368.429688 80.199219 366.648438 C 80.199219 366.648438 80.199219 364.871094 79.738281 363.980469 C 79.738281 363.980469 79.289062 363.089844 78.378906 363.089844 M 78.378906 362.171875 C 78.378906 362.171875 79.828125 362.171875 80.589844 363.320312 C 80.589844 363.320312 81.359375 364.460938 81.359375 366.648438 C 81.359375 366.648438 81.359375 368.828125 80.589844 369.980469 C 80.589844 369.980469 79.828125 371.128906 78.378906 371.128906 C 78.378906 371.128906 76.929688 371.128906 76.160156 369.980469 C 76.160156 369.980469 75.390625 368.828125 75.390625 366.648438 C 75.390625 366.648438 75.390625 364.460938 76.160156 363.320312 C 76.160156 363.320312 76.929688 362.171875 78.378906 362.171875 Z M 78.378906 362.171875 "/>
<path style=" stroke:none;fill-rule:evenodd;fill:rgb(0%,0%,0%);fill-opacity:1;" d="M 82.628906 369.488281 L 83.851562 369.488281 L 83.851562 370.960938 L 82.628906 370.960938 Z M 82.628906 369.488281 "/>
<path style=" stroke:none;fill-rule:evenodd;fill:rgb(0%,0%,0%);fill-opacity:1;" d="M 87.621094 363.089844 C 87.621094 363.089844 86.71875 363.089844 86.261719 363.980469 C 86.261719 363.980469 85.808594 364.871094 85.808594 366.648438 C 85.808594 366.648438 85.808594 368.429688 86.261719 369.320312 C 86.261719 369.320312 86.71875 370.199219 87.621094 370.199219 C 87.621094 370.199219 88.53125 370.199219 88.980469 369.320312 C 88.980469 369.320312 89.441406 368.429688 89.441406 366.648438 C 89.441406 366.648438 89.441406 364.871094 88.980469 363.980469 C 88.980469 363.980469 88.53125 363.089844 87.621094 363.089844 M 87.621094 362.171875 C 87.621094 362.171875 89.070312 362.171875 89.839844 363.320312 C 89.839844 363.320312 90.609375 364.460938 90.609375 366.648438 C 90.609375 366.648438 90.609375 368.828125 89.839844 369.980469 C 89.839844 369.980469 89.070312 371.128906 87.621094 371.128906 C 87.621094 371.128906 86.171875 371.128906 85.398438 369.980469 C 85.398438 369.980469 84.628906 368.828125 84.628906 366.648438 C 84.628906 366.648438 84.628906 364.460938 85.398438 363.320312 C 85.398438 363.320312 86.171875 362.171875 87.621094 362.171875 Z M 87.621094 362.171875 "/>
<path style=" stroke:none;fill-rule:evenodd;fill:rgb(0%,0%,0%);fill-opacity:1;" d="M 199.78125 369.980469 L 203.859375 369.980469 L 203.859375 370.960938 L 198.378906 370.960938 L 198.378906 369.980469 C 198.378906 369.980469 199.039062 369.289062 200.191406 368.128906 C 200.191406 368.128906 201.339844 366.96875 201.640625 366.628906 C 201.640625 366.628906 202.199219 366 202.421875 365.570312 C 202.421875 365.570312 202.640625 365.128906 202.640625 364.710938 C 202.640625 364.710938 202.640625 364.019531 202.160156 363.578125 C 202.160156 363.578125 201.679688 363.148438 200.898438 363.148438 C 200.898438 363.148438 200.351562 363.148438 199.738281 363.339844 C 199.738281 363.339844 199.128906 363.53125 198.441406 363.921875 L 198.441406 362.738281 C 198.441406 362.738281 199.140625 362.460938 199.761719 362.308594 C 199.761719 362.308594 200.371094 362.171875 200.878906 362.171875 C 200.878906 362.171875 202.21875 362.171875 203.019531 362.839844 C 203.019531 362.839844 203.820312 363.511719 203.820312 364.628906 C 203.820312 364.628906 203.820312 365.160156 203.621094 365.640625 C 203.621094 365.640625 203.421875 366.121094 202.890625 366.769531 C 202.890625 366.769531 202.75 366.941406 201.96875 367.738281 C 201.96875 367.738281 201.199219 368.539062 199.78125 369.980469 Z M 199.78125 369.980469 "/>
<path style=" stroke:none;fill-rule:evenodd;fill:rgb(0%,0%,0%);fill-opacity:1;" d="M 205.128906 369.488281 L 206.351562 369.488281 L 206.351562 370.960938 L 205.128906 370.960938 Z M 205.128906 369.488281 "/>
<path style=" stroke:none;fill-rule:evenodd;fill:rgb(0%,0%,0%);fill-opacity:1;" d="M 207.628906 362.320312 L 212.21875 362.320312 L 212.21875 363.308594 L 208.699219 363.308594 L 208.699219 365.421875 C 208.699219 365.421875 208.960938 365.339844 209.210938 365.300781 C 209.210938 365.300781 209.46875 365.25 209.71875 365.25 C 209.71875 365.25 211.171875 365.25 212.011719 366.039062 C 212.011719 366.039062 212.859375 366.839844 212.859375 368.191406 C 212.859375 368.191406 212.859375 369.589844 211.988281 370.359375 C 211.988281 370.359375 211.121094 371.128906 209.539062 371.128906 C 209.539062 371.128906 209 371.128906 208.429688 371.039062 C 208.429688 371.039062 207.871094 370.949219 207.269531 370.761719 L 207.269531 369.589844 C 207.269531 369.589844 207.789062 369.871094 208.339844 370.011719 C 208.339844 370.011719 208.898438 370.148438 209.519531 370.148438 C 209.519531 370.148438 210.519531 370.148438 211.101562 369.621094 C 211.101562 369.621094 211.691406 369.089844 211.691406 368.191406 C 211.691406 368.191406 211.691406 367.289062 211.101562 366.761719 C 211.101562 366.761719 210.519531 366.230469 209.519531 366.230469 C 209.519531 366.230469 209.050781 366.230469 208.578125 366.339844 C 208.578125 366.339844 208.121094 366.441406 207.628906 366.660156 Z M 207.628906 362.320312 "/>
<path style=" stroke:none;fill-rule:evenodd;fill:rgb(0%,0%,0%);fill-opacity:1;" d="M 321.191406 362.320312 L 325.769531 362.320312 L 325.769531 363.308594 L 322.261719 363.308594 L 322.261719 365.421875 C 322.261719 365.421875 322.511719 365.339844 322.769531 365.300781 C 322.769531 365.300781 323.019531 365.25 323.269531 365.25 C 323.269531 365.25 324.71875 365.25 325.570312 366.039062 C 325.570312 366.039062 326.410156 366.839844 326.410156 368.191406 C 326.410156 368.191406 326.410156 369.589844 325.539062 370.359375 C 325.539062 370.359375 324.679688 371.128906 323.101562 371.128906 C 323.101562 371.128906 322.550781 371.128906 321.980469 371.039062 C 321.980469 371.039062 321.421875 370.949219 320.820312 370.761719 L 320.820312 369.589844 C 320.820312 369.589844 321.339844 369.871094 321.898438 370.011719 C 321.898438 370.011719 322.449219 370.148438 323.070312 370.148438 C 323.070312 370.148438 324.070312 370.148438 324.660156 369.621094 C 324.660156 369.621094 325.238281 369.089844 325.238281 368.191406 C 325.238281 368.191406 325.238281 367.289062 324.660156 366.761719 C 324.660156 366.761719 324.070312 366.230469 323.070312 366.230469 C 323.070312 366.230469 322.601562 366.230469 322.128906 366.339844 C 322.128906 366.339844 321.671875 366.441406 321.191406 366.660156 Z M 321.191406 362.320312 "/>
<path style=" stroke:none;fill-rule:evenodd;fill:rgb(0%,0%,0%);fill-opacity:1;" d="M 327.679688 369.488281 L 328.898438 369.488281 L 328.898438 370.960938 L 327.679688 370.960938 Z M 327.679688 369.488281 "/>
<path style=" stroke:none;fill-rule:evenodd;fill:rgb(0%,0%,0%);fill-opacity:1;" d="M 332.671875 363.089844 C 332.671875 363.089844 331.761719 363.089844 331.308594 363.980469 C 331.308594 363.980469 330.859375 364.871094 330.859375 366.648438 C 330.859375 366.648438 330.859375 368.429688 331.308594 369.320312 C 331.308594 369.320312 331.761719 370.199219 332.671875 370.199219 C 332.671875 370.199219 333.578125 370.199219 334.03125 369.320312 C 334.03125 369.320312 334.480469 368.429688 334.480469 366.648438 C 334.480469 366.648438 334.480469 364.871094 334.03125 363.980469 C 334.03125 363.980469 333.578125 363.089844 332.671875 363.089844 M 332.671875 362.171875 C 332.671875 362.171875 334.121094 362.171875 334.878906 363.320312 C 334.878906 363.320312 335.648438 364.460938 335.648438 366.648438 C 335.648438 366.648438 335.648438 368.828125 334.878906 369.980469 C 334.878906 369.980469 334.121094 371.128906 332.671875 371.128906 C 332.671875 371.128906 331.210938 371.128906 330.441406 369.980469 C 330.441406 369.980469 329.679688 368.828125 329.679688 366.648438 C 329.679688 366.648438 329.679688 364.460938 330.441406 363.320312 C 330.441406 363.320312 331.210938 362.171875 332.671875 362.171875 Z M 332.671875 362.171875 "/>
<path style=" stroke:none;fill-rule:evenodd;fill:rgb(0%,0%,0%);fill-opacity:1;" d="M 443.578125 362.320312 L 449.140625 362.320312 L 449.140625 362.820312 L 446 370.960938 L 444.78125 370.960938 L 447.730469 363.308594 L 443.578125 363.308594 Z M 443.578125 362.320312 "/>
<path style=" stroke:none;fill-rule:evenodd;fill:rgb(0%,0%,0%);fill-opacity:1;" d="M 450.398438 369.488281 L 451.628906 369.488281 L 451.628906 370.960938 L 450.398438 370.960938 Z M 450.398438 369.488281 "/>
<path style=" stroke:none;fill-rule:evenodd;fill:rgb(0%,0%,0%);fill-opacity:1;" d="M 452.898438 362.320312 L 457.488281 362.320312 L 457.488281 363.308594 L 453.980469 363.308594 L 453.980469 365.421875 C 453.980469 365.421875 454.230469 365.339844 454.480469 365.300781 C 454.480469 365.300781 454.738281 365.25 454.988281 365.25 C 454.988281 365.25 456.441406 365.25 457.289062 366.039062 C 457.289062 366.039062 458.128906 366.839844 458.128906 368.191406 C 458.128906 368.191406 458.128906 369.589844 457.261719 370.359375 C 457.261719 370.359375 456.390625 371.128906 454.808594 371.128906 C 454.808594 371.128906 454.269531 371.128906 453.699219 371.039062 C 453.699219 371.039062 453.140625 370.949219 452.539062 370.761719 L 452.539062 369.589844 C 452.539062 369.589844 453.058594 369.871094 453.621094 370.011719 C 453.621094 370.011719 454.171875 370.148438 454.789062 370.148438 C 454.789062 370.148438 455.789062 370.148438 456.378906 369.621094 C 456.378906 369.621094 456.960938 369.089844 456.960938 368.191406 C 456.960938 368.191406 456.960938 367.289062 456.378906 366.761719 C 456.378906 366.761719 455.789062 366.230469 454.789062 366.230469 C 454.789062 366.230469 454.320312 366.230469 453.851562 366.339844 C 453.851562 366.339844 453.390625 366.441406 452.898438 366.660156 Z M 452.898438 362.320312 "/>
<path style=" stroke:none;fill-rule:evenodd;fill:rgb(0%,0%,0%);fill-opacity:1;" d="M 563.070312 369.980469 L 564.980469 369.980469 L 564.980469 363.390625 L 562.898438 363.800781 L 562.898438 362.738281 L 564.96875 362.320312 L 566.140625 362.320312 L 566.140625 369.980469 L 568.050781 369.980469 L 568.050781 370.960938 L 563.070312 370.960938 Z M 563.070312 369.980469 "/>
<path style=" stroke:none;fill-rule:evenodd;fill:rgb(0%,0%,0%);fill-opacity:1;" d="M 571.820312 363.089844 C 571.820312 363.089844 570.910156 363.089844 570.460938 363.980469 C 570.460938 363.980469 570.011719 364.871094 570.011719 366.648438 C 570.011719 366.648438 570.011719 368.429688 570.460938 369.320312 C 570.460938 369.320312 570.910156 370.199219 571.820312 370.199219 C 571.820312 370.199219 572.730469 370.199219 573.179688 369.320312 C 573.179688 369.320312 573.628906 368.429688 573.628906 366.648438 C 573.628906 366.648438 573.628906 364.871094 573.179688 363.980469 C 573.179688 363.980469 572.730469 363.089844 571.820312 363.089844 M 571.820312 362.171875 C 571.820312 362.171875 573.269531 362.171875 574.03125 363.320312 C 574.03125 363.320312 574.800781 364.460938 574.800781 366.648438 C 574.800781 366.648438 574.800781 368.828125 574.03125 369.980469 C 574.03125 369.980469 573.269531 371.128906 571.820312 371.128906 C 571.820312 371.128906 570.359375 371.128906 569.589844 369.980469 C 569.589844 369.980469 568.828125 368.828125 568.828125 366.648438 C 568.828125 366.648438 568.828125 364.460938 569.589844 363.320312 C 569.589844 363.320312 570.359375 362.171875 571.820312 362.171875 Z M 571.820312 362.171875 "/>
<path style=" stroke:none;fill-rule:evenodd;fill:rgb(0%,0%,0%);fill-opacity:1;" d="M 576.070312 369.488281 L 577.289062 369.488281 L 577.289062 370.960938 L 576.070312 370.960938 Z M 576.070312 369.488281 "/>
<path style=" stroke:none;fill-rule:evenodd;fill:rgb(0%,0%,0%);fill-opacity:1;" d="M 581.058594 363.089844 C 581.058594 363.089844 580.160156 363.089844 579.699219 363.980469 C 579.699219 363.980469 579.25 364.871094 579.25 366.648438 C 579.25 366.648438 579.25 368.429688 579.699219 369.320312 C 579.699219 369.320312 580.160156 370.199219 581.058594 370.199219 C 581.058594 370.199219 581.96875 370.199219 582.421875 369.320312 C 582.421875 369.320312 582.878906 368.429688 582.878906 366.648438 C 582.878906 366.648438 582.878906 364.871094 582.421875 363.980469 C 582.421875 363.980469 581.96875 363.089844 581.058594 363.089844 M 581.058594 362.171875 C 581.058594 362.171875 582.511719 362.171875 583.28125 363.320312 C 583.28125 363.320312 584.039062 364.460938 584.039062 366.648438 C 584.039062 366.648438 584.039062 368.828125 583.28125 369.980469 C 583.28125 369.980469 582.511719 371.128906 581.058594 371.128906 C 581.058594 371.128906 579.609375 371.128906 578.839844 369.980469 C 578.839844 369.980469 578.070312 368.828125 578.070312 366.648438 C 578.070312 366.648438 578.070312 364.460938 578.839844 363.320312 C 578.839844 363.320312 579.609375 362.171875 581.058594 362.171875 Z M 581.058594 362.171875 "/>
<path style=" stroke:none;fill-rule:evenodd;fill:rgb(0%,0%,0%);fill-opacity:1;" d="M 304.78125 381.5 L 306.71875 387.011719 L 309.511719 380.101562 L 311.058594 380.101562 L 307.460938 389.011719 L 307.460938 392.398438 L 305.988281 392.398438 L 305.988281 389.011719 L 303.648438 382.359375 C 303.648438 382.359375 303.300781 381.359375 302.550781 381.359375 L 302.160156 381.359375 L 302.160156 380.101562 L 302.710938 380.101562 C 302.710938 380.101562 304.28125 380.101562 304.78125 381.5 Z M 304.78125 381.5 "/>
<path style=" stroke:none;fill-rule:evenodd;fill:rgb(0%,0%,0%);fill-opacity:1;" d="M 318.988281 384.558594 C 318.988281 384.558594 318.988281 382.949219 318.328125 382.03125 C 318.328125 382.03125 317.671875 381.109375 316.5 381.109375 C 316.5 381.109375 315.339844 381.109375 314.671875 382.03125 C 314.671875 382.03125 314.011719 382.949219 314.011719 384.558594 C 314.011719 384.558594 314.011719 386.179688 314.671875 387.101562 C 314.671875 387.101562 315.339844 388.019531 316.5 388.019531 C 316.5 388.019531 317.671875 388.019531 318.328125 387.101562 C 318.328125 387.101562 318.988281 386.179688 318.988281 384.558594 M 314.011719 381.449219 C 314.011719 381.449219 314.480469 380.660156 315.179688 380.269531 C 315.179688 380.269531 315.878906 379.878906 316.859375 379.878906 C 316.859375 379.878906 318.488281 379.878906 319.5 381.171875 C 319.5 381.171875 320.511719 382.460938 320.511719 384.558594 C 320.511719 384.558594 320.511719 386.660156 319.5 387.949219 C 319.5 387.949219 318.488281 389.238281 316.859375 389.238281 C 316.859375 389.238281 315.878906 389.238281 315.179688 388.859375 C 315.179688 388.859375 314.480469 388.46875 314.011719 387.671875 L 314.011719 389.011719 L 312.539062 389.011719 L 312.539062 376.628906 L 314.011719 376.628906 Z M 314.011719 381.449219 "/>
<path style=" stroke:none;fill-rule:evenodd;fill:rgb(0%,0%,0%);fill-opacity:1;" d="M 327.101562 376.628906 L 330.46875 376.628906 L 330.46875 377.769531 L 328.558594 377.769531 L 328.558594 390.019531 L 330.46875 390.019531 L 330.46875 391.160156 L 327.101562 391.160156 Z M 327.101562 376.628906 "/>
<path style=" stroke:none;fill-rule:evenodd;fill:rgb(0%,0%,0%);fill-opacity:1;" d="M 337.871094 381.449219 L 337.871094 376.628906 L 339.328125 376.628906 L 339.328125 389.011719 L 337.871094 389.011719 L 337.871094 387.671875 C 337.871094 387.671875 337.410156 388.46875 336.699219 388.859375 C 336.699219 388.859375 336 389.238281 335.011719 389.238281 C 335.011719 389.238281 333.398438 389.238281 332.378906 387.949219 C 332.378906 387.949219 331.371094 386.660156 331.371094 384.558594 C 331.371094 384.558594 331.371094 382.460938 332.378906 381.171875 C 332.378906 381.171875 333.398438 379.878906 335.011719 379.878906 C 335.011719 379.878906 336 379.878906 336.699219 380.269531 C 336.699219 380.269531 337.410156 380.660156 337.871094 381.449219 M 332.878906 384.558594 C 332.878906 384.558594 332.878906 386.179688 333.539062 387.101562 C 333.539062 387.101562 334.210938 388.019531 335.371094 388.019531 C 335.371094 388.019531 336.53125 388.019531 337.199219 387.101562 C 337.199219 387.101562 337.871094 386.179688 337.871094 384.558594 C 337.871094 384.558594 337.871094 382.949219 337.199219 382.03125 C 337.199219 382.03125 336.53125 381.109375 335.371094 381.109375 C 335.371094 381.109375 334.210938 381.109375 333.539062 382.03125 C 333.539062 382.03125 332.878906 382.949219 332.878906 384.558594 Z M 332.878906 384.558594 "/>
<path style=" stroke:none;fill-rule:evenodd;fill:rgb(0%,0%,0%);fill-opacity:1;" d="M 342.539062 383.339844 L 342.539062 387.691406 L 345.121094 387.691406 C 345.121094 387.691406 346.421875 387.691406 347.039062 387.160156 C 347.039062 387.160156 347.660156 386.621094 347.660156 385.511719 C 347.660156 385.511719 347.660156 384.398438 347.039062 383.871094 C 347.039062 383.871094 346.421875 383.339844 345.121094 383.339844 L 342.539062 383.339844 M 342.539062 378.449219 L 342.539062 382.03125 L 344.921875 382.03125 C 344.921875 382.03125 346.101562 382.03125 346.671875 381.589844 C 346.671875 381.589844 347.25 381.148438 347.25 380.238281 C 347.25 380.238281 347.25 379.339844 346.671875 378.898438 C 346.671875 378.898438 346.101562 378.449219 344.921875 378.449219 L 342.539062 378.449219 M 340.929688 377.128906 L 345.039062 377.128906 C 345.039062 377.128906 346.878906 377.128906 347.871094 377.890625 C 347.871094 377.890625 348.871094 378.660156 348.871094 380.070312 C 348.871094 380.070312 348.871094 381.160156 348.359375 381.800781 C 348.359375 381.800781 347.851562 382.449219 346.859375 382.609375 C 346.859375 382.609375 348.050781 382.859375 348.699219 383.671875 C 348.699219 383.671875 349.359375 384.480469 349.359375 385.679688 C 349.359375 385.679688 349.359375 387.28125 348.28125 388.140625 C 348.28125 388.140625 347.191406 389.011719 345.199219 389.011719 L 340.929688 389.011719 Z M 340.929688 377.128906 "/>
<path style=" stroke:none;fill-rule:evenodd;fill:rgb(0%,0%,0%);fill-opacity:1;" d="M 354.320312 376.628906 L 354.320312 391.160156 L 350.941406 391.160156 L 350.941406 390.019531 L 352.839844 390.019531 L 352.839844 377.769531 L 350.941406 377.769531 L 350.941406 376.628906 Z M 354.320312 376.628906 "/>
<path style="fill:none;stroke-width:0.5;stroke-linecap:butt;stroke-linejoin:miter;stroke:rgb(0%,0%,0%);stroke-opacity:0.0980392;stroke-miterlimit:10;" d="M 68.28125 56.070312 L 588.191406 56.070312 " transform="matrix(1,0,0,-1,0,400)"/>
<path style="fill:none;stroke-width:0.5;stroke-linecap:butt;stroke-linejoin:miter;stroke:rgb(0%,0%,0%);stroke-opacity:0.0980392;stroke-miterlimit:10;" d="M 68.28125 130.5 L 588.191406 130.5 " transform="matrix(1,0,0,-1,0,400)"/>
<path style="fill:none;stroke-width:0.5;stroke-linecap:butt;stroke-linejoin:miter;stroke:rgb(0%,0%,0%);stroke-opacity:0.0980392;stroke-miterlimit:10;" d="M 68.28125 204.929688 L 588.191406 204.929688 " transform="matrix(1,0,0,-1,0,400)"/>
<path style="fill:none;stroke-width:0.5;stroke-linecap:butt;stroke-linejoin:miter;stroke:rgb(0%,0%,0%);stroke-opacity:0.0980392;stroke-miterlimit:10;" d="M 68.28125 279.359375 L 588.191406 279.359375 " transform="matrix(1,0,0,-1,0,400)"/>
<path style="fill:none;stroke-width:0.5;stroke-linecap:butt;stroke-linejoin:miter;stroke:rgb(0%,0%,0%);stroke-opacity:0.0980392;stroke-miterlimit:10;" d="M 68.28125 353.78125 L 588.191406 353.78125 " transform="matrix(1,0,0,-1,0,400)"/>
<path style="fill:none;stroke-width:1;stroke-linecap:butt;stroke-linejoin:miter;stroke:rgb(0%,0%,0%);stroke-opacity:1;stroke-miterlimit:10;" d="M 68.28125 44.210938 L 68.28125 369.128906 " transform="matrix(1,0,0,-1,0,400)"/>
<path style="fill:none;stroke-width:1;stroke-linecap:butt;stroke-linejoin:miter;stroke:rgb(0%,0%,0%);stroke-opacity:1;stroke-miterlimit:10;" d="M 68.28125 56.070312 L 74.519531 56.070312 " transform="matrix(1,0,0,-1,0,400)"/>
<path style="fill:none;stroke-width:1;stroke-linecap:butt;stroke-linejoin:miter;stroke:rgb(0%,0%,0%);stroke-opacity:1;stroke-miterlimit:10;" d="M 68.28125 130.5 L 74.519531 130.5 " transform="matrix(1,0,0,-1,0,400)"/>
<path style="fill:none;stroke-width:1;stroke-linecap:butt;stroke-linejoin:miter;stroke:rgb(0%,0%,0%);stroke-opacity:1;stroke-miterlimit:10;" d="M 68.28125 204.929688 L 74.519531 204.929688 " transform="matrix(1,0,0,-1,0,400)"/>
<path style="fill:none;stroke-width:1;stroke-linecap:butt;stroke-linejoin:miter;stroke:rgb(0%,0%,0%);stroke-opacity:1;stroke-miterlimit:10;" d="M 68.28125 279.359375 L 74.519531 279.359375 " transform="matrix(1,0,0,-1,0,400)"/>
<path style="fill:none;stroke-width:1;stroke-linecap:butt;stroke-linejoin:miter;stroke:rgb(0%,0%,0%);stroke-opacity:1;stroke-miterlimit:10;" d="M 68.28125 353.78125 L 74.519531 353.78125 " transform="matrix(1,0,0,-1,0,400)"/>
<path style=" stroke:none;fill-rule:evenodd;fill:rgb(0%,0%,0%);fill-opacity:1;" d="M 29.058594 348.871094 L 30.96875 348.871094 L 30.96875 342.28125 L 28.890625 342.699219 L 28.890625 341.628906 L 30.960938 341.21875 L 32.121094 341.21875 L 32.121094 348.871094 L 34.03125 348.871094 L 34.03125 349.859375 L 29.058594 349.859375 Z M 29.058594 348.871094 "/>
<path style=" stroke:none;fill-rule:evenodd;fill:rgb(0%,0%,0%);fill-opacity:1;" d="M 37.800781 341.988281 C 37.800781 341.988281 36.898438 341.988281 36.441406 342.878906 C 36.441406 342.878906 35.988281 343.761719 35.988281 345.550781 C 35.988281 345.550781 35.988281 347.320312 36.441406 348.210938 C 36.441406 348.210938 36.898438 349.101562 37.800781 349.101562 C 37.800781 349.101562 38.710938 349.101562 39.160156 348.210938 C 39.160156 348.210938 39.621094 347.320312 39.621094 345.550781 C 39.621094 345.550781 39.621094 343.761719 39.160156 342.878906 C 39.160156 342.878906 38.710938 341.988281 37.800781 341.988281 M 37.800781 341.058594 C 37.800781 341.058594 39.25 341.058594 40.019531 342.210938 C 40.019531 342.210938 40.789062 343.359375 40.789062 345.550781 C 40.789062 345.550781 40.789062 347.730469 40.019531 348.878906 C 40.019531 348.878906 39.25 350.03125 37.800781 350.03125 C 37.800781 350.03125 36.351562 350.03125 35.578125 348.878906 C 35.578125 348.878906 34.820312 347.730469 34.820312 345.550781 C 34.820312 345.550781 34.820312 343.359375 35.578125 342.210938 C 35.578125 342.210938 36.351562 341.058594 37.800781 341.058594 Z M 37.800781 341.058594 "/>
<path style=" stroke:none;fill-rule:evenodd;fill:rgb(0%,0%,0%);fill-opacity:1;" d="M 40.789062 339.589844 L 46.820312 339.589844 L 46.820312 340.390625 L 40.789062 340.390625 Z M 40.789062 339.589844 "/>
<path style=" stroke:none;fill-rule:evenodd;fill:rgb(0%,0%,0%);fill-opacity:1;" d="M 48.660156 342.210938 L 51.980469 342.210938 L 51.980469 343.011719 L 47.519531 343.011719 L 47.519531 342.210938 C 47.519531 342.210938 48.058594 341.648438 48.988281 340.710938 C 48.988281 340.710938 49.929688 339.761719 50.171875 339.488281 C 50.171875 339.488281 50.621094 338.980469 50.800781 338.621094 C 50.800781 338.621094 50.988281 338.269531 50.988281 337.921875 C 50.988281 337.921875 50.988281 337.359375 50.589844 337.011719 C 50.589844 337.011719 50.199219 336.660156 49.570312 336.660156 C 49.570312 336.660156 49.121094 336.660156 48.628906 336.808594 C 48.628906 336.808594 48.128906 336.96875 47.570312 337.28125 L 47.570312 336.320312 C 47.570312 336.320312 48.140625 336.089844 48.640625 335.980469 C 48.640625 335.980469 49.140625 335.859375 49.550781 335.859375 C 49.550781 335.859375 50.640625 335.859375 51.289062 336.398438 C 51.289062 336.398438 51.941406 336.949219 51.941406 337.859375 C 51.941406 337.859375 51.941406 338.289062 51.78125 338.679688 C 51.78125 338.679688 51.621094 339.070312 51.191406 339.601562 C 51.191406 339.601562 51.070312 339.730469 50.441406 340.390625 C 50.441406 340.390625 49.808594 341.03125 48.660156 342.210938 Z M 48.660156 342.210938 "/>
<path style=" stroke:none;fill-rule:evenodd;fill:rgb(0%,0%,0%);fill-opacity:1;" d="M 53.011719 341.808594 L 54 341.808594 L 54 343.011719 L 53.011719 343.011719 Z M 53.011719 341.808594 "/>
<path style=" stroke:none;fill-rule:evenodd;fill:rgb(0%,0%,0%);fill-opacity:1;" d="M 55.039062 335.988281 L 58.769531 335.988281 L 58.769531 336.78125 L 55.910156 336.78125 L 55.910156 338.511719 C 55.910156 338.511719 56.121094 338.429688 56.320312 338.398438 C 56.320312 338.398438 56.53125 338.359375 56.738281 338.359375 C 56.738281 338.359375 57.910156 338.359375 58.601562 339.011719 C 58.601562 339.011719 59.28125 339.648438 59.28125 340.75 C 59.28125 340.75 59.28125 341.890625 58.578125 342.519531 C 58.578125 342.519531 57.871094 343.140625 56.589844 343.140625 C 56.589844 343.140625 56.148438 343.140625 55.691406 343.070312 C 55.691406 343.070312 55.230469 342.988281 54.738281 342.839844 L 54.738281 341.890625 C 54.738281 341.890625 55.171875 342.121094 55.621094 342.230469 C 55.621094 342.230469 56.070312 342.339844 56.570312 342.339844 C 56.570312 342.339844 57.390625 342.339844 57.859375 341.910156 C 57.859375 341.910156 58.339844 341.488281 58.339844 340.75 C 58.339844 340.75 58.339844 340.019531 57.859375 339.589844 C 57.859375 339.589844 57.390625 339.160156 56.570312 339.160156 C 56.570312 339.160156 56.191406 339.160156 55.808594 339.25 C 55.808594 339.25 55.429688 339.328125 55.039062 339.511719 Z M 55.039062 335.988281 "/>
<path style=" stroke:none;fill-rule:evenodd;fill:rgb(0%,0%,0%);fill-opacity:1;" d="M 28.859375 274.449219 L 30.761719 274.449219 L 30.761719 267.859375 L 28.691406 268.269531 L 28.691406 267.210938 L 30.75 266.789062 L 31.921875 266.789062 L 31.921875 274.449219 L 33.828125 274.449219 L 33.828125 275.429688 L 28.859375 275.429688 Z M 28.859375 274.449219 "/>
<path style=" stroke:none;fill-rule:evenodd;fill:rgb(0%,0%,0%);fill-opacity:1;" d="M 37.601562 267.558594 C 37.601562 267.558594 36.699219 267.558594 36.238281 268.449219 C 36.238281 268.449219 35.789062 269.339844 35.789062 271.121094 C 35.789062 271.121094 35.789062 272.898438 36.238281 273.789062 C 36.238281 273.789062 36.699219 274.671875 37.601562 274.671875 C 37.601562 274.671875 38.511719 274.671875 38.960938 273.789062 C 38.960938 273.789062 39.421875 272.898438 39.421875 271.121094 C 39.421875 271.121094 39.421875 269.339844 38.960938 268.449219 C 38.960938 268.449219 38.511719 267.558594 37.601562 267.558594 M 37.601562 266.628906 C 37.601562 266.628906 39.050781 266.628906 39.820312 267.789062 C 39.820312 267.789062 40.589844 268.929688 40.589844 271.121094 C 40.589844 271.121094 40.589844 273.300781 39.820312 274.449219 C 39.820312 274.449219 39.050781 275.601562 37.601562 275.601562 C 37.601562 275.601562 36.148438 275.601562 35.378906 274.449219 C 35.378906 274.449219 34.609375 273.300781 34.609375 271.121094 C 34.609375 271.121094 34.609375 268.929688 35.378906 267.789062 C 35.378906 267.789062 36.148438 266.628906 37.601562 266.628906 Z M 37.601562 266.628906 "/>
<path style=" stroke:none;fill-rule:evenodd;fill:rgb(0%,0%,0%);fill-opacity:1;" d="M 40.589844 265.160156 L 46.609375 265.160156 L 46.609375 265.960938 L 40.589844 265.960938 Z M 40.589844 265.160156 "/>
<path style=" stroke:none;fill-rule:evenodd;fill:rgb(0%,0%,0%);fill-opacity:1;" d="M 48.460938 267.78125 L 51.78125 267.78125 L 51.78125 268.578125 L 47.320312 268.578125 L 47.320312 267.78125 C 47.320312 267.78125 47.859375 267.21875 48.789062 266.28125 C 48.789062 266.28125 49.730469 265.328125 49.96875 265.058594 C 49.96875 265.058594 50.421875 264.550781 50.601562 264.199219 C 50.601562 264.199219 50.78125 263.839844 50.78125 263.488281 C 50.78125 263.488281 50.78125 262.941406 50.390625 262.578125 C 50.390625 262.578125 50 262.230469 49.371094 262.230469 C 49.371094 262.230469 48.921875 262.230469 48.421875 262.390625 C 48.421875 262.390625 47.929688 262.539062 47.371094 262.859375 L 47.371094 261.898438 C 47.371094 261.898438 47.941406 261.671875 48.441406 261.550781 C 48.441406 261.550781 48.941406 261.429688 49.351562 261.429688 C 49.351562 261.429688 50.441406 261.429688 51.089844 261.980469 C 51.089844 261.980469 51.738281 262.519531 51.738281 263.429688 C 51.738281 263.429688 51.738281 263.871094 51.570312 264.261719 C 51.570312 264.261719 51.410156 264.640625 50.988281 265.171875 C 50.988281 265.171875 50.871094 265.308594 50.238281 265.960938 C 50.238281 265.960938 49.609375 266.609375 48.460938 267.78125 Z M 48.460938 267.78125 "/>
<path style=" stroke:none;fill-rule:evenodd;fill:rgb(0%,0%,0%);fill-opacity:1;" d="M 52.808594 267.378906 L 53.800781 267.378906 L 53.800781 268.578125 L 52.808594 268.578125 Z M 52.808594 267.378906 "/>
<path style=" stroke:none;fill-rule:evenodd;fill:rgb(0%,0%,0%);fill-opacity:1;" d="M 56.859375 262.179688 C 56.859375 262.179688 56.128906 262.179688 55.75 262.910156 C 55.75 262.910156 55.390625 263.628906 55.390625 265.070312 C 55.390625 265.070312 55.390625 266.519531 55.75 267.238281 C 55.75 267.238281 56.128906 267.960938 56.859375 267.960938 C 56.859375 267.960938 57.601562 267.960938 57.960938 267.238281 C 57.960938 267.238281 58.339844 266.519531 58.339844 265.070312 C 58.339844 265.070312 58.339844 263.628906 57.960938 262.910156 C 57.960938 262.910156 57.601562 262.179688 56.859375 262.179688 M 56.859375 261.429688 C 56.859375 261.429688 58.039062 261.429688 58.660156 262.371094 C 58.660156 262.371094 59.28125 263.300781 59.28125 265.070312 C 59.28125 265.070312 59.28125 266.851562 58.660156 267.78125 C 58.660156 267.78125 58.039062 268.710938 56.859375 268.710938 C 56.859375 268.710938 55.679688 268.710938 55.050781 267.78125 C 55.050781 267.78125 54.429688 266.851562 54.429688 265.070312 C 54.429688 265.070312 54.429688 263.300781 55.050781 262.371094 C 55.050781 262.371094 55.679688 261.429688 56.859375 261.429688 Z M 56.859375 261.429688 "/>
<path style=" stroke:none;fill-rule:evenodd;fill:rgb(0%,0%,0%);fill-opacity:1;" d="M 28.980469 200.019531 L 30.890625 200.019531 L 30.890625 193.429688 L 28.808594 193.839844 L 28.808594 192.78125 L 30.878906 192.359375 L 32.050781 192.359375 L 32.050781 200.019531 L 33.960938 200.019531 L 33.960938 201 L 28.980469 201 Z M 28.980469 200.019531 "/>
<path style=" stroke:none;fill-rule:evenodd;fill:rgb(0%,0%,0%);fill-opacity:1;" d="M 37.730469 193.128906 C 37.730469 193.128906 36.820312 193.128906 36.371094 194.019531 C 36.371094 194.019531 35.910156 194.910156 35.910156 196.691406 C 35.910156 196.691406 35.910156 198.46875 36.371094 199.359375 C 36.371094 199.359375 36.820312 200.238281 37.730469 200.238281 C 37.730469 200.238281 38.628906 200.238281 39.089844 199.359375 C 39.089844 199.359375 39.539062 198.46875 39.539062 196.691406 C 39.539062 196.691406 39.539062 194.910156 39.089844 194.019531 C 39.089844 194.019531 38.628906 193.128906 37.730469 193.128906 M 37.730469 192.210938 C 37.730469 192.210938 39.179688 192.210938 39.941406 193.359375 C 39.941406 193.359375 40.710938 194.5 40.710938 196.691406 C 40.710938 196.691406 40.710938 198.871094 39.941406 200.019531 C 39.941406 200.019531 39.179688 201.171875 37.730469 201.171875 C 37.730469 201.171875 36.269531 201.171875 35.5 200.019531 C 35.5 200.019531 34.738281 198.871094 34.738281 196.691406 C 34.738281 196.691406 34.738281 194.5 35.5 193.359375 C 35.5 193.359375 36.269531 192.210938 37.730469 192.210938 Z M 37.730469 192.210938 "/>
<path style=" stroke:none;fill-rule:evenodd;fill:rgb(0%,0%,0%);fill-opacity:1;" d="M 40.710938 190.730469 L 46.738281 190.730469 L 46.738281 191.53125 L 40.710938 191.53125 Z M 40.710938 190.730469 "/>
<path style=" stroke:none;fill-rule:evenodd;fill:rgb(0%,0%,0%);fill-opacity:1;" d="M 47.929688 193.351562 L 49.488281 193.351562 L 49.488281 188 L 47.800781 188.328125 L 47.800781 187.46875 L 49.480469 187.128906 L 50.429688 187.128906 L 50.429688 193.351562 L 51.980469 193.351562 L 51.980469 194.148438 L 47.929688 194.148438 Z M 47.929688 193.351562 "/>
<path style=" stroke:none;fill-rule:evenodd;fill:rgb(0%,0%,0%);fill-opacity:1;" d="M 53.011719 192.960938 L 54 192.960938 L 54 194.148438 L 53.011719 194.148438 Z M 53.011719 192.960938 "/>
<path style=" stroke:none;fill-rule:evenodd;fill:rgb(0%,0%,0%);fill-opacity:1;" d="M 55.039062 187.128906 L 58.769531 187.128906 L 58.769531 187.929688 L 55.910156 187.929688 L 55.910156 189.648438 C 55.910156 189.648438 56.121094 189.578125 56.320312 189.550781 C 56.320312 189.550781 56.53125 189.511719 56.738281 189.511719 C 56.738281 189.511719 57.910156 189.511719 58.601562 190.148438 C 58.601562 190.148438 59.28125 190.800781 59.28125 191.898438 C 59.28125 191.898438 59.28125 193.03125 58.578125 193.660156 C 58.578125 193.660156 57.871094 194.289062 56.589844 194.289062 C 56.589844 194.289062 56.148438 194.289062 55.691406 194.210938 C 55.691406 194.210938 55.230469 194.140625 54.738281 193.988281 L 54.738281 193.03125 C 54.738281 193.03125 55.171875 193.261719 55.621094 193.371094 C 55.621094 193.371094 56.070312 193.488281 56.570312 193.488281 C 56.570312 193.488281 57.390625 193.488281 57.859375 193.058594 C 57.859375 193.058594 58.339844 192.628906 58.339844 191.898438 C 58.339844 191.898438 58.339844 191.160156 57.859375 190.738281 C 57.859375 190.738281 57.390625 190.308594 56.570312 190.308594 C 56.570312 190.308594 56.191406 190.308594 55.808594 190.390625 C 55.808594 190.390625 55.429688 190.480469 55.039062 190.660156 Z M 55.039062 187.128906 "/>
<path style=" stroke:none;fill-rule:evenodd;fill:rgb(0%,0%,0%);fill-opacity:1;" d="M 28.78125 125.589844 L 30.691406 125.589844 L 30.691406 119 L 28.609375 119.421875 L 28.609375 118.351562 L 30.679688 117.941406 L 31.851562 117.941406 L 31.851562 125.589844 L 33.761719 125.589844 L 33.761719 126.578125 L 28.78125 126.578125 Z M 28.78125 125.589844 "/>
<path style=" stroke:none;fill-rule:evenodd;fill:rgb(0%,0%,0%);fill-opacity:1;" d="M 37.519531 118.710938 C 37.519531 118.710938 36.621094 118.710938 36.160156 119.601562 C 36.160156 119.601562 35.710938 120.480469 35.710938 122.261719 C 35.710938 122.261719 35.710938 124.039062 36.160156 124.929688 C 36.160156 124.929688 36.621094 125.820312 37.519531 125.820312 C 37.519531 125.820312 38.429688 125.820312 38.878906 124.929688 C 38.878906 124.929688 39.339844 124.039062 39.339844 122.261719 C 39.339844 122.261719 39.339844 120.480469 38.878906 119.601562 C 38.878906 119.601562 38.429688 118.710938 37.519531 118.710938 M 37.519531 117.78125 C 37.519531 117.78125 38.980469 117.78125 39.738281 118.929688 C 39.738281 118.929688 40.511719 120.078125 40.511719 122.261719 C 40.511719 122.261719 40.511719 124.449219 39.738281 125.601562 C 39.738281 125.601562 38.980469 126.738281 37.519531 126.738281 C 37.519531 126.738281 36.070312 126.738281 35.300781 125.601562 C 35.300781 125.601562 34.539062 124.449219 34.539062 122.261719 C 34.539062 122.261719 34.539062 120.078125 35.300781 118.929688 C 35.300781 118.929688 36.070312 117.78125 37.519531 117.78125 Z M 37.519531 117.78125 "/>
<path style=" stroke:none;fill-rule:evenodd;fill:rgb(0%,0%,0%);fill-opacity:1;" d="M 40.511719 116.300781 L 46.539062 116.300781 L 46.539062 117.101562 L 40.511719 117.101562 Z M 40.511719 116.300781 "/>
<path style=" stroke:none;fill-rule:evenodd;fill:rgb(0%,0%,0%);fill-opacity:1;" d="M 47.730469 118.921875 L 49.28125 118.921875 L 49.28125 113.570312 L 47.601562 113.910156 L 47.601562 113.039062 L 49.269531 112.699219 L 50.21875 112.699219 L 50.21875 118.921875 L 51.78125 118.921875 L 51.78125 119.71875 L 47.730469 119.71875 Z M 47.730469 118.921875 "/>
<path style=" stroke:none;fill-rule:evenodd;fill:rgb(0%,0%,0%);fill-opacity:1;" d="M 52.808594 118.53125 L 53.800781 118.53125 L 53.800781 119.71875 L 52.808594 119.71875 Z M 52.808594 118.53125 "/>
<path style=" stroke:none;fill-rule:evenodd;fill:rgb(0%,0%,0%);fill-opacity:1;" d="M 56.859375 113.328125 C 56.859375 113.328125 56.128906 113.328125 55.75 114.050781 C 55.75 114.050781 55.390625 114.769531 55.390625 116.21875 C 55.390625 116.21875 55.390625 117.660156 55.75 118.390625 C 55.75 118.390625 56.128906 119.109375 56.859375 119.109375 C 56.859375 119.109375 57.601562 119.109375 57.960938 118.390625 C 57.960938 118.390625 58.339844 117.660156 58.339844 116.21875 C 58.339844 116.21875 58.339844 114.769531 57.960938 114.050781 C 57.960938 114.050781 57.601562 113.328125 56.859375 113.328125 M 56.859375 112.578125 C 56.859375 112.578125 58.039062 112.578125 58.660156 113.511719 C 58.660156 113.511719 59.28125 114.441406 59.28125 116.21875 C 59.28125 116.21875 59.28125 117.988281 58.660156 118.929688 C 58.660156 118.929688 58.039062 119.859375 56.859375 119.859375 C 56.859375 119.859375 55.679688 119.859375 55.050781 118.929688 C 55.050781 118.929688 54.429688 117.988281 54.429688 116.21875 C 54.429688 116.21875 54.429688 114.441406 55.050781 113.511719 C 55.050781 113.511719 55.679688 112.578125 56.859375 112.578125 Z M 56.859375 112.578125 "/>
<path style=" stroke:none;fill-rule:evenodd;fill:rgb(0%,0%,0%);fill-opacity:1;" d="M 28.730469 51.160156 L 30.640625 51.160156 L 30.640625 44.570312 L 28.570312 44.988281 L 28.570312 43.921875 L 30.628906 43.511719 L 31.800781 43.511719 L 31.800781 51.160156 L 33.710938 51.160156 L 33.710938 52.148438 L 28.730469 52.148438 Z M 28.730469 51.160156 "/>
<path style=" stroke:none;fill-rule:evenodd;fill:rgb(0%,0%,0%);fill-opacity:1;" d="M 37.480469 44.28125 C 37.480469 44.28125 36.570312 44.28125 36.121094 45.171875 C 36.121094 45.171875 35.671875 46.050781 35.671875 47.839844 C 35.671875 47.839844 35.671875 49.609375 36.121094 50.5 C 36.121094 50.5 36.570312 51.390625 37.480469 51.390625 C 37.480469 51.390625 38.390625 51.390625 38.839844 50.5 C 38.839844 50.5 39.289062 49.609375 39.289062 47.839844 C 39.289062 47.839844 39.289062 46.050781 38.839844 45.171875 C 38.839844 45.171875 38.390625 44.28125 37.480469 44.28125 M 37.480469 43.351562 C 37.480469 43.351562 38.929688 43.351562 39.691406 44.5 C 39.691406 44.5 40.460938 45.648438 40.460938 47.839844 C 40.460938 47.839844 40.460938 50.019531 39.691406 51.171875 C 39.691406 51.171875 38.929688 52.320312 37.480469 52.320312 C 37.480469 52.320312 36.019531 52.320312 35.25 51.171875 C 35.25 51.171875 34.488281 50.019531 34.488281 47.839844 C 34.488281 47.839844 34.488281 45.648438 35.25 44.5 C 35.25 44.5 36.019531 43.351562 37.480469 43.351562 Z M 37.480469 43.351562 "/>
<path style=" stroke:none;fill-rule:evenodd;fill:rgb(0%,0%,0%);fill-opacity:1;" d="M 40.460938 41.878906 L 46.488281 41.878906 L 46.488281 42.679688 L 40.460938 42.679688 Z M 40.460938 41.878906 "/>
<path style=" stroke:none;fill-rule:evenodd;fill:rgb(0%,0%,0%);fill-opacity:1;" d="M 49.550781 38.898438 C 49.550781 38.898438 48.820312 38.898438 48.449219 39.628906 C 48.449219 39.628906 48.078125 40.339844 48.078125 41.789062 C 48.078125 41.789062 48.078125 43.238281 48.449219 43.960938 C 48.449219 43.960938 48.820312 44.679688 49.550781 44.679688 C 49.550781 44.679688 50.289062 44.679688 50.660156 43.960938 C 50.660156 43.960938 51.03125 43.238281 51.03125 41.789062 C 51.03125 41.789062 51.03125 40.339844 50.660156 39.628906 C 50.660156 39.628906 50.289062 38.898438 49.550781 38.898438 M 49.550781 38.148438 C 49.550781 38.148438 50.730469 38.148438 51.351562 39.078125 C 51.351562 39.078125 51.980469 40.019531 51.980469 41.789062 C 51.980469 41.789062 51.980469 43.570312 51.351562 44.5 C 51.351562 44.5 50.730469 45.429688 49.550781 45.429688 C 49.550781 45.429688 48.371094 45.429688 47.75 44.5 C 47.75 44.5 47.128906 43.570312 47.128906 41.789062 C 47.128906 41.789062 47.128906 40.019531 47.75 39.078125 C 47.75 39.078125 48.371094 38.148438 49.550781 38.148438 Z M 49.550781 38.148438 "/>
<path style=" stroke:none;fill-rule:evenodd;fill:rgb(0%,0%,0%);fill-opacity:1;" d="M 53.011719 44.101562 L 54 44.101562 L 54 45.300781 L 53.011719 45.300781 Z M 53.011719 44.101562 "/>
<path style=" stroke:none;fill-rule:evenodd;fill:rgb(0%,0%,0%);fill-opacity:1;" d="M 55.039062 38.28125 L 58.769531 38.28125 L 58.769531 39.070312 L 55.910156 39.070312 L 55.910156 40.800781 C 55.910156 40.800781 56.121094 40.730469 56.320312 40.691406 C 56.320312 40.691406 56.53125 40.648438 56.738281 40.648438 C 56.738281 40.648438 57.910156 40.648438 58.601562 41.300781 C 58.601562 41.300781 59.28125 41.941406 59.28125 43.039062 C 59.28125 43.039062 59.28125 44.179688 58.578125 44.808594 C 58.578125 44.808594 57.871094 45.429688 56.589844 45.429688 C 56.589844 45.429688 56.148438 45.429688 55.691406 45.359375 C 55.691406 45.359375 55.230469 45.28125 54.738281 45.128906 L 54.738281 44.179688 C 54.738281 44.179688 55.171875 44.410156 55.621094 44.519531 C 55.621094 44.519531 56.070312 44.628906 56.570312 44.628906 C 56.570312 44.628906 57.390625 44.628906 57.859375 44.199219 C 57.859375 44.199219 58.339844 43.78125 58.339844 43.039062 C 58.339844 43.039062 58.339844 42.308594 57.859375 41.878906 C 57.859375 41.878906 57.390625 41.449219 56.570312 41.449219 C 56.570312 41.449219 56.191406 41.449219 55.808594 41.539062 C 55.808594 41.539062 55.429688 41.621094 55.039062 41.800781 Z M 55.039062 38.28125 "/>
<path style=" stroke:none;fill-rule:evenodd;fill:rgb(0%,0%,0%);fill-opacity:1;" d="M 11.441406 199.851562 L 15.910156 199.851562 L 15.910156 197.828125 C 15.910156 197.828125 15.910156 196.710938 15.328125 196.089844 C 15.328125 196.089844 14.738281 195.480469 13.671875 195.480469 C 13.671875 195.480469 12.601562 195.480469 12.019531 196.089844 C 12.019531 196.089844 11.441406 196.710938 11.441406 197.828125 L 11.441406 199.851562 M 10.121094 201.460938 L 10.121094 197.828125 C 10.121094 197.828125 10.121094 195.828125 11.03125 194.808594 C 11.03125 194.808594 11.929688 193.789062 13.671875 193.789062 C 13.671875 193.789062 15.429688 193.789062 16.328125 194.808594 C 16.328125 194.808594 17.230469 195.828125 17.230469 197.828125 L 17.230469 199.851562 L 22 199.851562 L 22 201.460938 Z M 10.121094 201.460938 "/>
<path style=" stroke:none;fill-rule:evenodd;fill:rgb(0%,0%,0%);fill-opacity:1;" d="M 17.179688 185.210938 L 17.898438 185.210938 L 17.898438 191.941406 C 17.898438 191.941406 19.410156 191.839844 20.199219 191.03125 C 20.199219 191.03125 20.988281 190.210938 20.988281 188.761719 C 20.988281 188.761719 20.988281 187.910156 20.78125 187.121094 C 20.78125 187.121094 20.578125 186.328125 20.160156 185.550781 L 21.550781 185.550781 C 21.550781 185.550781 21.878906 186.339844 22.058594 187.160156 C 22.058594 187.160156 22.230469 187.988281 22.230469 188.839844 C 22.230469 188.839844 22.230469 190.980469 20.988281 192.230469 C 20.988281 192.230469 19.75 193.46875 17.628906 193.46875 C 17.628906 193.46875 15.441406 193.46875 14.160156 192.289062 C 14.160156 192.289062 12.871094 191.101562 12.871094 189.101562 C 12.871094 189.101562 12.871094 187.300781 14.039062 186.261719 C 14.039062 186.261719 15.191406 185.210938 17.179688 185.210938 M 16.75 186.671875 C 16.75 186.671875 15.550781 186.691406 14.828125 187.351562 C 14.828125 187.351562 14.121094 188 14.121094 189.078125 C 14.121094 189.078125 14.121094 190.308594 14.808594 191.050781 C 14.808594 191.050781 15.5 191.78125 16.761719 191.890625 Z M 16.75 186.671875 "/>
<path style=" stroke:none;fill-rule:evenodd;fill:rgb(0%,0%,0%);fill-opacity:1;" d="M 306.078125 10.960938 C 306.078125 10.960938 304.621094 10.960938 303.78125 11.738281 C 303.78125 11.738281 302.949219 12.519531 302.949219 13.890625 C 302.949219 13.890625 302.949219 15.261719 303.78125 16.039062 C 303.78125 16.039062 304.621094 16.820312 306.078125 16.820312 C 306.078125 16.820312 307.539062 16.820312 308.378906 16.039062 C 308.378906 16.039062 309.21875 15.25 309.21875 13.890625 C 309.21875 13.890625 309.21875 12.519531 308.378906 11.738281 C 308.378906 11.738281 307.550781 10.960938 306.078125 10.960938 M 304.03125 10.089844 C 304.03125 10.089844 302.71875 9.769531 301.980469 8.871094 C 301.980469 8.871094 301.25 7.96875 301.25 6.671875 C 301.25 6.671875 301.25 4.859375 302.53125 3.800781 C 302.53125 3.800781 303.828125 2.75 306.078125 2.75 C 306.078125 2.75 308.339844 2.75 309.621094 3.800781 C 309.621094 3.800781 310.910156 4.859375 310.910156 6.671875 C 310.910156 6.671875 310.910156 7.96875 310.171875 8.871094 C 310.171875 8.871094 309.441406 9.769531 308.128906 10.089844 C 308.128906 10.089844 309.609375 10.441406 310.429688 11.441406 C 310.429688 11.441406 311.261719 12.441406 311.261719 13.890625 C 311.261719 13.890625 311.261719 16.089844 309.921875 17.261719 C 309.921875 17.261719 308.578125 18.441406 306.078125 18.441406 C 306.078125 18.441406 303.578125 18.441406 302.230469 17.261719 C 302.230469 17.261719 300.890625 16.089844 300.890625 13.890625 C 300.890625 13.890625 300.890625 12.441406 301.71875 11.441406 C 301.71875 11.441406 302.550781 10.441406 304.03125 10.089844 M 303.28125 6.859375 C 303.28125 6.859375 303.28125 8.039062 304.011719 8.699219 C 304.011719 8.699219 304.75 9.351562 306.078125 9.351562 C 306.078125 9.351562 307.398438 9.351562 308.128906 8.699219 C 308.128906 8.699219 308.878906 8.039062 308.878906 6.859375 C 308.878906 6.859375 308.878906 5.691406 308.128906 5.03125 C 308.128906 5.03125 307.398438 4.371094 306.078125 4.371094 C 306.078125 4.371094 304.75 4.371094 304.011719 5.03125 C 304.011719 5.03125 303.28125 5.691406 303.28125 6.859375 Z M 303.28125 6.859375 "/>
<path style=" stroke:none;fill-rule:evenodd;fill:rgb(0%,0%,0%);fill-opacity:1;" d="M 312.28125 11.628906 L 317.738281 11.628906 L 317.738281 13.289062 L 312.28125 13.289062 Z M 312.28125 11.628906 "/>
<path style=" stroke:none;fill-rule:evenodd;fill:rgb(0%,0%,0%);fill-opacity:1;" d="M 321.820312 4.710938 L 321.820312 10.390625 L 324.390625 10.390625 C 324.390625 10.390625 325.820312 10.390625 326.601562 9.648438 C 326.601562 9.648438 327.378906 8.910156 327.378906 7.539062 C 327.378906 7.539062 327.378906 6.179688 326.601562 5.441406 C 326.601562 5.441406 325.820312 4.710938 324.390625 4.710938 L 321.820312 4.710938 M 319.769531 3.019531 L 324.390625 3.019531 C 324.390625 3.019531 326.929688 3.019531 328.230469 4.179688 C 328.230469 4.179688 329.53125 5.320312 329.53125 7.539062 C 329.53125 7.539062 329.53125 9.78125 328.230469 10.921875 C 328.230469 10.921875 326.929688 12.070312 324.390625 12.070312 L 321.820312 12.070312 L 321.820312 18.140625 L 319.769531 18.140625 Z M 319.769531 3.019531 "/>
<path style=" stroke:none;fill-rule:evenodd;fill:rgb(0%,0%,0%);fill-opacity:1;" d="M 340.628906 3.519531 L 340.628906 5.519531 C 340.628906 5.519531 339.46875 4.960938 338.441406 4.679688 C 338.441406 4.679688 337.398438 4.410156 336.441406 4.410156 C 336.441406 4.410156 334.769531 4.410156 333.859375 5.058594 C 333.859375 5.058594 332.960938 5.710938 332.960938 6.898438 C 332.960938 6.898438 332.960938 7.910156 333.550781 8.421875 C 333.550781 8.421875 334.160156 8.929688 335.839844 9.238281 L 337.078125 9.5 C 337.078125 9.5 339.371094 9.929688 340.449219 11.03125 C 340.449219 11.03125 341.539062 12.128906 341.539062 13.96875 C 341.539062 13.96875 341.539062 16.171875 340.070312 17.300781 C 340.070312 17.300781 338.601562 18.441406 335.75 18.441406 C 335.75 18.441406 334.679688 18.441406 333.460938 18.191406 C 333.460938 18.191406 332.261719 17.949219 330.960938 17.480469 L 330.960938 15.371094 C 330.960938 15.371094 332.210938 16.070312 333.398438 16.421875 C 333.398438 16.421875 334.601562 16.78125 335.75 16.78125 C 335.75 16.78125 337.5 16.78125 338.460938 16.089844 C 338.460938 16.089844 339.410156 15.398438 339.410156 14.121094 C 339.410156 14.121094 339.410156 13.011719 338.71875 12.378906 C 338.71875 12.378906 338.039062 11.75 336.480469 11.441406 L 335.230469 11.199219 C 335.230469 11.199219 332.949219 10.738281 331.921875 9.769531 C 331.921875 9.769531 330.898438 8.800781 330.898438 7.058594 C 330.898438 7.058594 330.898438 5.058594 332.308594 3.910156 C 332.308594 3.910156 333.730469 2.75 336.210938 2.75 C 336.210938 2.75 337.269531 2.75 338.371094 2.941406 C 338.371094 2.941406 339.480469 3.140625 340.628906 3.519531 Z M 340.628906 3.519531 "/>
<path style=" stroke:none;fill-rule:evenodd;fill:rgb(0%,0%,0%);fill-opacity:1;" d="M 343.578125 3.019531 L 345.628906 3.019531 L 345.628906 9.410156 L 352.410156 3.019531 L 355.039062 3.019531 L 347.539062 10.070312 L 355.578125 18.140625 L 352.890625 18.140625 L 345.628906 10.859375 L 345.628906 18.140625 L 343.578125 18.140625 Z M 343.578125 3.019531 "/>
<path style="fill:none;stroke-width:1;stroke-linecap:butt;stroke-linejoin:miter;stroke:rgb(0%,60.559082%,97.869873%);stroke-opacity:1;stroke-miterlimit:10;" d="M 83 359.941406 L 132.050781 348.769531 L 181.089844 335.378906 L 230.140625 319.28125 L 279.191406 299.878906 L 328.238281 276.398438 L 377.28125 247.871094 L 426.328125 213.050781 L 475.378906 170.421875 L 524.429688 118.019531 L 573.46875 53.398438 " transform="matrix(1,0,0,-1,0,400)"/>
<path style="fill-rule:evenodd;fill:rgb(0%,60.559082%,97.869873%);fill-opacity:1;stroke-width:0.8;stroke-linecap:butt;stroke-linejoin:miter;stroke:rgb(0%,0%,0%);stroke-opacity:1;stroke-miterlimit:10;" d="M 83 362.941406 C 81.339844 362.941406 80 361.589844 80 359.941406 C 80 358.28125 81.339844 356.941406 83 356.941406 C 84.660156 356.941406 86 358.28125 86 359.941406 C 86 361.589844 84.660156 362.941406 83 362.941406 Z M 83 362.941406 " transform="matrix(1,0,0,-1,0,400)"/>
<path style="fill-rule:evenodd;fill:rgb(0%,60.559082%,97.869873%);fill-opacity:1;stroke-width:0.8;stroke-linecap:butt;stroke-linejoin:miter;stroke:rgb(0%,0%,0%);stroke-opacity:1;stroke-miterlimit:10;" d="M 132.050781 351.769531 C 130.390625 351.769531 129.050781 350.421875 129.050781 348.769531 C 129.050781 347.109375 130.390625 345.769531 132.050781 345.769531 C 133.699219 345.769531 135.050781 347.109375 135.050781 348.769531 C 135.050781 350.421875 133.699219 351.769531 132.050781 351.769531 Z M 132.050781 351.769531 " transform="matrix(1,0,0,-1,0,400)"/>
<path style="fill-rule:evenodd;fill:rgb(0%,60.559082%,97.869873%);fill-opacity:1;stroke-width:0.8;stroke-linecap:butt;stroke-linejoin:miter;stroke:rgb(0%,0%,0%);stroke-opacity:1;stroke-miterlimit:10;" d="M 181.089844 338.378906 C 179.441406 338.378906 178.089844 337.03125 178.089844 335.378906 C 178.089844 333.71875 179.441406 332.378906 181.089844 332.378906 C 182.75 332.378906 184.089844 333.71875 184.089844 335.378906 C 184.089844 337.03125 182.75 338.378906 181.089844 338.378906 Z M 181.089844 338.378906 " transform="matrix(1,0,0,-1,0,400)"/>
<path style="fill-rule:evenodd;fill:rgb(0%,60.559082%,97.869873%);fill-opacity:1;stroke-width:0.8;stroke-linecap:butt;stroke-linejoin:miter;stroke:rgb(0%,0%,0%);stroke-opacity:1;stroke-miterlimit:10;" d="M 230.140625 322.28125 C 228.480469 322.28125 227.140625 320.941406 227.140625 319.28125 C 227.140625 317.628906 228.480469 316.28125 230.140625 316.28125 C 231.800781 316.28125 233.140625 317.628906 233.140625 319.28125 C 233.140625 320.941406 231.800781 322.28125 230.140625 322.28125 Z M 230.140625 322.28125 " transform="matrix(1,0,0,-1,0,400)"/>
<path style="fill-rule:evenodd;fill:rgb(0%,60.559082%,97.869873%);fill-opacity:1;stroke-width:0.8;stroke-linecap:butt;stroke-linejoin:miter;stroke:rgb(0%,0%,0%);stroke-opacity:1;stroke-miterlimit:10;" d="M 279.191406 302.878906 C 277.53125 302.878906 276.191406 301.539062 276.191406 299.878906 C 276.191406 298.21875 277.53125 296.878906 279.191406 296.878906 C 280.851562 296.878906 282.191406 298.21875 282.191406 299.878906 C 282.191406 301.539062 280.851562 302.878906 279.191406 302.878906 Z M 279.191406 302.878906 " transform="matrix(1,0,0,-1,0,400)"/>
<path style="fill-rule:evenodd;fill:rgb(0%,60.559082%,97.869873%);fill-opacity:1;stroke-width:0.8;stroke-linecap:butt;stroke-linejoin:miter;stroke:rgb(0%,0%,0%);stroke-opacity:1;stroke-miterlimit:10;" d="M 328.238281 279.398438 C 326.578125 279.398438 325.238281 278.058594 325.238281 276.398438 C 325.238281 274.738281 326.578125 273.398438 328.238281 273.398438 C 329.890625 273.398438 331.238281 274.738281 331.238281 276.398438 C 331.238281 278.058594 329.890625 279.398438 328.238281 279.398438 Z M 328.238281 279.398438 " transform="matrix(1,0,0,-1,0,400)"/>
<path style="fill-rule:evenodd;fill:rgb(0%,60.559082%,97.869873%);fill-opacity:1;stroke-width:0.8;stroke-linecap:butt;stroke-linejoin:miter;stroke:rgb(0%,0%,0%);stroke-opacity:1;stroke-miterlimit:10;" d="M 377.28125 250.871094 C 375.628906 250.871094 374.28125 249.519531 374.28125 247.871094 C 374.28125 246.210938 375.628906 244.871094 377.28125 244.871094 C 378.941406 244.871094 380.28125 246.210938 380.28125 247.871094 C 380.28125 249.519531 378.941406 250.871094 377.28125 250.871094 Z M 377.28125 250.871094 " transform="matrix(1,0,0,-1,0,400)"/>
<path style="fill-rule:evenodd;fill:rgb(0%,60.559082%,97.869873%);fill-opacity:1;stroke-width:0.8;stroke-linecap:butt;stroke-linejoin:miter;stroke:rgb(0%,0%,0%);stroke-opacity:1;stroke-miterlimit:10;" d="M 426.328125 216.050781 C 424.679688 216.050781 423.328125 214.710938 423.328125 213.050781 C 423.328125 211.398438 424.679688 210.050781 426.328125 210.050781 C 427.988281 210.050781 429.328125 211.398438 429.328125 213.050781 C 429.328125 214.710938 427.988281 216.050781 426.328125 216.050781 Z M 426.328125 216.050781 " transform="matrix(1,0,0,-1,0,400)"/>
<path style="fill-rule:evenodd;fill:rgb(0%,60.559082%,97.869873%);fill-opacity:1;stroke-width:0.8;stroke-linecap:butt;stroke-linejoin:miter;stroke:rgb(0%,0%,0%);stroke-opacity:1;stroke-miterlimit:10;" d="M 475.378906 173.421875 C 473.71875 173.421875 472.378906 172.078125 472.378906 170.421875 C 472.378906 168.769531 473.71875 167.421875 475.378906 167.421875 C 477.039062 167.421875 478.378906 168.769531 478.378906 170.421875 C 478.378906 172.078125 477.039062 173.421875 475.378906 173.421875 Z M 475.378906 173.421875 " transform="matrix(1,0,0,-1,0,400)"/>
<path style="fill-rule:evenodd;fill:rgb(0%,60.559082%,97.869873%);fill-opacity:1;stroke-width:0.8;stroke-linecap:butt;stroke-linejoin:miter;stroke:rgb(0%,0%,0%);stroke-opacity:1;stroke-miterlimit:10;" d="M 524.429688 121.019531 C 522.769531 121.019531 521.429688 119.679688 521.429688 118.019531 C 521.429688 116.359375 522.769531 115.019531 524.429688 115.019531 C 526.078125 115.019531 527.429688 116.359375 527.429688 118.019531 C 527.429688 119.679688 526.078125 121.019531 524.429688 121.019531 Z M 524.429688 121.019531 " transform="matrix(1,0,0,-1,0,400)"/>
<path style="fill-rule:evenodd;fill:rgb(0%,60.559082%,97.869873%);fill-opacity:1;stroke-width:0.8;stroke-linecap:butt;stroke-linejoin:miter;stroke:rgb(0%,0%,0%);stroke-opacity:1;stroke-miterlimit:10;" d="M 573.46875 56.398438 C 571.820312 56.398438 570.46875 55.058594 570.46875 53.398438 C 570.46875 51.738281 571.820312 50.398438 573.46875 50.398438 C 575.128906 50.398438 576.46875 51.738281 576.46875 53.398438 C 576.46875 55.058594 575.128906 56.398438 573.46875 56.398438 Z M 573.46875 56.398438 " transform="matrix(1,0,0,-1,0,400)"/>
<path style="fill:none;stroke-width:1;stroke-linecap:butt;stroke-linejoin:miter;stroke:rgb(88.88855%,43.559265%,27.809143%);stroke-opacity:1;stroke-miterlimit:10;" d="M 83 359.820312 L 132.050781 348.621094 L 181.089844 335.160156 L 230.140625 319.140625 L 279.191406 299.921875 L 328.238281 276.429688 L 377.28125 248.28125 L 426.328125 212.851562 L 475.378906 170.851562 L 524.429688 117.589844 L 573.46875 54.621094 " transform="matrix(1,0,0,-1,0,400)"/>
<path style="fill-rule:evenodd;fill:rgb(88.88855%,43.559265%,27.809143%);fill-opacity:1;stroke-width:0.8;stroke-linecap:butt;stroke-linejoin:miter;stroke:rgb(0%,0%,0%);stroke-opacity:1;stroke-miterlimit:10;" d="M 83 362.820312 C 81.339844 362.820312 80 361.480469 80 359.820312 C 80 358.171875 81.339844 356.820312 83 356.820312 C 84.660156 356.820312 86 358.171875 86 359.820312 C 86 361.480469 84.660156 362.820312 83 362.820312 Z M 83 362.820312 " transform="matrix(1,0,0,-1,0,400)"/>
<path style="fill-rule:evenodd;fill:rgb(88.88855%,43.559265%,27.809143%);fill-opacity:1;stroke-width:0.8;stroke-linecap:butt;stroke-linejoin:miter;stroke:rgb(0%,0%,0%);stroke-opacity:1;stroke-miterlimit:10;" d="M 132.050781 351.621094 C 130.390625 351.621094 129.050781 350.269531 129.050781 348.621094 C 129.050781 346.960938 130.390625 345.621094 132.050781 345.621094 C 133.699219 345.621094 135.050781 346.960938 135.050781 348.621094 C 135.050781 350.269531 133.699219 351.621094 132.050781 351.621094 Z M 132.050781 351.621094 " transform="matrix(1,0,0,-1,0,400)"/>
<path style="fill-rule:evenodd;fill:rgb(88.88855%,43.559265%,27.809143%);fill-opacity:1;stroke-width:0.8;stroke-linecap:butt;stroke-linejoin:miter;stroke:rgb(0%,0%,0%);stroke-opacity:1;stroke-miterlimit:10;" d="M 181.089844 338.160156 C 179.441406 338.160156 178.089844 336.808594 178.089844 335.160156 C 178.089844 333.5 179.441406 332.160156 181.089844 332.160156 C 182.75 332.160156 184.089844 333.5 184.089844 335.160156 C 184.089844 336.808594 182.75 338.160156 181.089844 338.160156 Z M 181.089844 338.160156 " transform="matrix(1,0,0,-1,0,400)"/>
<path style="fill-rule:evenodd;fill:rgb(88.88855%,43.559265%,27.809143%);fill-opacity:1;stroke-width:0.8;stroke-linecap:butt;stroke-linejoin:miter;stroke:rgb(0%,0%,0%);stroke-opacity:1;stroke-miterlimit:10;" d="M 230.140625 322.140625 C 228.480469 322.140625 227.140625 320.800781 227.140625 319.140625 C 227.140625 317.480469 228.480469 316.140625 230.140625 316.140625 C 231.800781 316.140625 233.140625 317.480469 233.140625 319.140625 C 233.140625 320.800781 231.800781 322.140625 230.140625 322.140625 Z M 230.140625 322.140625 " transform="matrix(1,0,0,-1,0,400)"/>
<path style="fill-rule:evenodd;fill:rgb(88.88855%,43.559265%,27.809143%);fill-opacity:1;stroke-width:0.8;stroke-linecap:butt;stroke-linejoin:miter;stroke:rgb(0%,0%,0%);stroke-opacity:1;stroke-miterlimit:10;" d="M 279.191406 302.921875 C 277.53125 302.921875 276.191406 301.578125 276.191406 299.921875 C 276.191406 298.261719 277.53125 296.921875 279.191406 296.921875 C 280.851562 296.921875 282.191406 298.261719 282.191406 299.921875 C 282.191406 301.578125 280.851562 302.921875 279.191406 302.921875 Z M 279.191406 302.921875 " transform="matrix(1,0,0,-1,0,400)"/>
<path style="fill-rule:evenodd;fill:rgb(88.88855%,43.559265%,27.809143%);fill-opacity:1;stroke-width:0.8;stroke-linecap:butt;stroke-linejoin:miter;stroke:rgb(0%,0%,0%);stroke-opacity:1;stroke-miterlimit:10;" d="M 328.238281 279.429688 C 326.578125 279.429688 325.238281 278.089844 325.238281 276.429688 C 325.238281 274.78125 326.578125 273.429688 328.238281 273.429688 C 329.890625 273.429688 331.238281 274.78125 331.238281 276.429688 C 331.238281 278.089844 329.890625 279.429688 328.238281 279.429688 Z M 328.238281 279.429688 " transform="matrix(1,0,0,-1,0,400)"/>
<path style="fill-rule:evenodd;fill:rgb(88.88855%,43.559265%,27.809143%);fill-opacity:1;stroke-width:0.8;stroke-linecap:butt;stroke-linejoin:miter;stroke:rgb(0%,0%,0%);stroke-opacity:1;stroke-miterlimit:10;" d="M 377.28125 251.28125 C 375.628906 251.28125 374.28125 249.941406 374.28125 248.28125 C 374.28125 246.628906 375.628906 245.28125 377.28125 245.28125 C 378.941406 245.28125 380.28125 246.628906 380.28125 248.28125 C 380.28125 249.941406 378.941406 251.28125 377.28125 251.28125 Z M 377.28125 251.28125 " transform="matrix(1,0,0,-1,0,400)"/>
<path style="fill-rule:evenodd;fill:rgb(88.88855%,43.559265%,27.809143%);fill-opacity:1;stroke-width:0.8;stroke-linecap:butt;stroke-linejoin:miter;stroke:rgb(0%,0%,0%);stroke-opacity:1;stroke-miterlimit:10;" d="M 426.328125 215.851562 C 424.679688 215.851562 423.328125 214.511719 423.328125 212.851562 C 423.328125 211.199219 424.679688 209.851562 426.328125 209.851562 C 427.988281 209.851562 429.328125 211.199219 429.328125 212.851562 C 429.328125 214.511719 427.988281 215.851562 426.328125 215.851562 Z M 426.328125 215.851562 " transform="matrix(1,0,0,-1,0,400)"/>
<path style="fill-rule:evenodd;fill:rgb(88.88855%,43.559265%,27.809143%);fill-opacity:1;stroke-width:0.8;stroke-linecap:butt;stroke-linejoin:miter;stroke:rgb(0%,0%,0%);stroke-opacity:1;stroke-miterlimit:10;" d="M 475.378906 173.851562 C 473.71875 173.851562 472.378906 172.5 472.378906 170.851562 C 472.378906 169.191406 473.71875 167.851562 475.378906 167.851562 C 477.039062 167.851562 478.378906 169.191406 478.378906 170.851562 C 478.378906 172.5 477.039062 173.851562 475.378906 173.851562 Z M 475.378906 173.851562 " transform="matrix(1,0,0,-1,0,400)"/>
<path style="fill-rule:evenodd;fill:rgb(88.88855%,43.559265%,27.809143%);fill-opacity:1;stroke-width:0.8;stroke-linecap:butt;stroke-linejoin:miter;stroke:rgb(0%,0%,0%);stroke-opacity:1;stroke-miterlimit:10;" d="M 524.429688 120.589844 C 522.769531 120.589844 521.429688 119.238281 521.429688 117.589844 C 521.429688 115.929688 522.769531 114.589844 524.429688 114.589844 C 526.078125 114.589844 527.429688 115.929688 527.429688 117.589844 C 527.429688 119.238281 526.078125 120.589844 524.429688 120.589844 Z M 524.429688 120.589844 " transform="matrix(1,0,0,-1,0,400)"/>
<path style="fill-rule:evenodd;fill:rgb(88.88855%,43.559265%,27.809143%);fill-opacity:1;stroke-width:0.8;stroke-linecap:butt;stroke-linejoin:miter;stroke:rgb(0%,0%,0%);stroke-opacity:1;stroke-miterlimit:10;" d="M 573.46875 57.621094 C 571.820312 57.621094 570.46875 56.28125 570.46875 54.621094 C 570.46875 52.960938 571.820312 51.621094 573.46875 51.621094 C 575.128906 51.621094 576.46875 52.960938 576.46875 54.621094 C 576.46875 56.28125 575.128906 57.621094 573.46875 57.621094 Z M 573.46875 57.621094 " transform="matrix(1,0,0,-1,0,400)"/>
<path style=" stroke:none;fill-rule:evenodd;fill:rgb(100%,100%,100%);fill-opacity:1;" d="M 453.871094 87.058594 L 570.859375 87.058594 L 570.859375 41.699219 L 453.871094 41.699219 "/>
<path style="fill:none;stroke-width:1;stroke-linecap:butt;stroke-linejoin:miter;stroke:rgb(0%,0%,0%);stroke-opacity:1;stroke-miterlimit:10;" d="M 453.871094 312.941406 L 570.859375 312.941406 L 570.859375 358.300781 L 453.871094 358.300781 L 453.871094 312.941406 " transform="matrix(1,0,0,-1,0,400)"/>
<path style="fill:none;stroke-width:1;stroke-linecap:butt;stroke-linejoin:miter;stroke:rgb(0%,60.559082%,97.869873%);stroke-opacity:1;stroke-miterlimit:10;" d="M 459.648438 343.179688 L 494.308594 343.179688 " transform="matrix(1,0,0,-1,0,400)"/>
<path style="fill-rule:evenodd;fill:rgb(0%,60.559082%,97.869873%);fill-opacity:1;stroke-width:1.28;stroke-linecap:butt;stroke-linejoin:miter;stroke:rgb(0%,0%,0%);stroke-opacity:1;stroke-miterlimit:10;" d="M 476.980469 348.179688 C 474.21875 348.179688 471.980469 345.941406 471.980469 343.179688 C 471.980469 340.421875 474.21875 338.179688 476.980469 338.179688 C 479.738281 338.179688 481.980469 340.421875 481.980469 343.179688 C 481.980469 345.941406 479.738281 348.179688 476.980469 348.179688 Z M 476.980469 348.179688 " transform="matrix(1,0,0,-1,0,400)"/>
<path style=" stroke:none;fill-rule:evenodd;fill:rgb(0%,0%,0%);fill-opacity:1;" d="M 501.941406 52.820312 L 501.941406 54.660156 L 504.128906 54.660156 L 504.128906 55.488281 L 501.941406 55.488281 L 501.941406 59 C 501.941406 59 501.941406 59.800781 502.148438 60.019531 C 502.148438 60.019531 502.371094 60.25 503.039062 60.25 L 504.128906 60.25 L 504.128906 61.140625 L 503.039062 61.140625 C 503.039062 61.140625 501.808594 61.140625 501.339844 60.679688 C 501.339844 60.679688 500.871094 60.21875 500.871094 59 L 500.871094 55.488281 L 500.089844 55.488281 L 500.089844 54.660156 L 500.871094 54.660156 L 500.871094 52.820312 Z M 501.941406 52.820312 "/>
<path style=" stroke:none;fill-rule:evenodd;fill:rgb(0%,0%,0%);fill-opacity:1;" d="M 510.640625 57.230469 L 510.640625 61.140625 L 509.570312 61.140625 L 509.570312 57.261719 C 509.570312 57.261719 509.570312 56.339844 509.210938 55.878906 C 509.210938 55.878906 508.851562 55.429688 508.140625 55.429688 C 508.140625 55.429688 507.269531 55.429688 506.78125 55.980469 C 506.78125 55.980469 506.28125 56.53125 506.28125 57.480469 L 506.28125 61.140625 L 505.210938 61.140625 L 505.210938 52.128906 L 506.28125 52.128906 L 506.28125 55.660156 C 506.28125 55.660156 506.660156 55.078125 507.179688 54.789062 C 507.179688 54.789062 507.699219 54.5 508.371094 54.5 C 508.371094 54.5 509.488281 54.5 510.058594 55.199219 C 510.058594 55.199219 510.640625 55.878906 510.640625 57.230469 Z M 510.640625 57.230469 "/>
<path style=" stroke:none;fill-rule:evenodd;fill:rgb(0%,0%,0%);fill-opacity:1;" d="M 517.300781 57.628906 L 517.300781 58.148438 L 512.398438 58.148438 C 512.398438 58.148438 512.46875 59.25 513.058594 59.828125 C 513.058594 59.828125 513.660156 60.398438 514.71875 60.398438 C 514.71875 60.398438 515.328125 60.398438 515.898438 60.25 C 515.898438 60.25 516.480469 60.101562 517.050781 59.800781 L 517.050781 60.808594 C 517.050781 60.808594 516.480469 61.050781 515.871094 61.179688 C 515.871094 61.179688 515.269531 61.308594 514.648438 61.308594 C 514.648438 61.308594 513.101562 61.308594 512.191406 60.398438 C 512.191406 60.398438 511.289062 59.5 511.289062 57.960938 C 511.289062 57.960938 511.289062 56.371094 512.148438 55.441406 C 512.148438 55.441406 513.011719 54.5 514.46875 54.5 C 514.46875 54.5 515.78125 54.5 516.53125 55.351562 C 516.53125 55.351562 517.300781 56.191406 517.300781 57.628906 M 516.230469 57.320312 C 516.230469 57.320312 516.21875 56.449219 515.738281 55.921875 C 515.738281 55.921875 515.269531 55.398438 514.480469 55.398438 C 514.480469 55.398438 513.589844 55.398438 513.050781 55.910156 C 513.050781 55.910156 512.519531 56.410156 512.441406 57.328125 Z M 516.230469 57.320312 "/>
<path style=" stroke:none;fill-rule:evenodd;fill:rgb(0%,0%,0%);fill-opacity:1;" d="M 520.929688 55.398438 C 520.929688 55.398438 520.070312 55.398438 519.570312 56.078125 C 519.570312 56.078125 519.070312 56.738281 519.070312 57.898438 C 519.070312 57.898438 519.070312 59.070312 519.570312 59.738281 C 519.570312 59.738281 520.058594 60.398438 520.929688 60.398438 C 520.929688 60.398438 521.78125 60.398438 522.269531 59.730469 C 522.269531 59.730469 522.769531 59.058594 522.769531 57.898438 C 522.769531 57.898438 522.769531 56.75 522.269531 56.078125 C 522.269531 56.078125 521.78125 55.398438 520.929688 55.398438 M 520.929688 54.5 C 520.929688 54.5 522.308594 54.5 523.109375 55.398438 C 523.109375 55.398438 523.898438 56.308594 523.898438 57.898438 C 523.898438 57.898438 523.898438 59.5 523.109375 60.398438 C 523.109375 60.398438 522.308594 61.308594 520.929688 61.308594 C 520.929688 61.308594 519.53125 61.308594 518.738281 60.398438 C 518.738281 60.398438 517.949219 59.5 517.949219 57.898438 C 517.949219 57.898438 517.949219 56.308594 518.738281 55.398438 C 518.738281 55.398438 519.53125 54.5 520.929688 54.5 Z M 520.929688 54.5 "/>
<path style=" stroke:none;fill-rule:evenodd;fill:rgb(0%,0%,0%);fill-opacity:1;" d="M 528.769531 55.648438 C 528.769531 55.648438 528.589844 55.550781 528.378906 55.5 C 528.378906 55.5 528.171875 55.449219 527.921875 55.449219 C 527.921875 55.449219 527.011719 55.449219 526.53125 56.039062 C 526.53125 56.039062 526.050781 56.628906 526.050781 57.71875 L 526.050781 61.140625 L 524.980469 61.140625 L 524.980469 54.660156 L 526.050781 54.660156 L 526.050781 55.660156 C 526.050781 55.660156 526.378906 55.070312 526.921875 54.789062 C 526.921875 54.789062 527.460938 54.5 528.230469 54.5 C 528.230469 54.5 528.339844 54.5 528.46875 54.519531 C 528.46875 54.519531 528.609375 54.53125 528.769531 54.558594 Z M 528.769531 55.648438 "/>
<path style=" stroke:none;fill-rule:evenodd;fill:rgb(0%,0%,0%);fill-opacity:1;" d="M 535.171875 57.628906 L 535.171875 58.148438 L 530.28125 58.148438 C 530.28125 58.148438 530.351562 59.25 530.941406 59.828125 C 530.941406 59.828125 531.53125 60.398438 532.589844 60.398438 C 532.589844 60.398438 533.210938 60.398438 533.78125 60.25 C 533.78125 60.25 534.359375 60.101562 534.921875 59.800781 L 534.921875 60.808594 C 534.921875 60.808594 534.351562 61.050781 533.75 61.179688 C 533.75 61.179688 533.148438 61.308594 532.53125 61.308594 C 532.53125 61.308594 530.980469 61.308594 530.070312 60.398438 C 530.070312 60.398438 529.171875 59.5 529.171875 57.960938 C 529.171875 57.960938 529.171875 56.371094 530.019531 55.441406 C 530.019531 55.441406 530.890625 54.5 532.339844 54.5 C 532.339844 54.5 533.648438 54.5 534.410156 55.351562 C 534.410156 55.351562 535.171875 56.191406 535.171875 57.628906 M 534.109375 57.320312 C 534.109375 57.320312 534.101562 56.449219 533.621094 55.921875 C 533.621094 55.921875 533.140625 55.398438 532.359375 55.398438 C 532.359375 55.398438 531.460938 55.398438 530.929688 55.910156 C 530.929688 55.910156 530.390625 56.410156 530.308594 57.328125 Z M 534.109375 57.320312 "/>
<path style=" stroke:none;fill-rule:evenodd;fill:rgb(0%,0%,0%);fill-opacity:1;" d="M 537.339844 52.820312 L 537.339844 54.660156 L 539.539062 54.660156 L 539.539062 55.488281 L 537.339844 55.488281 L 537.339844 59 C 537.339844 59 537.339844 59.800781 537.558594 60.019531 C 537.558594 60.019531 537.78125 60.25 538.441406 60.25 L 539.539062 60.25 L 539.539062 61.140625 L 538.441406 61.140625 C 538.441406 61.140625 537.210938 61.140625 536.738281 60.679688 C 536.738281 60.679688 536.269531 60.21875 536.269531 59 L 536.269531 55.488281 L 535.488281 55.488281 L 535.488281 54.660156 L 536.269531 54.660156 L 536.269531 52.820312 Z M 537.339844 52.820312 "/>
<path style=" stroke:none;fill-rule:evenodd;fill:rgb(0%,0%,0%);fill-opacity:1;" d="M 540.648438 54.660156 L 541.71875 54.660156 L 541.71875 61.140625 L 540.648438 61.140625 L 540.648438 54.660156 M 540.648438 52.128906 L 541.71875 52.128906 L 541.71875 53.480469 L 540.648438 53.480469 Z M 540.648438 52.128906 "/>
<path style=" stroke:none;fill-rule:evenodd;fill:rgb(0%,0%,0%);fill-opacity:1;" d="M 547.5 54.910156 L 547.5 55.898438 C 547.5 55.898438 547.050781 55.648438 546.589844 55.53125 C 546.589844 55.53125 546.140625 55.398438 545.679688 55.398438 C 545.679688 55.398438 544.640625 55.398438 544.070312 56.058594 C 544.070312 56.058594 543.5 56.71875 543.5 57.898438 C 543.5 57.898438 543.5 59.089844 544.070312 59.75 C 544.070312 59.75 544.640625 60.398438 545.679688 60.398438 C 545.679688 60.398438 546.140625 60.398438 546.589844 60.28125 C 546.589844 60.28125 547.050781 60.160156 547.5 59.910156 L 547.5 60.890625 C 547.5 60.890625 547.050781 61.101562 546.570312 61.199219 C 546.570312 61.199219 546.101562 61.308594 545.558594 61.308594 C 545.558594 61.308594 544.101562 61.308594 543.230469 60.390625 C 543.230469 60.390625 542.371094 59.46875 542.371094 57.898438 C 542.371094 57.898438 542.371094 56.320312 543.238281 55.410156 C 543.238281 55.410156 544.109375 54.5 545.628906 54.5 C 545.628906 54.5 546.121094 54.5 546.589844 54.609375 C 546.589844 54.609375 547.058594 54.699219 547.5 54.910156 Z M 547.5 54.910156 "/>
<path style=" stroke:none;fill-rule:evenodd;fill:rgb(0%,0%,0%);fill-opacity:1;" d="M 551.558594 57.878906 C 551.558594 57.878906 550.269531 57.878906 549.769531 58.179688 C 549.769531 58.179688 549.28125 58.46875 549.28125 59.179688 C 549.28125 59.179688 549.28125 59.75 549.648438 60.089844 C 549.648438 60.089844 550.019531 60.421875 550.671875 60.421875 C 550.671875 60.421875 551.550781 60.421875 552.078125 59.789062 C 552.078125 59.789062 552.621094 59.160156 552.621094 58.121094 L 552.621094 57.878906 L 551.558594 57.878906 M 553.691406 57.441406 L 553.691406 61.140625 L 552.621094 61.140625 L 552.621094 60.160156 C 552.621094 60.160156 552.261719 60.75 551.710938 61.03125 C 551.710938 61.03125 551.171875 61.308594 550.378906 61.308594 C 550.378906 61.308594 549.390625 61.308594 548.800781 60.75 C 548.800781 60.75 548.210938 60.191406 548.210938 59.25 C 548.210938 59.25 548.210938 58.160156 548.941406 57.601562 C 548.941406 57.601562 549.679688 57.050781 551.128906 57.050781 L 552.621094 57.050781 L 552.621094 56.941406 C 552.621094 56.941406 552.621094 56.210938 552.140625 55.808594 C 552.140625 55.808594 551.660156 55.398438 550.78125 55.398438 C 550.78125 55.398438 550.230469 55.398438 549.699219 55.539062 C 549.699219 55.539062 549.171875 55.671875 548.691406 55.941406 L 548.691406 54.949219 C 548.691406 54.949219 549.269531 54.730469 549.820312 54.621094 C 549.820312 54.621094 550.371094 54.5 550.890625 54.5 C 550.890625 54.5 552.300781 54.5 552.988281 55.230469 C 552.988281 55.230469 553.691406 55.960938 553.691406 57.441406 Z M 553.691406 57.441406 "/>
<path style=" stroke:none;fill-rule:evenodd;fill:rgb(0%,0%,0%);fill-opacity:1;" d="M 554.800781 52.128906 L 555.871094 52.128906 L 555.871094 61.140625 L 554.800781 61.140625 Z M 554.800781 52.128906 "/>
<path style="fill:none;stroke-width:1;stroke-linecap:butt;stroke-linejoin:miter;stroke:rgb(88.88855%,43.559265%,27.809143%);stroke-opacity:1;stroke-miterlimit:10;" d="M 459.648438 328.058594 L 494.308594 328.058594 " transform="matrix(1,0,0,-1,0,400)"/>
<path style="fill-rule:evenodd;fill:rgb(88.88855%,43.559265%,27.809143%);fill-opacity:1;stroke-width:1.28;stroke-linecap:butt;stroke-linejoin:miter;stroke:rgb(0%,0%,0%);stroke-opacity:1;stroke-miterlimit:10;" d="M 476.980469 333.058594 C 474.21875 333.058594 471.980469 330.820312 471.980469 328.058594 C 471.980469 325.300781 474.21875 323.058594 476.980469 323.058594 C 479.738281 323.058594 481.980469 325.300781 481.980469 328.058594 C 481.980469 330.820312 479.738281 333.058594 476.980469 333.058594 Z M 476.980469 333.058594 " transform="matrix(1,0,0,-1,0,400)"/>
<path style=" stroke:none;fill-rule:evenodd;fill:rgb(0%,0%,0%);fill-opacity:1;" d="M 505.171875 71.019531 C 505.171875 71.019531 505.570312 70.300781 506.128906 69.960938 C 506.128906 69.960938 506.679688 69.621094 507.441406 69.621094 C 507.441406 69.621094 508.449219 69.621094 509 70.328125 C 509 70.328125 509.550781 71.039062 509.550781 72.351562 L 509.550781 76.261719 L 508.480469 76.261719 L 508.480469 72.378906 C 508.480469 72.378906 508.480469 71.449219 508.148438 71 C 508.148438 71 507.820312 70.550781 507.140625 70.550781 C 507.140625 70.550781 506.308594 70.550781 505.828125 71.101562 C 505.828125 71.101562 505.351562 71.648438 505.351562 72.601562 L 505.351562 76.261719 L 504.28125 76.261719 L 504.28125 72.378906 C 504.28125 72.378906 504.28125 71.441406 503.949219 71 C 503.949219 71 503.621094 70.550781 502.929688 70.550781 C 502.929688 70.550781 502.121094 70.550781 501.640625 71.101562 C 501.640625 71.101562 501.160156 71.648438 501.160156 72.601562 L 501.160156 76.261719 L 500.089844 76.261719 L 500.089844 69.78125 L 501.160156 69.78125 L 501.160156 70.78125 C 501.160156 70.78125 501.519531 70.191406 502.03125 69.898438 C 502.03125 69.898438 502.539062 69.621094 503.238281 69.621094 C 503.238281 69.621094 503.949219 69.621094 504.441406 69.980469 C 504.441406 69.980469 504.941406 70.339844 505.171875 71.019531 Z M 505.171875 71.019531 "/>
<path style=" stroke:none;fill-rule:evenodd;fill:rgb(0%,0%,0%);fill-opacity:1;" d="M 513.179688 70.519531 C 513.179688 70.519531 512.320312 70.519531 511.820312 71.199219 C 511.820312 71.199219 511.328125 71.859375 511.328125 73.019531 C 511.328125 73.019531 511.328125 74.191406 511.820312 74.859375 C 511.820312 74.859375 512.308594 75.519531 513.179688 75.519531 C 513.179688 75.519531 514.03125 75.519531 514.53125 74.851562 C 514.53125 74.851562 515.019531 74.179688 515.019531 73.019531 C 515.019531 73.019531 515.019531 71.871094 514.53125 71.199219 C 514.53125 71.199219 514.03125 70.519531 513.179688 70.519531 M 513.179688 69.621094 C 513.179688 69.621094 514.570312 69.621094 515.359375 70.519531 C 515.359375 70.519531 516.148438 71.429688 516.148438 73.019531 C 516.148438 73.019531 516.148438 74.621094 515.359375 75.519531 C 515.359375 75.519531 514.570312 76.429688 513.179688 76.429688 C 513.179688 76.429688 511.78125 76.429688 510.988281 75.519531 C 510.988281 75.519531 510.199219 74.621094 510.199219 73.019531 C 510.199219 73.019531 510.199219 71.429688 510.988281 70.519531 C 510.988281 70.519531 511.78125 69.621094 513.179688 69.621094 Z M 513.179688 69.621094 "/>
<path style=" stroke:none;fill-rule:evenodd;fill:rgb(0%,0%,0%);fill-opacity:1;" d="M 522.660156 72.351562 L 522.660156 76.261719 L 521.589844 76.261719 L 521.589844 72.378906 C 521.589844 72.378906 521.589844 71.460938 521.230469 71 C 521.230469 71 520.871094 70.550781 520.160156 70.550781 C 520.160156 70.550781 519.289062 70.550781 518.800781 71.101562 C 518.800781 71.101562 518.300781 71.648438 518.300781 72.601562 L 518.300781 76.261719 L 517.230469 76.261719 L 517.230469 69.78125 L 518.300781 69.78125 L 518.300781 70.78125 C 518.300781 70.78125 518.679688 70.199219 519.199219 69.910156 C 519.199219 69.910156 519.71875 69.621094 520.390625 69.621094 C 520.390625 69.621094 521.511719 69.621094 522.078125 70.320312 C 522.078125 70.320312 522.660156 71 522.660156 72.351562 Z M 522.660156 72.351562 "/>
<path style=" stroke:none;fill-rule:evenodd;fill:rgb(0%,0%,0%);fill-opacity:1;" d="M 524.828125 67.941406 L 524.828125 69.78125 L 527.019531 69.78125 L 527.019531 70.609375 L 524.828125 70.609375 L 524.828125 74.121094 C 524.828125 74.121094 524.828125 74.921875 525.039062 75.140625 C 525.039062 75.140625 525.261719 75.371094 525.929688 75.371094 L 527.019531 75.371094 L 527.019531 76.261719 L 525.929688 76.261719 C 525.929688 76.261719 524.691406 76.261719 524.21875 75.800781 C 524.21875 75.800781 523.761719 75.339844 523.761719 74.121094 L 523.761719 70.609375 L 522.96875 70.609375 L 522.96875 69.78125 L 523.761719 69.78125 L 523.761719 67.941406 Z M 524.828125 67.941406 "/>
<path style=" stroke:none;fill-rule:evenodd;fill:rgb(0%,0%,0%);fill-opacity:1;" d="M 533.679688 72.75 L 533.679688 73.269531 L 528.78125 73.269531 C 528.78125 73.269531 528.851562 74.371094 529.441406 74.949219 C 529.441406 74.949219 530.039062 75.519531 531.101562 75.519531 C 531.101562 75.519531 531.710938 75.519531 532.289062 75.371094 C 532.289062 75.371094 532.859375 75.21875 533.429688 74.921875 L 533.429688 75.929688 C 533.429688 75.929688 532.859375 76.171875 532.261719 76.300781 C 532.261719 76.300781 531.660156 76.429688 531.039062 76.429688 C 531.039062 76.429688 529.480469 76.429688 528.578125 75.519531 C 528.578125 75.519531 527.671875 74.621094 527.671875 73.078125 C 527.671875 73.078125 527.671875 71.488281 528.53125 70.558594 C 528.53125 70.558594 529.390625 69.621094 530.851562 69.621094 C 530.851562 69.621094 532.160156 69.621094 532.921875 70.46875 C 532.921875 70.46875 533.679688 71.308594 533.679688 72.75 M 532.621094 72.441406 C 532.621094 72.441406 532.601562 71.570312 532.121094 71.039062 C 532.121094 71.039062 531.648438 70.519531 530.859375 70.519531 C 530.859375 70.519531 529.96875 70.519531 529.429688 71.03125 C 529.429688 71.03125 528.898438 71.53125 528.820312 72.449219 Z M 532.621094 72.441406 "/>
<path style=" stroke:none;fill-rule:evenodd;fill:rgb(0%,0%,0%);fill-opacity:1;" d="M 539.460938 70.03125 L 539.460938 71.019531 C 539.460938 71.019531 539.011719 70.769531 538.550781 70.648438 C 538.550781 70.648438 538.101562 70.519531 537.640625 70.519531 C 537.640625 70.519531 536.601562 70.519531 536.03125 71.179688 C 536.03125 71.179688 535.460938 71.839844 535.460938 73.019531 C 535.460938 73.019531 535.460938 74.210938 536.03125 74.871094 C 536.03125 74.871094 536.601562 75.519531 537.640625 75.519531 C 537.640625 75.519531 538.101562 75.519531 538.550781 75.398438 C 538.550781 75.398438 539.011719 75.28125 539.460938 75.03125 L 539.460938 76.011719 C 539.460938 76.011719 539.019531 76.21875 538.539062 76.320312 C 538.539062 76.320312 538.058594 76.429688 537.519531 76.429688 C 537.519531 76.429688 536.058594 76.429688 535.199219 75.511719 C 535.199219 75.511719 534.328125 74.589844 534.328125 73.019531 C 534.328125 73.019531 534.328125 71.441406 535.199219 70.53125 C 535.199219 70.53125 536.078125 69.621094 537.589844 69.621094 C 537.589844 69.621094 538.078125 69.621094 538.550781 69.730469 C 538.550781 69.730469 539.019531 69.820312 539.460938 70.03125 Z M 539.460938 70.03125 "/>
<path style=" stroke:none;fill-rule:evenodd;fill:rgb(0%,0%,0%);fill-opacity:1;" d="M 543.519531 73 C 543.519531 73 542.230469 73 541.738281 73.300781 C 541.738281 73.300781 541.238281 73.589844 541.238281 74.300781 C 541.238281 74.300781 541.238281 74.871094 541.609375 75.210938 C 541.609375 75.210938 541.980469 75.539062 542.628906 75.539062 C 542.628906 75.539062 543.511719 75.539062 544.050781 74.910156 C 544.050781 74.910156 544.578125 74.28125 544.578125 73.238281 L 544.578125 73 L 543.519531 73 M 545.648438 72.558594 L 545.648438 76.261719 L 544.578125 76.261719 L 544.578125 75.28125 C 544.578125 75.28125 544.21875 75.871094 543.671875 76.148438 C 543.671875 76.148438 543.128906 76.429688 542.339844 76.429688 C 542.339844 76.429688 541.351562 76.429688 540.761719 75.871094 C 540.761719 75.871094 540.171875 75.308594 540.171875 74.371094 C 540.171875 74.371094 540.171875 73.28125 540.898438 72.71875 C 540.898438 72.71875 541.640625 72.171875 543.089844 72.171875 L 544.578125 72.171875 L 544.578125 72.058594 C 544.578125 72.058594 544.578125 71.328125 544.101562 70.929688 C 544.101562 70.929688 543.621094 70.519531 542.738281 70.519531 C 542.738281 70.519531 542.191406 70.519531 541.660156 70.660156 C 541.660156 70.660156 541.128906 70.789062 540.648438 71.058594 L 540.648438 70.070312 C 540.648438 70.070312 541.230469 69.851562 541.78125 69.738281 C 541.78125 69.738281 542.328125 69.621094 542.851562 69.621094 C 542.851562 69.621094 544.261719 69.621094 544.949219 70.351562 C 544.949219 70.351562 545.648438 71.078125 545.648438 72.558594 Z M 545.648438 72.558594 "/>
<path style=" stroke:none;fill-rule:evenodd;fill:rgb(0%,0%,0%);fill-opacity:1;" d="M 550.519531 70.769531 C 550.519531 70.769531 550.339844 70.671875 550.128906 70.621094 C 550.128906 70.621094 549.921875 70.570312 549.660156 70.570312 C 549.660156 70.570312 548.761719 70.570312 548.28125 71.160156 C 548.28125 71.160156 547.800781 71.75 547.800781 72.839844 L 547.800781 76.261719 L 546.71875 76.261719 L 546.71875 69.78125 L 547.800781 69.78125 L 547.800781 70.78125 C 547.800781 70.78125 548.128906 70.191406 548.671875 69.910156 C 548.671875 69.910156 549.210938 69.621094 549.980469 69.621094 C 549.980469 69.621094 550.089844 69.621094 550.21875 69.640625 C 550.21875 69.640625 550.351562 69.648438 550.511719 69.679688 Z M 550.519531 70.769531 "/>
<path style=" stroke:none;fill-rule:evenodd;fill:rgb(0%,0%,0%);fill-opacity:1;" d="M 551.640625 67.25 L 552.699219 67.25 L 552.699219 76.261719 L 551.640625 76.261719 Z M 551.640625 67.25 "/>
<path style=" stroke:none;fill-rule:evenodd;fill:rgb(0%,0%,0%);fill-opacity:1;" d="M 556.328125 70.519531 C 556.328125 70.519531 555.46875 70.519531 554.980469 71.199219 C 554.980469 71.199219 554.480469 71.859375 554.480469 73.019531 C 554.480469 73.019531 554.480469 74.191406 554.96875 74.859375 C 554.96875 74.859375 555.46875 75.519531 556.328125 75.519531 C 556.328125 75.519531 557.179688 75.519531 557.679688 74.851562 C 557.679688 74.851562 558.179688 74.179688 558.179688 73.019531 C 558.179688 73.019531 558.179688 71.871094 557.679688 71.199219 C 557.679688 71.199219 557.179688 70.519531 556.328125 70.519531 M 556.328125 69.621094 C 556.328125 69.621094 557.71875 69.621094 558.511719 70.519531 C 558.511719 70.519531 559.308594 71.429688 559.308594 73.019531 C 559.308594 73.019531 559.308594 74.621094 558.511719 75.519531 C 558.511719 75.519531 557.71875 76.429688 556.328125 76.429688 C 556.328125 76.429688 554.941406 76.429688 554.140625 75.519531 C 554.140625 75.519531 553.359375 74.621094 553.359375 73.019531 C 553.359375 73.019531 553.359375 71.429688 554.140625 70.519531 C 554.140625 70.519531 554.941406 69.621094 556.328125 69.621094 Z M 556.328125 69.621094 "/>
</g>
</svg>
