<?xml version="1.0" encoding="UTF-8"?>
<svg xmlns="http://www.w3.org/2000/svg" xmlns:xlink="http://www.w3.org/1999/xlink" width="600pt" height="400pt" viewBox="0 0 600 400" version="1.1">
<g id="surface1">
<rect x="0" y="0" width="600" height="400" style="fill:rgb(100%,100%,100%);fill-opacity:1;stroke:none;"/>
<path style=" stroke:none;fill-rule:evenodd;fill:rgb(100%,100%,100%);fill-opacity:1;" d="M 68.28125 355.789062 L 588.191406 355.789062 L 588.191406 30.871094 L 68.28125 30.871094 "/>
<path style="fill:none;stroke-width:0.5;stroke-linecap:butt;stroke-linejoin:miter;stroke:rgb(0%,0%,0%);stroke-opacity:0.0980392;stroke-miterlimit:10;" d="M 83 44.210938 L 83 369.128906 " transform="matrix(1,0,0,-1,0,400)"/>
<path style="fill:none;stroke-width:0.5;stroke-linecap:butt;stroke-linejoin:miter;stroke:rgb(0%,0%,0%);stroke-opacity:0.0980392;stroke-miterlimit:10;" d="M 205.621094 44.210938 L 205.621094 369.128906 " transform="matrix(1,0,0,-1,0,400)"/>
<path style="fill:none;stroke-width:0.5;stroke-linecap:butt;stroke-linejoin:miter;stroke:rgb(0%,0%,0%);stroke-opacity:0.0980392;stroke-miterlimit:10;" d="M 328.238281 44.210938 L 328.238281 369.128906 " transform="matrix(1,0,0,-1,0,400)"/>
<path style="fill:none;stroke-width:0.5;stroke-linecap:butt;stroke-linejoin:miter;stroke:rgb(0%,0%,0%);stroke-opacity:0.0980392;stroke-miterlimit:10;" d="M 450.859375 44.210938 L 450.859375 369.128906 " transform="matrix(1,0,0,-1,0,400)"/>
<path style="fill:none;stroke-width:0.5;stroke-linecap:butt;stroke-linejoin:miter;stroke:rgb(0%,0%,0%);stroke-opacity:0.0980392;stroke-miterlimit:10;" d="M 573.46875 44.210938 L 573.46875 369.128906 " transform="matrix(1,0,0,-1,0,400)"/>
<path style="fill:none;stroke-width:1;stroke-linecap:butt;stroke-linejoin:miter;stroke:rgb(0%,0%,0%);stroke-opacity:1;stroke-miterlimit:10;" d="M 68.28125 44.210938 L 588.191406 44.210938 " transform="matrix(1,0,0,-1,0,400)"/>
<path style="fill:none;stroke-width:1;stroke-linecap:butt;stroke-linejoin:miter;stroke:rgb(0%,0%,0%);stroke-opacity:1;stroke-miterlimit:10;" d="M 83 44.210938 L 83 48.101562 " transform="matrix(1,0,0,-1,0,400)"/>
<path style="fill:none;stroke-width:1;stroke-linecap:butt;stroke-linejoin:miter;stroke:rgb(0%,0%,0%);stroke-opacity:1;stroke-miterlimit:10;" d="M 205.621094 44.210938 L 205.621094 48.101562 " transform="matrix(1,0,0,-1,0,400)"/>
<path style="fill:none;stroke-width:1;stroke-linecap:butt;stroke-linejoin:miter;stroke:rgb(0%,0%,0%);stroke-opacity:1;stroke-miterlimit:10;" d="M 328.238281 44.210938 L 328.238281 48.101562 " transform="matrix(1,0,0,-1,0,400)"/>
<path style="fill:none;stroke-width:1;stroke-linecap:butt;stroke-linejoin:miter;stroke:rgb(0%,0%,0%);stroke-opacity:1;stroke-miterlimit:10;" d="M 450.859375 44.210938 L 450.859375 48.101562 " transform="matrix(1,0,0,-1,0,400)"/>
<path style="fill:none;stroke-width:1;stroke-linecap:butt;stroke-linejoin:miter;stroke:rgb(0%,0%,0%);stroke-opacity:1;stroke-miterlimit:10;" d="M 573.46875 44.210938 L 573.46875 48.101562 " transform="matrix(1,0,0,-1,0,400)"/>
<path style=" stroke:none;fill-rule:evenodd;fill:rgb(0%,0%,0%);fill-opacity:1;" d="M 78.378906 363.089844 C 78.378906 363.089844 77.480469 363.089844 77.019531 363.980469 C 77.019531 363.980469 76.570312 364.871094 76.570312 366.648438 C 76.570312 366.648438 76.570312 368.429688 77.019531 369.320312 C 77.019531 369.320312 77.480469 370.199219 78.378906 370.199219 C 78.378906 370.199219 79.289062 370.199219 79.738281 369.320312 C 79.738281 369.320312 80.199219 368.429688 80.199219 366.648438 C 80.199219 366.648438 80.199219 364.871094 79.738281 363.980469 C 79.738281 363.980469 79.289062 363.089844 78.378906 363.089844 M 78.378906 362.171875 C 78.378906 362.171875 79.828125 362.171875 80.589844 363.320312 C 80.589844 363.320312 81.359375 364.460938 81.359375 366.648438 C 81.359375 366.648438 81.359375 368.828125 80.589844 369.980469 C 80.589844 369.980469 79.828125 371.128906 78.378906 371.128906 C 78.378906 371.128906 76.929688 371.128906 76.160156 369.980469 C 76.160156 369.980469 75.390625 368.828125 75.390625 366.648438 C 75.390625 366.648438 75.390625 364.460938 76.160156 363.320312 C 76.160156 363.320312 76.929688 362.171875 78.378906 362.171875 Z M 78.378906 362.171875 "/>
<path style=" stroke:none;fill-rule:evenodd;fill:rgb(0%,0%,0%);fill-opacity:1;" d="M 82.628906 369.488281 L 83.851562 369.488281 L 83.851562 370.960938 L 82.628906 370.960938 Z M 82.628906 369.488281 "/>
<path style=" stroke:none;fill-rule:evenodd;fill:rgb(0%,0%,0%);fill-opacity:1;" d="M 87.621094 363.089844 C 87.621094 363.089844 86.71875 363.089844 86.261719 363.980469 C 86.261719 363.980469 85.808594 364.871094 85.808594 366.648438 C 85.808594 366.648438 85.808594 368.429688 86.261719 369.320312 C 86.261719 369.320312 86.71875 370.199219 87.621094 370.199219 C 87.621094 370.199219 88.53125 370.199219 88.980469 369.320312 C 88.980469 369.320312 89.441406 368.429688 89.441406 366.648438 C 89.441406 366.648438 89.441406 364.871094 88.980469 363.980469 C 88.980469 363.980469 88.53125 363.089844 87.621094 363.089844 M 87.621094 362.171875 C 87.621094 362.171875 89.070312 362.171875 89.839844 363.320312 C 89.839844 363.320312 90.609375 364.460938 90.609375 366.648438 C 90.609375 366.648438 90.609375 368.828125 89.839844 369.980469 C 89.839844 369.980469 89.070312 371.128906 87.621094 371.128906 C 87.621094 371.128906 86.171875 371.128906 85.398438 369.980469 C 85.398438 369.980469 84.628906 368.828125 84.628906 366.648438 C 84.628906 366.648438 84.628906 364.460938 85.398438 363.320312 C 85.398438 363.320312 86.171875 362.171875 87.621094 362.171875 Z M 87.621094 362.171875 "/>
<path style=" stroke:none;fill-rule:evenodd;fill:rgb(0%,0%,0%);fill-opacity:1;" d="M 199.78125 369.980469 L 203.859375 369.980469 L 203.859375 370.960938 L 198.378906 370.960938 L 198.378906 369.980469 C 198.378906 369.980469 199.039062 369.289062 200.191406 368.128906 C 200.191406 368.128906 201.339844 366.96875 201.640625 366.628906 C 201.640625 366.628906 202.199219 366 202.421875 365.570312 C 202.421875 365.570312 202.640625 365.128906 202.640625 364.710938 C 202.640625 364.710938 202.640625 364.019531 202.160156 363.578125 C 202.160156 363.578125 201.679688 363.148438 200.898438 363.148438 C 200.898438 363.148438 200.351562 363.148438 199.738281 363.339844 C 199.738281 363.339844 199.128906 363.53125 198.441406 363.921875 L 198.441406 362.738281 C 198.441406 362.738281 199.140625 362.460938 199.761719 362.308594 C 199.761719 362.308594 200.371094 362.171875 200.878906 362.171875 C 200.878906 362.171875 202.21875 362.171875 203.019531 362.839844 C 203.019531 362.839844 203.820312 363.511719 203.820312 364.628906 C 203.820312 364.628906 203.820312 365.160156 203.621094 365.640625 C 203.621094 365.640625 203.421875 366.121094 202.890625 366.769531 C 202.890625 366.769531 202.75 366.941406 201.96875 367.738281 C 201.96875 367.738281 201.199219 368.539062 199.78125 369.980469 Z M 199.78125 369.980469 "/>
<path style=" stroke:none;fill-rule:evenodd;fill:rgb(0%,0%,0%);fill-opacity:1;" d="M 205.128906 369.488281 L 206.351562 369.488281 L 206.351562 370.960938 L 205.128906 370.960938 Z M 205.128906 369.488281 "/>
<path style=" stroke:none;fill-rule:evenodd;fill:rgb(0%,0%,0%);fill-opacity:1;" d="M 207.628906 362.320312 L 212.21875 362.320312 L 212.21875 363.308594 L 208.699219 363.308594 L 208.699219 365.421875 C 208.699219 365.421875 208.960938 365.339844 209.210938 365.300781 C 209.210938 365.300781 209.46875 365.25 209.71875 365.25 C 209.71875 365.25 211.171875 365.25 212.011719 366.039062 C 212.011719 366.039062 212.859375 366.839844 212.859375 368.191406 C 212.859375 368.191406 212.859375 369.589844 211.988281 370.359375 C 211.988281 370.359375 211.121094 371.128906 209.539062 371.128906 C 209.539062 371.128906 209 371.128906 208.429688 371.039062 C 208.429688 371.039062 207.871094 370.949219 207.269531 370.761719 L 207.269531 369.589844 C 207.269531 369.589844 207.789062 369.871094 208.339844 370.011719 C 208.339844 370.011719 208.898438 370.148438 209.519531 370.148438 C 209.519531 370.148438 210.519531 370.148438 211.101562 369.621094 C 211.101562 369.621094 211.691406 369.089844 211.691406 368.191406 C 211.691406 368.191406 211.691406 367.289062 211.101562 366.761719 C 211.101562 366.761719 210.519531 366.230469 209.519531 366.230469 C 209.519531 366.230469 209.050781 366.230469 208.578125 366.339844 C 208.578125 366.339844 208.121094 366.441406 207.628906 366.660156 Z M 207.628906 362.320312 "/>
<path style=" stroke:none;fill-rule:evenodd;fill:rgb(0%,0%,0%);fill-opacity:1;" d="M 321.191406 362.320312 L 325.769531 362.320312 L 325.769531 363.308594 L 322.261719 363.308594 L 322.261719 365.421875 C 322.261719 365.421875 322.511719 365.339844 322.769531 365.300781 C 322.769531 365.300781 323.019531 365.25 323.269531 365.25 C 323.269531 365.25 324.71875 365.25 325.570312 366.039062 C 325.570312 366.039062 326.410156 366.839844 326.410156 368.191406 C 326.410156 368.191406 326.410156 369.589844 325.539062 370.359375 C 325.539062 370.359375 324.679688 371.128906 323.101562 371.128906 C 323.101562 371.128906 322.550781 371.128906 321.980469 371.039062 C 321.980469 371.039062 321.421875 370.949219 320.820312 370.761719 L 320.820312 369.589844 C 320.820312 369.589844 321.339844 369.871094 321.898438 370.011719 C 321.898438 370.011719 322.449219 370.148438 323.070312 370.148438 C 323.070312 370.148438 324.070312 370.148438 324.660156 369.621094 C 324.660156 369.621094 325.238281 369.089844 325.238281 368.191406 C 325.238281 368.191406 325.238281 367.289062 324.660156 366.761719 C 324.660156 366.761719 324.070312 366.230469 323.070312 366.230469 C 323.070312 366.230469 322.601562 366.230469 322.128906 366.339844 C 322.128906 366.339844 321.671875 366.441406 321.191406 366.660156 Z M 321.191406 362.320312 "/>
<path style=" stroke:none;fill-rule:evenodd;fill:rgb(0%,0%,0%);fill-opacity:1;" d="M 327.679688 369.488281 L 328.898438 369.488281 L 328.898438 370.960938 L 327.679688 370.960938 Z M 327.679688 369.488281 "/>
<path style=" stroke:none;fill-rule:evenodd;fill:rgb(0%,0%,0%);fill-opacity:1;" d="M 332.671875 363.089844 C 332.671875 363.089844 331.761719 363.089844 331.308594 363.980469 C 331.308594 363.980469 330.859375 364.871094 330.859375 366.648438 C 330.859375 366.648438 330.859375 368.429688 331.308594 369.320312 C 331.308594 369.320312 331.761719 370.199219 332.671875 370.199219 C 332.671875 370.199219 333.578125 370.199219 334.03125 369.320312 C 334.03125 369.320312 334.480469 368.429688 334.480469 366.648438 C 334.480469 366.648438 334.480469 364.871094 334.03125 363.980469 C 334.03125 363.980469 333.578125 363.089844 332.671875 363.089844 M 332.671875 362.171875 C 332.671875 362.171875 334.121094 362.171875 334.878906 363.320312 C 334.878906 363.320312 335.648438 364.460938 335.648438 366.648438 C 335.648438 366.648438 335.648438 368.828125 334.878906 369.980469 C 334.878906 369.980469 334.121094 371.128906 332.671875 371.128906 C 332.671875 371.128906 331.210938 371.128906 330.441406 369.980469 C 330.441406 369.980469 329.679688 368.828125 329.679688 366.648438 C 329.679688 366.648438 329.679688 364.460938 330.441406 363.320312 C 330.441406 363.320312 331.210938 362.171875 332.671875 362.171875 Z M 332.671875 362.171875 "/>
<path style=" stroke:none;fill-rule:evenodd;fill:rgb(0%,0%,0%);fill-opacity:1;" d="M 443.578125 362.320312 L 449.140625 362.320312 L 449.140625 362.820312 L 446 370.960938 L 444.78125 370.960938 L 447.730469 363.308594 L 443.578125 363.308594 Z M 443.578125 362.320312 "/>
<path style=" stroke:none;fill-rule:evenodd;fill:rgb(0%,0%,0%);fill-opacity:1;" d="M 450.398438 369.488281 L 451.628906 369.488281 L 451.628906 370.960938 L 450.398438 370.960938 Z M 450.398438 369.488281 "/>
<path style=" stroke:none;fill-rule:evenodd;fill:rgb(0%,0%,0%);fill-opacity:1;" d="M 452.898438 362.320312 L 457.488281 362.320312 L 457.488281 363.308594 L 453.980469 363.308594 L 453.980469 365.421875 C 453.980469 365.421875 454.230469 365.339844 454.480469 365.300781 C 454.480469 365.300781 454.738281 365.25 454.988281 365.25 C 454.988281 365.25 456.441406 365.25 457.289062 366.039062 C 457.289062 366.039062 458.128906 366.839844 458.128906 368.191406 C 458.128906 368.191406 458.128906 369.589844 457.261719 370.359375 C 457.261719 370.359375 456.390625 371.128906 454.808594 371.128906 C 454.808594 371.128906 454.269531 371.128906 453.699219 371.039062 C 453.699219 371.039062 453.140625 370.949219 452.539062 370.761719 L 452.539062 369.589844 C 452.539062 369.589844 453.058594 369.871094 453.621094 370.011719 C 453.621094 370.011719 454.171875 370.148438 454.789062 370.148438 C 454.789062 370.148438 455.789062 370.148438 456.378906 369.621094 C 456.378906 369.621094 456.960938 369.089844 456.960938 368.191406 C 456.960938 368.191406 456.960938 367.289062 456.378906 366.761719 C 456.378906 366.761719 455.789062 366.230469 454.789062 366.230469 C 454.789062 366.230469 454.320312 366.230469 453.851562 366.339844 C 453.851562 366.339844 453.390625 366.441406 452.898438 366.660156 Z M 452.898438 362.320312 "/>
<path style=" stroke:none;fill-rule:evenodd;fill:rgb(0%,0%,0%);fill-opacity:1;" d="M 563.070312 369.980469 L 564.980469 369.980469 L 564.980469 363.390625 L 562.898438 363.800781 L 562.898438 362.738281 L 564.96875 362.320312 L 566.140625 362.320312 L 566.140625 369.980469 L 568.050781 369.980469 L 568.050781 370.960938 L 563.070312 370.960938 Z M 563.070312 369.980469 "/>
<path style=" stroke:none;fill-rule:evenodd;fill:rgb(0%,0%,0%);fill-opacity:1;" d="M 571.820312 363.089844 C 571.820312 363.089844 570.910156 363.089844 570.460938 363.980469 C 570.460938 363.980469 570.011719 364.871094 570.011719 366.648438 C 570.011719 366.648438 570.011719 368.429688 570.460938 369.320312 C 570.460938 369.320312 570.910156 370.199219 571.820312 370.199219 C 571.820312 370.199219 572.730469 370.199219 573.179688 369.320312 C 573.179688 369.320312 573.628906 368.429688 573.628906 366.648438 C 573.628906 366.648438 573.628906 364.871094 573.179688 363.980469 C 573.179688 363.980469 572.730469 363.089844 571.820312 363.089844 M 571.820312 362.171875 C 571.820312 362.171875 573.269531 362.171875 574.03125 363.320312 C 574.03125 363.320312 574.800781 364.460938 574.800781 366.648438 C 574.800781 366.648438 574.800781 368.828125 574.03125 369.980469 C 574.03125 369.980469 573.269531 371.128906 571.820312 371.128906 C 571.820312 371.128906 570.359375 371.128906 569.589844 369.980469 C 569.589844 369.980469 568.828125 368.828125 568.828125 366.648438 C 568.828125 366.648438 568.828125 364.460938 569.589844 363.320312 C 569.589844 363.320312 570.359375 362.171875 571.820312 362.171875 Z M 571.820312 362.171875 "/>
<path style=" stroke:none;fill-rule:evenodd;fill:rgb(0%,0%,0%);fill-opacity:1;" d="M 576.070312 369.488281 L 577.289062 369.488281 L 577.289062 370.960938 L 576.070312 370.960938 Z M 576.070312 369.488281 "/>
<path style=" stroke:none;fill-rule:evenodd;fill:rgb(0%,0%,0%);fill-opacity:1;" d="M 581.058594 363.089844 C 581.058594 363.089844 580.160156 363.089844 579.699219 363.980469 C 579.699219 363.980469 579.25 364.871094 579.25 366.648438 C 579.25 366.648438 579.25 368.429688 579.699219 369.320312 C 579.699219 369.320312 580.160156 370.199219 581.058594 370.199219 C 581.058594 370.199219 581.96875 370.199219 582.421875 369.320312 C 582.421875 369.320312 582.878906 368.429688 582.878906 366.648438 C 582.878906 366.648438 582.878906 364.871094 582.421875 363.980469 C 582.421875 363.980469 581.96875 363.089844 581.058594 363.089844 M 581.058594 362.171875 C 581.058594 362.171875 582.511719 362.171875 583.28125 363.320312 C 583.28125 363.320312 584.039062 364.460938 584.039062 366.648438 C 584.039062 366.648438 584.039062 368.828125 583.28125 369.980469 C 583.28125 369.980469 582.511719 371.128906 581.058594 371.128906 C 581.058594 371.128906 579.609375 371.128906 578.839844 369.980469 C 578.839844 369.980469 578.070312 368.828125 578.070312 366.648438 C 578.070312 366.648438 578.070312 364.460938 578.839844 363.320312 C 578.839844 363.320312 579.609375 362.171875 581.058594 362.171875 Z M 581.058594 362.171875 "/>
<path style=" stroke:none;fill-rule:evenodd;fill:rgb(0%,0%,0%);fill-opacity:1;" d="M 304.78125 381.5 L 306.71875 387.011719 L 309.511719 380.101562 L 311.058594 380.101562 L 307.460938 389.011719 L 307.460938 392.398438 L 305.988281 392.398438 L 305.988281 389.011719 L 303.648438 382.359375 C 303.648438 382.359375 303.300781 381.359375 302.550781 381.359375 L 302.160156 381.359375 L 302.160156 380.101562 L 302.710938 380.101562 C 302.710938 380.101562 304.28125 380.101562 304.78125 381.5 Z M 304.78125 381.5 "/>
<path style=" stroke:none;fill-rule:evenodd;fill:rgb(0%,0%,0%);fill-opacity:1;" d="M 318.988281 384.558594 C 318.988281 384.558594 318.988281 382.949219 318.328125 382.03125 C 318.328125 382.03125 317.671875 381.109375 316.5 381.109375 C 316.5 381.109375 315.339844 381.109375 314.671875 382.03125 C 314.671875 382.03125 314.011719 382.949219 314.011719 384.558594 C 314.011719 384.558594 314.011719 386.179688 314.671875 387.101562 C 314.671875 387.101562 315.339844 388.019531 316.5 388.019531 C 316.5 388.019531 317.671875 388.019531 318.328125 387.101562 C 318.328125 387.101562 318.988281 386.179688 318.988281 384.558594 M 314.011719 381.449219 C 314.011719 381.449219 314.480469 380.660156 315.179688 380.269531 C 315.179688 380.269531 315.878906 379.878906 316.859375 379.878906 C 316.859375 379.878906 318.488281 379.878906 319.5 381.171875 C 319.5 381.171875 320.511719 382.460938 320.511719 384.558594 C 320.511719 384.558594 320.511719 386.660156 319.5 387.949219 C 319.5 387.949219 318.488281 389.238281 316.859375 389.238281 C 316.859375 389.238281 315.878906 389.238281 315.179688 388.859375 C 315.179688 388.859375 314.480469 388.46875 314.011719 387.671875 L 314.011719 389.011719 L 312.539062 389.011719 L 312.539062 376.628906 L 314.011719 376.628906 Z M 314.011719 381.449219 "/>
<path style=" stroke:none;fill-rule:evenodd;fill:rgb(0%,0%,0%);fill-opacity:1;" d="M 327.101562 376.628906 L 330.46875 376.628906 L 330.46875 377.769531 L 328.558594 377.769531 L 328.558594 390.019531 L 330.46875 390.019531 L 330.46875 391.160156 L 327.101562 391.160156 Z M 327.101562 376.628906 "/>
<path style=" stroke:none;fill-rule:evenodd;fill:rgb(0%,0%,0%);fill-opacity:1;" d="M 337.871094 381.449219 L 337.871094 376.628906 L 339.328125 376.628906 L 339.328125 389.011719 L 337.871094 389.011719 L 337.871094 387.671875 C 337.871094 387.671875 337.410156 388.46875 336.699219 388.859375 C 336.699219 388.859375 336 389.238281 335.011719 389.238281 C 335.011719 389.238281 333.398438 389.238281 332.378906 387.949219 C 332.378906 387.949219 331.371094 386.660156 331.371094 384.558594 C 331.371094 384.558594 331.371094 382.460938 332.378906 381.171875 C 332.378906 381.171875 333.398438 379.878906 335.011719 379.878906 C 335.011719 379.878906 336 379.878906 336.699219 380.269531 C 336.699219 380.269531 337.410156 380.660156 337.871094 381.449219 M 332.878906 384.558594 C 332.878906 384.558594 332.878906 386.179688 333.539062 387.101562 C 333.539062 387.101562 334.210938 388.019531 335.371094 388.019531 C 335.371094 388.019531 336.53125 388.019531 337.199219 387.101562 C 337.199219 387.101562 337.871094 386.179688 337.871094 384.558594 C 337.871094 384.558594 337.871094 382.949219 337.199219 382.03125 C 337.199219 382.03125 336.53125 381.109375 335.371094 381.109375 C 335.371094 381.109375 334.210938 381.109375 333.539062 382.03125 C 333.539062 382.03125 332.878906 382.949219 332.878906 384.558594 Z M 332.878906 384.558594 "/>
<path style=" stroke:none;fill-rule:evenodd;fill:rgb(0%,0%,0%);fill-opacity:1;" d="M 342.539062 383.339844 L 342.539062 387.691406 L 345.121094 387.691406 C 345.121094 387.691406 346.421875 387.691406 347.039062 387.160156 C 347.039062 387.160156 347.660156 386.621094 347.660156 385.511719 C 347.660156 385.511719 347.660156 384.398438 347.039062 383.871094 C 347.039062 383.871094 346.421875 383.339844 345.121094 383.339844 L 342.539062 383.339844 M 342.539062 378.449219 L 342.539062 382.03125 L 344.921875 382.03125 C 344.921875 382.03125 346.101562 382.03125 346.671875 381.589844 C 346.671875 381.589844 347.25 381.148438 347.25 380.238281 C 347.25 380.238281 347.25 379.339844 346.671875 378.898438 C 346.671875 378.898438 346.101562 378.449219 344.921875 378.449219 L 342.539062 378.449219 M 340.929688 377.128906 L 345.039062 377.128906 C 345.039062 377.128906 346.878906 377.128906 347.871094 377.890625 C 347.871094 377.890625 348.871094 378.660156 348.871094 380.070312 C 348.871094 380.070312 348.871094 381.160156 348.359375 381.800781 C 348.359375 381.800781 347.851562 382.449219 346.859375 382.609375 C 346.859375 382.609375 348.050781 382.859375 348.699219 383.671875 C 348.699219 383.671875 349.359375 384.480469 349.359375 385.679688 C 349.359375 385.679688 349.359375 387.28125 348.28125 388.140625 C 348.28125 388.140625 347.191406 389.011719 345.199219 389.011719 L 340.929688 389.011719 Z M 340.929688 377.128906 "/>
<path style=" stroke:none;fill-rule:evenodd;fill:rgb(0%,0%,0%);fill-opacity:1;" d="M 354.320312 376.628906 L 354.320312 391.160156 L 350.941406 391.160156 L 350.941406 390.019531 L 352.839844 390.019531 L 352.839844 377.769531 L 350.941406 377.769531 L 350.941406 376.628906 Z M 354.320312 376.628906 "/>
<path style="fill:none;stroke-width:0.5;stroke-linecap:butt;stroke-linejoin:miter;stroke:rgb(0%,0%,0%);stroke-opacity:0.0980392;stroke-miterlimit:10;" d="M 68.28125 79.230469 L 588.191406 79.230469 " transform="matrix(1,0,0,-1,0,400)"/>
<path style="fill:none;stroke-width:0.5;stroke-linecap:butt;stroke-linejoin:miter;stroke:rgb(0%,0%,0%);stroke-opacity:0.0980392;stroke-miterlimit:10;" d="M 68.28125 162.75 L 588.191406 162.75 " transform="matrix(1,0,0,-1,0,400)"/>
<path style="fill:none;stroke-width:0.5;stroke-linecap:butt;stroke-linejoin:miter;stroke:rgb(0%,0%,0%);stroke-opacity:0.0980392;stroke-miterlimit:10;" d="M 68.28125 246.269531 L 588.191406 246.269531 " transform="matrix(1,0,0,-1,0,400)"/>
<path style="fill:none;stroke-width:0.5;stroke-linecap:butt;stroke-linejoin:miter;stroke:rgb(0%,0%,0%);stroke-opacity:0.0980392;stroke-miterlimit:10;" d="M 68.28125 329.789062 L 588.191406 329.789062 " transform="matrix(1,0,0,-1,0,400)"/>
<path style="fill:none;stroke-width:1;stroke-linecap:butt;stroke-linejoin:miter;stroke:rgb(0%,0%,0%);stroke-opacity:1;stroke-miterlimit:10;" d="M 68.28125 44.210938 L 68.28125 369.128906 " transform="matrix(1,0,0,-1,0,400)"/>
<path style="fill:none;stroke-width:1;stroke-linecap:butt;stroke-linejoin:miter;stroke:rgb(0%,0%,0%);stroke-opacity:1;stroke-miterlimit:10;" d="M 68.28125 79.230469 L 74.519531 79.230469 " transform="matrix(1,0,0,-1,0,400)"/>
<path style="fill:none;stroke-width:1;stroke-linecap:butt;stroke-linejoin:miter;stroke:rgb(0%,0%,0%);stroke-opacity:1;stroke-miterlimit:10;" d="M 68.28125 162.75 L 74.519531 162.75 " transform="matrix(1,0,0,-1,0,400)"/>
<path style="fill:none;stroke-width:1;stroke-linecap:butt;stroke-linejoin:miter;stroke:rgb(0%,0%,0%);stroke-opacity:1;stroke-miterlimit:10;" d="M 68.28125 246.269531 L 74.519531 246.269531 " transform="matrix(1,0,0,-1,0,400)"/>
<path style="fill:none;stroke-width:1;stroke-linecap:butt;stroke-linejoin:miter;stroke:rgb(0%,0%,0%);stroke-opacity:1;stroke-miterlimit:10;" d="M 68.28125 329.789062 L 74.519531 329.789062 " transform="matrix(1,0,0,-1,0,400)"/>
<path style=" stroke:none;fill-rule:evenodd;fill:rgb(0%,0%,0%);fill-opacity:1;" d="M 28.859375 325.71875 L 30.761719 325.71875 L 30.761719 319.128906 L 28.691406 319.539062 L 28.691406 318.480469 L 30.75 318.058594 L 31.921875 318.058594 L 31.921875 325.71875 L 33.828125 325.71875 L 33.828125 326.699219 L 28.859375 326.699219 Z M 28.859375 325.71875 "/>
<path style=" stroke:none;fill-rule:evenodd;fill:rgb(0%,0%,0%);fill-opacity:1;" d="M 37.601562 318.828125 C 37.601562 318.828125 36.699219 318.828125 36.238281 319.71875 C 36.238281 319.71875 35.789062 320.609375 35.789062 322.390625 C 35.789062 322.390625 35.789062 324.171875 36.238281 325.058594 C 36.238281 325.058594 36.699219 325.941406 37.601562 325.941406 C 37.601562 325.941406 38.511719 325.941406 38.960938 325.058594 C 38.960938 325.058594 39.421875 324.171875 39.421875 322.390625 C 39.421875 322.390625 39.421875 320.609375 38.960938 319.71875 C 38.960938 319.71875 38.511719 318.828125 37.601562 318.828125 M 37.601562 317.898438 C 37.601562 317.898438 39.050781 317.898438 39.820312 319.058594 C 39.820312 319.058594 40.589844 320.199219 40.589844 322.390625 C 40.589844 322.390625 40.589844 324.570312 39.820312 325.71875 C 39.820312 325.71875 39.050781 326.871094 37.601562 326.871094 C 37.601562 326.871094 36.148438 326.871094 35.378906 325.71875 C 35.378906 325.71875 34.609375 324.570312 34.609375 322.390625 C 34.609375 322.390625 34.609375 320.199219 35.378906 319.058594 C 35.378906 319.058594 36.148438 317.898438 37.601562 317.898438 Z M 37.601562 317.898438 "/>
<path style=" stroke:none;fill-rule:evenodd;fill:rgb(0%,0%,0%);fill-opacity:1;" d="M 40.589844 316.429688 L 46.609375 316.429688 L 46.609375 317.230469 L 40.589844 317.230469 Z M 40.589844 316.429688 "/>
<path style=" stroke:none;fill-rule:evenodd;fill:rgb(0%,0%,0%);fill-opacity:1;" d="M 48.460938 319.050781 L 51.78125 319.050781 L 51.78125 319.851562 L 47.320312 319.851562 L 47.320312 319.050781 C 47.320312 319.050781 47.859375 318.488281 48.789062 317.550781 C 48.789062 317.550781 49.730469 316.601562 49.96875 316.328125 C 49.96875 316.328125 50.421875 315.820312 50.601562 315.46875 C 50.601562 315.46875 50.78125 315.109375 50.78125 314.769531 C 50.78125 314.769531 50.78125 314.210938 50.390625 313.851562 C 50.390625 313.851562 50 313.5 49.371094 313.5 C 49.371094 313.5 48.921875 313.5 48.421875 313.660156 C 48.421875 313.660156 47.929688 313.808594 47.371094 314.128906 L 47.371094 313.171875 C 47.371094 313.171875 47.941406 312.941406 48.441406 312.820312 C 48.441406 312.820312 48.941406 312.699219 49.351562 312.699219 C 49.351562 312.699219 50.441406 312.699219 51.089844 313.25 C 51.089844 313.25 51.738281 313.789062 51.738281 314.699219 C 51.738281 314.699219 51.738281 315.140625 51.570312 315.53125 C 51.570312 315.53125 51.410156 315.910156 50.988281 316.441406 C 50.988281 316.441406 50.871094 316.578125 50.238281 317.230469 C 50.238281 317.230469 49.609375 317.878906 48.460938 319.050781 Z M 48.460938 319.050781 "/>
<path style=" stroke:none;fill-rule:evenodd;fill:rgb(0%,0%,0%);fill-opacity:1;" d="M 52.808594 318.648438 L 53.800781 318.648438 L 53.800781 319.851562 L 52.808594 319.851562 Z M 52.808594 318.648438 "/>
<path style=" stroke:none;fill-rule:evenodd;fill:rgb(0%,0%,0%);fill-opacity:1;" d="M 56.859375 313.449219 C 56.859375 313.449219 56.128906 313.449219 55.75 314.179688 C 55.75 314.179688 55.390625 314.898438 55.390625 316.351562 C 55.390625 316.351562 55.390625 317.789062 55.75 318.511719 C 55.75 318.511719 56.128906 319.230469 56.859375 319.230469 C 56.859375 319.230469 57.601562 319.230469 57.960938 318.511719 C 57.960938 318.511719 58.339844 317.789062 58.339844 316.351562 C 58.339844 316.351562 58.339844 314.898438 57.960938 314.179688 C 57.960938 314.179688 57.601562 313.449219 56.859375 313.449219 M 56.859375 312.699219 C 56.859375 312.699219 58.039062 312.699219 58.660156 313.640625 C 58.660156 313.640625 59.28125 314.570312 59.28125 316.351562 C 59.28125 316.351562 59.28125 318.121094 58.660156 319.050781 C 58.660156 319.050781 58.039062 319.980469 56.859375 319.980469 C 56.859375 319.980469 55.679688 319.980469 55.050781 319.050781 C 55.050781 319.050781 54.429688 318.121094 54.429688 316.351562 C 54.429688 316.351562 54.429688 314.570312 55.050781 313.640625 C 55.050781 313.640625 55.679688 312.699219 56.859375 312.699219 Z M 56.859375 312.699219 "/>
<path style=" stroke:none;fill-rule:evenodd;fill:rgb(0%,0%,0%);fill-opacity:1;" d="M 28.980469 242.199219 L 30.890625 242.199219 L 30.890625 235.609375 L 28.808594 236.019531 L 28.808594 234.960938 L 30.878906 234.539062 L 32.050781 234.539062 L 32.050781 242.199219 L 33.960938 242.199219 L 33.960938 243.179688 L 28.980469 243.179688 Z M 28.980469 242.199219 "/>
<path style=" stroke:none;fill-rule:evenodd;fill:rgb(0%,0%,0%);fill-opacity:1;" d="M 37.730469 235.308594 C 37.730469 235.308594 36.820312 235.308594 36.371094 236.199219 C 36.371094 236.199219 35.910156 237.089844 35.910156 238.871094 C 35.910156 238.871094 35.910156 240.648438 36.371094 241.539062 C 36.371094 241.539062 36.820312 242.421875 37.730469 242.421875 C 37.730469 242.421875 38.628906 242.421875 39.089844 241.539062 C 39.089844 241.539062 39.539062 240.648438 39.539062 238.871094 C 39.539062 238.871094 39.539062 237.089844 39.089844 236.199219 C 39.089844 236.199219 38.628906 235.308594 37.730469 235.308594 M 37.730469 234.390625 C 37.730469 234.390625 39.179688 234.390625 39.941406 235.539062 C 39.941406 235.539062 40.710938 236.679688 40.710938 238.871094 C 40.710938 238.871094 40.710938 241.050781 39.941406 242.199219 C 39.941406 242.199219 39.179688 243.351562 37.730469 243.351562 C 37.730469 243.351562 36.269531 243.351562 35.5 242.199219 C 35.5 242.199219 34.738281 241.050781 34.738281 238.871094 C 34.738281 238.871094 34.738281 236.679688 35.5 235.539062 C 35.5 235.539062 36.269531 234.390625 37.730469 234.390625 Z M 37.730469 234.390625 "/>
<path style=" stroke:none;fill-rule:evenodd;fill:rgb(0%,0%,0%);fill-opacity:1;" d="M 40.710938 232.910156 L 46.738281 232.910156 L 46.738281 233.710938 L 40.710938 233.710938 Z M 40.710938 232.910156 "/>
<path style=" stroke:none;fill-rule:evenodd;fill:rgb(0%,0%,0%);fill-opacity:1;" d="M 47.929688 235.53125 L 49.488281 235.53125 L 49.488281 230.179688 L 47.800781 230.511719 L 47.800781 229.648438 L 49.480469 229.308594 L 50.429688 229.308594 L 50.429688 235.53125 L 51.980469 235.53125 L 51.980469 236.328125 L 47.929688 236.328125 Z M 47.929688 235.53125 "/>
<path style=" stroke:none;fill-rule:evenodd;fill:rgb(0%,0%,0%);fill-opacity:1;" d="M 53.011719 235.140625 L 54 235.140625 L 54 236.328125 L 53.011719 236.328125 Z M 53.011719 235.140625 "/>
<path style=" stroke:none;fill-rule:evenodd;fill:rgb(0%,0%,0%);fill-opacity:1;" d="M 55.039062 229.308594 L 58.769531 229.308594 L 58.769531 230.109375 L 55.910156 230.109375 L 55.910156 231.828125 C 55.910156 231.828125 56.121094 231.761719 56.320312 231.730469 C 56.320312 231.730469 56.53125 231.691406 56.738281 231.691406 C 56.738281 231.691406 57.910156 231.691406 58.601562 232.328125 C 58.601562 232.328125 59.28125 232.980469 59.28125 234.078125 C 59.28125 234.078125 59.28125 235.210938 58.578125 235.839844 C 58.578125 235.839844 57.871094 236.46875 56.589844 236.46875 C 56.589844 236.46875 56.148438 236.46875 55.691406 236.390625 C 55.691406 236.390625 55.230469 236.320312 54.738281 236.171875 L 54.738281 235.210938 C 54.738281 235.210938 55.171875 235.441406 55.621094 235.550781 C 55.621094 235.550781 56.070312 235.671875 56.570312 235.671875 C 56.570312 235.671875 57.390625 235.671875 57.859375 235.238281 C 57.859375 235.238281 58.339844 234.808594 58.339844 234.078125 C 58.339844 234.078125 58.339844 233.339844 57.859375 232.921875 C 57.859375 232.921875 57.390625 232.488281 56.570312 232.488281 C 56.570312 232.488281 56.191406 232.488281 55.808594 232.570312 C 55.808594 232.570312 55.429688 232.660156 55.039062 232.839844 Z M 55.039062 229.308594 "/>
<path style=" stroke:none;fill-rule:evenodd;fill:rgb(0%,0%,0%);fill-opacity:1;" d="M 28.78125 158.679688 L 30.691406 158.679688 L 30.691406 152.089844 L 28.609375 152.511719 L 28.609375 151.441406 L 30.679688 151.019531 L 31.851562 151.019531 L 31.851562 158.679688 L 33.761719 158.679688 L 33.761719 159.660156 L 28.78125 159.660156 Z M 28.78125 158.679688 "/>
<path style=" stroke:none;fill-rule:evenodd;fill:rgb(0%,0%,0%);fill-opacity:1;" d="M 37.519531 151.789062 C 37.519531 151.789062 36.621094 151.789062 36.160156 152.679688 C 36.160156 152.679688 35.710938 153.570312 35.710938 155.351562 C 35.710938 155.351562 35.710938 157.128906 36.160156 158.019531 C 36.160156 158.019531 36.621094 158.910156 37.519531 158.910156 C 37.519531 158.910156 38.429688 158.910156 38.878906 158.019531 C 38.878906 158.019531 39.339844 157.128906 39.339844 155.351562 C 39.339844 155.351562 39.339844 153.570312 38.878906 152.679688 C 38.878906 152.679688 38.429688 151.789062 37.519531 151.789062 M 37.519531 150.871094 C 37.519531 150.871094 38.980469 150.871094 39.738281 152.019531 C 39.738281 152.019531 40.511719 153.171875 40.511719 155.351562 C 40.511719 155.351562 40.511719 157.53125 39.738281 158.691406 C 39.738281 158.691406 38.980469 159.828125 37.519531 159.828125 C 37.519531 159.828125 36.070312 159.828125 35.300781 158.691406 C 35.300781 158.691406 34.539062 157.53125 34.539062 155.351562 C 34.539062 155.351562 34.539062 153.171875 35.300781 152.019531 C 35.300781 152.019531 36.070312 150.871094 37.519531 150.871094 Z M 37.519531 150.871094 "/>
<path style=" stroke:none;fill-rule:evenodd;fill:rgb(0%,0%,0%);fill-opacity:1;" d="M 40.511719 149.390625 L 46.539062 149.390625 L 46.539062 150.191406 L 40.511719 150.191406 Z M 40.511719 149.390625 "/>
<path style=" stroke:none;fill-rule:evenodd;fill:rgb(0%,0%,0%);fill-opacity:1;" d="M 47.730469 152.011719 L 49.28125 152.011719 L 49.28125 146.660156 L 47.601562 147 L 47.601562 146.128906 L 49.269531 145.789062 L 50.21875 145.789062 L 50.21875 152.011719 L 51.78125 152.011719 L 51.78125 152.808594 L 47.730469 152.808594 Z M 47.730469 152.011719 "/>
<path style=" stroke:none;fill-rule:evenodd;fill:rgb(0%,0%,0%);fill-opacity:1;" d="M 52.808594 151.621094 L 53.800781 151.621094 L 53.800781 152.808594 L 52.808594 152.808594 Z M 52.808594 151.621094 "/>
<path style=" stroke:none;fill-rule:evenodd;fill:rgb(0%,0%,0%);fill-opacity:1;" d="M 56.859375 146.421875 C 56.859375 146.421875 56.128906 146.421875 55.75 147.140625 C 55.75 147.140625 55.390625 147.859375 55.390625 149.308594 C 55.390625 149.308594 55.390625 150.75 55.75 151.480469 C 55.75 151.480469 56.128906 152.199219 56.859375 152.199219 C 56.859375 152.199219 57.601562 152.199219 57.960938 151.480469 C 57.960938 151.480469 58.339844 150.75 58.339844 149.308594 C 58.339844 149.308594 58.339844 147.859375 57.960938 147.140625 C 57.960938 147.140625 57.601562 146.421875 56.859375 146.421875 M 56.859375 145.660156 C 56.859375 145.660156 58.039062 145.660156 58.660156 146.601562 C 58.660156 146.601562 59.28125 147.53125 59.28125 149.308594 C 59.28125 149.308594 59.28125 151.078125 58.660156 152.019531 C 58.660156 152.019531 58.039062 152.949219 56.859375 152.949219 C 56.859375 152.949219 55.679688 152.949219 55.050781 152.019531 C 55.050781 152.019531 54.429688 151.078125 54.429688 149.308594 C 54.429688 149.308594 54.429688 147.53125 55.050781 146.601562 C 55.050781 146.601562 55.679688 145.660156 56.859375 145.660156 Z M 56.859375 145.660156 "/>
<path style=" stroke:none;fill-rule:evenodd;fill:rgb(0%,0%,0%);fill-opacity:1;" d="M 28.730469 75.160156 L 30.640625 75.160156 L 30.640625 68.570312 L 28.570312 68.988281 L 28.570312 67.921875 L 30.628906 67.511719 L 31.800781 67.511719 L 31.800781 75.160156 L 33.710938 75.160156 L 33.710938 76.148438 L 28.730469 76.148438 Z M 28.730469 75.160156 "/>
<path style=" stroke:none;fill-rule:evenodd;fill:rgb(0%,0%,0%);fill-opacity:1;" d="M 37.480469 68.28125 C 37.480469 68.28125 36.570312 68.28125 36.121094 69.171875 C 36.121094 69.171875 35.671875 70.050781 35.671875 71.828125 C 35.671875 71.828125 35.671875 73.609375 36.121094 74.5 C 36.121094 74.5 36.570312 75.390625 37.480469 75.390625 C 37.480469 75.390625 38.390625 75.390625 38.839844 74.5 C 38.839844 74.5 39.289062 73.609375 39.289062 71.828125 C 39.289062 71.828125 39.289062 70.050781 38.839844 69.171875 C 38.839844 69.171875 38.390625 68.28125 37.480469 68.28125 M 37.480469 67.351562 C 37.480469 67.351562 38.929688 67.351562 39.691406 68.5 C 39.691406 68.5 40.460938 69.648438 40.460938 71.828125 C 40.460938 71.828125 40.460938 74.019531 39.691406 75.171875 C 39.691406 75.171875 38.929688 76.308594 37.480469 76.308594 C 37.480469 76.308594 36.019531 76.308594 35.25 75.171875 C 35.25 75.171875 34.488281 74.019531 34.488281 71.828125 C 34.488281 71.828125 34.488281 69.648438 35.25 68.5 C 35.25 68.5 36.019531 67.351562 37.480469 67.351562 Z M 37.480469 67.351562 "/>
<path style=" stroke:none;fill-rule:evenodd;fill:rgb(0%,0%,0%);fill-opacity:1;" d="M 40.460938 65.871094 L 46.488281 65.871094 L 46.488281 66.671875 L 40.460938 66.671875 Z M 40.460938 65.871094 "/>
<path style=" stroke:none;fill-rule:evenodd;fill:rgb(0%,0%,0%);fill-opacity:1;" d="M 49.550781 62.898438 C 49.550781 62.898438 48.820312 62.898438 48.449219 63.621094 C 48.449219 63.621094 48.078125 64.339844 48.078125 65.789062 C 48.078125 65.789062 48.078125 67.230469 48.449219 67.960938 C 48.449219 67.960938 48.820312 68.679688 49.550781 68.679688 C 49.550781 68.679688 50.289062 68.679688 50.660156 67.960938 C 50.660156 67.960938 51.03125 67.230469 51.03125 65.789062 C 51.03125 65.789062 51.03125 64.339844 50.660156 63.621094 C 50.660156 63.621094 50.289062 62.898438 49.550781 62.898438 M 49.550781 62.148438 C 49.550781 62.148438 50.730469 62.148438 51.351562 63.078125 C 51.351562 63.078125 51.980469 64.011719 51.980469 65.789062 C 51.980469 65.789062 51.980469 67.558594 51.351562 68.5 C 51.351562 68.5 50.730469 69.429688 49.550781 69.429688 C 49.550781 69.429688 48.371094 69.429688 47.75 68.5 C 47.75 68.5 47.128906 67.558594 47.128906 65.789062 C 47.128906 65.789062 47.128906 64.011719 47.75 63.078125 C 47.75 63.078125 48.371094 62.148438 49.550781 62.148438 Z M 49.550781 62.148438 "/>
<path style=" stroke:none;fill-rule:evenodd;fill:rgb(0%,0%,0%);fill-opacity:1;" d="M 53.011719 68.101562 L 54 68.101562 L 54 69.289062 L 53.011719 69.289062 Z M 53.011719 68.101562 "/>
<path style=" stroke:none;fill-rule:evenodd;fill:rgb(0%,0%,0%);fill-opacity:1;" d="M 55.039062 62.269531 L 58.769531 62.269531 L 58.769531 63.070312 L 55.910156 63.070312 L 55.910156 64.789062 C 55.910156 64.789062 56.121094 64.71875 56.320312 64.691406 C 56.320312 64.691406 56.53125 64.648438 56.738281 64.648438 C 56.738281 64.648438 57.910156 64.648438 58.601562 65.300781 C 58.601562 65.300781 59.28125 65.941406 59.28125 67.039062 C 59.28125 67.039062 59.28125 68.171875 58.578125 68.800781 C 58.578125 68.800781 57.871094 69.429688 56.589844 69.429688 C 56.589844 69.429688 56.148438 69.429688 55.691406 69.351562 C 55.691406 69.351562 55.230469 69.28125 54.738281 69.128906 L 54.738281 68.171875 C 54.738281 68.171875 55.171875 68.398438 55.621094 68.519531 C 55.621094 68.519531 56.070312 68.628906 56.570312 68.628906 C 56.570312 68.628906 57.390625 68.628906 57.859375 68.199219 C 57.859375 68.199219 58.339844 67.769531 58.339844 67.039062 C 58.339844 67.039062 58.339844 66.308594 57.859375 65.878906 C 57.859375 65.878906 57.390625 65.449219 56.570312 65.449219 C 56.570312 65.449219 56.191406 65.449219 55.808594 65.539062 C 55.808594 65.539062 55.429688 65.621094 55.039062 65.800781 Z M 55.039062 62.269531 "/>
<path style=" stroke:none;fill-rule:evenodd;fill:rgb(0%,0%,0%);fill-opacity:1;" d="M 11.441406 199.851562 L 15.910156 199.851562 L 15.910156 197.828125 C 15.910156 197.828125 15.910156 196.710938 15.328125 196.089844 C 15.328125 196.089844 14.738281 195.480469 13.671875 195.480469 C 13.671875 195.480469 12.601562 195.480469 12.019531 196.089844 C 12.019531 196.089844 11.441406 196.710938 11.441406 197.828125 L 11.441406 199.851562 M 10.121094 201.460938 L 10.121094 197.828125 C 10.121094 197.828125 10.121094 195.828125 11.03125 194.808594 C 11.03125 194.808594 11.929688 193.789062 13.671875 193.789062 C 13.671875 193.789062 15.429688 193.789062 16.328125 194.808594 C 16.328125 194.808594 17.230469 195.828125 17.230469 197.828125 L 17.230469 199.851562 L 22 199.851562 L 22 201.460938 Z M 10.121094 201.460938 "/>
<path style=" stroke:none;fill-rule:evenodd;fill:rgb(0%,0%,0%);fill-opacity:1;" d="M 17.179688 185.210938 L 17.898438 185.210938 L 17.898438 191.941406 C 17.898438 191.941406 19.410156 191.839844 20.199219 191.03125 C 20.199219 191.03125 20.988281 190.210938 20.988281 188.761719 C 20.988281 188.761719 20.988281 187.910156 20.78125 187.121094 C 20.78125 187.121094 20.578125 186.328125 20.160156 185.550781 L 21.550781 185.550781 C 21.550781 185.550781 21.878906 186.339844 22.058594 187.160156 C 22.058594 187.160156 22.230469 187.988281 22.230469 188.839844 C 22.230469 188.839844 22.230469 190.980469 20.988281 192.230469 C 20.988281 192.230469 19.75 193.46875 17.628906 193.46875 C 17.628906 193.46875 15.441406 193.46875 14.160156 192.289062 C 14.160156 192.289062 12.871094 191.101562 12.871094 189.101562 C 12.871094 189.101562 12.871094 187.300781 14.039062 186.261719 C 14.039062 186.261719 15.191406 185.210938 17.179688 185.210938 M 16.75 186.671875 C 16.75 186.671875 15.550781 186.691406 14.828125 187.351562 C 14.828125 187.351562 14.121094 188 14.121094 189.078125 C 14.121094 189.078125 14.121094 190.308594 14.808594 191.050781 C 14.808594 191.050781 15.5 191.78125 16.761719 191.890625 Z M 16.75 186.671875 "/>
<path style=" stroke:none;fill-rule:evenodd;fill:rgb(0%,0%,0%);fill-opacity:1;" d="M 291.949219 16.421875 L 295.289062 16.421875 L 295.289062 4.890625 L 291.648438 5.621094 L 291.648438 3.75 L 295.269531 3.019531 L 297.308594 3.019531 L 297.308594 16.421875 L 300.660156 16.421875 L 300.660156 18.140625 L 291.949219 18.140625 Z M 291.949219 16.421875 "/>
<path style=" stroke:none;fill-rule:evenodd;fill:rgb(0%,0%,0%);fill-opacity:1;" d="M 307.5 9.769531 C 307.5 9.769531 306.121094 9.769531 305.308594 10.710938 C 305.308594 10.710938 304.511719 11.648438 304.511719 13.289062 C 304.511719 13.289062 304.511719 14.921875 305.308594 15.878906 C 305.308594 15.878906 306.121094 16.820312 307.5 16.820312 C 307.5 16.820312 308.878906 16.820312 309.679688 15.878906 C 309.679688 15.878906 310.488281 14.921875 310.488281 13.289062 C 310.488281 13.289062 310.488281 11.648438 309.679688 10.710938 C 309.679688 10.710938 308.878906 9.769531 307.5 9.769531 M 311.558594 3.359375 L 311.558594 5.21875 C 311.558594 5.21875 310.789062 4.859375 310 4.660156 C 310 4.660156 309.21875 4.46875 308.449219 4.46875 C 308.449219 4.46875 306.429688 4.46875 305.351562 5.839844 C 305.351562 5.839844 304.289062 7.210938 304.140625 9.96875 C 304.140625 9.96875 304.738281 9.089844 305.640625 8.621094 C 305.640625 8.621094 306.539062 8.148438 307.621094 8.148438 C 307.621094 8.148438 309.898438 8.148438 311.21875 9.539062 C 311.21875 9.539062 312.539062 10.910156 312.539062 13.289062 C 312.539062 13.289062 312.539062 15.621094 311.171875 17.03125 C 311.171875 17.03125 309.789062 18.441406 307.5 18.441406 C 307.5 18.441406 304.878906 18.441406 303.488281 16.429688 C 303.488281 16.429688 302.101562 14.421875 302.101562 10.601562 C 302.101562 10.601562 302.101562 7.011719 303.800781 4.890625 C 303.800781 4.890625 305.511719 2.75 308.371094 2.75 C 308.371094 2.75 309.140625 2.75 309.921875 2.898438 C 309.921875 2.898438 310.710938 3.050781 311.558594 3.359375 Z M 311.558594 3.359375 "/>
<path style=" stroke:none;fill-rule:evenodd;fill:rgb(0%,0%,0%);fill-opacity:1;" d="M 313.558594 11.628906 L 319.019531 11.628906 L 319.019531 13.289062 L 313.558594 13.289062 Z M 313.558594 11.628906 "/>
<path style=" stroke:none;fill-rule:evenodd;fill:rgb(0%,0%,0%);fill-opacity:1;" d="M 327.949219 4.410156 C 327.949219 4.410156 325.71875 4.410156 324.398438 6.070312 C 324.398438 6.070312 323.101562 7.730469 323.101562 10.601562 C 323.101562 10.601562 323.101562 13.460938 324.398438 15.121094 C 324.398438 15.121094 325.71875 16.78125 327.949219 16.78125 C 327.949219 16.78125 330.179688 16.78125 331.46875 15.121094 C 331.46875 15.121094 332.78125 13.460938 332.78125 10.601562 C 332.78125 10.601562 332.78125 7.730469 331.46875 6.070312 C 331.46875 6.070312 330.179688 4.410156 327.949219 4.410156 M 330.808594 17.871094 L 333.511719 20.820312 L 331.039062 20.820312 L 328.800781 18.398438 C 328.800781 18.398438 328.460938 18.421875 328.28125 18.429688 C 328.28125 18.429688 328.109375 18.441406 327.949219 18.441406 C 327.949219 18.441406 324.761719 18.441406 322.839844 16.308594 C 322.839844 16.308594 320.941406 14.171875 320.941406 10.601562 C 320.941406 10.601562 320.941406 7.011719 322.839844 4.890625 C 322.839844 4.890625 324.761719 2.75 327.949219 2.75 C 327.949219 2.75 331.128906 2.75 333.03125 4.890625 C 333.03125 4.890625 334.941406 7.011719 334.941406 10.601562 C 334.941406 10.601562 334.941406 13.230469 333.871094 15.109375 C 333.871094 15.109375 332.820312 16.980469 330.808594 17.871094 Z M 330.808594 17.871094 "/>
<path style=" stroke:none;fill-rule:evenodd;fill:rgb(0%,0%,0%);fill-opacity:1;" d="M 342.03125 5.039062 L 339.25 12.558594 L 344.808594 12.558594 L 342.03125 5.039062 M 340.871094 3.019531 L 343.191406 3.019531 L 348.949219 18.140625 L 346.828125 18.140625 L 345.449219 14.269531 L 338.628906 14.269531 L 337.261719 18.140625 L 335.101562 18.140625 Z M 340.871094 3.019531 "/>
<path style=" stroke:none;fill-rule:evenodd;fill:rgb(0%,0%,0%);fill-opacity:1;" d="M 350.988281 3.019531 L 354.039062 3.019531 L 357.890625 13.308594 L 361.769531 3.019531 L 364.820312 3.019531 L 364.820312 18.140625 L 362.828125 18.140625 L 362.828125 4.871094 L 358.929688 15.238281 L 356.871094 15.238281 L 352.96875 4.871094 L 352.96875 18.140625 L 350.988281 18.140625 Z M 350.988281 3.019531 "/>
<path style="fill:none;stroke-width:1;stroke-linecap:butt;stroke-linejoin:miter;stroke:rgb(0%,60.559082%,97.869873%);stroke-opacity:1;stroke-miterlimit:10;" d="M 83 359.941406 L 132.050781 349.921875 L 181.089844 337.589844 L 230.140625 322.421875 L 279.191406 303.710938 L 328.238281 280.609375 L 377.28125 252.101562 L 426.328125 216.910156 L 475.378906 173.449219 L 524.429688 119.761719 L 573.46875 53.398438 " transform="matrix(1,0,0,-1,0,400)"/>
<path style="fill-rule:evenodd;fill:rgb(0%,60.559082%,97.869873%);fill-opacity:1;stroke-width:0.8;stroke-linecap:butt;stroke-linejoin:miter;stroke:rgb(0%,0%,0%);stroke-opacity:1;stroke-miterlimit:10;" d="M 83 362.941406 C 81.339844 362.941406 80 361.589844 80 359.941406 C 80 358.28125 81.339844 356.941406 83 356.941406 C 84.660156 356.941406 86 358.28125 86 359.941406 C 86 361.589844 84.660156 362.941406 83 362.941406 Z M 83 362.941406 " transform="matrix(1,0,0,-1,0,400)"/>
<path style="fill-rule:evenodd;fill:rgb(0%,60.559082%,97.869873%);fill-opacity:1;stroke-width:0.8;stroke-linecap:butt;stroke-linejoin:miter;stroke:rgb(0%,0%,0%);stroke-opacity:1;stroke-miterlimit:10;" d="M 132.050781 352.921875 C 130.390625 352.921875 129.050781 351.570312 129.050781 349.921875 C 129.050781 348.261719 130.390625 346.921875 132.050781 346.921875 C 133.699219 346.921875 135.050781 348.261719 135.050781 349.921875 C 135.050781 351.570312 133.699219 352.921875 132.050781 352.921875 Z M 132.050781 352.921875 " transform="matrix(1,0,0,-1,0,400)"/>
<path style="fill-rule:evenodd;fill:rgb(0%,60.559082%,97.869873%);fill-opacity:1;stroke-width:0.8;stroke-linecap:butt;stroke-linejoin:miter;stroke:rgb(0%,0%,0%);stroke-opacity:1;stroke-miterlimit:10;" d="M 181.089844 340.589844 C 179.441406 340.589844 178.089844 339.25 178.089844 337.589844 C 178.089844 335.941406 179.441406 334.589844 181.089844 334.589844 C 182.75 334.589844 184.089844 335.941406 184.089844 337.589844 C 184.089844 339.25 182.75 340.589844 181.089844 340.589844 Z M 181.089844 340.589844 " transform="matrix(1,0,0,-1,0,400)"/>
<path style="fill-rule:evenodd;fill:rgb(0%,60.559082%,97.869873%);fill-opacity:1;stroke-width:0.8;stroke-linecap:butt;stroke-linejoin:miter;stroke:rgb(0%,0%,0%);stroke-opacity:1;stroke-miterlimit:10;" d="M 230.140625 325.421875 C 228.480469 325.421875 227.140625 324.078125 227.140625 322.421875 C 227.140625 320.761719 228.480469 319.421875 230.140625 319.421875 C 231.800781 319.421875 233.140625 320.761719 233.140625 322.421875 C 233.140625 324.078125 231.800781 325.421875 230.140625 325.421875 Z M 230.140625 325.421875 " transform="matrix(1,0,0,-1,0,400)"/>
<path style="fill-rule:evenodd;fill:rgb(0%,60.559082%,97.869873%);fill-opacity:1;stroke-width:0.8;stroke-linecap:butt;stroke-linejoin:miter;stroke:rgb(0%,0%,0%);stroke-opacity:1;stroke-miterlimit:10;" d="M 279.191406 306.710938 C 277.53125 306.710938 276.191406 305.359375 276.191406 303.710938 C 276.191406 302.050781 277.53125 300.710938 279.191406 300.710938 C 280.851562 300.710938 282.191406 302.050781 282.191406 303.710938 C 282.191406 305.359375 280.851562 306.710938 279.191406 306.710938 Z M 279.191406 306.710938 " transform="matrix(1,0,0,-1,0,400)"/>
<path style="fill-rule:evenodd;fill:rgb(0%,60.559082%,97.869873%);fill-opacity:1;stroke-width:0.8;stroke-linecap:butt;stroke-linejoin:miter;stroke:rgb(0%,0%,0%);stroke-opacity:1;stroke-miterlimit:10;" d="M 328.238281 283.609375 C 326.578125 283.609375 325.238281 282.269531 325.238281 280.609375 C 325.238281 278.960938 326.578125 277.609375 328.238281 277.609375 C 329.890625 277.609375 331.238281 278.960938 331.238281 280.609375 C 331.238281 282.269531 329.890625 283.609375 328.238281 283.609375 Z M 328.238281 283.609375 " transform="matrix(1,0,0,-1,0,400)"/>
<path style="fill-rule:evenodd;fill:rgb(0%,60.559082%,97.869873%);fill-opacity:1;stroke-width:0.8;stroke-linecap:butt;stroke-linejoin:miter;stroke:rgb(0%,0%,0%);stroke-opacity:1;stroke-miterlimit:10;" d="M 377.28125 255.101562 C 375.628906 255.101562 374.28125 253.761719 374.28125 252.101562 C 374.28125 250.449219 375.628906 249.101562 377.28125 249.101562 C 378.941406 249.101562 380.28125 250.449219 380.28125 252.101562 C 380.28125 253.761719 378.941406 255.101562 377.28125 255.101562 Z M 377.28125 255.101562 " transform="matrix(1,0,0,-1,0,400)"/>
<path style="fill-rule:evenodd;fill:rgb(0%,60.559082%,97.869873%);fill-opacity:1;stroke-width:0.8;stroke-linecap:butt;stroke-linejoin:miter;stroke:rgb(0%,0%,0%);stroke-opacity:1;stroke-miterlimit:10;" d="M 426.328125 219.910156 C 424.679688 219.910156 423.328125 218.558594 423.328125 216.910156 C 423.328125 215.25 424.679688 213.910156 426.328125 213.910156 C 427.988281 213.910156 429.328125 215.25 429.328125 216.910156 C 429.328125 218.558594 427.988281 219.910156 426.328125 219.910156 Z M 426.328125 219.910156 " transform="matrix(1,0,0,-1,0,400)"/>
<path style="fill-rule:evenodd;fill:rgb(0%,60.559082%,97.869873%);fill-opacity:1;stroke-width:0.8;stroke-linecap:butt;stroke-linejoin:miter;stroke:rgb(0%,0%,0%);stroke-opacity:1;stroke-miterlimit:10;" d="M 475.378906 176.449219 C 473.71875 176.449219 472.378906 175.101562 472.378906 173.449219 C 472.378906 171.789062 473.71875 170.449219 475.378906 170.449219 C 477.039062 170.449219 478.378906 171.789062 478.378906 173.449219 C 478.378906 175.101562 477.039062 176.449219 475.378906 176.449219 Z M 475.378906 176.449219 " transform="matrix(1,0,0,-1,0,400)"/>
<path style="fill-rule:evenodd;fill:rgb(0%,60.559082%,97.869873%);fill-opacity:1;stroke-width:0.8;stroke-linecap:butt;stroke-linejoin:miter;stroke:rgb(0%,0%,0%);stroke-opacity:1;stroke-miterlimit:10;" d="M 524.429688 122.761719 C 522.769531 122.761719 521.429688 121.421875 521.429688 119.761719 C 521.429688 118.109375 522.769531 116.761719 524.429688 116.761719 C 526.078125 116.761719 527.429688 118.109375 527.429688 119.761719 C 527.429688 121.421875 526.078125 122.761719 524.429688 122.761719 Z M 524.429688 122.761719 " transform="matrix(1,0,0,-1,0,400)"/>
<path style="fill-rule:evenodd;fill:rgb(0%,60.559082%,97.869873%);fill-opacity:1;stroke-width:0.8;stroke-linecap:butt;stroke-linejoin:miter;stroke:rgb(0%,0%,0%);stroke-opacity:1;stroke-miterlimit:10;" d="M 573.46875 56.398438 C 571.820312 56.398438 570.46875 55.058594 570.46875 53.398438 C 570.46875 51.738281 571.820312 50.398438 573.46875 50.398438 C 575.128906 50.398438 576.46875 51.738281 576.46875 53.398438 C 576.46875 55.058594 575.128906 56.398438 573.46875 56.398438 Z M 573.46875 56.398438 " transform="matrix(1,0,0,-1,0,400)"/>
<path style="fill:none;stroke-width:1;stroke-linecap:butt;stroke-linejoin:miter;stroke:rgb(88.88855%,43.559265%,27.809143%);stroke-opacity:1;stroke-miterlimit:10;" d="M 83 359.910156 L 132.050781 349.789062 L 181.089844 337.570312 L 230.140625 322.308594 L 279.191406 303.429688 L 328.238281 280.710938 L 377.28125 251.871094 L 426.328125 216.390625 L 475.378906 173.679688 L 524.429688 120.308594 L 573.46875 53.761719 " transform="matrix(1,0,0,-1,0,400)"/>
<path style="fill-rule:evenodd;fill:rgb(88.88855%,43.559265%,27.809143%);fill-opacity:1;stroke-width:0.8;stroke-linecap:butt;stroke-linejoin:miter;stroke:rgb(0%,0%,0%);stroke-opacity:1;stroke-miterlimit:10;" d="M 83 362.910156 C 81.339844 362.910156 80 361.570312 80 359.910156 C 80 358.261719 81.339844 356.910156 83 356.910156 C 84.660156 356.910156 86 358.261719 86 359.910156 C 86 361.570312 84.660156 362.910156 83 362.910156 Z M 83 362.910156 " transform="matrix(1,0,0,-1,0,400)"/>
<path style="fill-rule:evenodd;fill:rgb(88.88855%,43.559265%,27.809143%);fill-opacity:1;stroke-width:0.8;stroke-linecap:butt;stroke-linejoin:miter;stroke:rgb(0%,0%,0%);stroke-opacity:1;stroke-miterlimit:10;" d="M 132.050781 352.789062 C 130.390625 352.789062 129.050781 351.449219 129.050781 349.789062 C 129.050781 348.140625 130.390625 346.789062 132.050781 346.789062 C 133.699219 346.789062 135.050781 348.140625 135.050781 349.789062 C 135.050781 351.449219 133.699219 352.789062 132.050781 352.789062 Z M 132.050781 352.789062 " transform="matrix(1,0,0,-1,0,400)"/>
<path style="fill-rule:evenodd;fill:rgb(88.88855%,43.559265%,27.809143%);fill-opacity:1;stroke-width:0.8;stroke-linecap:butt;stroke-linejoin:miter;stroke:rgb(0%,0%,0%);stroke-opacity:1;stroke-miterlimit:10;" d="M 181.089844 340.570312 C 179.441406 340.570312 178.089844 339.21875 178.089844 337.570312 C 178.089844 335.910156 179.441406 334.570312 181.089844 334.570312 C 182.75 334.570312 184.089844 335.910156 184.089844 337.570312 C 184.089844 339.21875 182.75 340.570312 181.089844 340.570312 Z M 181.089844 340.570312 " transform="matrix(1,0,0,-1,0,400)"/>
<path style="fill-rule:evenodd;fill:rgb(88.88855%,43.559265%,27.809143%);fill-opacity:1;stroke-width:0.8;stroke-linecap:butt;stroke-linejoin:miter;stroke:rgb(0%,0%,0%);stroke-opacity:1;stroke-miterlimit:10;" d="M 230.140625 325.308594 C 228.480469 325.308594 227.140625 323.96875 227.140625 322.308594 C 227.140625 320.648438 228.480469 319.308594 230.140625 319.308594 C 231.800781 319.308594 233.140625 320.648438 233.140625 322.308594 C 233.140625 323.96875 231.800781 325.308594 230.140625 325.308594 Z M 230.140625 325.308594 " transform="matrix(1,0,0,-1,0,400)"/>
<path style="fill-rule:evenodd;fill:rgb(88.88855%,43.559265%,27.809143%);fill-opacity:1;stroke-width:0.8;stroke-linecap:butt;stroke-linejoin:miter;stroke:rgb(0%,0%,0%);stroke-opacity:1;stroke-miterlimit:10;" d="M 279.191406 306.429688 C 277.53125 306.429688 276.191406 305.089844 276.191406 303.429688 C 276.191406 301.78125 277.53125 300.429688 279.191406 300.429688 C 280.851562 300.429688 282.191406 301.78125 282.191406 303.429688 C 282.191406 305.089844 280.851562 306.429688 279.191406 306.429688 Z M 279.191406 306.429688 " transform="matrix(1,0,0,-1,0,400)"/>
<path style="fill-rule:evenodd;fill:rgb(88.88855%,43.559265%,27.809143%);fill-opacity:1;stroke-width:0.8;stroke-linecap:butt;stroke-linejoin:miter;stroke:rgb(0%,0%,0%);stroke-opacity:1;stroke-miterlimit:10;" d="M 328.238281 283.710938 C 326.578125 283.710938 325.238281 282.371094 325.238281 280.710938 C 325.238281 279.050781 326.578125 277.710938 328.238281 277.710938 C 329.890625 277.710938 331.238281 279.050781 331.238281 280.710938 C 331.238281 282.371094 329.890625 283.710938 328.238281 283.710938 Z M 328.238281 283.710938 " transform="matrix(1,0,0,-1,0,400)"/>
<path style="fill-rule:evenodd;fill:rgb(88.88855%,43.559265%,27.809143%);fill-opacity:1;stroke-width:0.8;stroke-linecap:butt;stroke-linejoin:miter;stroke:rgb(0%,0%,0%);stroke-opacity:1;stroke-miterlimit:10;" d="M 377.28125 254.871094 C 375.628906 254.871094 374.28125 253.53125 374.28125 251.871094 C 374.28125 250.21875 375.628906 248.871094 377.28125 248.871094 C 378.941406 248.871094 380.28125 250.21875 380.28125 251.871094 C 380.28125 253.53125 378.941406 254.871094 377.28125 254.871094 Z M 377.28125 254.871094 " transform="matrix(1,0,0,-1,0,400)"/>
<path style="fill-rule:evenodd;fill:rgb(88.88855%,43.559265%,27.809143%);fill-opacity:1;stroke-width:0.8;stroke-linecap:butt;stroke-linejoin:miter;stroke:rgb(0%,0%,0%);stroke-opacity:1;stroke-miterlimit:10;" d="M 426.328125 219.390625 C 424.679688 219.390625 423.328125 218.050781 423.328125 216.390625 C 423.328125 214.730469 424.679688 213.390625 426.328125 213.390625 C 427.988281 213.390625 429.328125 214.730469 429.328125 216.390625 C 429.328125 218.050781 427.988281 219.390625 426.328125 219.390625 Z M 426.328125 219.390625 " transform="matrix(1,0,0,-1,0,400)"/>
<path style="fill-rule:evenodd;fill:rgb(88.88855%,43.559265%,27.809143%);fill-opacity:1;stroke-width:0.8;stroke-linecap:butt;stroke-linejoin:miter;stroke:rgb(0%,0%,0%);stroke-opacity:1;stroke-miterlimit:10;" d="M 475.378906 176.679688 C 473.71875 176.679688 472.378906 175.339844 472.378906 173.679688 C 472.378906 172.019531 473.71875 170.679688 475.378906 170.679688 C 477.039062 170.679688 478.378906 172.019531 478.378906 173.679688 C 478.378906 175.339844 477.039062 176.679688 475.378906 176.679688 Z M 475.378906 176.679688 " transform="matrix(1,0,0,-1,0,400)"/>
<path style="fill-rule:evenodd;fill:rgb(88.88855%,43.559265%,27.809143%);fill-opacity:1;stroke-width:0.8;stroke-linecap:butt;stroke-linejoin:miter;stroke:rgb(0%,0%,0%);stroke-opacity:1;stroke-miterlimit:10;" d="M 524.429688 123.308594 C 522.769531 123.308594 521.429688 121.96875 521.429688 120.308594 C 521.429688 118.648438 522.769531 117.308594 524.429688 117.308594 C 526.078125 117.308594 527.429688 118.648438 527.429688 120.308594 C 527.429688 121.96875 526.078125 123.308594 524.429688 123.308594 Z M 524.429688 123.308594 " transform="matrix(1,0,0,-1,0,400)"/>
<path style="fill-rule:evenodd;fill:rgb(88.88855%,43.559265%,27.809143%);fill-opacity:1;stroke-width:0.8;stroke-linecap:butt;stroke-linejoin:miter;stroke:rgb(0%,0%,0%);stroke-opacity:1;stroke-miterlimit:10;" d="M 573.46875 56.761719 C 571.820312 56.761719 570.46875 55.421875 570.46875 53.761719 C 570.46875 52.101562 571.820312 50.761719 573.46875 50.761719 C 575.128906 50.761719 576.46875 52.101562 576.46875 53.761719 C 576.46875 55.421875 575.128906 56.761719 573.46875 56.761719 Z M 573.46875 56.761719 " transform="matrix(1,0,0,-1,0,400)"/>
<path style=" stroke:none;fill-rule:evenodd;fill:rgb(100%,100%,100%);fill-opacity:1;" d="M 453.871094 87.058594 L 570.859375 87.058594 L 570.859375 41.699219 L 453.871094 41.699219 "/>
<path style="fill:none;stroke-width:1;stroke-linecap:butt;stroke-linejoin:miter;stroke:rgb(0%,0%,0%);stroke-opacity:1;stroke-miterlimit:10;" d="M 453.871094 312.941406 L 570.859375 312.941406 L 570.859375 358.300781 L 453.871094 358.300781 L 453.871094 312.941406 " transform="matrix(1,0,0,-1,0,400)"/>
<path style="fill:none;stroke-width:1;stroke-linecap:butt;stroke-linejoin:miter;stroke:rgb(0%,60.559082%,97.869873%);stroke-opacity:1;stroke-miterlimit:10;" d="M 459.648438 343.179688 L 494.308594 343.179688 " transform="matrix(1,0,0,-1,0,400)"/>
<path style="fill-rule:evenodd;fill:rgb(0%,60.559082%,97.869873%);fill-opacity:1;stroke-width:1.28;stroke-linecap:butt;stroke-linejoin:miter;stroke:rgb(0%,0%,0%);stroke-opacity:1;stroke-miterlimit:10;" d="M 476.980469 348.179688 C 474.21875 348.179688 471.980469 345.941406 471.980469 343.179688 C 471.980469 340.421875 474.21875 338.179688 476.980469 338.179688 C 479.738281 338.179688 481.980469 340.421875 481.980469 343.179688 C 481.980469 345.941406 479.738281 348.179688 476.980469 348.179688 Z M 476.980469 348.179688 " transform="matrix(1,0,0,-1,0,400)"/>
<path style=" stroke:none;fill-rule:evenodd;fill:rgb(0%,0%,0%);fill-opacity:1;" d="M 501.941406 52.820312 L 501.941406 54.660156 L 504.128906 54.660156 L 504.128906 55.488281 L 501.941406 55.488281 L 501.941406 59 C 501.941406 59 501.941406 59.800781 502.148438 60.019531 C 502.148438 60.019531 502.371094 60.25 503.039062 60.25 L 504.128906 60.25 L 504.128906 61.140625 L 503.039062 61.140625 C 503.039062 61.140625 501.808594 61.140625 501.339844 60.679688 C 501.339844 60.679688 500.871094 60.21875 500.871094 59 L 500.871094 55.488281 L 500.089844 55.488281 L 500.089844 54.660156 L 500.871094 54.660156 L 500.871094 52.820312 Z M 501.941406 52.820312 "/>
<path style=" stroke:none;fill-rule:evenodd;fill:rgb(0%,0%,0%);fill-opacity:1;" d="M 510.640625 57.230469 L 510.640625 61.140625 L 509.570312 61.140625 L 509.570312 57.261719 C 509.570312 57.261719 509.570312 56.339844 509.210938 55.878906 C 509.210938 55.878906 508.851562 55.429688 508.140625 55.429688 C 508.140625 55.429688 507.269531 55.429688 506.78125 55.980469 C 506.78125 55.980469 506.28125 56.53125 506.28125 57.480469 L 506.28125 61.140625 L 505.210938 61.140625 L 505.210938 52.128906 L 506.28125 52.128906 L 506.28125 55.660156 C 506.28125 55.660156 506.660156 55.078125 507.179688 54.789062 C 507.179688 54.789062 507.699219 54.5 508.371094 54.5 C 508.371094 54.5 509.488281 54.5 510.058594 55.199219 C 510.058594 55.199219 510.640625 55.878906 510.640625 57.230469 Z M 510.640625 57.230469 "/>
<path style=" stroke:none;fill-rule:evenodd;fill:rgb(0%,0%,0%);fill-opacity:1;" d="M 517.300781 57.628906 L 517.300781 58.148438 L 512.398438 58.148438 C 512.398438 58.148438 512.46875 59.25 513.058594 59.828125 C 513.058594 59.828125 513.660156 60.398438 514.71875 60.398438 C 514.71875 60.398438 515.328125 60.398438 515.898438 60.25 C 515.898438 60.25 516.480469 60.101562 517.050781 59.800781 L 517.050781 60.808594 C 517.050781 60.808594 516.480469 61.050781 515.871094 61.179688 C 515.871094 61.179688 515.269531 61.308594 514.648438 61.308594 C 514.648438 61.308594 513.101562 61.308594 512.191406 60.398438 C 512.191406 60.398438 511.289062 59.5 511.289062 57.960938 C 511.289062 57.960938 511.289062 56.371094 512.148438 55.441406 C 512.148438 55.441406 513.011719 54.5 514.46875 54.5 C 514.46875 54.5 515.78125 54.5 516.53125 55.351562 C 516.53125 55.351562 517.300781 56.191406 517.300781 57.628906 M 516.230469 57.320312 C 516.230469 57.320312 516.21875 56.449219 515.738281 55.921875 C 515.738281 55.921875 515.269531 55.398438 514.480469 55.398438 C 514.480469 55.398438 513.589844 55.398438 513.050781 55.910156 C 513.050781 55.910156 512.519531 56.410156 512.441406 57.328125 Z M 516.230469 57.320312 "/>
<path style=" stroke:none;fill-rule:evenodd;fill:rgb(0%,0%,0%);fill-opacity:1;" d="M 520.929688 55.398438 C 520.929688 55.398438 520.070312 55.398438 519.570312 56.078125 C 519.570312 56.078125 519.070312 56.738281 519.070312 57.898438 C 519.070312 57.898438 519.070312 59.070312 519.570312 59.738281 C 519.570312 59.738281 520.058594 60.398438 520.929688 60.398438 C 520.929688 60.398438 521.78125 60.398438 522.269531 59.730469 C 522.269531 59.730469 522.769531 59.058594 522.769531 57.898438 C 522.769531 57.898438 522.769531 56.75 522.269531 56.078125 C 522.269531 56.078125 521.78125 55.398438 520.929688 55.398438 M 520.929688 54.5 C 520.929688 54.5 522.308594 54.5 523.109375 55.398438 C 523.109375 55.398438 523.898438 56.308594 523.898438 57.898438 C 523.898438 57.898438 523.898438 59.5 523.109375 60.398438 C 523.109375 60.398438 522.308594 61.308594 520.929688 61.308594 C 520.929688 61.308594 519.53125 61.308594 518.738281 60.398438 C 518.738281 60.398438 517.949219 59.5 517.949219 57.898438 C 517.949219 57.898438 517.949219 56.308594 518.738281 55.398438 C 518.738281 55.398438 519.53125 54.5 520.929688 54.5 Z M 520.929688 54.5 "/>
<path style=" stroke:none;fill-rule:evenodd;fill:rgb(0%,0%,0%);fill-opacity:1;" d="M 528.769531 55.648438 C 528.769531 55.648438 528.589844 55.550781 528.378906 55.5 C 528.378906 55.5 528.171875 55.449219 527.921875 55.449219 C 527.921875 55.449219 527.011719 55.449219 526.53125 56.039062 C 526.53125 56.039062 526.050781 56.628906 526.050781 57.71875 L 526.050781 61.140625 L 524.980469 61.140625 L 524.980469 54.660156 L 526.050781 54.660156 L 526.050781 55.660156 C 526.050781 55.660156 526.378906 55.070312 526.921875 54.789062 C 526.921875 54.789062 527.460938 54.5 528.230469 54.5 C 528.230469 54.5 528.339844 54.5 528.46875 54.519531 C 528.46875 54.519531 528.609375 54.53125 528.769531 54.558594 Z M 528.769531 55.648438 "/>
<path style=" stroke:none;fill-rule:evenodd;fill:rgb(0%,0%,0%);fill-opacity:1;" d="M 535.171875 57.628906 L 535.171875 58.148438 L 530.28125 58.148438 C 530.28125 58.148438 530.351562 59.25 530.941406 59.828125 C 530.941406 59.828125 531.53125 60.398438 532.589844 60.398438 C 532.589844 60.398438 533.210938 60.398438 533.78125 60.25 C 533.78125 60.25 534.359375 60.101562 534.921875 59.800781 L 534.921875 60.808594 C 534.921875 60.808594 534.351562 61.050781 533.75 61.179688 C 533.75 61.179688 533.148438 61.308594 532.53125 61.308594 C 532.53125 61.308594 530.980469 61.308594 530.070312 60.398438 C 530.070312 60.398438 529.171875 59.5 529.171875 57.960938 C 529.171875 57.960938 529.171875 56.371094 530.019531 55.441406 C 530.019531 55.441406 530.890625 54.5 532.339844 54.5 C 532.339844 54.5 533.648438 54.5 534.410156 55.351562 C 534.410156 55.351562 535.171875 56.191406 535.171875 57.628906 M 534.109375 57.320312 C 534.109375 57.320312 534.101562 56.449219 533.621094 55.921875 C 533.621094 55.921875 533.140625 55.398438 532.359375 55.398438 C 532.359375 55.398438 531.460938 55.398438 530.929688 55.910156 C 530.929688 55.910156 530.390625 56.410156 530.308594 57.328125 Z M 534.109375 57.320312 "/>
<path style=" stroke:none;fill-rule:evenodd;fill:rgb(0%,0%,0%);fill-opacity:1;" d="M 537.339844 52.820312 L 537.339844 54.660156 L 539.539062 54.660156 L 539.539062 55.488281 L 537.339844 55.488281 L 537.339844 59 C 537.339844 59 537.339844 59.800781 537.558594 60.019531 C 537.558594 60.019531 537.78125 60.25 538.441406 60.25 L 539.539062 60.25 L 539.539062 61.140625 L 538.441406 61.140625 C 538.441406 61.140625 537.210938 61.140625 536.738281 60.679688 C 536.738281 60.679688 536.269531 60.21875 536.269531 59 L 536.269531 55.488281 L 535.488281 55.488281 L 535.488281 54.660156 L 536.269531 54.660156 L 536.269531 52.820312 Z M 537.339844 52.820312 "/>
<path style=" stroke:none;fill-rule:evenodd;fill:rgb(0%,0%,0%);fill-opacity:1;" d="M 540.648438 54.660156 L 541.71875 54.660156 L 541.71875 61.140625 L 540.648438 61.140625 L 540.648438 54.660156 M 540.648438 52.128906 L 541.71875 52.128906 L 541.71875 53.480469 L 540.648438 53.480469 Z M 540.648438 52.128906 "/>
<path style=" stroke:none;fill-rule:evenodd;fill:rgb(0%,0%,0%);fill-opacity:1;" d="M 547.5 54.910156 L 547.5 55.898438 C 547.5 55.898438 547.050781 55.648438 546.589844 55.53125 C 546.589844 55.53125 546.140625 55.398438 545.679688 55.398438 C 545.679688 55.398438 544.640625 55.398438 544.070312 56.058594 C 544.070312 56.058594 543.5 56.71875 543.5 57.898438 C 543.5 57.898438 543.5 59.089844 544.070312 59.75 C 544.070312 59.75 544.640625 60.398438 545.679688 60.398438 C 545.679688 60.398438 546.140625 60.398438 546.589844 60.28125 C 546.589844 60.28125 547.050781 60.160156 547.5 59.910156 L 547.5 60.890625 C 547.5 60.890625 547.050781 61.101562 546.570312 61.199219 C 546.570312 61.199219 546.101562 61.308594 545.558594 61.308594 C 545.558594 61.308594 544.101562 61.308594 543.230469 60.390625 C 543.230469 60.390625 542.371094 59.46875 542.371094 57.898438 C 542.371094 57.898438 542.371094 56.320312 543.238281 55.410156 C 543.238281 55.410156 544.109375 54.5 545.628906 54.5 C 545.628906 54.5 546.121094 54.5 546.589844 54.609375 C 546.589844 54.609375 547.058594 54.699219 547.5 54.910156 Z M 547.5 54.910156 "/>
<path style=" stroke:none;fill-rule:evenodd;fill:rgb(0%,0%,0%);fill-opacity:1;" d="M 551.558594 57.878906 C 551.558594 57.878906 550.269531 57.878906 549.769531 58.179688 C 549.769531 58.179688 549.28125 58.46875 549.28125 59.179688 C 549.28125 59.179688 549.28125 59.75 549.648438 60.089844 C 549.648438 60.089844 550.019531 60.421875 550.671875 60.421875 C 550.671875 60.421875 551.550781 60.421875 552.078125 59.789062 C 552.078125 59.789062 552.621094 59.160156 552.621094 58.121094 L 552.621094 57.878906 L 551.558594 57.878906 M 553.691406 57.441406 L 553.691406 61.140625 L 552.621094 61.140625 L 552.621094 60.160156 C 552.621094 60.160156 552.261719 60.75 551.710938 61.03125 C 551.710938 61.03125 551.171875 61.308594 550.378906 61.308594 C 550.378906 61.308594 549.390625 61.308594 548.800781 60.75 C 548.800781 60.75 548.210938 60.191406 548.210938 59.25 C 548.210938 59.25 548.210938 58.160156 548.941406 57.601562 C 548.941406 57.601562 549.679688 57.050781 551.128906 57.050781 L 552.621094 57.050781 L 552.621094 56.941406 C 552.621094 56.941406 552.621094 56.210938 552.140625 55.808594 C 552.140625 55.808594 551.660156 55.398438 550.78125 55.398438 C 550.78125 55.398438 550.230469 55.398438 549.699219 55.539062 C 549.699219 55.539062 549.171875 55.671875 548.691406 55.941406 L 548.691406 54.949219 C 548.691406 54.949219 549.269531 54.730469 549.820312 54.621094 C 549.820312 54.621094 550.371094 54.5 550.890625 54.5 C 550.890625 54.5 552.300781 54.5 552.988281 55.230469 C 552.988281 55.230469 553.691406 55.960938 553.691406 57.441406 Z M 553.691406 57.441406 "/>
<path style=" stroke:none;fill-rule:evenodd;fill:rgb(0%,0%,0%);fill-opacity:1;" d="M 554.800781 52.128906 L 555.871094 52.128906 L 555.871094 61.140625 L 554.800781 61.140625 Z M 554.800781 52.128906 "/>
<path style="fill:none;stroke-width:1;stroke-linecap:butt;stroke-linejoin:miter;stroke:rgb(88.88855%,43.559265%,27.809143%);stroke-opacity:1;stroke-miterlimit:10;" d="M 459.648438 328.058594 L 494.308594 328.058594 " transform="matrix(1,0,0,-1,0,400)"/>
<path style="fill-rule:evenodd;fill:rgb(88.88855%,43.559265%,27.809143%);fill-opacity:1;stroke-width:1.28;stroke-linecap:butt;stroke-linejoin:miter;stroke:rgb(0%,0%,0%);stroke-opacity:1;stroke-miterlimit:10;" d="M 476.980469 333.058594 C 474.21875 333.058594 471.980469 330.820312 471.980469 328.058594 C 471.980469 325.300781 474.21875 323.058594 476.980469 323.058594 C 479.738281 323.058594 481.980469 325.300781 481.980469 328.058594 C 481.980469 330.820312 479.738281 333.058594 476.980469 333.058594 Z M 476.980469 333.058594 " transform="matrix(1,0,0,-1,0,400)"/>
<path style=" stroke:none;fill-rule:evenodd;fill:rgb(0%,0%,0%);fill-opacity:1;" d="M 505.171875 71.019531 C 505.171875 71.019531 505.570312 70.300781 506.128906 69.960938 C 506.128906 69.960938 506.679688 69.621094 507.441406 69.621094 C 507.441406 69.621094 508.449219 69.621094 509 70.328125 C 509 70.328125 509.550781 71.039062 509.550781 72.351562 L 509.550781 76.261719 L 508.480469 76.261719 L 508.480469 72.378906 C 508.480469 72.378906 508.480469 71.449219 508.148438 71 C 508.148438 71 507.820312 70.550781 507.140625 70.550781 C 507.140625 70.550781 506.308594 70.550781 505.828125 71.101562 C 505.828125 71.101562 505.351562 71.648438 505.351562 72.601562 L 505.351562 76.261719 L 504.28125 76.261719 L 504.28125 72.378906 C 504.28125 72.378906 504.28125 71.441406 503.949219 71 C 503.949219 71 503.621094 70.550781 502.929688 70.550781 C 502.929688 70.550781 502.121094 70.550781 501.640625 71.101562 C 501.640625 71.101562 501.160156 71.648438 501.160156 72.601562 L 501.160156 76.261719 L 500.089844 76.261719 L 500.089844 69.78125 L 501.160156 69.78125 L 501.160156 70.78125 C 501.160156 70.78125 501.519531 70.191406 502.03125 69.898438 C 502.03125 69.898438 502.539062 69.621094 503.238281 69.621094 C 503.238281 69.621094 503.949219 69.621094 504.441406 69.980469 C 504.441406 69.980469 504.941406 70.339844 505.171875 71.019531 Z M 505.171875 71.019531 "/>
<path style=" stroke:none;fill-rule:evenodd;fill:rgb(0%,0%,0%);fill-opacity:1;" d="M 513.179688 70.519531 C 513.179688 70.519531 512.320312 70.519531 511.820312 71.199219 C 511.820312 71.199219 511.328125 71.859375 511.328125 73.019531 C 511.328125 73.019531 511.328125 74.191406 511.820312 74.859375 C 511.820312 74.859375 512.308594 75.519531 513.179688 75.519531 C 513.179688 75.519531 514.03125 75.519531 514.53125 74.851562 C 514.53125 74.851562 515.019531 74.179688 515.019531 73.019531 C 515.019531 73.019531 515.019531 71.871094 514.53125 71.199219 C 514.53125 71.199219 514.03125 70.519531 513.179688 70.519531 M 513.179688 69.621094 C 513.179688 69.621094 514.570312 69.621094 515.359375 70.519531 C 515.359375 70.519531 516.148438 71.429688 516.148438 73.019531 C 516.148438 73.019531 516.148438 74.621094 515.359375 75.519531 C 515.359375 75.519531 514.570312 76.429688 513.179688 76.429688 C 513.179688 76.429688 511.78125 76.429688 510.988281 75.519531 C 510.988281 75.519531 510.199219 74.621094 510.199219 73.019531 C 510.199219 73.019531 510.199219 71.429688 510.988281 70.519531 C 510.988281 70.519531 511.78125 69.621094 513.179688 69.621094 Z M 513.179688 69.621094 "/>
<path style=" stroke:none;fill-rule:evenodd;fill:rgb(0%,0%,0%);fill-opacity:1;" d="M 522.660156 72.351562 L 522.660156 76.261719 L 521.589844 76.261719 L 521.589844 72.378906 C 521.589844 72.378906 521.589844 71.460938 521.230469 71 C 521.230469 71 520.871094 70.550781 520.160156 70.550781 C 520.160156 70.550781 519.289062 70.550781 518.800781 71.101562 C 518.800781 71.101562 518.300781 71.648438 518.300781 72.601562 L 518.300781 76.261719 L 517.230469 76.261719 L 517.230469 69.78125 L 518.300781 69.78125 L 518.300781 70.78125 C 518.300781 70.78125 518.679688 70.199219 519.199219 69.910156 C 519.199219 69.910156 519.71875 69.621094 520.390625 69.621094 C 520.390625 69.621094 521.511719 69.621094 522.078125 70.320312 C 522.078125 70.320312 522.660156 71 522.660156 72.351562 Z M 522.660156 72.351562 "/>
<path style=" stroke:none;fill-rule:evenodd;fill:rgb(0%,0%,0%);fill-opacity:1;" d="M 524.828125 67.941406 L 524.828125 69.78125 L 527.019531 69.78125 L 527.019531 70.609375 L 524.828125 70.609375 L 524.828125 74.121094 C 524.828125 74.121094 524.828125 74.921875 525.039062 75.140625 C 525.039062 75.140625 525.261719 75.371094 525.929688 75.371094 L 527.019531 75.371094 L 527.019531 76.261719 L 525.929688 76.261719 C 525.929688 76.261719 524.691406 76.261719 524.21875 75.800781 C 524.21875 75.800781 523.761719 75.339844 523.761719 74.121094 L 523.761719 70.609375 L 522.96875 70.609375 L 522.96875 69.78125 L 523.761719 69.78125 L 523.761719 67.941406 Z M 524.828125 67.941406 "/>
<path style=" stroke:none;fill-rule:evenodd;fill:rgb(0%,0%,0%);fill-opacity:1;" d="M 533.679688 72.75 L 533.679688 73.269531 L 528.78125 73.269531 C 528.78125 73.269531 528.851562 74.371094 529.441406 74.949219 C 529.441406 74.949219 530.039062 75.519531 531.101562 75.519531 C 531.101562 75.519531 531.710938 75.519531 532.289062 75.371094 C 532.289062 75.371094 532.859375 75.21875 533.429688 74.921875 L 533.429688 75.929688 C 533.429688 75.929688 532.859375 76.171875 532.261719 76.300781 C 532.261719 76.300781 531.660156 76.429688 531.039062 76.429688 C 531.039062 76.429688 529.480469 76.429688 528.578125 75.519531 C 528.578125 75.519531 527.671875 74.621094 527.671875 73.078125 C 527.671875 73.078125 527.671875 71.488281 528.53125 70.558594 C 528.53125 70.558594 529.390625 69.621094 530.851562 69.621094 C 530.851562 69.621094 532.160156 69.621094 532.921875 70.46875 C 532.921875 70.46875 533.679688 71.308594 533.679688 72.75 M 532.621094 72.441406 C 532.621094 72.441406 532.601562 71.570312 532.121094 71.039062 C 532.121094 71.039062 531.648438 70.519531 530.859375 70.519531 C 530.859375 70.519531 529.96875 70.519531 529.429688 71.03125 C 529.429688 71.03125 528.898438 71.53125 528.820312 72.449219 Z M 532.621094 72.441406 "/>
<path style=" stroke:none;fill-rule:evenodd;fill:rgb(0%,0%,0%);fill-opacity:1;" d="M 539.460938 70.03125 L 539.460938 71.019531 C 539.460938 71.019531 539.011719 70.769531 538.550781 70.648438 C 538.550781 70.648438 538.101562 70.519531 537.640625 70.519531 C 537.640625 70.519531 536.601562 70.519531 536.03125 71.179688 C 536.03125 71.179688 535.460938 71.839844 535.460938 73.019531 C 535.460938 73.019531 535.460938 74.210938 536.03125 74.871094 C 536.03125 74.871094 536.601562 75.519531 537.640625 75.519531 C 537.640625 75.519531 538.101562 75.519531 538.550781 75.398438 C 538.550781 75.398438 539.011719 75.28125 539.460938 75.03125 L 539.460938 76.011719 C 539.460938 76.011719 539.019531 76.21875 538.539062 76.320312 C 538.539062 76.320312 538.058594 76.429688 537.519531 76.429688 C 537.519531 76.429688 536.058594 76.429688 535.199219 75.511719 C 535.199219 75.511719 534.328125 74.589844 534.328125 73.019531 C 534.328125 73.019531 534.328125 71.441406 535.199219 70.53125 C 535.199219 70.53125 536.078125 69.621094 537.589844 69.621094 C 537.589844 69.621094 538.078125 69.621094 538.550781 69.730469 C 538.550781 69.730469 539.019531 69.820312 539.460938 70.03125 Z M 539.460938 70.03125 "/>
<path style=" stroke:none;fill-rule:evenodd;fill:rgb(0%,0%,0%);fill-opacity:1;" d="M 543.519531 73 C 543.519531 73 542.230469 73 541.738281 73.300781 C 541.738281 73.300781 541.238281 73.589844 541.238281 74.300781 C 541.238281 74.300781 541.238281 74.871094 541.609375 75.210938 C 541.609375 75.210938 541.980469 75.539062 542.628906 75.539062 C 542.628906 75.539062 543.511719 75.539062 544.050781 74.910156 C 544.050781 74.910156 544.578125 74.28125 544.578125 73.238281 L 544.578125 73 L 543.519531 73 M 545.648438 72.558594 L 545.648438 76.261719 L 544.578125 76.261719 L 544.578125 75.28125 C 544.578125 75.28125 544.21875 75.871094 543.671875 76.148438 C 543.671875 76.148438 543.128906 76.429688 542.339844 76.429688 C 542.339844 76.429688 541.351562 76.429688 540.761719 75.871094 C 540.761719 75.871094 540.171875 75.308594 540.171875 74.371094 C 540.171875 74.371094 540.171875 73.28125 540.898438 72.71875 C 540.898438 72.71875 541.640625 72.171875 543.089844 72.171875 L 544.578125 72.171875 L 544.578125 72.058594 C 544.578125 72.058594 544.578125 71.328125 544.101562 70.929688 C 544.101562 70.929688 543.621094 70.519531 542.738281 70.519531 C 542.738281 70.519531 542.191406 70.519531 541.660156 70.660156 C 541.660156 70.660156 541.128906 70.789062 540.648438 71.058594 L 540.648438 70.070312 C 540.648438 70.070312 541.230469 69.851562 541.78125 69.738281 C 541.78125 69.738281 542.328125 69.621094 542.851562 69.621094 C 542.851562 69.621094 544.261719 69.621094 544.949219 70.351562 C 544.949219 70.351562 545.648438 71.078125 545.648438 72.558594 Z M 545.648438 72.558594 "/>
<path style=" stroke:none;fill-rule:evenodd;fill:rgb(0%,0%,0%);fill-opacity:1;" d="M 550.519531 70.769531 C 550.519531 70.769531 550.339844 70.671875 550.128906 70.621094 C 550.128906 70.621094 549.921875 70.570312 549.660156 70.570312 C 549.660156 70.570312 548.761719 70.570312 548.28125 71.160156 C 548.28125 71.160156 547.800781 71.75 547.800781 72.839844 L 547.800781 76.261719 L 546.71875 76.261719 L 546.71875 69.78125 L 547.800781 69.78125 L 547.800781 70.78125 C 547.800781 70.78125 548.128906 70.191406 548.671875 69.910156 C 548.671875 69.910156 549.210938 69.621094 549.980469 69.621094 C 549.980469 69.621094 550.089844 69.621094 550.21875 69.640625 C 550.21875 69.640625 550.351562 69.648438 550.511719 69.679688 Z M 550.519531 70.769531 "/>
<path style=" stroke:none;fill-rule:evenodd;fill:rgb(0%,0%,0%);fill-opacity:1;" d="M 551.640625 67.25 L 552.699219 67.25 L 552.699219 76.261719 L 551.640625 76.261719 Z M 551.640625 67.25 "/>
<path style=" stroke:none;fill-rule:evenodd;fill:rgb(0%,0%,0%);fill-opacity:1;" d="M 556.328125 70.519531 C 556.328125 70.519531 555.46875 70.519531 554.980469 71.199219 C 554.980469 71.199219 554.480469 71.859375 554.480469 73.019531 C 554.480469 73.019531 554.480469 74.191406 554.96875 74.859375 C 554.96875 74.859375 555.46875 75.519531 556.328125 75.519531 C 556.328125 75.519531 557.179688 75.519531 557.679688 74.851562 C 557.679688 74.851562 558.179688 74.179688 558.179688 73.019531 C 558.179688 73.019531 558.179688 71.871094 557.679688 71.199219 C 557.679688 71.199219 557.179688 70.519531 556.328125 70.519531 M 556.328125 69.621094 C 556.328125 69.621094 557.71875 69.621094 558.511719 70.519531 C 558.511719 70.519531 559.308594 71.429688 559.308594 73.019531 C 559.308594 73.019531 559.308594 74.621094 558.511719 75.519531 C 558.511719 75.519531 557.71875 76.429688 556.328125 76.429688 C 556.328125 76.429688 554.941406 76.429688 554.140625 75.519531 C 554.140625 75.519531 553.359375 74.621094 553.359375 73.019531 C 553.359375 73.019531 553.359375 71.429688 554.140625 70.519531 C 554.140625 70.519531 554.941406 69.621094 556.328125 69.621094 Z M 556.328125 69.621094 "/>
</g>
</svg>
